<?xml version="1.0" encoding="utf-8"?>
<!-- Generator: Adobe Illustrator 19.0.0, SVG Export Plug-In . SVG Version: 6.00 Build 0)  -->
<svg version="1.1" id="Camada_1" xmlns="http://www.w3.org/2000/svg" xmlns:xlink="http://www.w3.org/1999/xlink" x="0px" y="0px"
	 width="14400px" height="14400px" viewBox="0 0 14400 14400" enable-background="new 0 0 14400 14400" xml:space="preserve">
<path id="XMLID_69_" fill="none" stroke="#000000" stroke-miterlimit="10" d="M6254.2,6459.866c-0.148,0-0.297-0.014-0.441-0.04
	c-0.232-0.042-0.456-0.119-0.663-0.227l0,0c-0.259-0.135-0.488-0.314-0.679-0.535l-0.003-0.003
	c-0.181-0.209-0.323-0.448-0.421-0.708c-0.06-0.159-0.104-0.328-0.128-0.5c-0.014-0.091-0.033-0.273-0.018-0.5
	c-0.021-0.191-0.018-0.386,0.009-0.577c0.044-0.304,0.146-0.591,0.303-0.856c0.081-0.137,0.178-0.268,0.287-0.389l0.001-0.002
	c0.06-0.066,0.125-0.132,0.193-0.194c0.113-0.103,0.235-0.195,0.363-0.274c0.147-0.091,0.306-0.168,0.471-0.227
	c0.174-0.062,0.356-0.104,0.54-0.125l0,0c0.092-0.011,0.187-0.016,0.28-0.016c0.06,0,0.121,0.002,0.181,0.007h0.003
	c0.04,0.003,0.081,0.007,0.122,0.012c0.031-0.004,0.063-0.007,0.094-0.009c0.057-0.004,0.117-0.006,0.176-0.006
	c0.278,0,0.549,0.049,0.808,0.145c0.297,0.111,0.563,0.279,0.792,0.499c0.093,0.09,0.18,0.187,0.257,0.288l0.002,0.003
	c0.11,0.144,0.203,0.3,0.276,0.462l0,0c0.113,0.249,0.181,0.512,0.203,0.783c0,0.001,0,0.002,0,0.004
	c0.025,0.104,0.043,0.209,0.054,0.316c0.031,0.315-0.002,0.629-0.098,0.933l-0.002,0.006c-0.056,0.174-0.132,0.343-0.228,0.503
	c-0.053,0.09-0.114,0.179-0.18,0.264c-0.16,0.206-0.352,0.384-0.57,0.527c-0.194,0.127-0.405,0.224-0.627,0.29
	c-0.172,0.051-0.352,0.083-0.535,0.094l-0.006,0c-0.052,0.003-0.104,0.005-0.157,0.005c-0.049,0-0.1-0.001-0.149-0.004
	c-0.037,0.007-0.073,0.014-0.109,0.019l-0.006,0.001c-0.106,0.016-0.212,0.026-0.316,0.029
	C6254.252,6459.866,6254.226,6459.866,6254.2,6459.866z"/>
</svg>
