<?xml version="1.0" encoding="utf-8"?>
<!-- Generator: Adobe Illustrator 19.0.0, SVG Export Plug-In . SVG Version: 6.00 Build 0)  -->
<svg version="1.1" id="Camada_1" xmlns="http://www.w3.org/2000/svg" xmlns:xlink="http://www.w3.org/1999/xlink" x="0px" y="0px"
	 width="1920px" height="1080px" viewBox="0 0 1920 1080" enable-background="new 0 0 1920 1080" xml:space="preserve">
<path id="XMLID_2_" fill="none" stroke="#000000" stroke-miterlimit="10" d="M27.667-332.333c7.094,0.338,15.185-1.408,23.925-4.234
	c6.446-2.084,13.246-4.756,20.26-7.612c6.511-2.651,13.206-5.461,19.975-8.108c7.023-2.746,14.125-5.315,21.182-7.348
	c7.393-2.13,14.736-3.671,21.885-4.208c8.453-0.636,16.635,0.132,24.31,2.986c5.952,2.214,11.599,5.683,16.831,10.726
	c5.742,5.536,10.538,10.915,14.517,16.138c4.804,6.306,8.415,12.381,11.06,18.225c3.627,8.013,5.436,15.588,6.01,22.719
	c0.589,7.316-0.124,14.164-1.507,20.534c-1.803,8.299-4.746,15.789-7.439,22.45c-3.507,8.678-6.589,15.95-6.17,21.776
	c0.53,7.362,2.998,13.988,6.449,20.296c3.478,6.357,7.954,12.391,12.449,18.528c4.418,6.033,8.854,12.165,12.377,18.802
	c3.485,6.566,6.078,13.627,6.877,21.574c0.714,7.103-0.005,14.914-2.799,23.714c-2.057,6.477-5.238,13.49-9.8,21.151
	c-3.337,5.603-7.412,11.553-12.327,17.892c-5.024,6.481-10.712,11.646-16.917,15.714c-6.189,4.057-12.893,7.021-19.964,9.107
	c-7.409,2.186-15.223,3.409-23.271,3.915c-6.714,0.423-13.593,0.347-20.537-0.083c-7.911-0.49-15.907-1.44-23.845-2.637
	c-7.237-1.092-14.426-2.389-21.456-3.731c-7.456-1.423-14.735-2.897-21.704-4.228c-8.019-1.532-15.63-2.875-22.633-3.738
	c-5.159-0.635-9.988-1.01-14.408-1.006c-4.738,0.004-9.006,0.443-12.705,1.46C5.765-70.866,2.992-70.029,0-69.081
	c-4.405,1.395-9.284,3.03-14.54,4.804c-5.959,2.011-12.402,4.201-19.188,6.422c-6.26,2.049-12.811,4.124-19.543,6.11
	c-7.403,2.184-15.024,4.26-22.717,6.075c-7.268,1.715-14.6,3.195-21.87,4.313c-7.607,1.169-15.148,1.94-22.478,2.165
	c-8.401,0.257-16.527-0.204-24.162-1.606c-7.253-1.333-14.062-3.515-20.246-6.739c-6.131-3.197-11.645-7.418-16.365-12.85
	c-4.593-5.287-8.433-11.722-11.353-19.477c-2.205-5.854-3.886-12.461-4.971-19.894c-0.223-1.526-0.355-18.792,1.352-24.697
	c1.998-6.91,5.265-12.781,9.035-17.994c4.89-6.762,10.624-12.418,15.531-17.8c6.441-7.065,11.453-13.658,11.25-21.663
	c-0.185-7.293-1.997-13.985-4.762-20.309c-2.729-6.242-6.386-12.124-10.322-17.871c-4.052-5.916-8.4-11.688-12.337-17.56
	c-4.153-6.195-7.848-12.502-10.254-19.206c-2.472-6.888-3.582-14.197-2.43-22.235c0.974-6.795,3.565-14.112,8.317-22.139
	c3.507-5.923,8.19-12.232,14.269-19.003c4.393-4.893,9.516-10.027,15.449-15.431c5.895-5.369,11.88-9.877,17.916-13.626
	c6.827-4.24,13.72-7.51,20.624-9.956c7.768-2.752,15.551-4.462,23.269-5.34c7.549-0.858,15.037-0.919,22.39-0.38
	c7.483,0.548,14.827,1.718,21.954,3.303c7.398,1.645,14.563,3.736,21.409,6.043c7.842,2.642,15.264,5.567,22.138,8.427
	c8.03,3.34,15.311,6.591,21.637,9.197C16.806-334.784,23.156-332.549,27.667-332.333z"/>
</svg>
