<?xml version="1.0" encoding="utf-8"?>
<!-- Generator: Adobe Illustrator 19.0.0, SVG Export Plug-In . SVG Version: 6.00 Build 0)  -->
<svg version="1.1" id="Layer_1" xmlns="http://www.w3.org/2000/svg" xmlns:xlink="http://www.w3.org/1999/xlink" x="0px" y="0px"
	 width="291.59px" height="316.593px" viewBox="0 0 291.59 316.593" enable-background="new 0 0 291.59 316.593"
	 xml:space="preserve">
<path d="M273.911,292.852c-0.434,0.091-0.867,0.181-1.299,0.27c-0.432,0.089-0.863,0.177-1.293,0.264
	c-0.43,0.087-0.859,0.173-1.287,0.258c-0.428,0.085-0.855,0.169-1.281,0.252c-0.426,0.083-0.851,0.165-1.275,0.245
	s-0.847,0.16-1.268,0.239s-0.842,0.156-1.261,0.232c-0.419,0.076-0.837,0.151-1.254,0.225s-0.833,0.146-1.247,0.218
	c-0.415,0.071-0.828,0.142-1.24,0.211c-0.412,0.069-0.823,0.137-1.233,0.203c-0.41,0.066-0.818,0.132-1.225,0.195
	s-0.813,0.126-1.217,0.188s-0.807,0.121-1.209,0.18c-0.402,0.059-0.802,0.116-1.201,0.172s-0.797,0.11-1.193,0.163
	c-0.396,0.053-0.791,0.105-1.184,0.155c-0.393,0.05-0.785,0.099-1.176,0.146c-0.39,0.047-0.779,0.093-1.167,0.137
	c-0.387,0.044-0.773,0.087-1.158,0.128c-0.384,0.041-0.767,0.081-1.148,0.119s-0.761,0.075-1.139,0.109
	c-0.378,0.035-0.755,0.068-1.129,0.1c-0.375,0.032-0.748,0.062-1.12,0.09c-0.372,0.028-0.741,0.055-1.11,0.08
	c-0.368,0.025-0.735,0.048-1.1,0.07c-0.365,0.022-0.728,0.042-1.089,0.06c-0.361,0.018-0.721,0.035-1.079,0.049
	c-0.358,0.015-0.714,0.028-1.068,0.039c-0.354,0.011-0.707,0.02-1.057,0.028c-0.351,0.007-0.699,0.013-1.046,0.017
	c-0.347,0.004-0.692,0.006-1.035,0.006c-0.973,0-1.931-0.02-2.874-0.06c-0.943-0.04-1.87-0.099-2.782-0.179
	c-0.912-0.079-1.809-0.179-2.691-0.298s-1.748-0.258-2.6-0.417c-0.851-0.159-1.687-0.338-2.508-0.537
	c-0.821-0.199-1.626-0.417-2.417-0.656c-0.79-0.239-1.565-0.497-2.325-0.775c-0.76-0.278-1.505-0.576-2.234-0.894
	c-0.729-0.318-1.444-0.656-2.143-1.014c-0.699-0.358-1.383-0.735-2.051-1.133c-0.669-0.397-1.322-0.815-1.96-1.252
	c-0.638-0.437-1.261-0.894-1.869-1.371s-1.2-0.974-1.777-1.491c-0.577-0.517-1.139-1.053-1.686-1.61s-1.078-1.133-1.595-1.729
	s-1.018-1.212-1.504-1.848s-0.957-1.292-1.412-1.967s-0.896-1.371-1.321-2.087c-0.425-0.715-0.835-1.451-1.23-2.206
	s-0.774-1.53-1.139-2.325s-0.714-1.61-1.048-2.444s-0.653-1.689-0.956-2.563c-0.304-0.874-0.592-1.768-0.865-2.683
	c-0.273-0.914-0.531-1.848-0.774-2.802c-0.243-0.954-0.471-1.927-0.683-2.921c-0.212-0.993-0.41-2.007-0.592-3.04
	c-0.182-1.033-0.349-2.086-0.501-3.159c-0.152-1.073-0.288-2.166-0.41-3.278c-0.121-1.113-0.228-2.245-0.319-3.398
	s-0.167-2.325-0.228-3.517c-0.061-1.192-0.106-2.404-0.137-3.636c-0.03-1.232-0.046-2.483-0.046-3.755v-3.293v-3.293v-3.293v-3.293
	v-3.293v-3.293V213.6v-3.293v-3.293v-3.293v-3.293v-3.293v-3.293v-3.293v-3.293v-3.293v-3.293v-3.293v-3.293v-3.293v-3.293V164.2
	v-3.293v-3.293v-3.293v-3.293v-3.293v-3.293v-3.293v-3.293v-3.293v-3.293h-0.576h-0.576h-0.576h-0.576h-0.576h-0.576h-0.576h-0.576
	h-0.576h-0.576h-0.576h-0.576h-0.576h-0.576h-0.576h-0.576h-0.576h-0.576h-0.576h-0.576h-0.576h-0.576h-0.576h-0.576h-0.576h-0.576
	h-0.576h-0.576h-0.576h-0.576h-0.576h-0.576l-0.086-0.326l-0.086-0.326l-0.086-0.326l-0.086-0.326l-0.086-0.326l-0.086-0.326
	l-0.086-0.326l-0.086-0.326l-0.086-0.326l-0.086-0.326l-0.086-0.326l-0.086-0.326l-0.086-0.326l-0.086-0.326l-0.086-0.326
	l-0.086-0.326l-0.086-0.326l-0.086-0.326l-0.086-0.326l-0.086-0.326l-0.086-0.326l-0.086-0.326l-0.086-0.326l-0.086-0.326
	l-0.086-0.326l-0.086-0.326l-0.086-0.326l-0.086-0.326l-0.086-0.326l-0.086-0.326l-0.086-0.326l-0.086-0.326l0.73-0.277l0.73-0.277
	l0.73-0.277l0.73-0.277l0.73-0.277l0.73-0.277l0.73-0.277l0.73-0.277l0.73-0.277l0.73-0.277l0.73-0.277l0.73-0.277l0.73-0.277
	l0.73-0.277l0.73-0.277l0.73-0.277l0.73-0.277l0.73-0.277l0.73-0.277l0.73-0.277l0.73-0.277l0.73-0.277l0.73-0.277l0.73-0.277
	l0.73-0.277l0.73-0.277l0.73-0.277l0.73-0.277l0.73-0.277l0.73-0.277l0.73-0.277l0.73-0.277l0.372-1.412l0.372-1.412l0.372-1.412
	l0.372-1.412l0.372-1.412l0.372-1.412l0.372-1.412l0.372-1.412l0.372-1.412l0.372-1.412l0.372-1.412l0.372-1.412l0.372-1.412
	l0.372-1.412l0.372-1.412l0.372-1.412l0.372-1.412l0.372-1.412l0.372-1.412l0.372-1.412l0.372-1.412l0.372-1.412l0.372-1.412
	l0.372-1.412l0.372-1.412l0.372-1.412l0.372-1.412l0.372-1.412l0.372-1.412l0.372-1.412l0.372-1.412l0.372-1.412h0.007h0.007h0.007
	h0.007h0.007h0.007h0.007h0.007h0.007h0.007h0.007h0.007h0.007h0.007h0.007h0.007h0.007h0.007h0.007h0.007h0.007h0.007h0.007h0.007
	h0.007h0.007h0.007h0.007h0.007h0.007h0.007h0.007c-0.16-0.458-0.329-0.911-0.509-1.359c-0.18-0.448-0.369-0.891-0.569-1.329
	c-0.2-0.438-0.409-0.871-0.628-1.299c-0.219-0.428-0.447-0.851-0.685-1.268c-0.238-0.418-0.485-0.83-0.741-1.237
	c-0.256-0.407-0.521-0.808-0.795-1.204c-0.274-0.396-0.557-0.786-0.848-1.17s-0.591-0.763-0.9-1.135
	c-0.308-0.373-0.625-0.739-0.95-1.1c-0.325-0.361-0.658-0.715-0.999-1.063c-0.341-0.348-0.69-0.69-1.046-1.026
	c-0.357-0.336-0.721-0.665-1.093-0.988s-0.751-0.639-1.137-0.948c-0.386-0.31-0.78-0.612-1.181-0.908
	c-0.401-0.296-0.808-0.585-1.223-0.867c-0.414-0.282-0.835-0.557-1.263-0.825c-0.428-0.268-0.862-0.529-1.302-0.782
	c-0.44-0.254-0.887-0.5-1.34-0.739c-0.453-0.239-0.912-0.47-1.376-0.694c-0.465-0.224-0.935-0.44-1.411-0.648
	s-0.958-0.409-1.445-0.602c-0.487-0.193-0.98-0.377-1.477-0.554s-1-0.345-1.508-0.506c-0.508-0.16-1.02-0.313-1.538-0.456
	c-0.517-0.144-1.039-0.279-1.566-0.406c-0.526-0.127-1.057-0.245-1.592-0.355c-0.535-0.11-1.074-0.211-1.618-0.303
	c-0.543-0.092-1.09-0.175-1.641-0.25c-0.551-0.074-1.106-0.14-1.664-0.196c-0.558-0.056-1.12-0.103-1.685-0.141
	c-0.565-0.038-1.133-0.066-1.705-0.085c-0.571-0.019-1.146-0.029-1.723-0.029c-0.756,0-1.504,0.017-2.244,0.051
	c-0.74,0.034-1.472,0.085-2.196,0.152s-1.439,0.151-2.146,0.251c-0.707,0.1-1.405,0.217-2.095,0.349
	c-0.69,0.133-1.371,0.281-2.043,0.446c-0.672,0.165-1.335,0.345-1.989,0.541c-0.654,0.196-1.298,0.408-1.933,0.635
	s-1.261,0.469-1.876,0.727c-0.616,0.258-1.222,0.53-1.818,0.818c-0.596,0.288-1.182,0.59-1.758,0.907
	c-0.576,0.317-1.142,0.649-1.697,0.995c-0.555,0.346-1.1,0.707-1.635,1.081s-1.058,0.764-1.571,1.166
	c-0.513,0.403-1.015,0.819-1.505,1.25c-0.491,0.43-0.97,0.874-1.439,1.332s-0.925,0.928-1.37,1.413
	c-0.445,0.484-0.879,0.981-1.301,1.492s-0.832,1.034-1.23,1.569c-0.398,0.536-0.784,1.085-1.157,1.646s-0.735,1.135-1.083,1.721
	c-0.349,0.586-0.684,1.184-1.008,1.794c-0.323,0.61-0.634,1.232-0.931,1.866c-0.297,0.634-0.582,1.279-0.853,1.936
	c-0.271,0.657-0.529,1.326-0.773,2.005c-0.244,0.68-0.475,1.371-0.692,2.073c-0.217,0.702-0.42,1.415-0.609,2.139
	c-0.189,0.724-0.364,1.459-0.525,2.204c-0.161,0.745-0.308,1.501-0.44,2.267c-0.132,0.766-0.25,1.542-0.353,2.329
	c-0.103,0.786-0.192,1.583-0.265,2.389c-0.074,0.806-0.132,1.622-0.176,2.448c-0.043,0.826-0.072,1.661-0.084,2.506
	c0,0.552,0.009,1.103,0.025,1.653c0.017,0.55,0.042,1.1,0.076,1.648c0.034,0.548,0.075,1.095,0.125,1.641s0.108,1.09,0.174,1.632
	s0.14,1.083,0.222,1.622c0.082,0.539,0.172,1.076,0.27,1.611c0.098,0.535,0.203,1.067,0.316,1.598
	c0.113,0.53,0.234,1.058,0.362,1.583s0.264,1.048,0.407,1.567s0.294,1.036,0.451,1.549c0.158,0.513,0.323,1.024,0.495,1.53
	c0.172,0.507,0.351,1.01,0.538,1.51c0.186,0.5,0.38,0.996,0.58,1.488c0.2,0.492,0.407,0.98,0.621,1.464s0.434,0.963,0.661,1.439
	c0.227,0.475,0.461,0.946,0.701,1.412c0.24,0.466,0.487,0.927,0.74,1.384c0.253,0.456,0.513,0.908,0.778,1.354
	c0.266,0.446,0.538,0.887,0.816,1.323c0.278,0.436,0.562,0.866,0.852,1.29c0.29,0.424,0.586,0.843,0.888,1.256
	c0.302,0.413,0.61,0.819,0.923,1.22c0.314,0.4,0.633,0.795,0.958,1.182s0.655,0.769,0.991,1.144
	c0.336,0.375,0.677,0.742,1.024,1.103c0.347,0.361,0.699,0.715,1.056,1.061s0.72,0.686,1.088,1.018
	c0.368,0.332,0.741,0.656,1.118,0.973c0.378,0.317,0.761,0.626,1.148,0.927c0.388,0.301,0.78,0.594,1.177,0.879
	c0.397,0.285,0.799,0.561,1.206,0.829c0.407,0.268,0.818,0.527,1.233,0.778l-0.03-0.005l-0.03-0.005l-0.03-0.005l-0.03-0.005
	l-0.03-0.005l-0.03-0.005l-0.03-0.005l-0.03-0.005l-0.03-0.005l-0.03-0.005l-0.03-0.005l-0.03-0.005l-0.03-0.005l-0.03-0.005
	l-0.03-0.005l-0.03-0.005l-0.03-0.005l-0.03-0.005l-0.03-0.005l-0.03-0.005l-0.03-0.005l-0.03-0.005l-0.03-0.005l-0.03-0.005
	l-0.03-0.005l-0.03-0.005l-0.03-0.005l-0.03-0.005l-0.03-0.005l-0.03-0.005l-0.03-0.005l-0.03-0.005l0.035,0.015l0.035,0.015
	l0.035,0.015l0.035,0.015l0.035,0.015l0.035,0.015l0.035,0.015l0.035,0.015l0.035,0.015l0.035,0.015l0.035,0.015l0.035,0.015
	l0.035,0.015l0.035,0.015l0.035,0.015l0.035,0.015l0.035,0.015l0.035,0.015l0.035,0.015l0.035,0.015l0.035,0.015l0.035,0.015
	l0.035,0.015l0.035,0.015l0.035,0.015l0.035,0.015l0.035,0.015l0.035,0.015l0.035,0.015l0.035,0.015l0.035,0.015l0.035,0.015
	l-0.464,1.171l-0.464,1.171l-0.464,1.171l-0.464,1.171l-0.464,1.171l-0.464,1.171l-0.464,1.171l-0.464,1.171l-0.464,1.171
	l-0.464,1.171l-0.464,1.171l-0.464,1.171l-0.464,1.171l-0.464,1.171L139,147.308l-0.464,1.171l-0.464,1.171l-0.464,1.171
	l-0.464,1.171l-0.464,1.171l-0.464,1.171l-0.464,1.171l-0.464,1.171l-0.464,1.171l-0.464,1.171l-0.464,1.171l-0.464,1.171
	l-0.464,1.171l-0.464,1.171l-0.464,1.171l-0.464,1.171l-0.464,1.171l-0.475-0.183l-0.475-0.183l-0.475-0.183l-0.475-0.183
	l-0.475-0.183l-0.475-0.183l-0.475-0.183l-0.475-0.183l-0.475-0.183l-0.475-0.183l-0.475-0.183l-0.475-0.183l-0.475-0.183
	l-0.475-0.183l-0.475-0.183l-0.475-0.183l-0.475-0.183l-0.475-0.183l-0.475-0.183l-0.475-0.183l-0.475-0.183l-0.475-0.183
	l-0.475-0.183l-0.475-0.183l-0.475-0.183l-0.475-0.183l-0.475-0.183l-0.475-0.183l-0.475-0.183l-0.475-0.183l-0.475-0.183
	l-0.475-0.183v-0.832v-0.832v-0.832v-0.832v-0.832v-0.832v-0.832v-0.832v-0.832v-0.832v-0.832v-0.832v-0.832v-0.832v-0.832v-0.832
	v-0.832v-0.832v-0.832v-0.832v-0.832v-0.832v-0.832v-0.832v-0.832v-0.832v-0.832v-0.832v-0.832v-0.832v-0.832v-0.832
	c-0.273-0.113-0.545-0.225-0.818-0.334c-0.273-0.11-0.545-0.218-0.818-0.325c-0.273-0.107-0.545-0.212-0.817-0.315
	c-0.272-0.103-0.545-0.205-0.817-0.306s-0.545-0.199-0.817-0.296s-0.545-0.192-0.817-0.286c-0.272-0.094-0.545-0.186-0.817-0.276
	c-0.272-0.09-0.545-0.179-0.817-0.266c-0.272-0.087-0.545-0.172-0.817-0.256c-0.272-0.084-0.545-0.166-0.817-0.246
	c-0.272-0.08-0.545-0.159-0.817-0.236c-0.272-0.077-0.545-0.152-0.817-0.226c-0.272-0.073-0.545-0.145-0.817-0.215
	c-0.272-0.07-0.545-0.138-0.817-0.205c-0.272-0.067-0.545-0.131-0.817-0.194c-0.272-0.063-0.545-0.124-0.817-0.184
	c-0.272-0.06-0.545-0.117-0.817-0.173s-0.545-0.11-0.817-0.163s-0.545-0.103-0.817-0.152c-0.272-0.049-0.545-0.096-0.817-0.141
	s-0.545-0.089-0.817-0.13c-0.272-0.042-0.545-0.081-0.817-0.119c-0.272-0.038-0.545-0.074-0.817-0.108
	c-0.272-0.034-0.545-0.067-0.817-0.097s-0.545-0.059-0.818-0.086s-0.545-0.052-0.818-0.075s-0.545-0.044-0.818-0.063
	c-0.273-0.019-0.545-0.037-0.818-0.052c-0.273-0.015-0.545-0.029-0.818-0.041c-0.273-0.012-0.545-0.021-0.818-0.029
	c-0.273-0.008-0.545-0.014-0.818-0.017s-0.545-0.006-0.818-0.006c-0.602,0-1.195,0.01-1.779,0.031
	c-0.584,0.021-1.158,0.052-1.723,0.093c-0.565,0.041-1.121,0.092-1.668,0.153c-0.547,0.061-1.084,0.132-1.612,0.213
	c-0.528,0.081-1.047,0.171-1.556,0.272c-0.509,0.1-1.009,0.21-1.5,0.329c-0.491,0.119-0.972,0.248-1.444,0.386
	c-0.472,0.138-0.935,0.285-1.388,0.441c-0.453,0.156-0.897,0.321-1.332,0.496s-0.86,0.357-1.276,0.549
	c-0.416,0.192-0.822,0.392-1.219,0.601s-0.785,0.427-1.163,0.653s-0.747,0.46-1.107,0.703c-0.36,0.243-0.71,0.493-1.05,0.752
	c-0.341,0.259-0.672,0.526-0.994,0.801c-0.322,0.275-0.634,0.558-0.938,0.848s-0.597,0.589-0.881,0.894
	c-0.284,0.306-0.559,0.619-0.825,0.939c-0.265,0.321-0.521,0.648-0.768,0.983c-0.247,0.335-0.484,0.677-0.711,1.027
	c-0.228,0.349-0.446,0.706-0.655,1.069c-0.209,0.363-0.408,0.733-0.598,1.11c-0.19,0.377-0.37,0.76-0.541,1.15
	c-0.171,0.39-0.333,0.786-0.485,1.189s-0.295,0.812-0.428,1.227c-0.133,0.415-0.257,0.837-0.371,1.264s-0.219,0.861-0.314,1.3
	c-0.095,0.439-0.181,0.884-0.257,1.335c-0.076,0.451-0.143,0.907-0.2,1.369c-0.057,0.462-0.105,0.929-0.143,1.401
	c-0.038,0.473-0.067,0.95-0.086,1.433c-0.019,0.483-0.029,0.971-0.029,1.464c0,0.523,0.021,1.041,0.061,1.553s0.101,1.02,0.18,1.522
	c0.079,0.502,0.178,1,0.295,1.492s0.253,0.98,0.406,1.463c0.153,0.483,0.325,0.961,0.513,1.434c0.188,0.474,0.394,0.943,0.616,1.407
	c0.222,0.465,0.46,0.925,0.715,1.381c0.254,0.456,0.524,0.908,0.809,1.356s0.585,0.892,0.9,1.332
	c0.315,0.44,0.644,0.876,0.987,1.309s0.7,0.861,1.069,1.287c0.37,0.425,0.753,0.847,1.148,1.266s0.803,0.834,1.222,1.246
	c0.419,0.412,0.85,0.821,1.292,1.227c0.442,0.406,0.895,0.809,1.359,1.209c0.463,0.4,0.937,0.797,1.421,1.192
	c0.484,0.395,0.977,0.786,1.479,1.176c0.502,0.389,1.013,0.776,1.533,1.161c0.52,0.385,1.047,0.767,1.583,1.147
	c0.535,0.38,1.079,0.758,1.629,1.134s1.107,0.75,1.671,1.122c0.563,0.372,1.133,0.743,1.708,1.112
	c0.575,0.369,1.156,0.736,1.742,1.102c0.586,0.366,1.177,0.73,1.772,1.093c0.595,0.363,1.194,0.725,1.797,1.085
	s1.209,0.72,1.819,1.079c0.609,0.359,1.222,0.716,1.836,1.073c0.614,0.357,1.231,0.713,1.849,1.068
	c0.618,0.356,1.238,0.71,1.859,1.065c0.621,0.354,1.242,0.709,1.864,1.062c0.622,0.354,1.244,0.707,1.865,1.061
	s1.242,0.707,1.862,1.06c0.709,0.416,1.421,0.831,2.133,1.247c0.713,0.416,1.427,0.833,2.141,1.251s1.43,0.837,2.145,1.258
	c0.715,0.421,1.429,0.843,2.143,1.268c0.713,0.425,1.426,0.851,2.136,1.281c0.71,0.43,1.419,0.862,2.124,1.297
	c0.705,0.436,1.408,0.874,2.107,1.317c0.699,0.443,1.394,0.889,2.085,1.34c0.691,0.451,1.377,0.906,2.059,1.366
	s1.357,0.925,2.027,1.395c0.67,0.47,1.334,0.946,1.99,1.428c0.657,0.482,1.307,0.969,1.949,1.464
	c0.642,0.494,1.276,0.995,1.902,1.502c0.626,0.508,1.243,1.022,1.85,1.545c0.608,0.522,1.206,1.052,1.794,1.59
	s1.166,1.084,1.732,1.639s1.122,1.118,1.666,1.69c0.544,0.572,1.075,1.154,1.594,1.746c0.519,0.591,1.025,1.192,1.518,1.804
	s0.972,1.233,1.437,1.865c0.465,0.632,0.915,1.276,1.35,1.93s0.855,1.32,1.259,1.998c0.404,0.678,0.792,1.367,1.163,2.069
	c0.371,0.702,0.725,1.416,1.061,2.143s0.655,1.467,0.955,2.221c0.3,0.754,0.582,1.521,0.844,2.302
	c0.262,0.781,0.505,1.576,0.728,2.386c0.223,0.81,0.425,1.634,0.607,2.473c0.181,0.839,0.342,1.694,0.48,2.563
	c0.139,0.87,0.255,1.755,0.349,2.657c0.094,0.902,0.165,1.82,0.213,2.754c0.048,0.935,0.072,1.886,0.072,2.854
	c0,0.848-0.022,1.687-0.065,2.517c-0.043,0.83-0.107,1.651-0.192,2.462c-0.085,0.811-0.191,1.613-0.316,2.406
	c-0.126,0.792-0.272,1.575-0.437,2.348c-0.166,0.773-0.351,1.536-0.555,2.288s-0.428,1.495-0.67,2.227
	c-0.242,0.732-0.503,1.453-0.781,2.164c-0.279,0.711-0.575,1.411-0.889,2.099c-0.314,0.689-0.646,1.367-0.994,2.033
	c-0.349,0.667-0.714,1.322-1.096,1.965s-0.781,1.276-1.195,1.896c-0.414,0.62-0.845,1.228-1.29,1.825
	c-0.446,0.596-0.907,1.18-1.383,1.752c-0.476,0.572-0.967,1.131-1.472,1.677c-0.505,0.546-1.024,1.08-1.558,1.601
	c-0.533,0.521-1.08,1.029-1.64,1.523s-1.134,0.976-1.72,1.444c-0.586,0.468-1.185,0.922-1.796,1.363
	c-0.611,0.44-1.234,0.867-1.869,1.28c-0.635,0.413-1.281,0.811-1.939,1.195c-0.658,0.384-1.326,0.754-2.006,1.109
	c-0.679,0.355-1.369,0.696-2.069,1.021c-0.7,0.326-1.41,0.636-2.13,0.932c-0.72,0.296-1.449,0.576-2.187,0.841
	s-1.485,0.514-2.241,0.748c-0.756,0.234-1.52,0.452-2.291,0.654s-1.552,0.388-2.339,0.558s-1.582,0.323-2.383,0.46
	c-0.801,0.137-1.61,0.257-2.424,0.361c-0.815,0.103-1.636,0.19-2.462,0.26c-0.827,0.07-1.659,0.122-2.497,0.157
	c-0.838,0.035-1.681,0.053-2.529,0.053c-0.717,0-1.439-0.006-2.166-0.018s-1.459-0.03-2.196-0.054s-1.479-0.053-2.225-0.089
	s-1.497-0.077-2.252-0.124c-0.755-0.047-1.514-0.1-2.277-0.158c-0.763-0.058-1.53-0.123-2.301-0.192s-1.545-0.145-2.323-0.226
	c-0.778-0.081-1.559-0.168-2.343-0.26s-1.571-0.19-2.361-0.293s-1.583-0.212-2.378-0.326c-0.795-0.114-1.593-0.233-2.393-0.358
	s-1.602-0.255-2.406-0.39c-0.804-0.135-1.61-0.276-2.418-0.422c-0.808-0.146-1.617-0.297-2.428-0.453s-1.623-0.318-2.436-0.484
	c-0.813-0.166-1.627-0.338-2.442-0.515s-1.631-0.358-2.447-0.545c-0.816-0.187-1.633-0.378-2.45-0.575
	c-0.817-0.197-1.634-0.398-2.451-0.604c-0.817-0.206-1.634-0.418-2.451-0.634s-1.633-0.437-2.449-0.663
	c-0.816-0.226-1.631-0.456-2.445-0.691c-0.814-0.235-1.627-0.475-2.44-0.719s-1.623-0.493-2.432-0.747
	c-0.809-0.254-1.617-0.512-2.423-0.774c-0.806-0.263-1.61-0.53-2.413-0.802c-0.802-0.272-1.602-0.548-2.4-0.828
	c-0.798-0.281-1.593-0.565-2.386-0.855c-0.793-0.289-1.583-0.583-2.37-0.881c-0.787-0.298-1.572-0.6-2.353-0.906
	s-1.559-0.617-2.333-0.932c-0.774-0.315-1.545-0.634-2.312-0.957l0.464-1.171l0.464-1.171l0.464-1.171l0.464-1.171l0.464-1.171
	l0.464-1.171l0.464-1.171l0.464-1.171l0.464-1.171l0.464-1.171l0.464-1.171l0.464-1.171l0.464-1.171l0.464-1.171l0.464-1.171
	l0.464-1.171l0.464-1.171l0.464-1.171l0.464-1.171l0.464-1.171l0.464-1.171l0.464-1.171l0.464-1.171l0.464-1.171l0.464-1.171
	l0.464-1.171l0.464-1.171l0.464-1.171l0.464-1.171l0.464-1.171l0.464-1.171l0.464-1.171l0.475,0.165l0.475,0.165l0.475,0.165
	l0.475,0.165l0.475,0.165l0.475,0.165l0.475,0.165l0.475,0.165l0.475,0.165l0.475,0.165l0.475,0.165l0.475,0.165l0.475,0.165
	l0.475,0.165l0.475,0.165l0.475,0.165l0.475,0.165l0.475,0.165l0.475,0.165l0.475,0.165l0.475,0.165l0.475,0.165l0.475,0.165
	l0.475,0.165l0.475,0.165l0.475,0.165l0.475,0.165l0.475,0.165l0.475,0.165l0.475,0.165l0.475,0.165l0.475,0.165v0.851v0.851v0.851
	v0.851v0.851v0.851v0.851v0.851v0.851v0.851v0.851v0.851v0.851v0.851v0.851v0.851v0.851v0.851v0.851v0.851v0.851v0.851v0.851v0.851
	v0.851v0.851v0.851v0.851v0.851v0.851v0.851v0.851c0.232,0.091,0.47,0.182,0.713,0.273s0.492,0.182,0.746,0.273
	c0.254,0.091,0.513,0.182,0.776,0.273c0.264,0.091,0.532,0.181,0.806,0.272c0.273,0.09,0.551,0.18,0.834,0.27
	c0.282,0.09,0.569,0.179,0.86,0.268c0.291,0.089,0.586,0.177,0.884,0.265c0.299,0.088,0.601,0.175,0.907,0.262
	s0.616,0.173,0.929,0.258c0.313,0.085,0.629,0.17,0.949,0.253c0.319,0.084,0.642,0.166,0.967,0.248
	c0.325,0.082,0.654,0.163,0.984,0.243c0.331,0.08,0.664,0.159,1,0.237s0.673,0.154,1.013,0.23c0.34,0.075,0.682,0.15,1.025,0.222
	c0.344,0.073,0.689,0.144,1.036,0.214c0.347,0.07,0.695,0.139,1.045,0.206c0.35,0.067,0.701,0.133,1.053,0.197
	c0.352,0.064,0.705,0.126,1.059,0.187c0.354,0.061,0.708,0.12,1.063,0.177c0.355,0.057,0.71,0.113,1.066,0.166
	c0.356,0.053,0.711,0.105,1.067,0.155c0.356,0.05,0.711,0.097,1.067,0.143s0.71,0.089,1.065,0.13
	c0.355,0.041,0.708,0.08,1.062,0.117s0.705,0.071,1.057,0.103s0.701,0.062,1.05,0.089c0.349,0.027,0.696,0.052,1.042,0.074
	s0.69,0.042,1.032,0.059s0.683,0.031,1.021,0.043s0.675,0.02,1.008,0.026s0.665,0.009,0.994,0.009c0.647,0,1.284-0.01,1.909-0.029
	c0.626-0.019,1.241-0.048,1.846-0.087c0.605-0.038,1.199-0.086,1.782-0.143s1.156-0.123,1.718-0.198s1.114-0.159,1.655-0.252
	c0.541-0.093,1.072-0.195,1.592-0.305c0.52-0.111,1.03-0.23,1.529-0.357c0.499-0.128,0.988-0.264,1.467-0.408
	s0.947-0.297,1.404-0.458c0.458-0.161,0.905-0.33,1.342-0.507c0.437-0.177,0.864-0.362,1.28-0.554s0.823-0.393,1.218-0.601
	c0.396-0.208,0.782-0.423,1.157-0.646c0.375-0.223,0.741-0.453,1.096-0.69c0.355-0.237,0.7-0.482,1.035-0.733
	c0.335-0.251,0.659-0.51,0.974-0.775s0.619-0.537,0.913-0.816c0.294-0.279,0.578-0.564,0.853-0.856
	c0.274-0.292,0.538-0.59,0.792-0.895s0.498-0.615,0.732-0.932s0.458-0.64,0.672-0.969c0.214-0.329,0.418-0.664,0.613-1.004
	c0.194-0.34,0.379-0.687,0.553-1.038c0.175-0.352,0.339-0.709,0.494-1.071c0.155-0.363,0.3-0.73,0.435-1.103
	c0.135-0.373,0.261-0.751,0.377-1.134c0.116-0.383,0.222-0.771,0.318-1.164s0.183-0.791,0.26-1.193s0.144-0.809,0.202-1.221
	c0.058-0.411,0.105-0.827,0.144-1.247s0.067-0.844,0.086-1.273c0.019-0.428,0.029-0.861,0.029-1.297
	c0-0.584-0.022-1.161-0.066-1.732c-0.044-0.571-0.109-1.136-0.195-1.694s-0.193-1.111-0.319-1.658s-0.273-1.088-0.439-1.624
	c-0.166-0.536-0.351-1.066-0.555-1.59c-0.204-0.525-0.426-1.044-0.666-1.558s-0.498-1.023-0.773-1.527
	c-0.275-0.504-0.567-1.003-0.875-1.498c-0.308-0.495-0.632-0.984-0.972-1.47s-0.695-0.966-1.065-1.443s-0.755-0.949-1.154-1.418
	s-0.812-0.933-1.238-1.393c-0.426-0.461-0.866-0.917-1.318-1.371c-0.452-0.453-0.917-0.903-1.393-1.349
	c-0.476-0.446-0.965-0.889-1.464-1.329s-1.01-0.876-1.53-1.31c-0.521-0.434-1.051-0.864-1.592-1.292
	c-0.54-0.428-1.09-0.853-1.649-1.276s-1.126-0.843-1.702-1.261c-0.576-0.418-1.159-0.834-1.75-1.248
	c-0.591-0.414-1.189-0.826-1.794-1.235c-0.605-0.41-1.216-0.818-1.834-1.225s-1.24-0.811-1.869-1.215s-1.261-0.806-1.899-1.207
	c-0.638-0.401-1.279-0.801-1.925-1.2s-1.295-0.797-1.946-1.194c-0.652-0.397-1.307-0.794-1.963-1.19
	c-0.657-0.396-1.316-0.791-1.976-1.186c-0.66-0.395-1.322-0.79-1.984-1.185c-0.662-0.395-1.325-0.789-1.988-1.184
	c-0.663-0.395-1.325-0.79-1.987-1.185c-0.662-0.395-1.322-0.791-1.981-1.188c-0.687-0.42-1.374-0.841-2.061-1.263
	c-0.687-0.422-1.374-0.846-2.061-1.27s-1.372-0.851-2.056-1.28c-0.684-0.428-1.367-0.859-2.047-1.292s-1.359-0.868-2.034-1.306
	c-0.675-0.438-1.348-0.879-2.017-1.323c-0.669-0.444-1.334-0.891-1.995-1.341c-0.661-0.451-1.318-0.905-1.969-1.363
	c-0.652-0.458-1.298-0.92-1.939-1.386c-0.641-0.466-1.276-0.937-1.904-1.412c-0.629-0.475-1.251-0.955-1.866-1.441
	c-0.615-0.485-1.223-0.975-1.823-1.471s-1.192-0.997-1.775-1.504c-0.583-0.507-1.158-1.02-1.724-1.54
	c-0.566-0.519-1.122-1.045-1.668-1.578c-0.546-0.532-1.082-1.071-1.608-1.618c-0.526-0.546-1.04-1.099-1.544-1.66
	c-0.503-0.561-0.995-1.129-1.475-1.705c-0.48-0.576-0.947-1.16-1.402-1.752s-0.897-1.193-1.325-1.802s-0.843-1.227-1.243-1.854
	c-0.4-0.627-0.787-1.263-1.158-1.908s-0.727-1.3-1.068-1.964c-0.34-0.665-0.665-1.339-0.973-2.023
	c-0.308-0.685-0.6-1.379-0.875-2.085c-0.275-0.705-0.532-1.421-0.772-2.149c-0.24-0.727-0.462-1.465-0.665-2.215
	c-0.203-0.749-0.388-1.51-0.554-2.283c-0.166-0.773-0.312-1.557-0.438-2.354s-0.233-1.605-0.318-2.427
	c-0.086-0.821-0.151-1.655-0.194-2.502c-0.044-0.847-0.066-1.707-0.066-2.58c0-0.878,0.025-1.746,0.074-2.603
	s0.122-1.704,0.219-2.539s0.217-1.661,0.36-2.475c0.143-0.814,0.309-1.617,0.496-2.409c0.188-0.792,0.397-1.572,0.628-2.341
	c0.231-0.769,0.483-1.527,0.756-2.273c0.273-0.746,0.566-1.48,0.879-2.203c0.313-0.723,0.646-1.433,0.998-2.132
	s0.723-1.385,1.113-2.06s0.797-1.336,1.223-1.986c0.425-0.65,0.868-1.287,1.328-1.911s0.937-1.236,1.43-1.835
	c0.493-0.599,1.002-1.185,1.527-1.758c0.525-0.573,1.065-1.133,1.619-1.679c0.555-0.547,1.124-1.08,1.708-1.6
	c0.583-0.52,1.181-1.026,1.791-1.519c0.611-0.493,1.235-0.971,1.871-1.436c0.636-0.465,1.285-0.916,1.946-1.353
	s1.333-0.86,2.017-1.268c0.684-0.408,1.378-0.802,2.083-1.182c0.705-0.379,1.42-0.744,2.145-1.094s1.459-0.685,2.203-1.006
	s1.496-0.626,2.256-0.916c0.76-0.29,1.529-0.565,2.305-0.825s1.559-0.504,2.349-0.733s1.587-0.442,2.389-0.639
	s1.611-0.379,2.425-0.544c0.814-0.165,1.633-0.315,2.456-0.448c0.824-0.133,1.652-0.25,2.483-0.351s1.667-0.185,2.506-0.252
	c0.839-0.067,1.68-0.118,2.524-0.152c0.844-0.034,1.69-0.051,2.538-0.051c0.359,0,0.719,0.002,1.081,0.006
	c0.362,0.004,0.724,0.01,1.088,0.019s0.729,0.018,1.096,0.031c0.366,0.012,0.734,0.027,1.103,0.043
	c0.369,0.016,0.739,0.035,1.11,0.055s0.744,0.043,1.118,0.067c0.374,0.024,0.749,0.051,1.125,0.079
	c0.376,0.028,0.753,0.059,1.132,0.091s0.758,0.067,1.139,0.103c0.381,0.036,0.763,0.075,1.146,0.115
	c0.383,0.04,0.767,0.083,1.153,0.127c0.385,0.044,0.772,0.091,1.16,0.139s0.776,0.098,1.166,0.151
	c0.39,0.052,0.781,0.106,1.173,0.162s0.785,0.114,1.18,0.174c0.394,0.06,0.79,0.122,1.186,0.186s0.794,0.13,1.193,0.197
	c0.399,0.068,0.799,0.137,1.199,0.209s0.803,0.145,1.206,0.22c0.403,0.075,0.807,0.152,1.212,0.232s0.811,0.16,1.218,0.243
	c0.407,0.083,0.815,0.168,1.225,0.254c0.409,0.087,0.819,0.175,1.231,0.265c0.411,0.09,0.824,0.183,1.237,0.277
	s0.828,0.19,1.243,0.288c0.415,0.098,0.832,0.197,1.249,0.299c0.417,0.101,0.835,0.205,1.255,0.31
	c0.419,0.105,0.839,0.212,1.261,0.321c0.421,0.109,0.843,0.219,1.266,0.332c0.423,0.112,0.847,0.227,1.272,0.343
	c0.425,0.116,0.851,0.234,1.278,0.354c0.427,0.12,0.855,0.241,1.283,0.364c-0.195-0.33-0.388-0.663-0.579-0.997
	c-0.191-0.334-0.379-0.67-0.565-1.007c-0.186-0.337-0.37-0.677-0.551-1.017c-0.181-0.341-0.36-0.683-0.537-1.026
	c-0.177-0.343-0.351-0.688-0.522-1.034c-0.172-0.346-0.341-0.693-0.508-1.041c-0.167-0.348-0.331-0.698-0.492-1.048
	s-0.321-0.701-0.477-1.053c-0.156-0.352-0.31-0.705-0.461-1.058s-0.299-0.707-0.445-1.062s-0.288-0.709-0.428-1.064
	c-0.14-0.355-0.277-0.711-0.412-1.066c-0.134-0.356-0.266-0.712-0.395-1.067c-0.129-0.356-0.254-0.712-0.377-1.068
	c-0.123-0.356-0.243-0.712-0.359-1.067c-0.117-0.355-0.231-0.711-0.341-1.065s-0.219-0.709-0.323-1.063
	c-0.105-0.354-0.206-0.707-0.305-1.06c-0.098-0.353-0.194-0.704-0.286-1.055s-0.181-0.701-0.266-1.05
	c-0.086-0.349-0.168-0.697-0.247-1.045c-0.079-0.347-0.155-0.693-0.227-1.038c-0.072-0.345-0.141-0.688-0.207-1.03
	s-0.128-0.683-0.186-1.021c-0.059-0.339-0.114-0.676-0.166-1.012s-0.1-0.67-0.145-1.002c-0.045-0.332-0.086-0.662-0.123-0.991
	c-0.037-0.328-0.071-0.654-0.101-0.979s-0.057-0.646-0.079-0.966s-0.042-0.637-0.057-0.952c-0.015-0.315-0.027-0.627-0.035-0.937
	c-0.008-0.31-0.012-0.617-0.012-0.922c0-1.059,0.022-2.108,0.067-3.145c0.044-1.037,0.111-2.063,0.199-3.077
	c0.088-1.014,0.198-2.017,0.329-3.008c0.131-0.991,0.283-1.969,0.457-2.936c0.173-0.966,0.368-1.921,0.582-2.862
	c0.215-0.941,0.45-1.87,0.706-2.786c0.256-0.916,0.532-1.819,0.827-2.708c0.296-0.889,0.611-1.765,0.947-2.628
	c0.335-0.862,0.69-1.711,1.064-2.545c0.374-0.834,0.767-1.655,1.179-2.461c0.412-0.806,0.843-1.597,1.292-2.374
	c0.449-0.777,0.917-1.539,1.402-2.285c0.486-0.747,0.99-1.478,1.511-2.195c0.522-0.716,1.061-1.417,1.618-2.102
	c0.557-0.685,1.131-1.354,1.722-2.007s1.199-1.289,1.824-1.909s1.266-1.224,1.924-1.81c0.658-0.587,1.332-1.156,2.022-1.709
	s1.396-1.088,2.118-1.605c0.722-0.518,1.459-1.018,2.212-1.5c0.753-0.482,1.52-0.946,2.303-1.392
	c0.783-0.446,1.58-0.873,2.393-1.282c0.812-0.409,1.639-0.799,2.48-1.17s1.696-0.723,2.565-1.056s1.752-0.646,2.648-0.939
	s1.806-0.567,2.729-0.821c0.923-0.254,1.859-0.487,2.807-0.701c0.949-0.213,1.91-0.406,2.884-0.578
	c0.974-0.172,1.96-0.323,2.958-0.453s2.009-0.239,3.031-0.326c1.022-0.087,2.056-0.153,3.101-0.197
	c1.045-0.044,2.102-0.066,3.169-0.066c0.834,0,1.663,0.014,2.487,0.043c0.824,0.028,1.643,0.071,2.457,0.127
	c0.814,0.056,1.622,0.127,2.424,0.211c0.802,0.084,1.599,0.182,2.39,0.293c0.791,0.111,1.575,0.236,2.353,0.373
	c0.778,0.138,1.55,0.289,2.315,0.453c0.765,0.164,1.523,0.341,2.274,0.53c0.751,0.19,1.495,0.392,2.232,0.607
	c0.737,0.215,1.466,0.442,2.188,0.682c0.722,0.24,1.436,0.492,2.142,0.756c0.706,0.264,1.404,0.54,2.093,0.828
	s1.371,0.588,2.043,0.899c0.673,0.311,1.336,0.634,1.991,0.969c0.655,0.334,1.301,0.68,1.937,1.037s1.264,0.725,1.881,1.104
	s1.225,0.769,1.823,1.17c0.598,0.401,1.186,0.812,1.763,1.234c0.578,0.422,1.145,0.854,1.701,1.297s1.103,0.895,1.637,1.358
	s1.059,0.936,1.572,1.419c0.513,0.483,1.014,0.975,1.504,1.477c0.49,0.502,0.968,1.014,1.434,1.535s0.921,1.051,1.363,1.591
	c0.442,0.539,0.872,1.088,1.289,1.645c0.417,0.557,0.822,1.124,1.213,1.699s0.77,1.159,1.136,1.751s0.718,1.193,1.056,1.801
	c0.339,0.609,0.664,1.226,0.975,1.851s0.608,1.258,0.891,1.898c0.283,0.641,0.552,1.289,0.806,1.945
	c0.254,0.656,0.494,1.319,0.719,1.99c0.225,0.671,0.435,1.349,0.629,2.034h0.331h0.331h0.331h0.331h0.331h0.331h0.331h0.331h0.331
	h0.331h0.331h0.331h0.331h0.331h0.331h0.331h0.331h0.331h0.331h0.331h0.331h0.331h0.331h0.331h0.331h0.331h0.331h0.331h0.331h0.331
	h0.331h0.331v1.609v1.609v1.609v1.609v1.609v1.609v1.609v1.609v1.609v1.609v1.609v1.609v1.609v1.609v1.609v1.609v1.609v1.609v1.609
	v1.609v1.609v1.609v1.609v1.609v1.609v1.609v1.609v1.609v1.609v1.609v1.609v1.609h1.004h1.004h1.004h1.004h1.004h1.004h1.004h1.004
	h1.004h1.004h1.004h1.004h1.004h1.004h1.004h1.004h1.004h1.004h1.004h1.004h1.004h1.004h1.004h1.004h1.004h1.004h1.004h1.004h1.004
	h1.004h1.004h1.004v0.407v0.407v0.407v0.407v0.407v0.407v0.407v0.407v0.407v0.407v0.407v0.407v0.407v0.407v0.407v0.407v0.407v0.407
	v0.407v0.407v0.407v0.407v0.407v0.407v0.407v0.407v0.407v0.407v0.407v0.407v0.407v0.407h-1.004h-1.004h-1.004h-1.004h-1.004h-1.004
	h-1.004h-1.004h-1.004h-1.004h-1.004h-1.004h-1.004h-1.004h-1.004h-1.004h-1.004h-1.004h-1.004h-1.004h-1.004h-1.004h-1.004h-1.004
	h-1.004h-1.004h-1.004h-1.004h-1.004h-1.004h-1.004h-1.004l0.01,3.424l0.01,3.424l0.01,3.424l0.01,3.424l0.01,3.424l0.01,3.424
	l0.01,3.424l0.01,3.424l0.01,3.424l0.01,3.424l0.01,3.424l0.01,3.424l0.01,3.424l0.01,3.424l0.01,3.424l0.01,3.424l0.01,3.424
	l0.01,3.424l0.01,3.424l0.01,3.424l0.01,3.424l0.01,3.424l0.01,3.424l0.01,3.424l0.01,3.424l0.01,3.424l0.01,3.424l0.01,3.424
	l0.01,3.424l0.01,3.424l0.01,3.424l0.01,3.424c0,0.929,0.01,1.842,0.03,2.738c0.02,0.896,0.05,1.776,0.089,2.64
	c0.039,0.864,0.088,1.711,0.147,2.542c0.058,0.831,0.126,1.646,0.203,2.446s0.163,1.582,0.257,2.35
	c0.095,0.767,0.198,1.519,0.31,2.255c0.112,0.736,0.233,1.456,0.362,2.16c0.129,0.704,0.266,1.393,0.412,2.067
	c0.145,0.673,0.299,1.331,0.46,1.974c0.161,0.642,0.33,1.27,0.507,1.881c0.177,0.612,0.361,1.208,0.553,1.79
	c0.192,0.581,0.391,1.148,0.597,1.699s0.419,1.088,0.639,1.609c0.22,0.521,0.447,1.028,0.68,1.52
	c0.233,0.492,0.473,0.969,0.72,1.431s0.499,0.91,0.758,1.343c0.259,0.433,0.524,0.852,0.794,1.256s0.547,0.794,0.829,1.17
	c0.282,0.376,0.57,0.737,0.863,1.084c0.293,0.347,0.591,0.68,0.895,0.999c0.303,0.319,0.612,0.624,0.925,0.915
	c0.313,0.291,0.631,0.568,0.954,0.832c0.323,0.263,0.65,0.513,0.981,0.749c0.332,0.236,0.667,0.458,1.007,0.667
	c0.34,0.209,0.684,0.404,1.032,0.586c0.348,0.182,0.7,0.35,1.055,0.505c0.355,0.155,0.714,0.297,1.076,0.426
	c0.362,0.129,0.728,0.244,1.096,0.347c0.369,0.102,0.74,0.192,1.115,0.268c0.374,0.076,0.752,0.14,1.132,0.191
	c0.38,0.051,0.762,0.089,1.147,0.114c0.385,0.025,0.772,0.038,1.161,0.038c0.223,0,0.442-0.001,0.66-0.002
	c0.217-0.001,0.432-0.003,0.644-0.005c0.212-0.002,0.422-0.005,0.63-0.008c0.208-0.003,0.413-0.007,0.616-0.012
	s0.404-0.01,0.603-0.016c0.199-0.006,0.396-0.012,0.591-0.019s0.389-0.015,0.58-0.023s0.382-0.017,0.57-0.027
	c0.188-0.01,0.375-0.02,0.561-0.031c0.186-0.011,0.37-0.023,0.553-0.035c0.183-0.012,0.365-0.026,0.545-0.039
	c0.181-0.014,0.36-0.028,0.539-0.044c0.179-0.015,0.356-0.031,0.533-0.048c0.177-0.017,0.353-0.034,0.529-0.053
	c0.176-0.018,0.35-0.037,0.525-0.057c0.174-0.02,0.348-0.04,0.522-0.062c0.174-0.021,0.347-0.043,0.52-0.066
	s0.346-0.047,0.519-0.071c0.173-0.025,0.346-0.05,0.519-0.076c0.173-0.026,0.346-0.053,0.52-0.081
	c0.173-0.028,0.347-0.057,0.521-0.086s0.349-0.06,0.524-0.091c0.175-0.031,0.351-0.064,0.527-0.097s0.354-0.067,0.532-0.102
	c0.178-0.035,0.357-0.071,0.537-0.108c0.18-0.037,0.361-0.074,0.543-0.113c0.182-0.039,0.366-0.078,0.55-0.119
	c0.185-0.041,0.371-0.082,0.558-0.125c0.188-0.042,0.377-0.086,0.567-0.13c0.191-0.044,0.383-0.09,0.577-0.136
	c0.194-0.046,0.39-0.094,0.588-0.142c0.198-0.048,0.398-0.098,0.599-0.148l0.094,0.362l0.094,0.362l0.094,0.362l0.094,0.362
	l0.094,0.362l0.094,0.362l0.094,0.362l0.094,0.362l0.094,0.362l0.094,0.362l0.094,0.362l0.094,0.362l0.094,0.362l0.094,0.362
	l0.094,0.362l0.094,0.362l0.094,0.362l0.094,0.362l0.094,0.362l0.094,0.362l0.094,0.362l0.094,0.362l0.094,0.362l0.094,0.362
	l0.094,0.362l0.094,0.362l0.094,0.362l0.094,0.362l0.094,0.362l0.094,0.362l0.094,0.362L273.911,292.852z"/>
</svg>
