<?xml version="1.0" encoding="utf-8"?>
<!-- Generator: Adobe Illustrator 19.0.0, SVG Export Plug-In . SVG Version: 6.00 Build 0)  -->
<svg version="1.1" id="Camada_1" xmlns="http://www.w3.org/2000/svg" xmlns:xlink="http://www.w3.org/1999/xlink" x="0px" y="0px"
	 width="1920px" height="1080px" viewBox="0 0 1920 1080" enable-background="new 0 0 1920 1080" xml:space="preserve">
<path id="XMLID_101_" fill="#654E28" d="M2-22.153c0,0.007,0.01,0.014,0.018,0.022s0.015,0.015,0.008,0.022
	c-0.007,0.007-0.007,0.015-0.005,0.022c0.002,0.008,0.005,0.015,0.005,0.023c0,0.008,0,0.015-0.002,0.023
	c-0.002,0.008-0.005,0.016-0.011,0.023s-0.01,0.016-0.011,0.024C2-21.987,2-21.979,2-21.971s0,0.016,0,0.024s0,0.016,0,0.025
	s0,0.016,0,0.025s0,0.017,0,0.025c0,0.008,0,0.017,0,0.025s0,0.017,0,0.026c0,0.009,0,0.017,0,0.026s0,0.017,0,0.026
	c0,0.009,0,0.018,0,0.026c0,0.009,0,0.018,0,0.027s0,0.018,0,0.027s0,0.018,0,0.027s0,0.018,0,0.027s0,0.018,0,0.028
	c0,0.009,0,0.019,0,0.028s0,0.019,0,0.028s0.003,0.019,0.008,0.028c0.005,0.009,0.011,0.019,0.018,0.028
	c0.007,0.01,0.013,0.019,0.018,0.029s0.008,0.019,0.008,0.029s0.002,0.019,0.004,0.029c0.003,0.01,0.006,0.019,0.009,0.029
	c0.003,0.01,0.007,0.02,0.009,0.029c0.003,0.01,0.004,0.02,0.004,0.03s0.001,0.02,0.003,0.03c0.001,0.01,0.003,0.02,0.005,0.03
	c0.002,0.01,0.004,0.02,0.005,0.03c0.001,0.01,0.002,0.02,0.003,0.03c0,0.01,0.001,0.02,0.002,0.03
	c0.001,0.01,0.002,0.02,0.003,0.031c0.001,0.01,0.002,0.02,0.003,0.031s0.001,0.02,0.002,0.031c0,0.01,0.001,0.021,0.001,0.031
	c0.001,0.01,0.001,0.021,0.002,0.031c0.001,0.01,0.001,0.021,0.002,0.031c0.001,0.01,0.001,0.021,0.001,0.031
	c0,0.01,0.001,0.021,0.001,0.031c0,0.01,0.001,0.021,0.001,0.031c0,0.01-0.057,0.021-0.056,0.032C2.057-20.848,2-20.837,2-20.827
	s0,0.021,0,0.032s0,0.021,0,0.032c0,0.011,0,0.021,0,0.032S2-20.71,2-20.7s0,0.021,0,0.032s0,0.021,0,0.032c0,0.011,0,0.021,0,0.032
	c0,0.011,0,0.021,0,0.032s0,0.021,0,0.032s0,0.021,0,0.032c0,0.011,0,0.022,0,0.032c0,0.011,0,0.022,0,0.032
	c0,0.011,0,0.022,0,0.032c0,0.011,0,0.022,0,0.032s0,0.022,0,0.032s0,0.022,0,0.032s0,0.022,0,0.032c0,0.011,0,0.022,0,0.032
	s0,0.022,0,0.032c0,0.011,0,0.022,0,0.032c0,0.011,0,0.022,0,0.032s0,0.022,0,0.032s0,0.022,0,0.032s0,0.021,0,0.032
	c0,0.011,0,0.021,0,0.032c0,0.011,0,0.021,0,0.032s0,0.021,0,0.032c0,0.011,0,0.021,0,0.032c0,0.011,0,0.021,0,0.032
	c0,0.011,0,0.021,0,0.032c0,0.011,0,0.021,0,0.032c0,0.011,0,0.021,0,0.032s0,0.021,0,0.032s0,0.021,0,0.032s0,0.021,0,0.031
	s0,0.021,0,0.031s0,0.021,0,0.031c0,0.01,0,0.021,0,0.031s0,0.021,0,0.031c0,0.01,0,0.021,0,0.031s0,0.021,0,0.031s0,0.02,0,0.031
	s0,0.02,0,0.031c0,0.01,0,0.02,0,0.03s0,0.02,0,0.03s0,0.02,0,0.03s0,0.02,0,0.03s0,0.02,0,0.03c0,0.01,0,0.02,0,0.03
	s0,0.02,0,0.029s0,0.02,0,0.029c0,0.01,0,0.019,0,0.029c0,0.01,0,0.019,0,0.029s0,0.019,0,0.029c0,0.01,0,0.019,0,0.028
	c0,0.009,0,0.019,0,0.028s0.082,0.019,0.08,0.028c-0.002,0.009,0.036,0.019,0.032,0.028C2.109-19.01,2.125-19,2.12-18.991
	c-0.005,0.009,0,0.018-0.005,0.027c-0.005,0.009-0.005,0.018-0.01,0.027C2.1-18.928,2.098-18.919,2.094-18.91
	c-0.004,0.009-0.006,0.018-0.008,0.027c-0.002,0.009-0.003,0.018-0.003,0.026c0,0.009-0.001,0.017-0.003,0.026
	c-0.002,0.009-0.005,0.017-0.009,0.026c-0.004,0.009-0.008,0.017-0.013,0.026s-0.01,0.017-0.015,0.025
	c-0.005,0.008-0.011,0.017-0.016,0.025c-0.005,0.008-0.01,0.017-0.014,0.025c-0.004,0.008-0.007,0.016-0.01,0.025S2-18.663,2-18.655
	s0,0.016,0,0.024c0,0.008,0,0.016,0,0.024c0,0.008,0,0.016,0,0.023c0,0.008,0,0.015,0,0.023s0,0.015,0,0.023
	c0,0.008,0,0.015,0,0.022c0,0.007,0,0.015,0,0.022c0,0.007,0,0.015,0,0.022c0,0.011,0.001,0.021,0.004,0.032s0.006,0.022,0.01,0.032
	c0.004,0.011,0.009,0.022,0.014,0.033s0.01,0.022,0.016,0.033c0.005,0.011,0.011,0.023,0.016,0.034s0.01,0.023,0.013,0.034
	c0.004,0.012,0.007,0.023,0.009,0.035s0.003,0.023,0.003,0.035c0,0.012,0,0.024,0.001,0.036c0.001,0.012,0.003,0.024,0.004,0.036
	c0.002,0.012,0.004,0.024,0.006,0.037c0.002,0.012,0.005,0.025,0.007,0.037c0.002,0.012,0.005,0.025,0.007,0.037
	s0.004,0.025,0.006,0.038c0.002,0.013-0.058,0.025-0.057,0.038C2.061-17.932,2-17.919,2-17.906s0,0.026,0,0.039
	s0.062,0.026,0.063,0.039c0.001,0.013,0.032,0.026,0.033,0.04s0.017,0.027,0.018,0.04s-0.007,0.027-0.023,0.04
	s-0.028,0.027-0.028,0.041c0.001,0.014-0.014,0.027-0.031,0.041C2.015-17.613,2-17.599,2-17.585s0,0.028,0,0.042s0,0.028,0,0.042
	s0,0.028,0,0.042c0,0.014,0,0.028,0,0.042s0,0.028,0,0.043s0,0.029,0,0.043s0,0.029,0,0.043s0,0.029,0,0.044s0,0.029,0,0.044
	c0,0.015,0,0.029,0,0.044s0,0.029,0,0.044c0,0.015,0,0.03,0,0.044s0.017,0.03,0.033,0.045c0.017,0.015,0.033,0.03,0.033,0.045
	s0.008,0.03,0.016,0.045s0.016,0.03,0.015,0.045s0.003,0.03,0.007,0.045c0.004,0.015,0.008,0.03,0.007,0.046
	s-0.057,0.031-0.056,0.046C2.057-16.736,2-16.721,2-16.705s0,0.031,0,0.046s0,0.031,0,0.046s0,0.031,0,0.046s0,0.031,0,0.047
	c0,0.016,0,0.031,0,0.047c0,0.016,0,0.031,0,0.047s0.057,0.031,0.057,0.047c0,0.016,0.028,0.031,0.028,0.047
	c0,0.016,0.014,0.031,0.013,0.047c0,0.016-0.047,0.031-0.047,0.047S2-16.207,2-16.191s0,0.032,0,0.047s0,0.032,0,0.047
	s0.052,0.032,0.052,0.047c-0.001,0.016,0.026,0.032,0.025,0.047c-0.001,0.016,0.012,0.032,0.012,0.048
	c-0.001,0.016-0.042,0.032-0.043,0.048C2.046-15.891,2-15.875,2-15.859c0,0.016,0,0.032,0,0.048s0,0.032,0,0.048
	c0,0.016,0.047,0.032,0.046,0.048s0.023,0.032,0.022,0.048c-0.001,0.016,0.011,0.032,0.01,0.048
	c-0.001,0.016-0.037,0.032-0.038,0.048C2.04-15.558,2-15.542,2-15.526s0,0.032,0,0.047c0,0.016,0,0.032,0,0.047
	c0,0.016,0.041,0.032,0.041,0.047c-0.001,0.016,0.02,0.032,0.019,0.047c-0.001,0.016,0.009,0.032,0.009,0.047
	c-0.001,0.016-0.033,0.031-0.033,0.047C2.035-15.226,2-15.211,2-15.195s0,0.031,0,0.047c0,0.016,0,0.031,0,0.047
	s0.036,0.031,0.035,0.047c-0.001,0.016,0.017,0.031,0.017,0.047c-0.001,0.016-0.023,0.031-0.024,0.047
	C2.028-14.946,2-14.93,2-14.915s0,0.031,0,0.046c0,0.015,0,0.031,0,0.046s0,0.031,0,0.046s0.031,0.031,0.03,0.046
	s0.015,0.03,0.014,0.046c0,0.015-0.02,0.03-0.02,0.045c0,0.015-0.024,0.03-0.024,0.045s0,0.03,0,0.045s0,0.03,0,0.045
	c0,0.015,0,0.03,0,0.045s0,0.03,0,0.044c0,0.015,0.025,0.03,0.025,0.044c0,0.015,0.012,0.029,0.012,0.044s0.006,0.029,0.005,0.044
	s0.003,0.029,0.002,0.044c0,0.014-0.022,0.029-0.022,0.043C2.022-14.182,2-14.167,2-14.153c0,0.014,0,0.029,0,0.043
	c0,0.014,0,0.028,0,0.042c0,0.014,0,0.028,0,0.042s0,0.028,0,0.042s0,0.028,0,0.042s0,0.028,0,0.041c0,0.014,0,0.027,0,0.041
	c0,0.014,0,0.027,0,0.041c0,0.013,0,0.027,0,0.04c0,0.013,0.018,0.027,0.016,0.04c-0.002,0.013,0.005,0.026,0.003,0.04
	s0,0.026-0.002,0.039s-0.001,0.026-0.001,0.039c0,0.013,0,0.026-0.002,0.038c-0.002,0.013-0.004,0.025-0.006,0.038
	c-0.002,0.013-0.004,0.025-0.006,0.038S2-13.483,2-13.47c0,0.012,0,0.025,0,0.037c0,0.012,0,0.024,0,0.037s0,0.024,0,0.036
	c0,0.012,0,0.024,0,0.036s0,0.024,0,0.035c0,0.012,0,0.023,0,0.035c0,0.012,0,0.023,0,0.034c0,0.011,0,0.023,0,0.034
	c0,0.011,0.001,0.022,0.003,0.033c0.002,0.011,0.004,0.022,0.006,0.033c0.002,0.011,0.004,0.022,0.006,0.032
	c0.002,0.011,0.003,0.021,0.003,0.032c0,0.037,0.001,0.073,0.002,0.11c0.001,0.037-0.011,0.074-0.01,0.111
	C2.011-12.797,2-12.76,2-12.723c0,0.037,0,0.075,0,0.112s0,0.075,0,0.113s0,0.076,0,0.114c0,0.038,0.011,0.076,0.011,0.114
	s0.005,0.076,0.003,0.115s0.001,0.077-0.001,0.115s-0.001,0.077-0.002,0.116c-0.001,0.039-0.002,0.077-0.004,0.116
	c-0.002,0.039-0.003,0.078-0.005,0.117c-0.002,0.039-0.004,0.078-0.006,0.117c-0.002,0.039-0.004,0.078-0.006,0.118
	s-0.004,0.079-0.007,0.118S1.98-11.259,1.977-11.22c-0.003,0.04-0.005,0.079-0.008,0.119c-0.003,0.04-0.005,0.08-0.008,0.119
	s-0.006,0.08-0.008,0.12c-0.003,0.04-0.006,0.08-0.009,0.12c-0.003,0.04-0.006,0.08-0.009,0.121c-0.003,0.04-0.006,0.081-0.01,0.121
	c-0.003,0.04-0.007,0.081-0.01,0.121c-0.003,0.04-0.007,0.081-0.01,0.122c-0.003,0.041-0.007,0.081-0.011,0.122
	c-0.004,0.041-0.007,0.081-0.011,0.122C1.88-9.972,1.877-9.932,1.873-9.891C1.869-9.85,1.865-9.809,1.861-9.768
	C1.858-9.727,1.854-9.686,1.85-9.645C1.846-9.604,1.842-9.563,1.838-9.522C1.834-9.481,1.83-9.44,1.826-9.399
	C1.822-9.358,1.818-9.317,1.814-9.276S1.806-9.193,1.802-9.152C1.798-9.111,1.793-9.07,1.789-9.028
	C1.785-8.987,1.781-8.946,1.777-8.905S1.768-8.822,1.764-8.781C1.76-8.739,1.756-8.698,1.751-8.656
	C1.747-8.615,1.743-8.574,1.738-8.532S1.73-8.449,1.726-8.408C1.721-8.367,1.717-8.325,1.713-8.284
	C1.708-8.242,1.704-8.201,1.7-8.159C1.695-8.118,1.691-8.077,1.687-8.035S1.678-7.952,1.674-7.911
	C1.669-7.869,1.665-7.828,1.661-7.786C1.657-7.745,1.652-7.704,1.648-7.662C1.644-7.621,1.639-7.579,1.635-7.538
	C1.631-7.496,1.627-7.455,1.622-7.414C1.618-7.372,1.614-7.331,1.61-7.289C1.606-7.248,1.601-7.207,1.597-7.165
	C1.593-7.124,1.589-7.083,1.585-7.041S1.577-6.959,1.573-6.918C1.568-6.876,1.564-6.835,1.56-6.794
	C1.556-6.753,1.552-6.712,1.548-6.67S1.541-6.588,1.537-6.547S1.529-6.465,1.525-6.424S1.518-6.342,1.514-6.301
	S1.507-6.219,1.503-6.178S1.496-6.096,1.492-6.056C1.489-6.015,1.485-5.974,1.482-5.933s-0.007,0.081-0.01,0.122
	C1.468-5.771,1.465-5.73,1.461-5.69c-0.003,0.041-0.006,0.081-0.01,0.121c-0.003,0.04-0.006,0.081-0.009,0.121
	C1.44-5.407,1.437-5.367,1.434-5.326c-0.003,0.04-0.006,0.08-0.008,0.12c-0.003,0.04-0.005,0.08-0.008,0.12
	c-0.003,0.04-0.005,0.08-0.008,0.12s-0.005,0.08-0.007,0.119C1.4-4.807,1.398-4.768,1.395-4.728C1.393-4.689,1.391-4.649,1.389-4.61
	C1.387-4.57,1.385-4.531,1.383-4.492C1.381-4.452,1.38-4.413,1.378-4.374C1.376-4.335,1.374-4.296,1.373-4.257
	C1.371-4.218,1.37-4.179,1.369-4.14C1.367-4.102,1.366-4.063,1.365-4.024C1.364-3.986,1.363-3.947,1.362-3.909
	C1.361-3.87,1.315-3.832,1.27-3.794C1.225-3.756,1.18-3.717,1.18-3.679c-0.001,0.038-0.045,0.076-0.09,0.114
	C1.045-3.528,1-3.49,1-3.452C1-3.415,1-3.377,1-3.34c0,0.037,0,0.075,0,0.112C1-3.19,1.045-3.153,1.09-3.116S1.18-3.042,1.18-3.005
	c0.001,0.037,0.024,0.074,0.047,0.11C1.25-2.859,1.274-2.822,1.275-2.786c0.001,0.036,0.014,0.073,0.026,0.109
	s0.025,0.072,0.027,0.108C1.33-2.533,1.337-2.497,1.345-2.462C1.352-2.426,1.36-2.39,1.362-2.355C1.365-2.32,1.37-2.284,1.375-2.249
	c0.005,0.035,0.011,0.07,0.014,0.105S1.396-2.075,1.4-2.04c0.004,0.035,0.009,0.069,0.012,0.103S1.42-1.868,1.425-1.834
	C1.429-1.8,1.434-1.766,1.438-1.732c0.004,0.034,0.008,0.067,0.013,0.101s0.009,0.067,0.014,0.1c0.005,0.033,0.01,0.066,0.015,0.099
	C1.484-1.4,1.49-1.367,1.495-1.334C1.5-1.302,1.506-1.269,1.511-1.237s0.011,0.064,0.017,0.096c0.006,0.032,0.012,0.064,0.018,0.095
	C1.553-1.014,1.56-0.982,1.566-0.951C1.573-0.92,1.58-0.888,1.587-0.857c0.007,0.031,0.014,0.062,0.021,0.092
	C1.615-0.734,1.623-0.704,1.63-0.674c0.008,0.03,0.016,0.06,0.024,0.09c0.008,0.03,0.016,0.06,0.025,0.089s0.017,0.059,0.026,0.088
	c0.009,0.029,0.018,0.058,0.027,0.087C1.74-0.29,1.75-0.261,1.759-0.232s0.019,0.057,0.029,0.085s0.02,0.056,0.03,0.084
	S1.84-0.008,1.851,0.019S1.872,0.073,1.884,0.1s0.023,0.054,0.034,0.08S1.941,0.234,1.953,0.26S1.977,0.312,1.99,0.338
	s0.025,0.051,0.038,0.077C2.041,0.44,2.054,0.465,2.067,0.49s0.027,0.05,0.041,0.074C2.121,0.589,2.135,0.613,2.15,0.637
	c0.014,0.024,0.029,0.048,0.043,0.072c0.015,0.024,0.03,0.047,0.045,0.07c0.015,0.023,0.03,0.046,0.046,0.069
	c0.016,0.023,0.031,0.045,0.047,0.068C2.347,0.938,2.364,0.96,2.38,0.982C2.4,1.008,2.419,1.033,2.439,1.059
	C2.459,1.084,2.48,1.109,2.5,1.134s0.041,0.05,0.062,0.074s0.042,0.049,0.064,0.073C2.648,1.305,2.67,1.329,2.692,1.353
	C2.714,1.376,2.736,1.4,2.758,1.423s0.045,0.046,0.068,0.069C2.849,1.515,2.872,1.538,2.896,1.56
	c0.023,0.022,0.047,0.045,0.071,0.067C2.99,1.649,3.014,1.671,3.039,1.692c0.024,0.022,0.049,0.043,0.074,0.064
	c0.025,0.021,0.05,0.042,0.075,0.063c0.025,0.021,0.051,0.042,0.076,0.062c0.026,0.021,0.052,0.041,0.078,0.061
	c0.026,0.02,0.052,0.04,0.079,0.06c0.027,0.02,0.053,0.04,0.08,0.059c0.027,0.02,0.054,0.039,0.081,0.058
	C3.609,2.14,3.637,2.159,3.665,2.178C3.692,2.197,3.72,2.215,3.749,2.234c0.028,0.019,0.057,0.037,0.085,0.055
	C3.862,2.307,3.891,2.325,3.92,2.343c0.029,0.018,0.058,0.036,0.088,0.053S4.067,2.432,4.097,2.45c0.03,0.017,0.06,0.035,0.09,0.052
	c0.03,0.017,0.061,0.034,0.091,0.051s0.061,0.034,0.092,0.05c0.031,0.017,0.062,0.033,0.094,0.049
	c0.031,0.016,0.063,0.033,0.095,0.049c0.032,0.016,0.064,0.032,0.096,0.048C4.687,2.765,4.719,2.78,4.752,2.796
	C4.784,2.812,4.817,2.827,4.85,2.843s0.066,0.031,0.099,0.046c0.033,0.015,0.067,0.03,0.1,0.045c0.034,0.015,0.067,0.03,0.101,0.045
	c0.034,0.015,0.068,0.03,0.102,0.044s0.069,0.029,0.103,0.044C5.39,3.081,5.425,3.096,5.46,3.11c0.035,0.014,0.07,0.029,0.105,0.043
	c0.035,0.014,0.071,0.028,0.106,0.042c0.036,0.014,0.071,0.028,0.107,0.042c0.036,0.014,0.072,0.028,0.108,0.041
	C5.923,3.292,5.96,3.305,5.996,3.319s0.073,0.027,0.11,0.041S6.18,3.386,6.218,3.4c0.037,0.013,0.074,0.027,0.112,0.04
	c0.037,0.013,0.075,0.026,0.113,0.04C6.48,3.492,6.518,3.505,6.556,3.518c0.038,0.013,0.076,0.026,0.115,0.039
	C6.709,3.57,6.747,3.583,6.786,3.596s0.077,0.026,0.116,0.038C6.941,3.647,6.98,3.66,7.019,3.673
	c0.039,0.013,0.078,0.025,0.118,0.038c0.039,0.013,0.079,0.025,0.119,0.038s0.08,0.025,0.119,0.038
	c0.04,0.013,0.08,0.025,0.12,0.038c0.04,0.013,0.081,0.025,0.121,0.038c0.04,0.013,0.081,0.025,0.122,0.038
	C7.779,3.912,7.82,3.925,7.861,3.937s0.082,0.025,0.123,0.038C8.026,3.987,8.067,4,8.108,4.012C8.15,4.025,8.191,4.037,8.233,4.05
	s0.083,0.025,0.125,0.038C8.4,4.1,8.442,4.113,8.484,4.125C8.526,4.138,8.568,4.15,8.611,4.163c0.042,0.013,0.085,0.025,0.127,0.038
	C8.78,4.214,8.823,4.227,8.866,4.239c0.043,0.013,0.086,0.026,0.128,0.038C9.037,4.29,9.08,4.303,9.123,4.316
	c0.043,0.013,0.086,0.026,0.13,0.039c0.043,0.013,0.087,0.026,0.13,0.039C9.427,4.407,9.47,4.42,9.514,4.433s0.087,0.026,0.131,0.04
	c0.044,0.013,0.088,0.027,0.132,0.04C9.821,4.526,9.865,4.54,9.91,4.553c0.044,0.013,0.089,0.027,0.133,0.041
	c0.044,0.014,0.089,0.027,0.133,0.041c0.045,0.014,0.089,0.028,0.134,0.041c0.045,0.014,0.089,0.028,0.134,0.042
	s0.09,0.028,0.135,0.042c0.045,0.014,0.09,0.028,0.135,0.043c0.045,0.014,0.09,0.029,0.136,0.043
	c0.045,0.015,0.091,0.029,0.136,0.044c0.045,0.015,0.091,0.03,0.136,0.044c0.046,0.015,0.091,0.03,0.137,0.045
	c0.046,0.015,0.091,0.03,0.137,0.046c0.046,0.015,0.092,0.031,0.138,0.046s0.092,0.031,0.138,0.047
	c0.046,0.016,0.092,0.032,0.138,0.048c0.046,0.016,0.092,0.032,0.139,0.048c0.046,0.016,0.092,0.032,0.139,0.049
	s0.093,0.033,0.139,0.05c0.046,0.017,0.093,0.033,0.139,0.05c0.047,0.017,0.093,0.034,0.14,0.051s0.093,0.035,0.14,0.052
	c0.047,0.017,0.093,0.035,0.14,0.053c0.047,0.018,0.094,0.036,0.14,0.054c0.047,0.018,0.094,0.036,0.141,0.055
	c0.047,0.018,0.094,0.037,0.141,0.056c0.047,0.019,0.094,0.037,0.141,0.056c0.047,0.019,0.094,0.038,0.141,0.057
	c0.047,0.019,0.094,0.039,0.141,0.058c0.047,0.02,0.094,0.039,0.141,0.059c0.047,0.02,0.094,0.04,0.142,0.06
	s0.094,0.041,0.142,0.061c0.047,0.021,0.094,0.041,0.142,0.063c0.047,0.021,0.095,0.042,0.142,0.064
	c0.047,0.021,0.095,0.043,0.142,0.065c0.047,0.022,0.095,0.044,0.142,0.066c0.047,0.022,0.095,0.044,0.142,0.067
	c0.047,0.023,0.095,0.045,0.142,0.068c0.047,0.023,0.095,0.046,0.142,0.069c0.047,0.023,0.095,0.047,0.142,0.071
	c0.047,0.024,0.095,0.048,0.142,0.072c0.047,0.024,0.095,0.049,0.142,0.073s0.095,0.049,0.142,0.074
	c0.047,0.025,0.095,0.05,0.142,0.076c0.047,0.025,0.095,0.051,0.142,0.077c0.047,0.026,0.095,0.052,0.142,0.079
	c0.047,0.026,0.095,0.053,0.142,0.08c0.047,0.027,0.094,0.054,0.142,0.081c0.047,0.027,0.094,0.055,0.142,0.083
	c0.047,0.028,0.094,0.056,0.141,0.084c0.047,0.028,0.094,0.057,0.141,0.086c0.047,0.029,0.094,0.058,0.141,0.087
	c0.047,0.029,0.094,0.059,0.141,0.089c0.047,0.03,0.094,0.06,0.141,0.09c0.047,0.03-0.133,0.061-0.086,0.092S17,7.912,17,7.943V8
	c0,0,0.451,0,0.45,0c-0.001,0-0.002-0.059-0.004-0.059s-0.003-0.03-0.005-0.031c-0.002-0.001-0.004-0.016-0.007-0.017
	c-0.003-0.001-0.005-0.009-0.009-0.01c-0.003-0.001-0.006-0.006-0.01-0.007c-0.004-0.001-0.007-0.005-0.012-0.006
	c-0.004-0.002-0.008-0.004-0.013-0.006c-0.005-0.002-0.009-0.004-0.015-0.006c-0.005-0.002-0.01-0.004-0.016-0.006
	c-0.006-0.002-0.012-0.004-0.018-0.006S17.33,7.84,17.323,7.837c-0.007-0.002-0.014-0.005-0.021-0.007
	c-0.007-0.003-0.015-0.005-0.022-0.008c-0.008-0.003-0.016-0.005-0.024-0.008s-0.016-0.006-0.025-0.009
	c-0.009-0.003-0.017-0.006-0.027-0.009c-0.009-0.003-0.018-0.006-0.028-0.009s-0.019-0.006-0.03-0.01
	c-0.01-0.003-0.02-0.007-0.031-0.01c-0.011-0.003-0.021-0.007-0.032-0.01S17.062,7.75,17.05,7.746
	c-0.012-0.004-0.023-0.007-0.035-0.011c-0.012-0.004-0.024-0.008-0.037-0.011c-0.013-0.004-0.025-0.008-0.038-0.012
	C16.927,7.708,16.913,7.704,16.9,7.7s-0.027-0.008-0.041-0.012s-0.028-0.008-0.043-0.013c-0.014-0.004-0.029-0.008-0.044-0.013
	c-0.015-0.004-0.03-0.009-0.045-0.013c-0.015-0.004-0.031-0.009-0.047-0.013c-0.016-0.004-0.032-0.009-0.048-0.013
	c-0.016-0.005-0.033-0.009-0.05-0.014c-0.017-0.005-0.034-0.009-0.051-0.014c-0.017-0.005-0.035-0.009-0.053-0.014
	c-0.018-0.005-0.036-0.009-0.054-0.014c-0.018-0.005-0.037-0.009-0.055-0.014c-0.019-0.005-0.038-0.01-0.057-0.014
	c-0.019-0.005-0.038-0.01-0.058-0.014c-0.02-0.005-0.039-0.01-0.059-0.015c-0.02-0.005-0.04-0.01-0.061-0.015
	c-0.021-0.005-0.041-0.01-0.062-0.015s-0.042-0.01-0.064-0.015c-0.021-0.005-0.043-0.01-0.065-0.015
	c-0.022-0.005-0.044-0.01-0.066-0.015c-0.022-0.005-0.045-0.01-0.068-0.015c-0.023-0.005-0.046-0.01-0.069-0.015
	c-0.023-0.005-0.047-0.01-0.07-0.015c-0.024-0.005-0.048-0.01-0.072-0.015s-0.048-0.01-0.073-0.015
	c-0.025-0.005-0.049-0.01-0.074-0.015c-0.025-0.005-0.05-0.01-0.076-0.015c-0.025-0.005-0.051-0.01-0.077-0.014
	c-0.026-0.005-0.052-0.01-0.078-0.014c-0.026-0.005-0.053-0.01-0.08-0.014s-0.054-0.009-0.081-0.014
	c-0.027-0.005-0.055-0.009-0.082-0.014s-0.055-0.009-0.084-0.014c-0.028-0.005-0.056-0.009-0.085-0.014s-0.057-0.009-0.086-0.014
	c-0.029-0.004-0.058-0.009-0.087-0.013c-0.029-0.004-0.059-0.009-0.089-0.013c-0.03-0.004-0.06-0.009-0.09-0.013
	c-0.03-0.004-0.061-0.009-0.091-0.013c-0.031-0.004-0.061-0.008-0.092-0.012c-0.031-0.004-0.062-0.008-0.094-0.012
	c-0.031-0.004-0.063-0.008-0.095-0.012s-0.064-0.008-0.096-0.012c-0.032-0.004-0.065-0.008-0.097-0.011
	c-0.033-0.004-0.066-0.007-0.099-0.011c-0.033-0.004-0.066-0.007-0.1-0.011c-0.034-0.004-0.067-0.007-0.101-0.01
	c-0.034-0.003-0.068-0.007-0.102-0.01s-0.069-0.006-0.104-0.01c-0.035-0.003-0.07-0.006-0.105-0.009
	c-0.035-0.003-0.071-0.006-0.106-0.009c-0.036-0.003-0.071-0.006-0.107-0.008c-0.036-0.003-0.072-0.005-0.109-0.008
	s-0.073-0.005-0.11-0.008c-0.037-0.002-0.074-0.005-0.111-0.007c-0.037-0.002-0.075-0.005-0.112-0.007s-0.075-0.004-0.113-0.006
	c-0.038-0.002-0.076-0.004-0.114-0.006c-0.038-0.002-0.077-0.004-0.116-0.005s-0.078-0.003-0.117-0.005
	c-0.039-0.001-0.078-0.003-0.118-0.004c-0.04-0.001-0.079-0.003-0.119-0.004s-0.08,0.003-0.12,0.006
	c-0.04,0.004-0.081,0.008-0.122,0.007c-0.041-0.001-0.082,0.003-0.123,0.007C11.522,6.996,11.481,7,11.439,7
	c-0.041,0-0.083,0-0.125,0s-0.084,0-0.126,0s-0.085-0.005-0.127-0.009c-0.043-0.004-0.085-0.009-0.128-0.008
	c-0.043,0.001-0.086,0.01-0.13,0.008S10.716,7,10.672,7c-0.044,0-0.088,0-0.132,0s-0.088-0.011-0.133-0.009
	c-0.044,0.001-0.089-0.003-0.134-0.002c-0.045,0.001-0.09,0-0.135,0.001c-0.045,0.002-0.091,0.002-0.136,0.004
	C9.957,6.996,9.911,6.997,9.865,7C9.819,7.002,9.773,7.004,9.727,7.007S9.634,7.012,9.587,7.015
	C9.541,7.018,9.494,7.021,9.447,7.024C9.4,7.027,9.353,7.03,9.305,7.034C9.258,7.037,9.21,7.041,9.163,7.044
	C9.115,7.048,9.067,7.052,9.019,7.056C8.971,7.06,8.923,7.064,8.874,7.069C8.826,7.073,8.777,7.077,8.728,7.082
	C8.679,7.087,8.63,7.091,8.581,7.096c-0.049,0.005-0.098,0.01-0.148,0.015c-0.05,0.005-0.099,0.011-0.149,0.016
	c-0.05,0.006-0.1,0.011-0.15,0.017C8.084,7.15,8.034,7.156,7.983,7.162C7.933,7.169,7.882,7.175,7.831,7.181
	C7.78,7.188,7.729,7.194,7.678,7.201S7.575,7.215,7.524,7.222S7.42,7.236,7.368,7.244S7.264,7.259,7.212,7.267
	C7.16,7.274,7.108,7.282,7.055,7.291S6.95,7.307,6.897,7.315C6.844,7.324,6.791,7.333,6.738,7.341
	C6.684,7.35,6.631,7.359,6.577,7.368S6.47,7.387,6.416,7.396S6.308,7.416,6.254,7.425C6.147,7.445,6.042,7.464,5.938,7.483
	C5.833,7.502,5.73,7.522,5.627,7.54C5.525,7.559,5.423,7.578,5.323,7.597s-0.2,0.037-0.299,0.056
	C4.925,7.671,4.828,7.69,4.731,7.708C4.634,7.726,4.538,7.745,4.443,7.763C4.348,7.781,4.254,7.799,4.161,7.817
	C4.068,7.835,3.976,7.853,3.884,7.87S3.703,7.906,3.613,7.923c-0.09,0.018-0.178,0.035-0.266,0.052S3.172,8.01,3.086,8.027
	C3,8.045,2.915,8.062,2.83,8.079S2.663,8.113,2.58,8.129C2.497,8.146,2.415,8.163,2.334,8.18c-0.081,0.017-0.161,0.033-0.241,0.05
	C2.015,8.246,1.936,8.262,1.858,8.279S1.704,8.311,1.627,8.328C1.551,8.344,1.476,8.36,1.401,8.376
	C1.327,8.392,1.253,8.408,1.18,8.424C1.107,8.44,1.035,8.456,0.963,8.472S0.821,8.503,0.751,8.519
	C0.681,8.534,0.612,8.55,0.544,8.566S0.408,8.597,0.341,8.612S0.207,8.643,0.142,8.658c-0.066,0.015-0.13,0.031-0.195,0.046
	c-0.064,0.015-0.128,0.03-0.19,0.045s-0.125,0.03-0.186,0.045s-0.122,0.03-0.182,0.045c-0.06,0.015-0.119,0.03-0.178,0.044
	s-0.117,0.03-0.174,0.044c-0.057,0.015-0.114,0.029-0.17,0.044c-0.056,0.015-0.111,0.029-0.166,0.044
	C-1.354,9.03-1.408,9.045-1.462,9.059c-0.054,0.014-0.106,0.029-0.159,0.043c-0.052,0.014-0.104,0.029-0.155,0.043
	s-0.102,0.029-0.152,0.043s-0.099,0.029-0.148,0.043C-2.124,9.245-2.172,9.259-2.22,9.274s-0.095,0.028-0.141,0.042
	C-2.407,9.33-2.453,9.344-2.499,9.358C-2.544,9.372-2.589,9.386-2.634,9.4c-0.044,0.014-0.088,0.028-0.131,0.042
	S-2.851,9.47-2.893,9.484c-0.042,0.014-0.084,0.028-0.125,0.042C-3.06,9.54-3.101,9.554-3.141,9.568
	c-0.04,0.014-0.08,0.028-0.119,0.042C-3.3,9.624-3.339,9.638-3.377,9.652c-0.038,0.014-0.076,0.028-0.114,0.042
	c-0.037,0.014-0.075,0.028-0.111,0.042C-3.639,9.749-3.675,9.763-3.71,9.777c-0.036,0.014-0.071,0.028-0.106,0.042
	C-3.851,9.832-3.886,9.846-3.92,9.86c-0.034,0.014-0.068,0.028-0.101,0.042S-4.087,9.93-4.119,9.944
	c-0.032,0.014-0.065,0.028-0.096,0.042C-4.247,10-4.278,10.014-4.309,10.028c-0.031,0.014-0.062,0.028-0.092,0.042
	c-0.03,0.014-0.06,0.028-0.09,0.042c-0.03,0.014-0.059,0.028-0.088,0.042s-0.057,0.028-0.086,0.043
	c-0.028,0.014-0.056,0.028-0.084,0.043c-0.028,0.014-0.055,0.029-0.082,0.043c-0.027,0.014-0.054,0.029-0.08,0.043
	c-0.026,0.014-0.053,0.029-0.078,0.043c-0.026,0.014-0.051,0.029-0.077,0.044s-0.05,0.029-0.075,0.044
	c-0.025,0.015-0.049,0.029-0.074,0.044c-0.024,0.015-0.048,0.029-0.072,0.044c-0.024,0.015-0.047,0.03-0.071,0.045
	c-0.023,0.015-0.047,0.03-0.069,0.045c-0.023,0.015-0.046,0.03-0.068,0.045c-0.023,0.015-0.045,0.03-0.067,0.045
	c-0.022,0.015-0.044,0.03-0.066,0.046c-0.022,0.015-0.043,0.031-0.065,0.046c-0.021,0.015-0.043,0.031-0.064,0.047
	s-0.042,0.031-0.063,0.047s-0.042,0.031-0.062,0.047c-0.021,0.016-0.041,0.032-0.061,0.048c-0.02,0.016-0.041,0.032-0.061,0.048
	c-0.02,0.016-0.04,0.032-0.06,0.049c-0.02,0.016-0.04,0.033-0.059,0.049c-0.02,0.016-0.039,0.033-0.059,0.049
	c-0.02,0.017-0.039,0.033-0.058,0.05s-0.039,0.034-0.058,0.05c-0.019,0.017-0.038,0.034-0.058,0.051s-0.038,0.034-0.057,0.051
	c-0.019,0.017-0.038,0.035-0.057,0.052c-0.019,0.017-0.038,0.035-0.057,0.052c-0.019,0.018-0.038,0.035-0.057,0.053
	c-0.019,0.018-0.038,0.036-0.057,0.054c-0.019,0.018-0.038,0.036-0.057,0.054c-0.019,0.018-0.038,0.036-0.057,0.055
	c-0.019,0.018-0.038,0.037-0.057,0.055c-0.019,0.019-0.038,0.037-0.058,0.056s-0.039,0.038-0.058,0.057
	c-0.019,0.019-0.039,0.038-0.059,0.057c-0.02,0.019-0.039,0.039-0.059,0.058s-0.04,0.039-0.06,0.059s-0.04,0.039-0.06,0.059
	c-0.02,0.02-0.04,0.04-0.061,0.06s-0.041,0.04-0.062,0.061c-0.021,0.02-0.041,0.041-0.062,0.062
	c-0.021,0.021-0.042,0.041-0.063,0.062c-0.021,0.021-0.043,0.042-0.064,0.063c-0.022,0.021-0.043,0.042-0.065,0.064
	s-0.044,0.043-0.066,0.065s-0.045,0.044-0.067,0.065c-0.023,0.022-0.046,0.044-0.069,0.066c-0.023,0.022-0.046,0.045-0.07,0.067
	c-0.023,0.023-0.047,0.045-0.071,0.068s-0.048,0.046-0.073,0.069s-0.049,0.046-0.074,0.07c-0.025,0.023-0.05,0.047-0.076,0.071
	s-0.051,0.048-0.077,0.072s-0.052,0.048-0.079,0.072c-0.027,0.024-0.053,0.049-0.081,0.073C-8.372,13.28-8.4,13.305-8.427,13.33
	s-0.056,0.05-0.084,0.075c-0.028,0.025-0.057,0.051-0.086,0.076c-0.029,0.026-0.058,0.051-0.088,0.077
	c-0.03,0.026-0.06,0.052-0.09,0.078c-0.03,0.026-0.061,0.053-0.092,0.079c-0.031,0.027-0.063,0.053-0.095,0.08
	c-0.032,0.027-0.064,0.054-0.097,0.081c-0.033,0.027-0.066,0.055-0.099,0.082c-0.033,0.028-0.067,0.056-0.102,0.084
	S-9.33,14.1-9.365,14.128c-0.035,0.028-0.071,0.057-0.107,0.086c-0.029,0.023-0.057,0.046-0.086,0.069
	c-0.028,0.023-0.057,0.045-0.085,0.068s-0.056,0.044-0.083,0.066s-0.055,0.044-0.082,0.065c-0.027,0.022-0.054,0.043-0.081,0.064
	c-0.027,0.021-0.053,0.042-0.079,0.063c-0.026,0.021-0.052,0.042-0.078,0.062c-0.026,0.02-0.051,0.041-0.077,0.061
	c-0.025,0.02-0.051,0.04-0.075,0.06c-0.025,0.02-0.05,0.039-0.074,0.059s-0.049,0.039-0.073,0.058
	c-0.024,0.019-0.048,0.038-0.072,0.057s-0.047,0.037-0.071,0.056c-0.023,0.018-0.047,0.037-0.07,0.055
	c-0.023,0.018-0.046,0.036-0.068,0.054c-0.023,0.018-0.045,0.035-0.067,0.053s-0.044,0.035-0.066,0.052
	c-0.022,0.017-0.044,0.034-0.065,0.051s-0.043,0.033-0.064,0.05c-0.021,0.016-0.042,0.033-0.063,0.049s-0.042,0.032-0.062,0.048
	c-0.021,0.016-0.041,0.031-0.061,0.047c-0.02,0.015-0.04,0.031-0.06,0.046c-0.02,0.015-0.04,0.03-0.059,0.045
	c-0.02,0.015-0.039,0.029-0.059,0.044c-0.019,0.015-0.039,0.029-0.058,0.043c-0.019,0.014-0.038,0.028-0.057,0.042
	c-0.019,0.014-0.037,0.028-0.056,0.041c-0.019,0.014-0.037,0.027-0.055,0.04c-0.018,0.013-0.036,0.027-0.054,0.04
	s-0.036,0.026-0.054,0.039s-0.035,0.025-0.053,0.038c-0.017,0.012-0.035,0.025-0.052,0.037s-0.034,0.024-0.051,0.036
	c-0.017,0.012-0.034,0.024-0.051,0.035c-0.017,0.012-0.033,0.023-0.05,0.035s-0.033,0.023-0.049,0.034
	c-0.016,0.011-0.033,0.022-0.049,0.033s-0.032,0.022-0.048,0.032c-0.016,0.011-0.032,0.021-0.048,0.031
	c-0.016,0.01-0.031,0.021-0.047,0.031c-0.016,0.01-0.031,0.02-0.046,0.03c-0.015,0.01-0.031,0.02-0.046,0.029
	s-0.03,0.019-0.045,0.028c-0.015,0.009-0.03,0.019-0.045,0.028c-0.015,0.009-0.03,0.018-0.044,0.027s-0.029,0.018-0.044,0.026
	c-0.015,0.009-0.029,0.017-0.044,0.026c-0.014,0.008-0.029,0.017-0.043,0.025c-0.014,0.008-0.029,0.016-0.043,0.024
	s-0.028,0.016-0.042,0.024c-0.014,0.008-0.028,0.015-0.042,0.023c-0.014,0.008-0.028,0.015-0.042,0.022
	c-0.014,0.007-0.028,0.015-0.042,0.022c-0.014,0.007-0.028,0.014-0.041,0.021c-0.014,0.007-0.027,0.014-0.041,0.02
	c-0.014,0.007-0.027,0.013-0.041,0.02c-0.014,0.007-0.027,0.013-0.041,0.019c-0.013,0.006-0.027,0.013-0.04,0.019
	c-0.013,0.006-0.027,0.012-0.04,0.018s-0.027,0.012-0.04,0.018c-0.013,0.006-0.027,0.011-0.04,0.017
	c-0.013,0.006-0.027,0.011-0.04,0.017c-0.013,0.005-0.027,0.011-0.04,0.016c-0.013,0.005-0.026,0.01-0.04,0.015
	c-0.013,0.005-0.026,0.01-0.04,0.015c-0.013,0.005-0.026,0.01-0.04,0.014c-0.013,0.005-0.026,0.009-0.04,0.014
	s-0.026,0.009-0.04,0.013s-0.026,0.009-0.04,0.013c-0.013,0.004-0.026,0.008-0.04,0.013c-0.013,0.004-0.027,0.008-0.04,0.012
	c-0.013,0.004-0.027,0.008-0.04,0.012s-0.027,0.008-0.04,0.011c-0.013,0.004-0.027,0.007-0.04,0.011
	c-0.013,0.004-0.027,0.007-0.04,0.01c-0.013,0.003-0.027,0.007-0.041,0.01c-0.014,0.003-0.027,0.006-0.041,0.01
	c-0.014,0.003-0.027,0.006-0.041,0.009c-0.014,0.003-0.027,0.006-0.041,0.009c-0.014,0.003-0.028,0.006-0.041,0.008
	c-0.014,0.003-0.028,0.005-0.042,0.008c-0.014,0.003-0.028,0.005-0.042,0.008s-0.028,0.005-0.042,0.007
	c-0.014,0.002-0.028,0.005-0.043,0.007s-0.029,0.005-0.043,0.007c-0.014,0.002-0.029,0.004-0.044,0.007
	c-0.015,0.002-0.029,0.004-0.044,0.006s-0.029,0.004-0.044,0.006c-0.015,0.002-0.03,0.004-0.045,0.006
	c-0.015,0.002-0.03,0.004-0.045,0.005c-0.015,0.002-0.03,0.003-0.046,0.005c-0.015,0.002-0.031,0.003-0.046,0.005
	s-0.031,0.003-0.047,0.005s-0.032,0.003-0.047,0.004c-0.016,0.001-0.032,0.003-0.048,0.004c-0.016,0.001-0.032,0.003-0.049,0.004
	c-0.016,0.001-0.033,0.003-0.049,0.004c-0.017,0.001-0.033,0.002-0.05,0.004s-0.034,0.002-0.051,0.003
	c-0.017,0.001-0.034,0.002-0.051,0.003c-0.017,0.001-0.034,0.002-0.052,0.003s-0.035,0.002-0.053,0.003s-0.035,0.002-0.053,0.003
	c-0.018,0.001-0.036,0.002-0.054,0.003s-0.036,0.002-0.055,0.003s-0.037,0.002-0.056,0.003c-0.019,0.001-0.038,0.002-0.057,0.002
	c-0.019,0.001-0.038,0.002-0.057,0.002c-0.019,0.001-0.039,0.002-0.058,0.002c-0.02,0.001-0.039,0.001-0.059,0.002
	c-0.02,0.001-0.04,0.001-0.06,0.002s-0.041,0.001-0.061,0.002c-0.021,0.001-0.041,0.001-0.062,0.002
	c-0.021,0.001-0.042,0.001-0.063,0.002c-0.021,0.001-0.042,0.001-0.064,0.002c-0.021,0.001-0.043,0.001-0.065,0.002
	c-0.022,0.001-0.044,0.001-0.066,0.002c-0.022,0.001-0.045,0.001-0.067,0.002c-0.023,0.001-0.045,0.001-0.068,0.002
	c-0.023,0.001-0.046,0.001-0.069,0.002s-0.047,0.001-0.07,0.002c-0.024,0.001-0.048,0.001-0.072,0.002
	c-0.024,0.001-0.048,0.002-0.073,0.002c-0.024,0.001-0.049,0.002-0.074,0.002c-0.025,0.001-0.05,0.002-0.075,0.002
	s-0.051,0.002-0.076,0.003s-0.052,0.002-0.078,0.003c0.05-0.049,0.101-0.099,0.151-0.147c0.05-0.049,0.101-0.097,0.151-0.146
	c0.05-0.048,0.101-0.096,0.151-0.144c0.05-0.048,0.101-0.095,0.152-0.142s0.101-0.094,0.152-0.14
	c0.051-0.046,0.101-0.093,0.152-0.139s0.101-0.092,0.152-0.137s0.101-0.09,0.152-0.135c0.051-0.045,0.101-0.089,0.152-0.134
	s0.101-0.088,0.152-0.132c0.051-0.044,0.101-0.087,0.152-0.131s0.101-0.086,0.152-0.129s0.101-0.085,0.152-0.128
	c0.051-0.042,0.101-0.084,0.152-0.126c0.051-0.042,0.101-0.083,0.152-0.125c0.051-0.041,0.101-0.082,0.152-0.123
	c0.051-0.041,0.101-0.082,0.152-0.122c0.051-0.04,0.101-0.081,0.152-0.121s0.101-0.08,0.151-0.119
	c0.05-0.04,0.101-0.079,0.151-0.118c0.05-0.039,0.101-0.078,0.151-0.117c0.05-0.039,0.101-0.077,0.151-0.116s0.1-0.077,0.151-0.115
	c0.05-0.038,0.1-0.076,0.15-0.113c0.05-0.038,0.1-0.075,0.15-0.112s0.1-0.074,0.15-0.111c0.05-0.037,0.1-0.074,0.15-0.11
	c0.05-0.037,0.1-0.073,0.149-0.109c0.05-0.036,0.099-0.072,0.149-0.108c0.05-0.036,0.099-0.072,0.149-0.107
	c0.05-0.036,0.099-0.071,0.148-0.107s0.099-0.071,0.148-0.106c0.049-0.035,0.098-0.07,0.148-0.105
	c0.049-0.035,0.098-0.07,0.147-0.104s0.098-0.069,0.147-0.103c0.049-0.034,0.098-0.069,0.146-0.103s0.097-0.068,0.146-0.102
	c0.049-0.034,0.097-0.068,0.145-0.101c0.048-0.034,0.097-0.067,0.145-0.101c0.048-0.033,0.096-0.067,0.144-0.1
	c0.048-0.033,0.096-0.066,0.144-0.1s0.096-0.066,0.143-0.099s0.095-0.066,0.143-0.099c0.048-0.033,0.095-0.065,0.142-0.098
	c0.047-0.033,0.095-0.065,0.142-0.098c0.047-0.032,0.094-0.065,0.141-0.097c0.047-0.032,0.094-0.065,0.14-0.097
	s0.093-0.064,0.14-0.097c0.046-0.032,0.093-0.064,0.139-0.096c0.046-0.032,0.092-0.064,0.138-0.096
	c0.046-0.032,0.092-0.064,0.138-0.096s0.091-0.064,0.137-0.096c0.046-0.032,0.091-0.064,0.136-0.095
	c0.045-0.032,0.09-0.064,0.136-0.095s0.09-0.064,0.135-0.095s0.089-0.063,0.134-0.095c0.045-0.032,0.089-0.063,0.133-0.095
	c0.044-0.032,0.088-0.063,0.132-0.095c0.044-0.032,0.088-0.063,0.131-0.095c0.044-0.032,0.087-0.063,0.131-0.095
	c0.043-0.032,0.087-0.064,0.13-0.095c0.043-0.032,0.086-0.064,0.129-0.095c0.043-0.032,0.085-0.064,0.128-0.096
	c0.042-0.032,0.085-0.064,0.127-0.096c0.042-0.032,0.084-0.064,0.126-0.096C-6.94,9.862-6.898,9.83-6.857,9.798
	c0.042-0.032,0.083-0.064,0.124-0.097C-6.691,9.669-6.65,9.637-6.61,9.604c0.041-0.032,0.082-0.065,0.122-0.097
	s0.081-0.065,0.121-0.098c0.04-0.033,0.08-0.065,0.12-0.098s0.079-0.066,0.119-0.099s0.079-0.066,0.118-0.099s0.078-0.066,0.117-0.1
	c0.039-0.033,0.077-0.067,0.116-0.1c0.038-0.033,0.076-0.067,0.114-0.101c0.038-0.034,0.076-0.068,0.113-0.101
	s0.075-0.068,0.112-0.102C-5.4,8.575-5.363,8.541-5.327,8.506c0.037-0.034,0.073-0.069,0.11-0.103
	c0.036-0.035,0.073-0.069,0.108-0.104s0.072-0.07,0.107-0.105c0.036-0.035,0.071-0.07,0.106-0.106
	c0.035-0.035,0.07-0.071,0.105-0.107c0.035-0.036,0.069-0.072,0.103-0.108c0.034-0.036,0.068-0.072,0.102-0.109
	c0.034-0.036,0.067-0.073,0.101-0.109s0.066-0.073,0.099-0.11c0.033-0.037,0.066-0.074,0.098-0.111
	c0.032-0.037,0.065-0.075,0.097-0.113s0.064-0.076,0.095-0.114c0.031-0.038,0.063-0.076,0.094-0.115
	C-3.97,7.054-3.94,7.016-3.909,6.977s0.061-0.078,0.091-0.117c0.03-0.039,0.06-0.079,0.089-0.118c0.03-0.04,0.059-0.079,0.088-0.12
	s0.058-0.08,0.086-0.121c0.029-0.04,0.057-0.081,0.085-0.122s0.056-0.082,0.083-0.123s0.055-0.083,0.082-0.125
	s0.054-0.084,0.08-0.126c0.026-0.042,0.053-0.085,0.079-0.128c0.026-0.043,0.052-0.086,0.077-0.129
	c0.025-0.043,0.05-0.087,0.075-0.131c0.025-0.044,0.049-0.088,0.074-0.132c0.024-0.044,0.048-0.089,0.072-0.134
	c0.024-0.045,0.047-0.09,0.07-0.135c0.023-0.045,0.046-0.091,0.069-0.137c0.023-0.046,0.045-0.092,0.067-0.139
	c0.022-0.047,0.044-0.093,0.065-0.14c0.021-0.047,0.043-0.095,0.063-0.142c0.021-0.048,0.041-0.096,0.062-0.144
	s0.04-0.097,0.06-0.146c0.02-0.049,0.039-0.098,0.058-0.148c0.019-0.05,0.038-0.099,0.056-0.15s0.036-0.101,0.054-0.151
	c0.018-0.051,0.035-0.102,0.052-0.153c0.017-0.051,0.034-0.103,0.051-0.155c0.017-0.052,0.033-0.105,0.049-0.157
	s0.031-0.106,0.047-0.159c0.015-0.053,0.03-0.107,0.045-0.161c0.015-0.054,0.029-0.109,0.043-0.164
	c0.014-0.055,0.028-0.11,0.041-0.166c0.013-0.056,0.026-0.112,0.039-0.168c0.013-0.056,0.025-0.113,0.037-0.17
	C-1.81,2.407-1.799,2.35-1.787,2.292c0.011-0.058,0.022-0.116,0.033-0.175C-1.744,2.059-1.734,2-1.724,1.941
	C-1.72,1.92-1.717,1.898-1.713,1.875c0.004-0.023,0.007-0.046,0.011-0.07s0.008-0.049,0.012-0.075s0.008-0.052,0.012-0.079
	c0.004-0.027,0.008-0.055,0.013-0.083C-1.661,1.54-1.656,1.51-1.652,1.48c0.004-0.03,0.009-0.061,0.014-0.092
	c0.005-0.031,0.009-0.063,0.014-0.096c0.005-0.033,0.01-0.066,0.014-0.1c0.005-0.034,0.01-0.069,0.015-0.104s0.01-0.071,0.015-0.108
	s0.01-0.074,0.016-0.112c0.005-0.038,0.011-0.077,0.016-0.116c0.005-0.039,0.011-0.079,0.016-0.12
	c0.006-0.04,0.011-0.082,0.017-0.123c0.006-0.042,0.011-0.084,0.017-0.127s0.012-0.086,0.018-0.13s0.012-0.089,0.018-0.134
	s0.012-0.091,0.018-0.137c0.006-0.046,0.012-0.093,0.019-0.14c0.006-0.047,0.013-0.095,0.019-0.144S-1.393-0.4-1.387-0.449
	c0.006-0.049,0.013-0.099,0.019-0.15c0.007-0.05,0.013-0.101,0.02-0.153c0.007-0.051,0.013-0.103,0.02-0.156
	c0.007-0.052,0.014-0.105,0.02-0.159C-1.3-1.119-1.294-1.173-1.287-1.227c0.007-0.054,0.014-0.109,0.021-0.164
	c0.007-0.055,0.014-0.111,0.021-0.167c0.007-0.056,0.014-0.112,0.021-0.169c0.007-0.057,0.014-0.114,0.022-0.172
	c0.007-0.058,0.014-0.116,0.022-0.174c0.007-0.058,0.015-0.117,0.022-0.176c0.007-0.059,0.015-0.119,0.022-0.179
	s0.015-0.12,0.022-0.181c0.007-0.061,0.015-0.122,0.022-0.183s0.015-0.123,0.023-0.185c0.008-0.062,0.015-0.124,0.023-0.187
	c0.008-0.063,0.015-0.126,0.023-0.189S-1.008-3.479-1-3.543c0.008-0.064,0.015-0.128,0.023-0.192C-0.969-3.8-0.961-3.865-0.954-3.93
	c0.008-0.065,0.016-0.13,0.023-0.196c0.008-0.066,0.016-0.131,0.023-0.197c0.008-0.066,0.016-0.132,0.024-0.199
	c0.008-0.066,0.016-0.133,0.024-0.2c0.008-0.067,0.016-0.134,0.024-0.201C-0.828-4.99-0.82-5.058-0.812-5.126
	c0.008-0.068,0.016-0.136,0.024-0.204c0.008-0.068,0.016-0.136,0.024-0.205s0.016-0.137,0.024-0.206
	c0.008-0.069,0.016-0.138,0.024-0.207c0.008-0.069,0.016-0.138,0.024-0.208c0.008-0.069,0.016-0.139,0.024-0.209
	c0.008-0.07,0.016-0.139,0.024-0.209c0.008-0.07,0.016-0.14,0.024-0.21c0.008-0.07,0.016-0.14,0.024-0.211
	c0.008-0.07,0.016-0.141,0.024-0.211c0.008-0.07,0.016-0.141,0.024-0.212s0.016-0.141,0.024-0.212
	C-0.518-7.699-0.51-7.77-0.502-7.841s0.016-0.142,0.024-0.212c0.008-0.071,0.016-0.142,0.023-0.213
	c0.008-0.071,0.016-0.142,0.023-0.213s0.016-0.142,0.023-0.213c0.008-0.071,0.015-0.142,0.023-0.213
	c0.008-0.071,0.015-0.142,0.023-0.213c0.008-0.071,0.015-0.142,0.023-0.212C-0.332-9.4-0.325-9.47-0.317-9.541
	s0.015-0.141,0.023-0.212c0.007-0.07,0.015-0.141,0.022-0.211c0.007-0.07,0.015-0.141,0.022-0.211c0.007-0.07,0.015-0.14,0.022-0.21
	c0.007-0.07,0.015-0.14,0.022-0.209c0.007-0.07,0.014-0.139,0.022-0.209c0.007-0.069,0.014-0.139,0.021-0.208
	c0.007-0.069,0.014-0.138,0.021-0.207s0.014-0.138,0.021-0.206c0.007-0.069,0.014-0.137,0.021-0.205
	c0.007-0.068,0.014-0.136,0.021-0.204s0.014-0.135,0.02-0.203c0.007-0.067,0.013-0.135,0.02-0.202s0.013-0.134,0.02-0.2
	S-0.006-12.571,0-12.637s0.013-0.132,0.019-0.198c0.006-0.066,0.013-0.131,0.019-0.196c0.006-0.065,0.012-0.13,0.018-0.194
	s0.012-0.129,0.018-0.193c0.006-0.064,0.012-0.128,0.018-0.191c0.006-0.063,0.012-0.126,0.017-0.189
	c0.006-0.063,0.011-0.125,0.017-0.187c0.006-0.062,0.011-0.124,0.017-0.185c0.006-0.061,0.011-0.123,0.016-0.183
	c0.005-0.061,0.011-0.121,0.016-0.181c0.005-0.06,0.01-0.12,0.016-0.179c0.005-0.059,0.01-0.118,0.015-0.177
	c0.005-0.059,0.01-0.117,0.015-0.174c0.005-0.058,0.01-0.115,0.014-0.172c0.005-0.057,0.009-0.113,0.014-0.17
	s0.009-0.112,0.014-0.167c0.004-0.055,0.009-0.11,0.013-0.164c0.004-0.054,0.008-0.108,0.013-0.162
	c0.004-0.053,0.008-0.106,0.012-0.159c0.004-0.053,0.008-0.105,0.012-0.156c0.004-0.052,0.008-0.103,0.011-0.153
	c0.004-0.051,0.007-0.101,0.011-0.15c0.003-0.05,0.007-0.099,0.01-0.147c0.003-0.049,0.007-0.097,0.01-0.144
	s0.006-0.094,0.009-0.141c0.003-0.046,0.006-0.092,0.009-0.138c0.003-0.045,0.005-0.09,0.008-0.134
	c0.003-0.044,0.005-0.088,0.007-0.131c0.002-0.043,0.005-0.086,0.007-0.127c0.002-0.042,0.004-0.083,0.006-0.124
	c0.002-0.041,0.004-0.081,0.006-0.12c0.002-0.039,0.004-0.078,0.005-0.116c0.002-0.038,0.003-0.076,0.005-0.113
	c0.001-0.037,0.003-0.073,0.004-0.109c0.001-0.036-0.051-0.071-0.104-0.105s-0.106-0.068-0.105-0.101
	c0.001-0.033-0.052-0.065-0.105-0.097C0.053-18.398,0-18.429,0-18.459s0-0.06,0-0.088c0-0.029,0-0.057,0-0.084
	c0-0.027,0.054-0.054,0.107-0.08c0.053-0.026,0.107-0.051,0.106-0.075c-0.001-0.024,0.026-0.048,0.052-0.071
	s0.052-0.045,0.051-0.066c0-0.005,0.013-0.011,0.026-0.016c0.013-0.005,0.026-0.011,0.026-0.016c0-0.006,0.006-0.011,0.013-0.017
	c0.006-0.006,0.013-0.011,0.012-0.017c0-0.006,0.003-0.011,0.006-0.017c0.003-0.006,0.006-0.012,0.006-0.017
	s-0.204-0.012-0.202-0.018C0.204-19.048,0-19.054,0-19.06c0-0.006,0-0.012,0-0.018s0-0.012,0-0.018s0-0.012,0-0.018s0-0.012,0-0.019
	c0-0.006,0-0.013,0-0.019c0-0.006,0.204-0.013,0.203-0.019c0-0.006,0.101-0.013,0.101-0.019c0-0.006,0.05-0.013,0.05-0.019
	c-0.001-0.007,0.025-0.013,0.024-0.02c0-0.007,0.012-0.013,0.011-0.02c-0.001-0.007-0.192-0.013-0.193-0.02
	C0.195-19.277,0-19.283,0-19.29s0-0.014,0-0.02c0-0.007,0-0.014,0-0.021s0.196-0.014,0.196-0.021
	c-0.001-0.007,0.097-0.014,0.097-0.021C0.292-19.38,0.34-19.387,0.34-19.394c-0.001-0.007,0.023-0.014,0.023-0.021
	c-0.001-0.007,0.011-0.014,0.01-0.021s-0.184-0.014-0.185-0.021S0-19.472,0-19.479s0-0.014,0-0.022c0-0.007,0.188-0.015,0.187-0.022
	s0.093-0.015,0.093-0.022c-0.001-0.007,0.046-0.015,0.045-0.022c-0.001-0.007,0.022-0.015,0.022-0.022
	c-0.001-0.007-0.17-0.015-0.17-0.022C0.176-19.619,0-19.626,0-19.634s0-0.015,0-0.023c0-0.008,0-0.015,0-0.023
	c0-0.008,0.179-0.015,0.178-0.023c-0.001-0.008,0.089-0.015,0.088-0.023c-0.001-0.008,0.044-0.015,0.043-0.023
	c-0.001-0.008,0.021-0.015,0.02-0.023c-0.001-0.008-0.161-0.015-0.162-0.023C0.167-19.801,0-19.809,0-19.817s0-0.016,0-0.023
	s0.171-0.016,0.17-0.023c-0.001-0.008,0.085-0.016,0.084-0.023c-0.001-0.008,0.041-0.016,0.041-0.023
	c-0.001-0.008,0.02-0.016,0.019-0.024c-0.001-0.008-0.153-0.016-0.154-0.024S0-19.973,0-19.981s0-0.016,0-0.024
	s0.162-0.016,0.161-0.024c-0.001-0.008,0.08-0.016,0.079-0.024c-0.001-0.008,0.039-0.016,0.038-0.024
	c-0.001-0.008,0.019-0.016,0.018-0.024c-0.001-0.008-0.145-0.016-0.146-0.024C0.15-20.132,0-20.14,0-20.148c0-0.008,0-0.016,0-0.024
	c0-0.008,0.153-0.016,0.152-0.024c-0.001-0.008,0.076-0.016,0.075-0.024c-0.001-0.008,0.037-0.016,0.036-0.024
	c-0.001-0.008,0.018-0.016,0.017-0.024s-0.136-0.016-0.137-0.024C0.141-20.3,0-20.308,0-20.316s0-0.016,0-0.024
	s0.144-0.016,0.143-0.024s0.071-0.016,0.07-0.024c-0.001-0.008,0.035-0.016,0.034-0.024c-0.001-0.008,0.016-0.016,0.016-0.024
	c-0.001-0.008-0.128-0.016-0.129-0.024C0.132-20.468,0-20.476,0-20.484c0-0.008,0-0.016,0-0.024c0-0.008,0.134-0.016,0.133-0.024
	C0.133-20.54,0.2-20.548,0.199-20.556s0.032-0.016,0.031-0.024c-0.001-0.008,0.015-0.016,0.014-0.024
	c-0.001-0.008-0.119-0.016-0.12-0.024C0.124-20.635,0-20.642,0-20.65c0-0.008,0-0.016,0-0.024c0-0.008,0.125-0.016,0.124-0.023
	c-0.001-0.008,0.062-0.016,0.061-0.023c-0.001-0.008,0.03-0.016,0.029-0.023c-0.001-0.008,0.014-0.016,0.013-0.023
	c-0.001-0.008-0.111-0.015-0.112-0.023C0.115-20.798,0-20.806,0-20.814s0-0.015,0-0.023c0-0.008,0.116-0.015,0.116-0.023
	c-0.001-0.008,0.057-0.015,0.057-0.023C0.171-20.89,0.2-20.898,0.199-20.905c-0.001-0.008,0.013-0.015,0.012-0.023
	c-0.001-0.008-0.103-0.015-0.104-0.023C0.107-20.958,0-20.966,0-20.973c0-0.007,0-0.015,0-0.022c0-0.007,0.108-0.015,0.107-0.022
	c-0.001-0.007,0.053-0.015,0.053-0.022c-0.001-0.007,0.026-0.015,0.025-0.022c-0.001-0.007,0.012-0.015,0.011-0.022
	c-0.001-0.007-0.096-0.014-0.097-0.022S0-21.12,0-21.127s0-0.014,0-0.021c0-0.007,0.1-0.014,0.1-0.021
	c-0.001-0.007,0.05-0.014,0.049-0.021s0.024-0.014,0.023-0.021c-0.001-0.007,0.011-0.014,0.011-0.021s-0.089-0.014-0.09-0.021
	C0.092-21.26,0-21.267,0-21.274c0-0.007,0-0.014,0-0.02c0-0.007,0.093-0.013,0.093-0.02s0.046-0.013,0.046-0.02
	s0.022-0.013,0.022-0.02c-0.001-0.007,0.011-0.013,0.01-0.02c-0.001-0.007-0.083-0.013-0.084-0.019C0.086-21.4,0-21.406,0-21.412
	s0-0.013,0-0.019c0-0.006,0-0.013,0-0.019c0-0.006,0.087-0.012,0.086-0.019s0.043-0.012,0.042-0.018
	c-0.001-0.006,0.021-0.012,0.02-0.018c0-0.006,0.01-0.012,0.01-0.018c0-0.006-0.077-0.012-0.078-0.018
	C0.08-21.547,0-21.553,0-21.559s0-0.012,0-0.017c0-0.006,0-0.011,0-0.017s0-0.011,0-0.017s0-0.011,0-0.017c0-0.006,0-0.011,0-0.016
	s0-0.011,0-0.016c0-0.005,0-0.01,0-0.015c0-0.005,0-0.01,0-0.015s0-0.01,0-0.015c0-0.005,0-0.01,0-0.015s0-0.01,0-0.015
	s0-0.01,0-0.016c0-0.005,0-0.011,0-0.016c0-0.005,0-0.011,0-0.016c0-0.005,0-0.011,0-0.016s0-0.011,0-0.017c0-0.006,0-0.011,0-0.017
	s0-0.011,0-0.017s0-0.011,0-0.017s0-0.011,0-0.017c0-0.006,0-0.012,0-0.017s0-0.012,0-0.018c0-0.006,0-0.012,0-0.018
	s0-0.012,0-0.018c0-0.006,0-0.012,0-0.018s0-0.012,0-0.018c0-0.006,0-0.012,0-0.018c0-0.006,0-0.012,0-0.019
	c0-0.006,0-0.012,0-0.019c0-0.006,0-0.013,0-0.019c0-0.006,0-0.013,0-0.019c0-0.006,0-0.013,0-0.019s0-0.013,0-0.019
	s0-0.013,0-0.019s0-0.013,0-0.02s0-0.013,0-0.02c0-0.007,0-0.013,0-0.02s0-0.013,0-0.02c0-0.007,0-0.013,0-0.02
	c0-0.007,0-0.013,0-0.02s0-0.013,0-0.02c0-0.007,0-0.014,0-0.02s0-0.014,0-0.02c0-0.007,0-0.014,0-0.021s0-0.014,0-0.021
	c0-0.007,0-0.014,0-0.021s0-0.014,0-0.021s0-0.014,0-0.021s0-0.014,0-0.021s0-0.014,0-0.021s0-0.014,0-0.021s0-0.014,0-0.021
	c0-0.007,0-0.014,0-0.021s0-0.014,0-0.021s0-0.014,0-0.021c0-0.007,0-0.014,0-0.021c0-0.007,0-0.014,0-0.021
	c0-0.007,0-0.014,0-0.022c0-0.007,0-0.014,0-0.022c0-0.007,0-0.014,0-0.022s0-0.014,0-0.022s0-0.014,0-0.022s0-0.014,0-0.022
	s0-0.014,0-0.022c0-0.007,0-0.014,0-0.022c0-0.007,0-0.015,0-0.022c0-0.007,0-0.015,0-0.022s0-0.015,0-0.022
	c0-0.007,0-0.015,0-0.022c0-0.007,0-0.015,0-0.022c0-0.007,0-0.015,0-0.022c0-0.007,0-0.015,0-0.022c0-0.007,0-0.015,0-0.022
	s0-0.015,0-0.022s0-0.015,0-0.022c0-0.007,0-0.015,0-0.022s0-0.014,0-0.022s0-0.014,0-0.022s0-0.014,0-0.022s0-0.014,0-0.022
	c0-0.007,0-0.014,0-0.022c0-0.007,0-0.014,0-0.022c0-0.007,0-0.014,0-0.022c0-0.007,0-0.014,0-0.021s0-0.014,0-0.021
	c0-0.007,0-0.014,0-0.021c0-0.007,0-0.014,0-0.021c0-0.007,0-0.014,0-0.021c0-0.007,0-0.014,0-0.021s0-0.014,0-0.021
	s0-0.014,0-0.021s0-0.014,0-0.021s0-0.014,0-0.021s0-0.014,0-0.021c0-0.007,0-0.014,0-0.021s0-0.014,0-0.021
	c0-0.007,0-0.014,0-0.021s0-0.014,0-0.02c0-0.007,0-0.014,0-0.02c0-0.007,0-0.014,0-0.02s0-0.013,0-0.02s0-0.013,0-0.02
	c0-0.007,0-0.013,0-0.02c0-0.007,0-0.013,0-0.02s0-0.013,0-0.02s0-0.013,0-0.02s0-0.013,0-0.019c0-0.006,0-0.013,0-0.019
	s0-0.013,0-0.019c0-0.006,0-0.013,0-0.019c0-0.006,0-0.013,0-0.019c0-0.006,0-0.013,0-0.019s0-0.012,0-0.019
	c0-0.006,0-0.012,0-0.018s0-0.012,0-0.018c0-0.006,0-0.012,0-0.018s0-0.012,0-0.018c0-0.006,0-0.012,0-0.018s0-0.012,0-0.018
	s0-0.012,0-0.017s0-0.012,0-0.017s0-0.011,0-0.017c0-0.006,0-0.011,0-0.017s0-0.011,0-0.017s0-0.011,0-0.017s0-0.011,0-0.016
	s0-0.011,0-0.016c0-0.005,0-0.011,0-0.016c0-0.005,0-0.011,0-0.016c0-0.005,0-0.01,0-0.016c0-0.005,0-0.01,0-0.015s0-0.01,0-0.015
	c0-0.005,0-0.01,0-0.015s0-0.01,0-0.015c0-0.006,0-0.012,0-0.017s0-0.012,0-0.018c0-0.006,0-0.012,0-0.018c0-0.006,0-0.012,0-0.018
	s0-0.012,0-0.018s0-0.012,0-0.019s0.037-0.013,0.036-0.019c0-0.006,0.018-0.013,0.018-0.019s0.009-0.013,0.008-0.019
	c0-0.007-0.03-0.013-0.03-0.02c0-0.007-0.032-0.013-0.032-0.02s0-0.013,0-0.02s0-0.014,0-0.02c0-0.007,0.032-0.014,0.032-0.021
	c0-0.007,0.016-0.014,0.015-0.021s-0.021-0.014-0.022-0.021C0.025-24.456,0-24.463,0-24.47s0-0.014,0-0.021s0-0.014,0-0.022
	s0.028-0.015,0.027-0.022s0.013-0.015,0.013-0.022c-0.001-0.007-0.018-0.015-0.018-0.022C0.021-24.587,0-24.594,0-24.602
	s0-0.015,0-0.023s0-0.015,0-0.023c0-0.008,0.023-0.015,0.022-0.023s0.011-0.015,0.01-0.023c-0.001-0.008-0.014-0.015-0.015-0.023
	C0.017-24.724,0-24.732,0-24.74c0-0.008,0-0.016,0-0.024c0-0.008,0.018-0.016,0.017-0.024s-0.006-0.016-0.006-0.024
	S0-24.826,0-24.834c0-0.008,0-0.016,0-0.024s0-0.016,0-0.024s0.013-0.016,0.012-0.024s-0.004-0.016-0.004-0.024
	C0.007-24.94,0-24.948,0-24.956s0-0.016,0-0.025s0.003-0.016,0.003-0.025S0-25.022,0-25.03c0-0.008,0-0.017,0-0.025s0-0.017,0-0.025
	c0-0.008,0-0.017,0-0.025s0-0.017,0-0.025c0-0.008,0-0.017,0-0.025c0-0.008,0-0.017,0-0.025s0-0.017,0-0.025
	s-0.001-0.017-0.002-0.026c-0.001-0.009-0.001-0.017-0.002-0.026s-0.001-0.017-0.002-0.026c-0.001-0.009-0.001-0.017-0.002-0.026
	s-0.001-0.017-0.002-0.026c-0.001-0.009-0.001-0.017-0.002-0.026c-0.001-0.009-0.001-0.017-0.002-0.026
	c-0.001-0.009-0.001-0.017-0.002-0.026s-0.001-0.017-0.002-0.026c-0.001-0.009-0.001-0.017-0.002-0.026s-0.001-0.017-0.002-0.026
	s-0.001-0.017-0.002-0.026c-0.001-0.009-0.001-0.017-0.002-0.026c-0.001-0.009-0.001-0.017-0.002-0.026s-0.001-0.017-0.002-0.026
	c-0.001-0.009-0.001-0.017-0.002-0.026c-0.001-0.009-0.001-0.017-0.002-0.026c-0.001-0.009-0.001-0.017-0.002-0.026
	c-0.001-0.009-0.001-0.017-0.002-0.026c-0.001-0.009-0.001-0.017-0.002-0.026c-0.001-0.009-0.001-0.017-0.002-0.026
	s-0.001-0.017-0.002-0.026s-0.001-0.017-0.002-0.026c-0.001-0.009-0.001-0.017-0.002-0.026c-0.001-0.009-0.001-0.017-0.002-0.026
	c-0.001-0.009-0.001-0.017-0.002-0.026c-0.001-0.009-0.001-0.017-0.002-0.026c-0.001-0.009-0.001-0.017-0.001-0.026
	c0-0.009-0.001-0.017-0.001-0.026c0-0.009-0.001-0.017-0.001-0.026c0-0.009,0.028-0.017,0.027-0.026
	c0-0.008,0.027-0.017,0.027-0.025s0-0.017,0-0.025s-0.027-0.017-0.026-0.025s-0.011-0.017-0.01-0.025
	c0.002-0.008-0.004-0.017-0.002-0.025s0-0.017,0.002-0.025c0.002-0.008,0.017-0.017,0.018-0.025S0-26.201,0-26.209s0-0.017,0-0.025
	s0-0.016,0-0.025s-0.013-0.016-0.012-0.025s-0.004-0.016-0.003-0.024c0.002-0.008,0-0.016,0.002-0.024
	c0.002-0.008,0.002-0.016,0.004-0.024c0.002-0.008,0.003-0.016,0.005-0.024C-0.002-26.388,0-26.396,0-26.404
	c0-0.008,0-0.016,0-0.024s0-0.016,0-0.024s0-0.016,0-0.024c0-0.008,0-0.016,0-0.023s0-0.016,0-0.023s0-0.015,0-0.023
	c0-0.008,0-0.015,0-0.023c0-0.008,0-0.015,0-0.023s0-0.015,0-0.023s-0.001-0.015-0.001-0.022c-0.001-0.007-0.002-0.015-0.004-0.022
	s-0.003-0.015-0.005-0.022c-0.002-0.007-0.004-0.015-0.006-0.022s0-0.014,0.002-0.022c0.002-0.007,0.004-0.014,0.003-0.021
	c-0.001-0.007,0.002-0.014,0.005-0.021C-0.004-26.773,0-26.78,0-26.787c0-0.007,0-0.014,0-0.021s0-0.014,0-0.021
	c0-0.007-0.004-0.014-0.009-0.02c-0.005-0.007-0.009-0.014-0.01-0.02s-0.003-0.013-0.006-0.02s0.011-0.013,0.011-0.02
	c0-0.007,0.014-0.013,0.014-0.02s0-0.013,0-0.019s0-0.013,0-0.019c0-0.006,0-0.013,0-0.019s0-0.012,0-0.019s0-0.012,0-0.018
	s0-0.012,0-0.018s0-0.012,0-0.018s-0.015-0.012-0.014-0.018c0.001-0.006,0.004-0.012,0.005-0.017C-0.008-27.098,0-27.103,0-27.109
	c0-0.005,0-0.01,0-0.016c0-0.005,0-0.011,0-0.016c0-0.005-0.003-0.011-0.003-0.016S0-27.167,0-27.173s0-0.011,0-0.017
	c0-0.006,0-0.012,0-0.017c0-0.006-0.003-0.012-0.002-0.018S0-27.238,0-27.244c0-0.006,0-0.012,0-0.019c0-0.006,0-0.013,0-0.019
	c0-0.006,0-0.013,0-0.019s0-0.013,0.001-0.02s0.001-0.013,0.002-0.02c0.001-0.007,0.001-0.013,0.002-0.02s0.002-0.014,0.002-0.02
	c0.001-0.007,0.002-0.014,0.003-0.021c0.001-0.007,0.002-0.014,0.003-0.021s0.002-0.014,0.003-0.021s0.002-0.014,0.003-0.022
	c0.001-0.007,0.002-0.015,0.003-0.022s0.002-0.015,0.003-0.022s0.002-0.015,0.003-0.022s0.002-0.015,0.003-0.023
	c0.001-0.008,0.002-0.015,0.003-0.023c0.001-0.008,0.002-0.015,0.003-0.023c0.001-0.008,0.002-0.015,0.003-0.023
	c0.001-0.008,0.002-0.016,0.003-0.023s0.002-0.016,0.003-0.024c0.001-0.008,0.002-0.016,0.003-0.024
	c0.001-0.008,0.002-0.016,0.003-0.024c0.001-0.008,0.002-0.016,0.003-0.024c0.001-0.008,0.002-0.016,0.004-0.024
	s0.002-0.016,0.004-0.024c0.001-0.008,0.002-0.016,0.004-0.025s0.002-0.016,0.004-0.025c0.001-0.008,0.002-0.017,0.004-0.025
	c0.001-0.008,0.003-0.017,0.004-0.025c0.001-0.008,0.003-0.017,0.004-0.025c0.001-0.008,0.003-0.017,0.004-0.025
	s0.003-0.017,0.004-0.025s0.003-0.017,0.004-0.025c0.001-0.008,0.003-0.017,0.004-0.025c0.001-0.008,0.003-0.017,0.004-0.025
	s0.003-0.017,0.004-0.025c0.001-0.008,0.003-0.017,0.004-0.025s0.003-0.017,0.004-0.026c0.002-0.009,0.003-0.017,0.005-0.026
	c0.002-0.009,0.003-0.017,0.005-0.026c0.002-0.009,0.003-0.017,0.005-0.026c0.002-0.009,0.003-0.017,0.005-0.026
	c0.002-0.009,0.003-0.017,0.005-0.026c0.002-0.009,0.003-0.017,0.005-0.026c0.002-0.009,0.003-0.017,0.005-0.026
	c0.002-0.009,0.003-0.017,0.005-0.025c0.002-0.008,0.003-0.017,0.005-0.025c0.002-0.008,0.004-0.017,0.005-0.025
	s0.004-0.017,0.005-0.025c0.002-0.008,0.004-0.017,0.006-0.025s0.004-0.017,0.006-0.025c0.002-0.008,0.004-0.017,0.006-0.025
	c0.002-0.008,0.004-0.017,0.006-0.025c0.002-0.008,0.004-0.017,0.006-0.025c0.002-0.008,0.004-0.017,0.006-0.025
	c0.002-0.008,0.004-0.016,0.006-0.025s0.004-0.016,0.006-0.025c0.002-0.008,0.004-0.016,0.006-0.024
	c0.002-0.008,0.004-0.016,0.006-0.024c0.002-0.008,0.004-0.016,0.007-0.024c0.002-0.008,0.004-0.016,0.007-0.024
	c0.002-0.008,0.004-0.016,0.007-0.024c0.002-0.008,0.005-0.016,0.007-0.024c0.002-0.008,0.005-0.016,0.007-0.023
	c0.002-0.008,0.005-0.015,0.007-0.023c0.002-0.008,0.005-0.015,0.007-0.023c0.002-0.008,0.005-0.015,0.007-0.023
	c0.002-0.008,0.005-0.015,0.007-0.023c0.002-0.007,0.005-0.015,0.008-0.022c0.003-0.007,0.005-0.015,0.008-0.022
	c0.003-0.007,0.005-0.015,0.008-0.022s0.005-0.014,0.008-0.022c0.003-0.007,0.005-0.014,0.008-0.021
	c0.003-0.007,0.005-0.014,0.008-0.021c0.003-0.007,0.005-0.014,0.008-0.021c0.003-0.007,0.006-0.014,0.008-0.02
	c0.003-0.007,0.006-0.013,0.008-0.02c0.003-0.007,0.006-0.013,0.009-0.02c0.003-0.007,0.006-0.013,0.009-0.02
	c0.003-0.006,0.006-0.013,0.009-0.019c0.003-0.006,0.006-0.013,0.009-0.019s0.006-0.012,0.009-0.019
	c0.003-0.006,0.006-0.012,0.009-0.018c0.003-0.006,0.006-0.012,0.009-0.018c0.003-0.006,0.006-0.012,0.01-0.017
	c0.003-0.006,0.006-0.011,0.01-0.017c0.003-0.006,0.007-0.011,0.01-0.017c0.003-0.005,0.007-0.011,0.01-0.016
	s0.007-0.011,0.01-0.016s0.007-0.01,0.01-0.015c0.003-0.005,0.007-0.01,0.01-0.015s0.007-0.01,0.011-0.015
	c0.004-0.005,0.007-0.01,0.011-0.014c0.004-0.005,0.007-0.009,0.011-0.014c0.004-0.005,0.007-0.009,0.011-0.013
	c0.004-0.004,0.007-0.009,0.011-0.013c0.004-0.004,0.008-0.008,0.011-0.012c0.004-0.004,0.008-0.008,0.011-0.012
	c0.004-0.004,0.008-0.008,0.012-0.011c0.004-0.004,0.008-0.007,0.012-0.011s0.008-0.007,0.012-0.01
	c0.004-0.003,0.008-0.007,0.012-0.01s0.008-0.006,0.012-0.009c0.004-0.003,0.008-0.006,0.012-0.009
	c0.004-0.003,0.008-0.006,0.013-0.008s0.008-0.005,0.013-0.008c0.004-0.002,0.009-0.005,0.013-0.007s0.009-0.004,0.013-0.007
	c0.004-0.002,0.009-0.004,0.013-0.006s0.009-0.004,0.013-0.005c0.004-0.002,0.009-0.003,0.014-0.005
	c0.005-0.002,0.009-0.003,0.014-0.004c0.005-0.001,0.009-0.003,0.014-0.004c0.005-0.001,0.009-0.063,0.014-0.126
	c0.005-0.062,0.009-0.124,0.014-0.125c0.005-0.001,0.01-0.063,0.014-0.125S0.817-30,0.822-30s0.01,0,0.015,0s0.01,0,0.015,0
	c0.004,0,0.008,0.062,0.012,0.123c0.004,0.062,0.008,0.123,0.012,0.124c0.004,0,0.008,0.032,0.011,0.063s0.007,0.063,0.011,0.064
	c0.004,0.001,0.007,0.017,0.011,0.033s0.007,0.033,0.011,0.034c0.003,0.001,0.007,0.01,0.01,0.019
	c0.003,0.009,0.007,0.018,0.01,0.02c0.003,0.001,0.007,0.007,0.01,0.012c0.003,0.005,0.007,0.011,0.01,0.013
	s0.006,0.006,0.009,0.009c0.003,0.004,0.006,0.008,0.009,0.01c0.003,0.002,0.006,0.005,0.009,0.008
	c0.003,0.003,0.006,0.006,0.009,0.009c0.003,0.002,0.006,0.005,0.009,0.008s0.006,0.006,0.008,0.009s0.006,0.006,0.008,0.009
	c0.003,0.003,0.005,0.006,0.008,0.009c0.003,0.003,0.005,0.006,0.008,0.009c0.003,0.003,0.005,0.006,0.008,0.01
	c0.003,0.003,0.005,0.007,0.008,0.01c0.002,0.003,0.005,0.007,0.007,0.01c0.002,0.003,0.005,0.007,0.007,0.011
	c0.002,0.004,0.005,0.007,0.007,0.011c0.002,0.004,0.005,0.008,0.007,0.011c0.002,0.004,0.004,0.008,0.007,0.012
	s0.004,0.008,0.006,0.012c0.002,0.004,0.004,0.008,0.006,0.012c0.002,0.004,0.004,0.008,0.006,0.013s0.004,0.009,0.006,0.013
	c0.002,0.004,0.004,0.009,0.006,0.013s0.004,0.009,0.006,0.014c0.002,0.005,0.004,0.009,0.006,0.014s0.004,0.01,0.005,0.014
	s0.004,0.01,0.005,0.015s0.003,0.01,0.005,0.015c0.002,0.005,0.003,0.01,0.005,0.015c0.002,0.005,0.003,0.01,0.005,0.015
	c0.002,0.005,0.003,0.01,0.005,0.016c0.002,0.005,0.003,0.011,0.005,0.016c0.002,0.005,0.003,0.011,0.004,0.016
	c0.001,0.005,0.003,0.011,0.004,0.016s0.003,0.011,0.004,0.017c0.001,0.006,0.003,0.011,0.004,0.017s0.003,0.011,0.004,0.017
	c0.001,0.006,0.003,0.012,0.004,0.017c0.001,0.006,0.003,0.012,0.004,0.018s0.002,0.012,0.004,0.018
	c0.001,0.006,0.002,0.012,0.004,0.018c0.001,0.006,0.002,0.012,0.003,0.018c0.001,0.006,0.002,0.012,0.003,0.018
	c0.001,0.006,0.002,0.012,0.003,0.019s0.002,0.012,0.003,0.019c0.001,0.006,0.002,0.013,0.003,0.019
	c0.001,0.006,0.002,0.013,0.003,0.019c0.001,0.006,0.002,0.013,0.003,0.019s0.002,0.013,0.003,0.019
	c0.001,0.006,0.002,0.013,0.003,0.019c0.001,0.006,0.002,0.013,0.003,0.02c0.001,0.007,0.002,0.013,0.003,0.02
	c0.001,0.007,0.002,0.013,0.003,0.02c0.001,0.007,0.002,0.013,0.003,0.02s0.002,0.013,0.002,0.02
	c0.001,0.007,0.002,0.013,0.002,0.02c0.001,0.007,0.002,0.013,0.002,0.02c0.001,0.007,0.002,0.013,0.002,0.02
	c0.001,0.007,0.002,0.014,0.002,0.02c0.001,0.007,0.001,0.014,0.002,0.02c0.001,0.007,0.001,0.014,0.002,0.02
	c0.001,0.007,0.001,0.014,0.002,0.02c0.001,0.007,0.001,0.014,0.002,0.02c0.001,0.007,0.001,0.014,0.002,0.02
	c0.001,0.007,0.001,0.014,0.002,0.021c0.001,0.007,0.001,0.014,0.002,0.021c0.001,0.007,0.001,0.014,0.002,0.021
	c0.001,0.007,0.001,0.014,0.002,0.021c0.001,0.007,0.001,0.014,0.002,0.021s0.001,0.014,0.002,0.021
	c0.001,0.007,0.001,0.014,0.002,0.021c0.001,0.007,0.001,0.014,0.002,0.02s0.001,0.014,0.002,0.02
	c0.001,0.007,0.001,0.014,0.002,0.02c0.001,0.007,0.001,0.014,0.002,0.02c0.001,0.007,0.001,0.014,0.002,0.02
	c0.001,0.007,0.001,0.014,0.002,0.02c0.001,0.007,0.001,0.013,0.002,0.02c0.001,0.007,0.001,0.013,0.002,0.02
	s0.001,0.013,0.002,0.02c0.001,0.007,0.001,0.013,0.002,0.02s0.001,0.013,0.002,0.02c0.001,0.007,0.001,0.013,0.002,0.02
	s0.001,0.013,0.002,0.02c0.001,0.007,0.001,0.013,0.002,0.02s0.001,0.013,0.002,0.019c0.001,0.006,0.001,0.013,0.002,0.019
	c0.001,0.006,0.001,0.013,0.002,0.019c0.001,0.006,0.001,0.013,0.002,0.019c0.001,0.006,0.001,0.013,0.002,0.019
	c0.001,0.006,0.002,0.012,0.002,0.019c0.001,0.006,0.002,0.012,0.002,0.019s0.002,0.012,0.002,0.018
	c0.001,0.006,0.002,0.012,0.002,0.018c0.001,0.006,0.002,0.012,0.003,0.018s0.002,0.012,0.003,0.018
	c0.001,0.006,0.002,0.012,0.003,0.018c0.001,0.006,0.002,0.012,0.003,0.017c0.001,0.006,0.002,0.011,0.003,0.017
	c0.001,0.006,0.002,0.011,0.003,0.017c0.001,0.006,0.002,0.011,0.003,0.017c0.001,0.006,0.002,0.011,0.003,0.016
	c0.001,0.005,0.002,0.011,0.003,0.016c0.001,0.005,0.002,0.011,0.003,0.016c0.001,0.005,0.002,0.011,0.003,0.016
	c0.001,0.005,0.002,0.01,0.003,0.015s0.002,0.01,0.003,0.015c0.001,0.005,0.002,0.01,0.004,0.015s0.002,0.01,0.004,0.015
	c0.001,0.005,0.003,0.01,0.004,0.014s0.003,0.009,0.004,0.014c0.001,0.005,0.003,0.009,0.004,0.014
	c0.001,0.005,0.003,0.009,0.004,0.013c0.001,0.004,0.003,0.009,0.004,0.013c0.001,0.004,0.003,0.009,0.004,0.013
	c0.001,0.004,0.003,0.008,0.004,0.012s0.003,0.008,0.005,0.012c0.002,0.004,0.003,0.008,0.005,0.012
	c0.002,0.004,0.003,0.008,0.005,0.011c0.002,0.004,0.003,0.007,0.005,0.011c0.001,0.003,0.003,0.006,0.004,0.009
	c0.001,0.003,0.003,0.006,0.004,0.009c0.001,0.003,0.003,0.006,0.005,0.009c0.002,0.003,0.003,0.006,0.005,0.009
	c0.002,0.003,0.003,0.006,0.005,0.009c0.002,0.003,0.003,0.006,0.005,0.009s0.003,0.006,0.005,0.009s0.004,0.006,0.005,0.009
	s0.004,0.006,0.005,0.009c0.002,0.003,0.004,0.006,0.006,0.01c0.002,0.003,0.004,0.006,0.006,0.01
	c0.002,0.003,0.004,0.006,0.006,0.01s0.004,0.006,0.006,0.01c0.002,0.003,0.004,0.007,0.006,0.01
	c0.002,0.003,0.004,0.007,0.006,0.01s0.004,0.007,0.006,0.01s0.004,0.007,0.007,0.01c0.002,0.003,0.004,0.007,0.007,0.01
	c0.002,0.003,0.005,0.007,0.007,0.01c0.002,0.003,0.005,0.007,0.007,0.01c0.002,0.003,0.005,0.007,0.007,0.01
	c0.002,0.003,0.005,0.007,0.007,0.01c0.002,0.003,0.005,0.007,0.007,0.01c0.002,0.003,0.005,0.007,0.007,0.01
	s0.005,0.007,0.007,0.01c0.003,0.003,0.005,0.007,0.008,0.01c0.003,0.004,0.005,0.007,0.008,0.011
	c0.003,0.004,0.005,0.007,0.008,0.011s0.005,0.007,0.008,0.011c0.003,0.004,0.005,0.007,0.008,0.011
	c0.003,0.004,0.005,0.007,0.008,0.011c0.003,0.004,0.005,0.007,0.008,0.011s0.005,0.007,0.008,0.011
	c0.003,0.004,0.006,0.007,0.008,0.011c0.003,0.004,0.006,0.007,0.008,0.011c0.003,0.004,0.006,0.007,0.008,0.011
	c0.003,0.004,0.006,0.007,0.008,0.011c0.003,0.004,0.006,0.007,0.009,0.011c0.003,0.004,0.006,0.007,0.009,0.011
	c0.003,0.004,0.006,0.007,0.009,0.011c0.003,0.004,0.006,0.007,0.009,0.011s0.006,0.007,0.009,0.011
	c0.003,0.004,0.006,0.007,0.009,0.011c0.003,0.004,0.006,0.007,0.009,0.011c0.003,0.004,0.006,0.007,0.009,0.011
	c0.003,0.004,0.006,0.007,0.009,0.011c0.003,0.004,0.006,0.008,0.009,0.011c0.003,0.004,0.006,0.008,0.009,0.011
	s0.006,0.008,0.009,0.011c0.003,0.004,0.006,0.008,0.009,0.011c0.003,0.004,0.006,0.008,0.009,0.011
	c0.003,0.004,0.006,0.008,0.009,0.011c0.003,0.004,0.006,0.008,0.009,0.011s0.006,0.008,0.009,0.011
	c0.003,0.004,0.006,0.008,0.009,0.011s0.006,0.008,0.009,0.011s0.006,0.008,0.009,0.011c0.003,0.004,0.006,0.008,0.009,0.011
	c0.003,0.004,0.006,0.008,0.009,0.011c0.003,0.004,0.006,0.008,0.009,0.012c0.003,0.004,0.006,0.008,0.009,0.012
	c0.003,0.004,0.006,0.008,0.009,0.012s0.006,0.008,0.009,0.012s0.006,0.008,0.009,0.012c0.003,0.004,0.006,0.008,0.009,0.012
	c0.003,0.004,0.006,0.008,0.009,0.012c0.003,0.004,0.006,0.008,0.009,0.012c0.003,0.004,0.006,0.008,0.009,0.012
	c0.003,0.004,0.006,0.008,0.009,0.012c0.003,0.004,0.006,0.008,0.009,0.012c0.003,0.004,0.006,0.008,0.009,0.012
	c0.003,0.004,0.006,0.008,0.009,0.012s0.006,0.008,0.009,0.012c0.003,0.004,0.006,0.008,0.009,0.012
	c0.003,0.004,0.006,0.008,0.009,0.012s0.006,0.008,0.009,0.012s0.006,0.008,0.009,0.012s0.006,0.008,0.009,0.011
	s0.006,0.008,0.009,0.011c0.003,0.004,0.006,0.008,0.009,0.011c0.003,0.004,0.006,0.008,0.009,0.011s0.006,0.008,0.009,0.011
	c0.003,0.004,0.006,0.008,0.009,0.011c0.003,0.004,0.006,0.008,0.008,0.011c0.003,0.004,0.006,0.008,0.008,0.011
	c0.003,0.004,0.006,0.008,0.008,0.011c0.003,0.004,0.006,0.008,0.008,0.011c0.003,0.004,0.005,0.008,0.008,0.011
	c0.003,0.004,0.005,0.008,0.008,0.011c0.003,0.004,0.005,0.008,0.008,0.011c0.003,0.004,0.005,0.007,0.008,0.011
	c0.003,0.004,0.005,0.007,0.008,0.011c0.003,0.004,0.005,0.007,0.008,0.011c0.003,0.004,0.005,0.007,0.008,0.011
	s0.005,0.007,0.008,0.011c0.003,0.004,0.005,0.007,0.007,0.011c0.002,0.004,0.005,0.007,0.007,0.011
	c0.002,0.004,0.005,0.007,0.007,0.011c0.002,0.004,0.005,0.007,0.007,0.011c0.002,0.004,0.005,0.007,0.007,0.011
	c0.002,0.004,0.005,0.007,0.007,0.011c0.002,0.004,0.005,0.007,0.007,0.011s0.004,0.007,0.007,0.011s0.004,0.007,0.007,0.011
	c0.002,0.004,0.004,0.007,0.006,0.011c0.002,0.004,0.004,0.007,0.006,0.011c0.002,0.004,0.004,0.007,0.006,0.011
	c0.002,0.004,0.004,0.007,0.006,0.011s0.004,0.007,0.006,0.011c0.002,0.004,0.004,0.007,0.006,0.01
	c0.002,0.003,0.004,0.007,0.006,0.01c0.002,0.003,0.004,0.007,0.005,0.01s0.004,0.007,0.005,0.01
	c0.002,0.003,0.003,0.007,0.005,0.01c0.002,0.003,0.003,0.007,0.005,0.01c0.002,0.003,0.003,0.007,0.005,0.01
	c0.002,0.003,0.003,0.007,0.005,0.01s0.003,0.007,0.005,0.01c0.001,0.003,0.003,0.007,0.004,0.01
	c0.001,0.003,0.003,0.007,0.004,0.01s0.003,0.007,0.004,0.01c0.001,0.003,0.003,0.007,0.004,0.01
	c0.001,0.003,0.002,0.007,0.004,0.01c0.001,0.003,0.002,0.006,0.004,0.01c0.001,0.003,0.002,0.006,0.003,0.01
	s0.002,0.006,0.003,0.01s0.002,0.006,0.003,0.009c0.001,0.003,0.002,0.006,0.003,0.009c0.001,0.004,0.002,0.008,0.003,0.012
	c0.001,0.004,0.002,0.008,0.003,0.012c0.001,0.004,0.002,0.008,0.003,0.012c0.001,0.004,0.002,0.008,0.003,0.012
	c0.001,0.004,0.002,0.008,0.003,0.012c0.001,0.004,0.002,0.008,0.003,0.013c0.001,0.004,0.002,0.008,0.003,0.013
	c0.001,0.004,0.002,0.009,0.002,0.013c0.001,0.004,0.002,0.009,0.002,0.013c0.001,0.004,0.001,0.009,0.002,0.013
	c0.001,0.004,0.001,0.009,0.002,0.013c0.001,0.005,0.001,0.009,0.002,0.014c0.001,0.005,0.001,0.009,0.002,0.014
	c0.001,0.005,0.001,0.009,0.002,0.014C2.385-26,2.385-25.995,2.386-25.99s0.001,0.009,0.002,0.014c0,0.005,0.001,0.01,0.001,0.014
	c0,0.005,0.001,0.01,0.001,0.015s0.001,0.01,0.001,0.015s0.001,0.01,0.001,0.015c0,0.005-0.012,0.01-0.03,0.015
	c-0.018,0.005-0.043,0.01-0.068,0.015s-0.049,0.01-0.068,0.015c-0.018,0.005-0.031,0.01-0.03,0.015c0,0.005-0.012,0.01-0.03,0.016
	c-0.018,0.005-0.043,0.01-0.068,0.016s-0.049,0.01-0.068,0.016C2.012-25.804,2-25.799,2-25.794s0,0.011,0,0.016s0,0.011,0,0.016
	s0,0.011,0,0.016s0,0.011,0,0.016s0,0.011,0,0.016c0,0.005,0,0.011,0,0.017s0,0.011,0,0.017s0,0.011,0,0.017
	c0,0.006,0.012,0.011,0.031,0.017c0.019,0.006,0.043,0.011,0.068,0.017c0.025,0.006,0.05,0.011,0.068,0.017
	c0.019,0.006,0.031,0.011,0.031,0.017c0,0.006,0.006,0.011,0.015,0.017s0.021,0.011,0.034,0.017
	c0.012,0.006,0.025,0.012,0.034,0.017c0.009,0.006,0.015,0.012,0.015,0.017c0,0.006,0.003,0.012,0.007,0.017
	c0.004,0.006,0.01,0.012,0.016,0.017c0.006,0.006,0.012,0.012,0.016,0.018c0.004,0.006,0.007,0.012,0.007,0.018
	s0.001,0.012,0.003,0.018c0.002,0.006,0.005,0.012,0.008,0.018s0.005,0.012,0.007,0.018c0.002,0.006,0.003,0.012,0.003,0.018
	s-0.046,0.012-0.092,0.018s-0.09,0.012-0.089,0.018c0.001,0.006-0.044,0.012-0.09,0.018C2.046-25.325,2-25.319,2-25.313
	c0,0.006,0,0.012,0,0.018c0,0.006,0,0.012,0,0.018c0,0.006,0.047,0.012,0.093,0.018s0.093,0.012,0.092,0.018
	s0.022,0.012,0.045,0.018c0.023,0.006,0.046,0.012,0.046,0.018c0,0.006,0.011,0.012,0.023,0.018
	c0.011,0.006,0.022,0.012,0.022,0.018c-0.001,0.006,0.005,0.012,0.01,0.018c0.005,0.006,0.011,0.012,0.01,0.018
	c0,0.006,0.002,0.012,0.005,0.018s0.005,0.012,0.004,0.018c-0.001,0.006-0.176,0.012-0.175,0.018C2.176-25.073,2-25.067,2-25.061
	c0,0.006,0,0.012,0,0.018c0,0.006,0,0.012,0,0.018s0.175,0.012,0.175,0.018c0,0.006,0.087,0.012,0.087,0.018
	c-0.001,0.006,0.043,0.012,0.043,0.018c0,0.006,0.021,0.012,0.02,0.018c-0.001,0.006-0.159,0.012-0.16,0.018
	C2.165-24.929,2-24.923,2-24.917s0,0.012,0,0.018s0,0.012,0,0.018s0.168,0.012,0.168,0.018c-0.001,0.006,0.084,0.012,0.083,0.018
	c-0.001,0.006,0.041,0.012,0.04,0.018c-0.001,0.006,0.02,0.012,0.019,0.018c-0.001,0.006-0.152,0.012-0.153,0.017
	C2.157-24.788,2-24.782,2-24.776s0,0.012,0,0.017c0,0.006,0,0.012,0,0.017c0,0.006,0.161,0.012,0.16,0.017
	c-0.001,0.006,0.08,0.011,0.079,0.017c-0.001,0.006,0.039,0.011,0.038,0.017s0.019,0.011,0.018,0.017
	c-0.001,0.006-0.145,0.011-0.145,0.017C2.15-24.65,2-24.645,2-24.639c0,0.006,0,0.011,0,0.017c0,0.006,0,0.011,0,0.017
	s0.153,0.011,0.152,0.017c-0.001,0.006,0.076,0.011,0.075,0.016c-0.001,0.005,0.037,0.011,0.037,0.016
	c-0.001,0.005,0.018,0.011,0.017,0.016s-0.138,0.011-0.138,0.016S2-24.513,2-24.508s0,0.011,0,0.016s0,0.011,0,0.016
	c0,0.005,0.145,0.01,0.145,0.016c-0.001,0.005,0.072,0.01,0.072,0.016s0.035,0.01,0.035,0.015c-0.001,0.005,0.017,0.01,0.017,0.015
	s-0.131,0.01-0.132,0.015C2.136-24.394,2-24.389,2-24.384c0,0.005,0,0.01,0,0.015s0,0.01,0,0.015c0,0.005,0,0.01,0,0.015
	c0,0.005,0.138,0.01,0.138,0.014s0.069,0.01,0.068,0.014s0.034,0.009,0.033,0.014c0,0.005,0.017,0.009,0.016,0.014
	c0,0.005-0.125,0.009-0.126,0.014S2-24.26,2-24.255s0,0.009,0,0.014c0,0.004,0,0.009,0,0.013s0,0.009,0,0.013
	c0,0.004,0,0.009,0,0.013c0,0.004,0,0.009,0,0.013s0,0.008,0,0.013s0,0.008,0,0.012c0,0.004,0,0.008,0,0.012s0,0.008,0,0.012
	c0,0.004,0,0.008,0,0.012c0,0.004,0,0.008,0,0.012s0,0.008,0,0.012c0,0.004,0,0.008,0,0.012c0,0.004,0,0.008,0,0.012
	s0,0.008,0,0.013s0,0.008,0,0.013s0,0.009,0,0.013s0,0.009,0,0.013c0,0.004,0,0.009,0,0.013c0,0.004,0,0.009,0,0.013
	s0.125,0.009,0.125,0.014s0.062,0.009,0.062,0.014c0,0.005,0.031,0.009,0.03,0.014c0,0.005,0.015,0.009,0.015,0.014
	c0,0.005-0.114,0.009-0.114,0.014C2.118-23.928,2-23.923,2-23.918s0,0.01,0,0.014c0,0.005,0,0.01,0,0.015s0,0.01,0,0.015
	c0,0.005,0,0.01,0,0.015s0.12,0.01,0.119,0.015c0,0.005,0.059,0.01,0.059,0.015c0,0.005,0.029,0.01,0.029,0.015
	c0,0.005,0.014,0.01,0.014,0.015c0,0.005-0.108,0.01-0.109,0.015S2-23.774,2-23.769s0,0.01,0,0.016s0,0.01,0,0.016
	c0,0.005,0,0.01,0,0.016c0,0.005,0.114,0.011,0.113,0.016c0,0.005,0.056,0.011,0.056,0.016c0,0.005,0.028,0.011,0.027,0.016
	s0.013,0.011,0.013,0.016s-0.102,0.011-0.103,0.016C2.106-23.636,2-23.631,2-23.625c0,0.005,0,0.011,0,0.016s0,0.011,0,0.016
	s0.108,0.011,0.108,0.017s0.054,0.011,0.053,0.017s0.026,0.011,0.026,0.017c0,0.006,0.013,0.011,0.012,0.017
	c0,0.006-0.097,0.011-0.098,0.017C2.1-23.504,2-23.498,2-23.492c0,0.006,0,0.011,0,0.017c0,0.006,0,0.011,0,0.017
	c0,0.006,0.102,0.011,0.102,0.017c-0.001,0.006,0.05,0.011,0.05,0.017s0.025,0.011,0.024,0.017
	c-0.001,0.006,0.012,0.011,0.011,0.017s-0.091,0.011-0.092,0.017C2.095-23.367,2-23.361,2-23.356s0,0.012,0,0.017
	c0,0.006,0,0.012,0,0.017s0.096,0.012,0.095,0.017c-0.001,0.006,0.047,0.012,0.047,0.017c-0.001,0.006,0.023,0.012,0.023,0.017
	c-0.001,0.006,0.011,0.012,0.011,0.017S2.09-23.24,2.089-23.234C2.089-23.228,2-23.223,2-23.217c0,0.006,0,0.012,0,0.017
	c0,0.006,0,0.012,0,0.017s0.09,0.012,0.089,0.017c-0.001,0.006,0.044,0.012,0.044,0.017c-0.001,0.006,0.022,0.012,0.021,0.017
	c-0.001,0.006,0.01,0.012,0.01,0.017c-0.001,0.006-0.08,0.012-0.08,0.017C2.083-23.089,2-23.083,2-23.077c0,0.006,0,0.012,0,0.017
	s0,0.012,0,0.017s0.083,0.012,0.083,0.017s0.041,0.012,0.041,0.017c-0.001,0.006,0.02,0.012,0.02,0.017
	c-0.001,0.006,0.01,0.012,0.009,0.017c-0.001,0.006-0.074,0.012-0.075,0.017C2.077-22.95,2-22.944,2-22.938c0,0.006,0,0.011,0,0.017
	s0,0.011,0,0.017c0,0.006,0.077,0.011,0.077,0.017c0,0.006,0.038,0.011,0.038,0.017c0,0.006,0.019,0.011,0.018,0.017
	s0.009,0.011,0.008,0.017c0,0.006-0.069,0.011-0.069,0.017S2-22.807,2-22.802c0,0.006,0,0.011,0,0.017c0,0.006,0,0.011,0,0.017
	s0.072,0.011,0.071,0.017c0,0.006,0.035,0.011,0.035,0.017s0.017,0.011,0.017,0.017c0,0.006-0.059,0.011-0.059,0.017
	C2.063-22.696,2-22.691,2-22.685c0,0.005,0,0.011,0,0.016c0,0.005,0,0.011,0,0.016s0,0.011,0,0.016c0,0.005,0,0.011,0,0.016
	s0.066,0.011,0.066,0.016c0,0.005,0.033,0.011,0.032,0.016s0.016,0.011,0.016,0.016c0,0.005-0.054,0.011-0.055,0.016
	c0,0.005-0.059,0.01-0.059,0.016s0,0.01,0,0.016c0,0.005,0,0.01,0,0.015s0,0.01,0,0.015s0,0.01,0,0.015c0,0.005,0,0.01,0,0.015
	c0,0.005,0,0.01,0,0.015s0,0.01,0,0.015s0,0.01,0,0.015s0,0.01,0,0.015c0,0.005,0,0.01,0,0.015s0,0.01,0,0.014
	c0,0.005,0,0.01,0,0.014s0,0.009,0,0.014s0,0.009,0,0.014c0,0.005,0,0.009,0,0.014c0,0.005,0,0.009,0,0.014c0,0.005,0,0.009,0,0.014
	c0,0.004,0,0.009,0,0.013s0,0.009,0,0.013s0,0.009,0,0.013c0,0.004,0.041,0.009,0.027,0.013c-0.014,0.004,0,0.009,0,0.013
	c0,0.004,0,0.008-0.014,0.013C2-22.21,2-22.206,2-22.201s0,0.008,0,0.012s0,0.008,0,0.012c0,0.004,0,0.008,0,0.012
	S2-22.157,2-22.153z"/>
</svg>
