<?xml version="1.0" encoding="utf-8"?>
<!-- Generator: Adobe Illustrator 19.0.0, SVG Export Plug-In . SVG Version: 6.00 Build 0)  -->
<svg version="1.1" id="Camada_1" xmlns="http://www.w3.org/2000/svg" xmlns:xlink="http://www.w3.org/1999/xlink" x="0px" y="0px"
	 width="1920px" height="1080px" viewBox="0 0 1920 1080" enable-background="new 0 0 1920 1080" xml:space="preserve">
<path id="XMLID_99_" fill="#654E28" d="M74.697-142.525c0.012,0.015,0.024,0.03,0.035,0.046s0.022,0.032,0.032,0.048
	s0.02,0.033,0.03,0.05c0.009,0.017,0.018,0.035,0.027,0.052c0.009,0.018,0.017,0.036,0.025,0.055
	c0.008,0.019,0.015,0.038,0.022,0.057c0.007,0.019,0.013,0.039,0.019,0.059c0.006,0.02,0.012,0.04,0.017,0.061
	s0.01,0.042,0.014,0.063c0.004,0.021,0.008,0.043,0.012,0.065s0.007,0.045,0.01,0.067c0.003,0.023,0.005,0.046,0.007,0.069
	c0.002,0.023,0.026,0.047,0.027,0.071c0.001,0.024,0.025,0.049,0.025,0.073s0,0.05,0,0.075c0,0.025-0.023,0.051-0.024,0.077
	c-0.001,0.026-0.013,0.052-0.015,0.079c-0.002,0.027-0.009,0.054-0.012,0.081c-0.002,0.027-0.008,0.055-0.011,0.083
	c-0.003,0.028-0.008,0.056-0.012,0.084c-0.004,0.028-0.009,0.057-0.013,0.086c-0.004,0.029-0.01,0.058-0.015,0.088
	s-0.011,0.059-0.017,0.089c-0.006,0.03-0.012,0.06-0.019,0.091c-0.006,0.031-0.013,0.062-0.02,0.093
	c-0.007,0.031-0.015,0.063-0.022,0.094c-0.008,0.032-0.016,0.064-0.024,0.096s-0.017,0.065-0.026,0.097
	c-0.009,0.033-0.018,0.066-0.028,0.099c-0.01,0.033-0.019,0.067-0.03,0.1c-0.01,0.034-0.021,0.067-0.031,0.102
	s-0.022,0.068-0.033,0.103c-0.011,0.035-0.023,0.069-0.035,0.104c-0.012,0.035-0.024,0.07-0.036,0.106s-0.025,0.071-0.038,0.107
	c-0.013,0.036-0.026,0.072-0.039,0.108s-0.027,0.073-0.041,0.109c-0.014,0.037-0.028,0.074-0.042,0.111
	c-0.014,0.037-0.029,0.074-0.044,0.112c-0.015,0.037-0.03,0.075-0.045,0.113c-0.015,0.038-0.031,0.076-0.047,0.114
	c-0.016,0.038-0.032,0.076-0.048,0.115s-0.033,0.077-0.05,0.116s-0.034,0.078-0.051,0.117c-0.017,0.039-0.035,0.078-0.052,0.118
	c-0.018,0.039-0.035,0.079-0.053,0.119s-0.036,0.08-0.055,0.12c-0.018,0.04-0.037,0.08-0.056,0.121
	c-0.019,0.04-0.038,0.081-0.057,0.121c-0.019,0.041-0.038,0.081-0.058,0.122c-0.02,0.041-0.039,0.082-0.059,0.123
	c-0.02,0.041-0.04,0.082-0.06,0.124s-0.041,0.083-0.061,0.125s-0.041,0.083-0.062,0.125c-0.021,0.042-0.042,0.084-0.063,0.126
	c-0.021,0.042-0.043,0.084-0.064,0.126c-0.021,0.042-0.043,0.085-0.065,0.127c-0.022,0.042-0.044,0.085-0.066,0.128
	c-0.022,0.043-0.044,0.085-0.067,0.128s-0.045,0.086-0.067,0.129c-0.023,0.043-0.045,0.086-0.068,0.129
	c-0.023,0.043-0.046,0.086-0.069,0.13c-0.023,0.043-0.046,0.087-0.069,0.13s-0.047,0.087-0.07,0.13
	c-0.023,0.043-0.047,0.087-0.071,0.131s-0.047,0.087-0.071,0.131s-0.048,0.087-0.072,0.131c-0.024,0.044-0.048,0.088-0.072,0.131
	c-0.024,0.044-0.049,0.088-0.073,0.132c-0.024,0.044-0.049,0.088-0.073,0.132s-0.049,0.088-0.074,0.132
	c-0.025,0.044-0.049,0.088-0.074,0.132s-0.05,0.088-0.075,0.132c-0.025,0.044-0.05,0.088-0.075,0.132
	c-0.025,0.044-0.05,0.088-0.075,0.132s-0.05,0.088-0.075,0.132c-0.025,0.044-0.05,0.088-0.076,0.132
	c-0.025,0.044-0.051,0.088-0.076,0.132s-0.051,0.088-0.076,0.132s-0.051,0.088-0.076,0.132c-0.025,0.044-0.051,0.088-0.076,0.132
	c-0.025,0.044-0.051,0.088-0.076,0.131c-0.025,0.044-0.051,0.088-0.076,0.131c-0.025,0.044-0.051,0.087-0.076,0.131
	c-0.025,0.044-0.051,0.087-0.076,0.131c-0.025,0.043-0.051,0.087-0.076,0.13c-0.025,0.043-0.051,0.087-0.076,0.13
	c-0.025,0.043-0.051,0.086-0.076,0.13c-0.025,0.043-0.051,0.086-0.076,0.129c-0.025,0.043-0.05,0.086-0.076,0.129
	c-0.025,0.043-0.05,0.086-0.075,0.128c-0.025,0.043-0.05,0.085-0.075,0.128c-0.025,0.042-0.05,0.085-0.075,0.127
	c-0.025,0.042-0.05,0.084-0.075,0.127c-0.025,0.042-0.05,0.084-0.074,0.126c-0.025,0.042-0.049,0.084-0.074,0.125
	s-0.049,0.083-0.073,0.125s-0.049,0.083-0.073,0.124c-0.024,0.041-0.048,0.082-0.072,0.123c-0.024,0.041-0.048,0.082-0.072,0.122
	c-0.024,0.041-0.048,0.081-0.071,0.122s-0.047,0.081-0.071,0.121c-0.023,0.04-0.047,0.08-0.07,0.12
	c-0.023,0.04-0.046,0.079-0.069,0.119s-0.046,0.079-0.069,0.118c-0.023,0.039-0.045,0.078-0.068,0.117s-0.045,0.078-0.067,0.116
	c-0.022,0.039-0.044,0.077-0.066,0.115s-0.044,0.076-0.066,0.114c-0.022,0.038-0.043,0.075-0.065,0.113
	c-0.021,0.037-0.043,0.075-0.064,0.112s-0.042,0.074-0.063,0.111s-0.042,0.073-0.062,0.109s-0.041,0.072-0.061,0.108
	s-0.04,0.072-0.06,0.107c-0.02,0.035-0.04,0.071-0.059,0.106c-0.019,0.035-0.039,0.07-0.058,0.104
	c-0.019,0.035-0.038,0.069-0.057,0.103c-0.019,0.034-0.037,0.068-0.056,0.102s-0.037,0.067-0.054,0.1s-0.036,0.066-0.053,0.099
	s-0.035,0.065-0.052,0.097c-0.017,0.032-0.034,0.064-0.051,0.096s-0.033,0.063-0.049,0.094c-0.016,0.031-0.032,0.062-0.048,0.093
	c-0.016,0.031-0.031,0.061-0.047,0.091c-0.015,0.03-0.03-0.146-0.045-0.116c-0.015,0.03-0.029-0.118-0.044-0.118
	c0,0,0.001,0,0.002,0s0.003,0.204,0.005,0.203s0.005,0.1,0.009,0.099c0.004-0.001,0.008,0.048,0.013,0.046
	c0.005-0.002,0.01,0.022,0.016,0.019c0.006-0.002,0.012,0.008,0.019,0.005c0.007-0.003,0.015,0.001,0.023-0.003
	c0.008-0.003,0.017-0.004,0.026-0.007c0.009-0.004,0.019-0.006,0.029-0.01c0.01-0.004,0.021-0.008,0.032-0.012
	c0.011-0.005,0.023-0.009,0.035-0.014c0.012-0.005,0.025-0.01,0.038-0.015s0.027-0.011,0.041-0.016
	c0.014-0.006,0.029-0.011,0.044-0.017c0.015-0.006,0.031-0.012,0.047-0.018c0.016-0.006,0.033-0.013,0.05-0.019
	s0.034-0.013,0.052-0.02c0.018-0.007,0.036-0.014,0.055-0.021c0.019-0.007,0.038-0.015,0.057-0.022
	c0.02-0.008,0.04-0.015,0.06-0.023c0.02-0.008,0.041-0.016,0.062-0.024c0.021-0.008,0.043-0.016,0.065-0.025
	s0.044-0.017,0.067-0.025c0.023-0.009,0.046-0.017,0.069-0.026c0.023-0.009,0.047-0.018,0.071-0.027s0.049-0.018,0.073-0.027
	s0.05-0.019,0.075-0.028c0.025-0.009,0.051-0.019,0.077-0.028c0.026-0.01,0.053-0.019,0.079-0.029
	c0.027-0.01,0.054-0.02,0.081-0.029c0.027-0.01,0.055-0.02,0.083-0.03c0.028-0.01,0.056-0.02,0.085-0.03
	c0.028-0.01,0.057-0.02,0.086-0.031s0.058-0.021,0.088-0.031c0.03-0.01,0.059-0.021,0.089-0.031s0.06-0.021,0.091-0.032
	c0.03-0.011,0.061-0.021,0.092-0.032c0.031-0.011,0.062-0.021,0.093-0.032c0.031-0.011,0.063-0.021,0.095-0.032
	c0.032-0.011,0.064-0.022,0.096-0.032c0.032-0.011,0.064-0.022,0.097-0.033s0.065-0.022,0.098-0.033
	c0.033-0.011,0.066-0.022,0.099-0.033c0.033-0.011,0.066-0.022,0.1-0.033s0.067-0.022,0.101-0.033
	c0.034-0.011,0.068-0.022,0.101-0.032c0.034-0.011,0.068-0.022,0.102-0.032c0.034-0.011,0.068-0.021,0.103-0.032
	c0.034-0.011,0.069-0.021,0.103-0.032c0.035-0.011,0.069-0.021,0.104-0.032c0.035-0.011,0.07-0.021,0.104-0.031
	c0.035-0.01,0.07-0.021,0.105-0.031c0.035-0.01,0.07-0.021,0.105-0.031c0.035-0.01,0.07-0.02,0.105-0.03
	c0.035-0.01,0.07-0.02,0.106-0.03c0.035-0.01,0.07-0.02,0.106-0.03s0.071-0.02,0.106-0.029c0.035-0.01,0.071-0.019,0.106-0.029
	c0.035-0.009,0.071-0.019,0.106-0.028c0.035-0.009,0.07-0.018,0.106-0.028s0.07-0.018,0.105-0.027
	c0.035-0.009,0.07-0.018,0.105-0.026c0.035-0.009,0.07-0.017,0.105-0.026s0.07-0.017,0.104-0.025s0.069-0.016,0.104-0.024
	c0.035-0.008,0.069-0.016,0.104-0.023s0.069-0.015,0.103-0.022c0.034-0.007,0.068-0.015,0.102-0.022
	c0.034-0.007,0.068-0.014,0.102-0.021c0.034-0.007,0.067-0.013,0.101-0.02s0.067-0.013,0.1-0.019
	c0.033-0.006,0.066-0.012,0.099-0.018c0.033-0.006,0.066-0.011,0.098-0.017s0.065-0.011,0.097-0.016
	c0.032-0.005,0.064-0.01,0.096-0.014s0.063-0.009,0.095-0.013c0.031-0.004,0.063-0.008,0.094-0.012
	c0.031-0.004,0.062-0.007,0.092-0.011c0.031-0.003,0.061-0.007,0.091-0.01c0.03-0.003,0.06-0.006,0.09-0.008
	c0.03-0.003,0.059-0.005,0.088-0.007s0.058-0.004,0.086-0.006c0.029-0.002,0.057-0.003,0.085-0.004
	c0.028-0.001,0.056,0.219,0.083,0.218c0.027-0.001,0.055,0.22,0.081,0.22s0.053,0,0.08,0s0.052-0.22,0.078-0.219
	c0.026,0.001,0.051-0.109,0.076-0.107c0.025,0.001,0.05-0.052,0.074-0.05c0.024,0.002,0.048-0.023,0.072-0.021
	c0.024,0.003,0.047-0.009,0.07-0.005c0.023,0.003,0.045,0,0.067,0.003c0.022,0.004,0.044,0.004,0.065,0.008
	c0.021,0.004,0.042,0.007,0.063,0.012c0.021,0.005,0.041,0.009,0.06,0.015s0.039,0.011,0.058,0.017
	c0.019,0.006,0.037,0.012,0.055,0.019c0.018,0.007,0.036,0.014,0.053,0.021c0.017,0.007,0.034,0.015,0.05,0.023
	c0.016,0.008,0.032,0.016,0.047,0.025c0.015,0.009,0.03,0.018,0.045,0.027c0.014,0.009,0.028,0.019,0.042,0.029
	c0.013,0.01,0.026,0.021,0.039,0.031c0.012,0.011,0.024,0.022,0.036,0.034s0.022,0.024,0.033,0.036
	c0.01,0.012,0.02,0.025,0.03,0.038c0.009,0.013,0.018,0.027,0.027,0.04c0.008,0.014,0.016,0.028,0.023,0.043
	c0.007,0.015,0.014,0.03,0.02,0.045c0.006,0.015,0.012,0.031,0.017,0.047s0.009,0.033,0.013,0.05
	c0.004,0.017,0.007,0.034,0.01,0.052c0.003,0.018,0.005,0.036,0.006,0.055c0.001,0.019,0.002,0.038,0.002,0.057s0,0.039-0.001,0.06
	s-0.003,0.041-0.005,0.062c-0.002,0.021-0.005,0.043-0.009,0.065s-0.008,0.045-0.013,0.068s-0.01,0.046-0.017,0.07
	c-0.006,0.024-0.013,0.048-0.021,0.073c-0.008,0.025-0.016,0.05-0.025,0.076c-0.009,0.026-0.019,0.052-0.029,0.079
	c-0.01,0.027-0.021,0.054-0.033,0.081c-0.012,0.028-0.024,0.056-0.037,0.084c-0.013,0.029-0.027,0.058-0.042,0.087
	c-0.015,0.03-0.03,0.06-0.046,0.09c-0.016,0.031-0.033,0.062-0.051,0.093s-0.036,0.064-0.055,0.096
	c-0.019,0.032-0.038,0.064-0.058,0.096s-0.041,0.064-0.063,0.097s-0.044,0.065-0.067,0.098c-0.023,0.033-0.047,0.066-0.071,0.099
	c-0.025,0.033-0.05,0.066-0.076,0.1c-0.026,0.033-0.053,0.067-0.08,0.101c-0.027,0.034-0.055,0.068-0.084,0.102
	c-0.029,0.034-0.058,0.068-0.089,0.103c-0.03,0.034-0.061,0.069-0.093,0.104c-0.032,0.035-0.064,0.07-0.097,0.105
	c-0.033,0.035-0.067,0.071-0.101,0.106c-0.035,0.036-0.07,0.071-0.106,0.107c-0.036,0.036-0.073,0.072-0.11,0.109
	c-0.037,0.036-0.075,0.073-0.114,0.11c-0.039,0.037-0.078,0.074-0.119,0.111s-0.081,0.075-0.123,0.113
	c-0.042,0.038-0.084,0.076-0.127,0.114s-0.087,0.077-0.131,0.116c-0.044,0.039-0.09,0.078-0.136,0.117
	c-0.046,0.039-0.093,0.079-0.14,0.119c-0.047,0.04-0.095,0.08-0.144,0.12c-0.049,0.04-0.098,0.081-0.148,0.122
	c-0.05,0.041-0.101,0.082-0.153,0.123c-0.052,0.041-0.104,0.083-0.157,0.125s-0.107,0.084-0.161,0.127
	c-0.054,0.043-0.109,0.085-0.165,0.129c-0.056,0.043-0.112,0.087-0.169,0.13c-0.057,0.044-0.115,0.088-0.174,0.132
	s-0.118,0.089-0.178,0.134c-0.06,0.045-0.121,0.09-0.182,0.136c-0.061,0.046-0.123,0.092-0.186,0.138
	c-0.063,0.046-0.126,0.093-0.19,0.14c-0.064,0.047-0.129,0.094-0.195,0.142c-0.066,0.048-0.132,0.096-0.199,0.144
	s-0.135,0.097-0.203,0.146c-0.068,0.049-0.137,0.098-0.207,0.148s-0.14,0.1-0.211,0.15c-0.071,0.05-0.143,0.101-0.215,0.153
	c-0.073,0.051-0.146,0.103-0.22,0.155c-0.074,0.052-0.148,0.104-0.224,0.157c-0.075,0.053-0.151,0.106-0.228,0.159
	s-0.154,0.107-0.232,0.162c-0.078,0.054-0.157,0.109-0.236,0.164s-0.16,0.111-0.24,0.167c-0.081,0.056-0.162,0.112-0.244,0.169
	c-0.082,0.057-0.165,0.114-0.249,0.172c-0.084,0.058-0.168,0.116-0.253,0.174c-0.085,0.058-0.171,0.117-0.257,0.177
	c-0.086,0.059-0.173,0.119-0.261,0.179c-0.088,0.06-0.176,0.121-0.265,0.182s-0.179,0.123-0.269,0.185
	c-0.09,0.062-0.182,0.124-0.273,0.187c-0.092,0.063-0.184,0.126-0.277,0.19c-0.093,0.064-0.187,0.128-0.281,0.193
	s-0.19,0.13-0.286,0.196s-0.192,0.132-0.29,0.199s-0.195,0.134-0.294,0.202c-0.099,0.068-0.198,0.136-0.298,0.205
	c-0.1,0.069-0.201,0.138-0.302,0.208c-0.101,0.07-0.203,0.14-0.306,0.211s-0.206,0.142-0.31,0.214
	c-0.104,0.072-0.209,0.144-0.314,0.217c-0.105,0.073-0.211,0.146-0.318,0.22s-0.214,0.148-0.322,0.223s-0.217,0.15-0.326,0.226
	c-0.109,0.076-0.22,0.152-0.33,0.23c-0.111,0.077-0.222,0.155-0.334,0.233c-0.112,0.078-0.225,0.157-0.338,0.236
	c-0.113,0.079-0.228,0.159-0.342,0.24s-0.23,0.161-0.346,0.243c-0.116,0.082-0.233,0.164-0.35,0.246s-0.236,0.166-0.354,0.25
	c-0.119,0.084-0.238,0.168-0.358,0.253c-0.12,0.085-0.241,0.171-0.362,0.257s-0.244,0.173-0.366,0.261
	c-0.123,0.087-0.246,0.175-0.37,0.264s-0.249,0.178-0.374,0.268c-0.125,0.09-0.252,0.18-0.378,0.272s-0.254,0.183-0.382,0.275
	c-0.128,0.092-0.257,0.185-0.386,0.279c-0.129,0.094-0.26,0.188-0.39,0.283c-0.131,0.095-0.262,0.19-0.394,0.287
	c-0.132,0.096-0.265,0.193-0.398,0.291c-0.133,0.098-0.268,0.196-0.402,0.295s-0.27,0.198-0.406,0.299
	c-0.136,0.1-0.273,0.201-0.41,0.303c-0.137,0.102-0.275,0.204-0.414,0.307c-0.139,0.103-0.278,0.206-0.418,0.311
	c-0.14,0.104-0.281,0.209-0.422,0.315c-0.141,0.106-0.283,0.212-0.426,0.319s-0.286,0.215-0.43,0.323s-0.289,0.218-0.434,0.327
	c-0.145,0.11-0.291,0.22-0.438,0.332c-0.147,0.111-0.294,0.223-0.442,0.336s-0.296,0.226-0.446,0.34
	c-0.149,0.114-0.299,0.229-0.449,0.345c-0.15,0.116-0.302,0.232-0.453,0.349c-0.152,0.117-0.304,0.235-0.457,0.353
	c-0.153,0.119-0.307,0.238-0.461,0.358s-0.309,0.241-0.465,0.363s-0.312,0.244-0.469,0.367c-0.157,0.123-0.315,0.247-0.473,0.372
	c-0.158,0.125-0.317,0.25-0.477,0.376c-0.16,0.126-0.32,0.253-0.481,0.381c-0.161,0.128-0.322,0.256-0.484,0.386
	c-0.162,0.129-0.325,0.26-0.488,0.39s-0.327,0.263-0.492,0.395c-0.165,0.133-0.33,0.266-0.496,0.4
	c-0.166,0.134-0.333,0.269-0.5,0.405c-0.167,0.136-0.335,0.272-0.504,0.41c-0.169,0.137-0.338,0.276-0.508,0.415
	c-0.17,0.139-0.34,0.279-0.511,0.42c-0.171,0.141-0.343,0.282-0.515,0.425c-0.172,0.142-0.345,0.286-0.519,0.43
	c-0.174,0.144-0.348,0.289-0.523,0.435c-0.175,0.146-0.351,0.293-0.527,0.44c-0.176,0.148-0.353,0.296-0.531,0.445
	s-0.356,0.299-0.534,0.45c-0.179,0.151-0.358,0.303-0.538,0.456c-0.18,0.153-0.361,0.306-0.542,0.461
	c-0.181,0.155-0.363,0.31-0.546,0.466c-0.183,0.156-0.366,0.314-0.55,0.472s-0.368,0.317-0.553,0.477
	c-0.185,0.16-0.371,0.321-0.557,0.482c-0.186,0.162-0.373,0.324-0.561,0.488s-0.376,0.328-0.565,0.493
	c-0.189,0.165-0.378,0.332-0.568,0.499c-0.19,0.167-0.381,0.335-0.572,0.505c-0.206,0.182-0.411,0.366-0.614,0.553
	c-0.203,0.186-0.405,0.375-0.605,0.565c-0.2,0.19-0.399,0.383-0.596,0.577c-0.197,0.194-0.393,0.391-0.587,0.589
	c-0.194,0.198-0.387,0.398-0.578,0.601c-0.191,0.202-0.381,0.406-0.569,0.612s-0.375,0.414-0.56,0.624s-0.369,0.421-0.551,0.635
	c-0.182,0.213-0.362,0.429-0.541,0.646c-0.179,0.217-0.356,0.436-0.532,0.657s-0.35,0.443-0.523,0.668
	c-0.173,0.224-0.344,0.451-0.514,0.678c-0.17,0.228-0.338,0.458-0.505,0.689s-0.332,0.464-0.496,0.699s-0.326,0.471-0.486,0.709
	c-0.161,0.238-0.32,0.478-0.477,0.719c-0.158,0.241-0.313,0.485-0.468,0.729c-0.154,0.245-0.307,0.491-0.459,0.739
	s-0.301,0.498-0.449,0.749c-0.148,0.251-0.295,0.504-0.44,0.758c-0.145,0.254-0.289,0.51-0.431,0.767
	c-0.142,0.257-0.282,0.516-0.421,0.776s-0.276,0.522-0.412,0.785c-0.136,0.263-0.27,0.528-0.403,0.794
	c-0.133,0.266-0.264,0.534-0.393,0.803c-0.13,0.269-0.257,0.539-0.384,0.811c-0.126,0.272-0.251,0.545-0.374,0.82
	c-0.123,0.275-0.245,0.55-0.365,0.828c-0.12,0.277-0.239,0.556-0.355,0.836s-0.232,0.561-0.346,0.844s-0.226,0.566-0.337,0.851
	s-0.22,0.571-0.327,0.859c-0.107,0.288-0.213,0.576-0.318,0.866c-0.104,0.29-0.207,0.581-0.308,0.873s-0.201,0.586-0.298,0.881
	s-0.194,0.59-0.289,0.887c-0.095,0.297-0.188,0.595-0.279,0.894c-0.091,0.299-0.181,0.599-0.27,0.901
	c-0.088,0.301-0.175,0.604-0.26,0.907c-0.085,0.303-0.169,0.608-0.25,0.914c-0.082,0.306-0.162,0.612-0.241,0.92
	c-0.079,0.308-0.156,0.616-0.231,0.926c-0.075,0.31-0.149,0.62-0.221,0.932c-0.072,0.311-0.143,0.624-0.212,0.937
	s-0.136,0.628-0.202,0.943c-0.066,0.315-0.13,0.631-0.192,0.948c-0.062,0.317-0.123,0.635-0.182,0.953s-0.117,0.638-0.173,0.958
	s-0.11,0.641-0.163,0.963c-0.053,0.322-0.104,0.645-0.153,0.968s-0.097,0.648-0.143,0.973s-0.091,0.651-0.133,0.977
	c-0.043,0.326-0.084,0.654-0.124,0.981c-0.04,0.328-0.077,0.656-0.114,0.985c-0.036,0.329-0.071,0.659-0.104,0.989
	s-0.064,0.662-0.094,0.993c-0.03,0.332-0.058,0.664-0.084,0.997c-0.026,0.333-0.051,0.666-0.074,1
	c-0.023,0.334-0.044,0.669-0.064,1.004c-0.02,0.335-0.038,0.671-0.054,1.007c-0.016,0.336-0.031,0.673-0.044,1.01
	s-0.024,0.675-0.034,1.013c-0.01,0.338-0.018,0.677-0.024,1.016c-0.006,0.339-0.011,0.678-0.014,1.018s-0.004,0.68-0.004,1.021
	s0.002,0.682,0.006,1.023c0.004,0.341,0.009,0.683,0.016,1.025c0.007,0.342,0.016,0.684,0.026,1.027
	c0.01,0.343,0.023,0.686,0.036,1.029c0.014,0.343,0.029,0.687,0.047,1.03c0.017,0.344,0.036,0.688,0.057,1.032
	c0.021,0.344,0.043,0.689,0.067,1.033s0.05,0.689,0.077,1.034s0.056,0.69,0.087,1.035c0.031,0.345,0.063,0.691,0.098,1.036
	c0.034,0.346,0.07,0.691,0.108,1.037s0.077,0.692,0.118,1.037s0.084,0.692,0.128,1.038c0.044,0.346,0.091,0.692,0.139,1.038
	c0.048,0.346,0.098,0.692,0.149,1.038s0.104,0.692,0.159,1.038c0.055,0.346,0.111,0.692,0.17,1.038
	c0.058,0.346,0.118,0.692,0.18,1.037c0.062,0.346,0.125,0.691,0.19,1.037c0.065,0.346,0.132,0.691,0.201,1.036
	c0.069,0.345,0.139,0.69,0.211,1.035c0.072,0.345,0.146,0.69,0.222,1.034s0.153,0.689,0.232,1.033
	c0.079,0.344,0.16,0.688,0.242,1.032s0.167,0.687,0.253,1.03c0.086,0.343,0.174,0.686,0.263,1.029
	c0.09,0.343,0.181,0.685,0.274,1.027c0.093,0.342,0.188,0.684,0.284,1.025c0.097,0.341,0.195,0.682,0.295,1.023
	c0.1,0.341,0.202,0.681,0.306,1.021c0.104,0.34,0.209,0.679,0.316,1.018s0.216,0.678,0.327,1.016
	c0.111,0.338,0.223,0.676,0.337,1.013c0.114,0.337,0.23,0.674,0.348,1.01s0.237,0.672,0.359,1.007
	c0.121,0.335,0.244,0.67,0.369,1.004c0.125,0.334,0.251,0.668,0.38,1.001c0.128,0.333,0.259,0.665,0.391,0.997
	c0.132,0.332,0.266,0.663,0.401,0.994s0.273,0.661,0.412,0.99c0.139,0.329,0.28,0.658,0.423,0.986s0.287,0.655,0.433,0.982
	c0.146,0.327,0.294,0.652,0.444,0.977s0.302,0.649,0.455,0.973c0.153,0.324,0.309,0.646,0.466,0.968
	c0.157,0.322,0.316,0.643,0.477,0.964c0.161,0.32,0.323,0.64,0.488,0.959c0.164,0.319,0.33,0.637,0.498,0.954
	c0.168,0.317,0.338,0.633,0.509,0.949c0.172,0.315,0.345,0.63,0.52,0.943c0.175,0.314,0.352,0.626,0.531,0.938
	c0.179,0.312,0.359,0.622,0.542,0.932c0.182,0.31,0.367,0.618,0.553,0.926c0.186,0.308,0.374,0.615,0.564,0.92
	c0.19,0.306,0.381,0.61,0.575,0.914s0.389,0.606,0.586,0.908c0.197,0.302,0.396,0.602,0.597,0.901
	c0.201,0.299,0.403,0.598,0.608,0.895c0.204,0.297,0.411,0.593,0.619,0.888c0.208,0.295,0.418,0.589,0.63,0.881
	c0.212,0.293,0.426,0.584,0.641,0.874s0.433,0.579,0.652,0.867s0.44,0.574,0.663,0.86c0,0-0.001-0.001-0.002-0.002
	c-0.001-0.002-0.003-0.004-0.006-0.007c-0.003-0.003-0.006-0.007-0.01-0.011c-0.004-0.004-0.008-0.01-0.014-0.016
	c-0.005-0.006-0.011-0.013-0.018-0.02c-0.006-0.007-0.014-0.015-0.021-0.024c-0.008-0.009-0.016-0.018-0.025-0.028
	c-0.009-0.01-0.019-0.021-0.029-0.032c-0.01-0.011-0.021-0.024-0.033-0.036s-0.024-0.026-0.037-0.04s-0.026-0.029-0.04-0.044
	s-0.029-0.031-0.044-0.048s-0.031-0.034-0.048-0.052c-0.017-0.018-0.034-0.036-0.052-0.055c-0.018-0.019-0.036-0.039-0.055-0.059
	c-0.019-0.02-0.039-0.041-0.059-0.063c-0.02-0.021-0.041-0.043-0.063-0.066c-0.021-0.023-0.044-0.046-0.066-0.069
	c-0.023-0.024-0.046-0.048-0.07-0.073c-0.024-0.025-0.048-0.05-0.074-0.076c-0.025-0.026-0.051-0.052-0.077-0.079
	c-0.026-0.027-0.053-0.054-0.081-0.082c-0.027-0.028-0.056-0.056-0.084-0.085c-0.029-0.029-0.058-0.058-0.088-0.088
	s-0.06-0.06-0.091-0.091c-0.031-0.031-0.063-0.062-0.095-0.094c-0.032-0.032-0.065-0.064-0.098-0.096
	c-0.033-0.033-0.067-0.065-0.102-0.099s-0.07-0.067-0.105-0.101s-0.072-0.069-0.109-0.104c-0.037-0.035-0.074-0.07-0.112-0.106
	c-0.038-0.036-0.077-0.072-0.116-0.109c-0.039-0.037-0.079-0.073-0.119-0.111c-0.04-0.037-0.081-0.075-0.122-0.113
	s-0.083-0.076-0.126-0.115c-0.042-0.039-0.086-0.078-0.129-0.117s-0.088-0.079-0.132-0.119c-0.045-0.04-0.09-0.08-0.136-0.121
	c-0.046-0.041-0.092-0.082-0.139-0.123c-0.047-0.041-0.094-0.083-0.142-0.124c-0.048-0.042-0.097-0.084-0.146-0.126
	c-0.049-0.042-0.099-0.085-0.149-0.128s-0.101-0.086-0.152-0.129s-0.103-0.087-0.155-0.131s-0.105-0.088-0.158-0.132
	c-0.053-0.044-0.107-0.089-0.162-0.133c-0.054-0.045-0.109-0.089-0.165-0.135c-0.055-0.045-0.111-0.09-0.168-0.136
	c-0.057-0.045-0.114-0.091-0.171-0.137c-0.058-0.046-0.116-0.092-0.174-0.138s-0.118-0.092-0.177-0.139s-0.12-0.093-0.18-0.139
	c-0.061-0.047-0.122-0.093-0.183-0.14c-0.062-0.047-0.124-0.094-0.187-0.141s-0.126-0.094-0.19-0.142
	c-0.064-0.047-0.128-0.095-0.193-0.142c-0.065-0.047-0.13-0.095-0.196-0.143c-0.066-0.048-0.132-0.095-0.199-0.143
	c-0.067-0.048-0.134-0.096-0.202-0.143s-0.136-0.096-0.204-0.144s-0.138-0.096-0.207-0.144c-0.07-0.048-0.14-0.096-0.21-0.144
	s-0.142-0.096-0.213-0.144s-0.144-0.096-0.216-0.144c-0.073-0.048-0.146-0.096-0.219-0.144c-0.073-0.048-0.147-0.096-0.222-0.144
	c-0.074-0.048-0.149-0.096-0.225-0.143c-0.075-0.048-0.151-0.095-0.227-0.143c-0.076-0.048-0.153-0.095-0.23-0.143
	c-0.077-0.047-0.155-0.095-0.233-0.142c-0.078-0.047-0.157-0.094-0.236-0.142c-0.079-0.047-0.159-0.094-0.239-0.141
	c-0.08-0.047-0.16-0.094-0.241-0.14c-0.081-0.047-0.162-0.093-0.244-0.139c-0.082-0.046-0.164-0.093-0.247-0.139
	c-0.083-0.046-0.166-0.092-0.249-0.138c-0.084-0.046-0.168-0.091-0.252-0.137c-0.084-0.045-0.169-0.091-0.255-0.136
	s-0.171-0.09-0.257-0.134c-0.086-0.045-0.173-0.089-0.26-0.133c-0.087-0.044-0.175-0.088-0.263-0.132
	c-0.088-0.044-0.176-0.087-0.265-0.131c-0.089-0.043-0.178-0.086-0.268-0.129c-0.09-0.043-0.18-0.085-0.27-0.128
	c-0.091-0.042-0.181-0.084-0.273-0.126c-0.091-0.042-0.183-0.083-0.275-0.124c-0.092-0.041-0.185-0.082-0.278-0.123
	s-0.186-0.081-0.28-0.121c-0.094-0.04-0.188-0.08-0.283-0.119s-0.19-0.078-0.285-0.117c-0.095-0.039-0.191-0.077-0.288-0.115
	c-0.096-0.038-0.193-0.076-0.29-0.113c-0.097-0.037-0.195-0.074-0.292-0.111c-0.098-0.037-0.196-0.073-0.295-0.108
	s-0.198-0.071-0.297-0.106s-0.199-0.07-0.3-0.104c-0.1-0.034-0.201-0.068-0.302-0.101c-0.101-0.033-0.202-0.066-0.304-0.099
	s-0.204-0.064-0.306-0.096c-0.103-0.032-0.205-0.063-0.309-0.093c-0.103-0.031-0.207-0.061-0.311-0.091
	c-0.104-0.03-0.208-0.059-0.313-0.088s-0.21-0.057-0.315-0.085c-0.106-0.028-0.211-0.055-0.318-0.082
	c-0.106-0.027-0.213-0.053-0.32-0.079c-0.107-0.026-0.214-0.051-0.322-0.076c-0.108-0.025-0.216-0.049-0.324-0.072
	c-0.108-0.024-0.217-0.047-0.326-0.069C15.86,8.942,15.75,8.92,15.64,8.899c-0.11-0.021-0.22-0.042-0.331-0.062
	c-0.111-0.02-0.221-0.04-0.333-0.059c-0.111-0.019-0.223-0.037-0.335-0.055c-0.112-0.018-0.224-0.035-0.337-0.052
	c-0.113-0.017-0.226-0.033-0.339-0.048c-0.113-0.015-0.227-0.03-0.341-0.044c-0.114-0.014-0.228-0.027-0.343-0.04
	s-0.23-0.025-0.345-0.036C12.822,8.491,12.706,8.48,12.59,8.47c-0.116-0.01-0.232-0.019-0.349-0.028
	c-0.117-0.009-0.234-0.017-0.351-0.024s-0.235-0.014-0.353-0.02c-0.118-0.006-0.236-0.011-0.355-0.015
	c-0.119-0.004-0.237-0.008-0.357-0.011s-0.239-0.005-0.359-0.007s-0.24-0.002-0.36-0.002c-0.12,0-0.241,0.001-0.362,0.003
	C9.624,8.367,9.503,8.369,9.381,8.372C9.26,8.376,9.138,8.38,9.015,8.384C8.907,8.389,8.799,8.394,8.691,8.4
	S8.476,8.413,8.368,8.421C8.26,8.429,8.152,8.438,8.045,8.447c-0.108,0.01-0.215,0.02-0.323,0.032S7.506,8.503,7.399,8.516
	C7.291,8.53,7.184,8.544,7.076,8.559C6.969,8.574,6.862,8.589,6.754,8.606C6.647,8.623,6.539,8.64,6.432,8.658
	C6.325,8.677,6.218,8.696,6.11,8.716c-0.107,0.02-0.214,0.041-0.322,0.062C5.682,8.799,5.575,8.821,5.467,8.844
	C5.36,8.868,5.253,8.891,5.146,8.916C5.039,8.94,4.932,8.966,4.825,8.992c-0.107,0.026-0.214,0.053-0.321,0.08
	C4.397,9.1,4.29,9.128,4.183,9.157S3.97,9.215,3.863,9.246c-0.107,0.03-0.214,0.061-0.321,0.093S3.328,9.403,3.222,9.436
	s-0.214,0.067-0.32,0.101c-0.107,0.034-0.214,0.069-0.32,0.105S2.367,9.714,2.26,9.751S2.047,9.825,1.94,9.863
	C1.833,9.901,1.726,9.94,1.619,9.979c-0.107,0.039-0.214,0.079-0.32,0.12s-0.214,0.081-0.32,0.123s-0.214,0.084-0.321,0.126
	s-0.214,0.086-0.321,0.129c-0.107,0.044-0.214,0.088-0.321,0.133s-0.214,0.09-0.321,0.136s-0.214,0.092-0.321,0.139
	c-0.107,0.047-0.214,0.094-0.321,0.141c-0.107,0.048-0.214,0.096-0.321,0.144s-0.214,0.097-0.321,0.147
	c-0.107,0.049-0.214,0.099-0.322,0.149s-0.214,0.101-0.322,0.152c-0.107,0.051-0.215,0.102-0.322,0.154
	c-0.107,0.052-0.215,0.104-0.322,0.157s-0.215,0.105-0.322,0.159s-0.215,0.107-0.323,0.161s-0.215,0.108-0.323,0.163
	s-0.215,0.11-0.323,0.165c-0.108,0.055-0.216,0.111-0.324,0.167c-0.108,0.056-0.216,0.112-0.324,0.168
	c-0.108,0.056-0.216,0.113-0.324,0.17c-0.108,0.057-0.216,0.114-0.325,0.172c-0.108,0.057-0.217,0.115-0.325,0.173
	s-0.217,0.116-0.325,0.174c-0.108,0.058-0.217,0.117-0.326,0.176c-0.109,0.059-0.217,0.118-0.326,0.177
	c-0.109,0.059-0.218,0.118-0.327,0.178s-0.218,0.119-0.327,0.179c-0.109,0.06-0.218,0.12-0.327,0.18
	c-0.109,0.06-0.219,0.12-0.328,0.181c-0.109,0.06-0.219,0.121-0.328,0.181c-0.11,0.061-0.219,0.121-0.329,0.182
	s-0.22,0.122-0.329,0.182c-0.11,0.061-0.22,0.122-0.33,0.183c-0.11,0.061-0.22,0.122-0.33,0.183s-0.221,0.122-0.331,0.184
	s-0.221,0.122-0.332,0.184c-0.111,0.061-0.221,0.122-0.332,0.184c-0.111,0.061-0.222,0.122-0.333,0.184
	c-0.111,0.061-0.222,0.122-0.334,0.184c-0.111,0.061-0.223,0.122-0.334,0.183c-0.111,0.061-0.223,0.122-0.335,0.183
	c-0.112,0.061-0.224,0.122-0.335,0.183c-0.112,0.061-0.224,0.122-0.336,0.182c-0.112,0.061-0.224,0.121-0.337,0.182
	c-0.112,0.06-0.225,0.121-0.338,0.181s-0.225,0.12-0.338,0.18c-0.113,0.06-0.226,0.12-0.339,0.179
	c-0.113,0.06-0.226,0.119-0.34,0.178c-0.113,0.059-0.227,0.118-0.341,0.177c-0.114,0.059-0.228,0.118-0.342,0.176
	c-0.114,0.059-0.228,0.117-0.342,0.175c-0.114,0.058-0.229,0.116-0.343,0.174c-0.115,0.058-0.229,0.115-0.344,0.172
	c-0.115,0.057-0.23,0.114-0.345,0.171c-0.115,0.057-0.23,0.113-0.346,0.169c-0.115,0.056-0.231,0.112-0.347,0.167
	c-0.116,0.055-0.232,0.111-0.348,0.166s-0.232,0.109-0.349,0.164s-0.233,0.108-0.349,0.162c-0.117,0.054-0.233,0.107-0.35,0.16
	c-0.117,0.053-0.234,0.105-0.351,0.157c-0.117,0.052-0.235,0.104-0.352,0.155c-0.118,0.051-0.235,0.102-0.353,0.153
	c-0.118,0.051-0.236,0.101-0.354,0.15c-0.118,0.05-0.237,0.099-0.355,0.148c-0.119,0.049-0.238,0.097-0.357,0.145
	s-0.238,0.095-0.358,0.143c-0.119,0.047-0.239,0.094-0.359,0.14s-0.24,0.092-0.36,0.137c-0.12,0.045-0.24,0.09-0.361,0.134
	c-0.12,0.044-0.241,0.088-0.362,0.131c-0.121,0.043-0.242,0.086-0.363,0.128c-0.121,0.042-0.243,0.083-0.364,0.124
	c-0.122,0.041-0.243,0.081-0.366,0.121c-0.122,0.04-0.244,0.079-0.367,0.117s-0.245,0.077-0.368,0.114s-0.246,0.074-0.369,0.11
	c-0.123,0.036-0.247,0.072-0.37,0.106c-0.124,0.035-0.248,0.069-0.372,0.103s-0.248,0.066-0.373,0.099
	c-0.125,0.032-0.249,0.064-0.374,0.095c-0.125,0.031-0.25,0.061-0.376,0.091c-0.125,0.029-0.251,0.058-0.377,0.086
	c-0.126,0.028-0.252,0.055-0.378,0.082c-0.126,0.027-0.253,0.053-0.38,0.078c-0.127,0.025-0.254,0.05-0.381,0.073
	c-0.127,0.024-0.255,0.047-0.382,0.069c-0.128,0.022-0.256,0.043-0.384,0.064s-0.257,0.04-0.385,0.059
	c-0.129,0.019-0.257,0.037-0.387,0.054c-0.129,0.017-0.258,0.034-0.388,0.049c-0.13,0.016-0.259,0.03-0.389,0.044
	s-0.26,0.027-0.391,0.039c-0.131,0.012-0.261,0.024-0.392,0.034s-0.262,0.02-0.394,0.029s-0.263,0.016-0.396,0.023
	c-0.132,0.007-0.264,0.013-0.397,0.018c-0.133,0.005-0.265,0.009-0.399,0.012c-0.133,0.003-0.267,0.005-0.4,0.006
	c-0.134,0.001-0.268,0.001-0.402,0.001s-0.269-0.003-0.403-0.005s-0.27-0.006-0.405-0.011c-0.135-0.005-0.271-0.01-0.407-0.017
	c-0.136-0.007-0.272-0.015-0.408-0.023c-0.037-0.002-0.074-0.005-0.111-0.007c-0.037-0.002-0.074-0.004-0.11-0.006
	c-0.037-0.002-0.073-0.004-0.11-0.005s-0.073-0.003-0.11-0.005c-0.037-0.001-0.073-0.003-0.109-0.004
	c-0.036-0.001-0.073-0.002-0.109-0.003c-0.036-0.001-0.073,0.037-0.109,0.075s-0.073,0.076-0.109,0.076s-0.072,0.038-0.109,0.076
	C-36.191,23.961-36.227,24-36.263,24c-0.036,0-0.072,0-0.108,0c-0.036,0-0.072,0-0.108,0c-0.036,0-0.072,0-0.108,0s-0.072,0-0.108,0
	c-0.036,0-0.072-0.039-0.108-0.077c-0.036-0.039-0.072-0.077-0.108-0.077c-0.036,0-0.072-0.019-0.108-0.037
	s-0.072-0.038-0.108-0.037s-0.072-0.008-0.108-0.018s-0.072-0.018-0.108-0.017c-0.036,0.001-0.072-0.003-0.108-0.007
	c-0.036-0.004-0.072-0.008-0.108-0.007s-0.072,0.141-0.108,0.139C-37.705,23.859-37.742,24-37.778,24c-0.036,0-0.072,0-0.109,0
	s-0.072,0-0.109,0s-0.073-0.14-0.109-0.14c-0.036,0-0.073-0.07-0.109-0.069c-0.036,0.001-0.073-0.034-0.109-0.034
	c-0.036,0-0.073-0.017-0.11-0.016c-0.037,0.001-0.073-0.008-0.11-0.007c-0.037,0.001-0.073-0.003-0.11-0.003
	c-0.037,0.001-0.074,0.032-0.11,0.066c-0.037,0.034-0.074,0.067-0.111,0.067c-0.037,0-0.074,0.034-0.111,0.068
	C-39.021,23.967-39.058,24-39.095,24c-0.037,0-0.074,0-0.112,0c-0.037,0-0.075,0-0.112,0c-0.037,0-0.075-0.034-0.112-0.067
	c-0.038-0.034-0.075-0.067-0.113-0.068c-0.038,0-0.075-0.018-0.113-0.035s-0.076-0.035-0.114-0.035s-0.076-0.01-0.114-0.019
	c-0.038-0.009-0.076-0.019-0.115-0.02s-0.077-0.006-0.115-0.012s-0.077-0.011-0.116-0.012c-0.039-0.001-0.077-0.005-0.116-0.009
	c-0.039-0.004-0.078-0.008-0.117-0.01c-0.039-0.002-0.078-0.005-0.117-0.008c-0.039-0.003-0.079-0.007-0.118-0.009
	c-0.039-0.002-0.079-0.006-0.119-0.009c-0.04-0.003-0.079-0.007-0.119-0.01c-0.04-0.003-0.08-0.006-0.12-0.01
	c-0.04-0.004-0.08-0.007-0.121-0.011c-0.04-0.004-0.081-0.007-0.121-0.012s-0.081-0.008-0.122-0.012
	c-0.041-0.004-0.082-0.009-0.123-0.013c-0.041-0.005-0.082-0.009-0.123-0.014c-0.041-0.005-0.083-0.01-0.124-0.015
	s-0.083-0.011-0.125-0.016c-0.042-0.006-0.084-0.011-0.126-0.017c-0.042-0.006-0.084-0.012-0.127-0.019s-0.085-0.013-0.127-0.02
	s-0.085-0.014-0.128-0.021s-0.086-0.015-0.129-0.022c-0.043-0.008-0.087-0.015-0.13-0.023s-0.087-0.016-0.131-0.025
	c-0.044-0.008-0.088-0.017-0.132-0.026c-0.044-0.009-0.088-0.018-0.133-0.027c-0.044-0.009-0.089-0.019-0.134-0.029
	c-0.045-0.01-0.09-0.02-0.135-0.03c-0.045-0.01-0.09-0.021-0.136-0.032c-0.045-0.011-0.091-0.022-0.137-0.033
	c-0.046-0.011-0.092-0.023-0.138-0.035c-0.046-0.012-0.092-0.024-0.139-0.036c-0.047-0.012-0.093-0.025-0.14-0.038
	s-0.094-0.026-0.141-0.039s-0.095-0.027-0.142-0.041c-0.048-0.014-0.095-0.028-0.143-0.043c-0.048-0.015-0.096-0.029-0.145-0.045
	c-0.048-0.015-0.097-0.031-0.146-0.046c-0.049-0.016-0.098-0.032-0.147-0.048s-0.099-0.033-0.148-0.05
	c-0.05-0.017-0.099-0.034-0.149-0.052c-0.05-0.018-0.1-0.035-0.151-0.054c-0.05-0.018-0.101-0.037-0.152-0.055
	c-0.051-0.019-0.102-0.038-0.153-0.057c-0.051-0.019-0.103-0.039-0.154-0.059s-0.104-0.041-0.156-0.061
	c-0.052-0.021-0.105-0.042-0.157-0.063c-0.053-0.021-0.105-0.043-0.159-0.065c-0.053-0.022-0.106-0.045-0.16-0.068
	c-0.054-0.023-0.107-0.046-0.161-0.07c-0.054-0.024-0.108-0.048-0.163-0.072s-0.109-0.049-0.164-0.074
	c-0.055-0.025-0.11-0.05-0.166-0.076s-0.111-0.052-0.167-0.078c-0.056-0.027-0.112-0.053-0.169-0.081
	c-0.056-0.027-0.113-0.055-0.17-0.083c-0.057-0.028-0.114-0.057-0.172-0.085c-0.057-0.029-0.115-0.058-0.173-0.088
	c-0.058-0.03-0.116-0.06-0.175-0.09s-0.117-0.061-0.176-0.093c-0.059-0.031-0.118-0.063-0.178-0.095
	c-0.06-0.032-0.119-0.065-0.18-0.098c-0.06-0.033-0.12-0.066-0.181-0.1s-0.122-0.068-0.183-0.103
	c-0.061-0.035-0.123-0.07-0.184-0.105c-0.062-0.036-0.124-0.071-0.186-0.108c-0.062-0.036-0.125-0.073-0.188-0.111
	s-0.126-0.075-0.19-0.113c-0.063-0.038-0.127-0.077-0.191-0.116c-0.064-0.039-0.128-0.079-0.193-0.119
	c-0.065-0.04-0.13-0.081-0.195-0.121c-0.065-0.041-0.131-0.082-0.197-0.124c-0.066-0.042-0.132-0.084-0.199-0.127
	c-0.066-0.043-0.133-0.086-0.2-0.13c-0.067-0.044-0.135-0.088-0.202-0.133s-0.136-0.09-0.204-0.136
	c-0.068-0.046-0.137-0.092-0.206-0.139c-0.069-0.047-0.138-0.094-0.208-0.142c-0.07-0.048-0.14-0.096-0.21-0.145
	c-0.07-0.049-0.141-0.098-0.212-0.148s-0.142-0.1-0.214-0.151c-0.072-0.051-0.144-0.102-0.216-0.154s-0.145-0.104-0.218-0.157
	c-0.073-0.053-0.146-0.106-0.22-0.161c-0.074-0.054-0.148-0.109-0.222-0.164c0.168-0.06,0.336-0.122,0.506-0.187
	c0.169-0.065,0.34-0.131,0.51-0.201c0.171-0.069,0.342-0.141,0.515-0.214c0.172-0.074,0.345-0.15,0.519-0.228
	c0.174-0.078,0.348-0.159,0.523-0.241s0.351-0.168,0.527-0.255c0.176-0.087,0.353-0.176,0.53-0.268
	c0.177-0.091,0.355-0.185,0.534-0.281c0.178-0.096,0.357-0.194,0.537-0.294c0.179-0.1,0.359-0.202,0.54-0.307
	s0.361-0.211,0.542-0.32c0.181-0.109,0.363-0.219,0.545-0.332c0.182-0.113,0.364-0.228,0.547-0.345
	c0.183-0.117,0.366-0.236,0.549-0.357c0.183-0.121,0.367-0.244,0.551-0.369c0.184-0.125,0.368-0.252,0.552-0.382
	c0.184-0.129,0.369-0.26,0.554-0.394c0.185-0.133,0.37-0.268,0.555-0.406c0.185-0.137,0.37-0.276,0.556-0.417
	s0.371-0.284,0.557-0.429c0.186-0.145,0.371-0.292,0.557-0.441c0.186-0.149,0.372-0.3,0.557-0.452
	c0.186-0.153,0.372-0.307,0.557-0.464c0.186-0.156,0.372-0.315,0.557-0.475c0.186-0.16,0.371-0.322,0.557-0.486
	s0.371-0.329,0.556-0.497c0.185-0.167,0.371-0.337,0.556-0.508c0.185-0.171,0.37-0.344,0.555-0.518
	c0.185-0.175,0.369-0.351,0.553-0.529s0.368-0.358,0.552-0.54c0.184-0.182,0.367-0.365,0.55-0.55
	c0.183-0.185,0.366-0.372,0.548-0.56c0.182-0.188,0.365-0.379,0.546-0.57c0.182-0.192,0.363-0.385,0.544-0.581
	c0.181-0.195,0.361-0.392,0.542-0.59c0.18-0.198,0.36-0.399,0.539-0.6c0.179-0.202,0.358-0.405,0.536-0.61
	c0.178-0.205,0.356-0.411,0.533-0.62c0.177-0.208,0.353-0.418,0.529-0.629s0.351-0.424,0.526-0.638
	c0.175-0.214,0.349-0.43,0.522-0.648c0.173-0.217,0.346-0.436,0.518-0.657c0.172-0.22,0.343-0.442,0.514-0.666
	s0.34-0.448,0.509-0.675s0.337-0.454,0.505-0.683c0.167-0.229,0.334-0.46,0.5-0.692c0.166-0.232,0.331-0.466,0.495-0.701
	c0.164-0.235,0.327-0.471,0.489-0.709c0.162-0.238,0.323-0.477,0.484-0.717c0.16-0.24,0.32-0.482,0.478-0.725
	s0.316-0.488,0.472-0.733c0.156-0.246,0.312-0.493,0.466-0.741c0.154-0.248,0.307-0.498,0.459-0.749
	c0.152-0.251,0.303-0.503,0.453-0.757s0.298-0.508,0.446-0.764c0.148-0.256,0.294-0.513,0.439-0.772
	c0.145-0.259,0.289-0.518,0.432-0.779s0.284-0.523,0.424-0.786c0.14-0.263,0.279-0.528,0.417-0.794
	c0.138-0.266,0.274-0.533,0.409-0.801s0.268-0.537,0.4-0.807s0.263-0.542,0.392-0.814c0.129-0.273,0.257-0.546,0.384-0.821
	s0.251-0.551,0.375-0.827c0.123-0.277,0.245-0.555,0.366-0.834s0.239-0.559,0.357-0.84c0.117-0.281,0.233-0.563,0.347-0.846
	s0.227-0.567,0.338-0.852c0.111-0.285,0.22-0.571,0.328-0.858c0.108-0.287,0.213-0.575,0.318-0.864s0.207-0.579,0.307-0.87
	c0.101-0.291,0.2-0.583,0.297-0.875c0.097-0.293,0.193-0.586,0.286-0.881c0.094-0.294,0.185-0.59,0.275-0.886
	c0.09-0.296,0.178-0.593,0.264-0.891c0.086-0.298,0.17-0.597,0.253-0.896c0.082-0.3,0.163-0.6,0.241-0.901s0.155-0.603,0.229-0.906
	c0.074-0.303,0.147-0.607,0.217-0.911c0.07-0.304,0.139-0.61,0.205-0.916c0.066-0.306,0.131-0.613,0.193-0.92
	s0.122-0.616,0.18-0.925c0.058-0.309,0.114-0.619,0.167-0.929c0.054-0.31,0.105-0.621,0.154-0.933
	c0.049-0.312,0.096-0.624,0.141-0.937c0.045-0.313,0.087-0.627,0.127-0.941c0.04-0.314,0.078-0.629,0.113-0.945
	c0.035-0.316,0.069-0.632,0.099-0.949c0.031-0.317,0.059-0.634,0.085-0.952c0.026-0.318,0.05-0.637,0.071-0.956
	c0.021-0.319,0.04-0.639,0.056-0.959c0.016-0.32,0.03-0.641,0.041-0.962c0.011-0.321,0.02-0.643,0.026-0.965s0.01-0.645,0.011-0.968
	c0.001-0.323,0-0.647-0.004-0.971c-0.004-0.324-0.011-0.649-0.02-0.974c-0.009-0.325-0.021-0.651-0.036-0.977
	s-0.032-0.652-0.052-0.979c-0.02-0.327-0.043-0.654-0.068-0.982c-0.026-0.328-0.054-0.656-0.085-0.984
	c-0.031-0.328-0.065-0.657-0.102-0.986c-0.037-0.329-0.076-0.658-0.119-0.988c-0.042-0.33-0.088-0.66-0.136-0.99
	c-0.048-0.33-0.099-0.661-0.153-0.992c-0.054-0.331-0.111-0.662-0.171-0.994c-0.06-0.331-0.123-0.663-0.189-0.995
	s-0.135-0.664-0.207-0.997c-0.072-0.332-0.147-0.665-0.225-0.998s-0.159-0.666-0.243-0.999c-0.084-0.333-0.172-0.667-0.262-1
	c-0.091-0.334-0.184-0.667-0.281-1.001c-0.097-0.334-0.197-0.668-0.3-1.002c-0.103-0.334-0.21-0.668-0.32-1.003
	c-0.11-0.334-0.223-0.669-0.339-1.004c-0.116-0.335-0.236-0.669-0.359-1.004c-0.123-0.335-0.249-0.67-0.379-1.004
	c-0.13-0.335-0.263-0.67-0.399-1.005c-0.136-0.335-0.276-0.67-0.42-1.005c-0.143-0.335-0.29-0.67-0.44-1.005
	c-0.15-0.335-0.304-0.67-0.461-1.005c-0.157-0.335-0.318-0.67-0.482-1.005c-0.164-0.335-0.332-0.67-0.504-1.004
	c-0.171-0.335-0.346-0.669-0.525-1.004c-0.179-0.335-0.361-0.669-0.547-1.003c-0.186-0.334-0.375-0.669-0.569-1.003
	c-0.193-0.334-0.39-0.668-0.591-1.002c-0.201-0.334-0.405-0.668-0.613-1.001s-0.42-0.667-0.636-1
	c-0.257-0.397-0.513-0.791-0.768-1.181c-0.255-0.39-0.508-0.777-0.76-1.16c-0.252-0.383-0.503-0.763-0.753-1.139
	c-0.25-0.376-0.498-0.749-0.745-1.118s-0.493-0.735-0.738-1.098c-0.245-0.362-0.488-0.721-0.73-1.077s-0.483-0.708-0.723-1.057
	c-0.24-0.349-0.478-0.694-0.715-1.037c-0.237-0.342-0.473-0.681-0.708-1.017s-0.468-0.668-0.701-0.997
	c-0.232-0.329-0.463-0.655-0.693-0.978c-0.23-0.323-0.459-0.642-0.686-0.958c-0.228-0.316-0.454-0.629-0.679-0.939
	c-0.225-0.31-0.449-0.617-0.672-0.92c-0.223-0.304-0.444-0.604-0.665-0.902c-0.22-0.297-0.44-0.592-0.658-0.883
	s-0.435-0.58-0.65-0.865c-0.216-0.285-0.43-0.568-0.643-0.847s-0.425-0.556-0.636-0.829c-0.211-0.273-0.421-0.544-0.629-0.811
	c-0.209-0.268-0.416-0.532-0.623-0.794c-0.206-0.262-0.412-0.521-0.616-0.777c-0.204-0.256-0.407-0.509-0.609-0.759
	c-0.202-0.25-0.403-0.498-0.602-0.743c-0.2-0.245-0.398-0.487-0.595-0.726c-0.197-0.239-0.394-0.476-0.589-0.709
	c-0.195-0.234-0.389-0.465-0.582-0.693c-0.193-0.228-0.385-0.454-0.575-0.677c-0.191-0.223-0.38-0.443-0.569-0.661
	s-0.376-0.433-0.562-0.646c-0.186-0.213-0.371-0.423-0.556-0.63c-0.184-0.207-0.367-0.412-0.549-0.615
	c-0.182-0.202-0.363-0.402-0.543-0.6c-0.18-0.197-0.359-0.392-0.536-0.585c-0.178-0.193-0.354-0.383-0.53-0.57
	c-0.176-0.188-0.35-0.373-0.523-0.556c-0.173-0.183-0.346-0.363-0.517-0.542c-0.171-0.178-0.342-0.354-0.511-0.527
	s-0.338-0.345-0.505-0.514c-0.167-0.169-0.333-0.336-0.499-0.5c-0.165-0.164-0.329-0.327-0.492-0.487
	c-0.163-0.16-0.325-0.318-0.486-0.473s-0.321-0.309-0.48-0.46s-0.317-0.3-0.474-0.447c-0.157-0.147-0.313-0.292-0.468-0.435
	c-0.155-0.143-0.309-0.284-0.462-0.422s-0.305-0.275-0.456-0.41s-0.301-0.267-0.45-0.398c-0.149-0.131-0.297-0.259-0.445-0.386
	c-0.147-0.127-0.294-0.252-0.439-0.374c-0.145-0.123-0.29-0.244-0.433-0.363c-0.143-0.119-0.286-0.236-0.427-0.352
	c-0.142-0.115-0.282-0.229-0.422-0.341s-0.278-0.222-0.416-0.33c-0.138-0.108-0.275-0.215-0.41-0.319
	c-0.136-0.105-0.271-0.208-0.405-0.309s-0.267-0.201-0.399-0.299c-0.132-0.098-0.263-0.194-0.394-0.288
	c-0.13-0.095-0.26-0.187-0.388-0.279s-0.256-0.181-0.383-0.269c-0.127-0.088-0.253-0.175-0.378-0.26
	c-0.125-0.085-0.249-0.168-0.372-0.25c-0.123-0.082-0.246-0.162-0.367-0.241s-0.242-0.156-0.362-0.232
	c-0.12-0.076-0.239-0.151-0.357-0.224c-0.118-0.073-0.235-0.145-0.351-0.215c-0.116-0.07-0.232-0.139-0.346-0.207
	c-0.115-0.068-0.228-0.134-0.341-0.199s-0.225-0.129-0.336-0.191c-0.111-0.062-0.221-0.124-0.331-0.184s-0.218-0.119-0.326-0.176
	s-0.215-0.114-0.321-0.169c-0.106-0.055-0.212-0.109-0.316-0.162c-0.105-0.053-0.208-0.105-0.311-0.155s-0.205-0.1-0.306-0.149
	s-0.202-0.096-0.302-0.142c-0.1-0.046-0.199-0.092-0.297-0.136s-0.196-0.088-0.292-0.13s-0.192-0.084-0.287-0.124
	s-0.189-0.08-0.283-0.118s-0.186-0.076-0.278-0.113c-0.092-0.037-0.183-0.073-0.274-0.108c-0.09-0.035-0.18-0.069-0.269-0.103
	c-0.089-0.033-0.177-0.066-0.265-0.098c-0.087-0.032-0.174-0.063-0.26-0.093c-0.086-0.03-0.171-0.06-0.256-0.089
	c-0.085-0.029-0.168-0.057-0.251-0.085s-0.165-0.054-0.247-0.081c-0.082-0.026-0.163-0.052-0.243-0.077
	c-0.08-0.025-0.16-0.049-0.239-0.073s-0.157-0.047-0.234-0.07c-0.077-0.023-0.154-0.045-0.23-0.067
	c-0.076-0.022-0.151-0.043-0.226-0.064c-0.075-0.021-0.149-0.041-0.222-0.061c-0.073-0.02-0.146-0.039-0.218-0.058
	c-0.072-0.019-0.143-0.038-0.214-0.056s-0.141-0.036-0.21-0.054c-0.069-0.018-0.138-0.035-0.206-0.052
	c-0.068-0.017-0.135-0.033-0.202-0.05c-0.067-0.016-0.133-0.032-0.198-0.048c-0.065-0.016-0.13-0.031-0.194-0.047
	c-0.064-0.015-0.128-0.031-0.19-0.046c-0.063-0.015-0.125-0.03-0.187-0.045c-0.062-0.015-0.123-0.029-0.183-0.044
	c-0.06-0.014-0.12-0.029-0.179-0.043c-0.059-0.014-0.118-0.029-0.176-0.043s-0.115-0.028-0.172-0.043
	c-0.057-0.014-0.113-0.028-0.168-0.043c-0.056-0.014-0.111-0.028-0.165-0.043s-0.108-0.029-0.161-0.043
	c-0.053-0.015-0.106-0.029-0.158-0.044c-0.052-0.015-0.104-0.03-0.155-0.045c-0.051-0.015-0.101-0.03-0.151-0.046
	c-0.05-0.015-0.099-0.031-0.148-0.047c-0.049-0.016-0.097-0.032-0.145-0.048c-0.048-0.016-0.095-0.033-0.141-0.05
	c-0.047-0.017-0.093-0.034-0.138-0.052c-0.045-0.018-0.09-0.035-0.135-0.054c-0.044-0.018-0.088-0.037-0.132-0.056
	c-0.043-0.019-0.086-0.038-0.129-0.058c-0.042-0.02-0.084-0.04-0.126-0.061c-0.041-0.021-0.082-0.042-0.123-0.064
	c-0.04-0.022-0.08-0.044-0.12-0.067s-0.078-0.046-0.117-0.07s-0.076-0.048-0.114-0.073s-0.074-0.051-0.111-0.077
	c-0.036-0.026-0.072-0.053-0.108-0.081c-0.036-0.028-0.071-0.056-0.105-0.085c-0.034-0.029-0.068-0.057-0.1-0.085
	s-0.063-0.056-0.092-0.083c-0.03-0.027-0.058-0.054-0.085-0.08c-0.027-0.026-0.053-0.052-0.078-0.077s-0.049-0.05-0.071-0.075
	c-0.023-0.025-0.044-0.049-0.064-0.072c-0.02-0.024-0.039-0.047-0.057-0.07s-0.035-0.045-0.051-0.067
	c-0.016-0.022-0.03-0.044-0.044-0.065s-0.026-0.042-0.037-0.062s-0.022-0.04-0.031-0.06s-0.017-0.039-0.025-0.057
	c-0.007-0.019-0.013-0.037-0.018-0.055c-0.005-0.018-0.009-0.035-0.012-0.053s-0.005-0.034-0.006-0.05
	c-0.001-0.016-0.001-0.032,0-0.048s0.003-0.031,0.006-0.045c0.003-0.015,0.007-0.029,0.012-0.043
	c0.005-0.014,0.011-0.028,0.018-0.041c0.007-0.013,0.015-0.026,0.023-0.038c0.009-0.012,0.018-0.024,0.029-0.036
	c0.011-0.012,0.022-0.023,0.034-0.034c0.012-0.011,0.026-0.021,0.04-0.031c0.014-0.01,0.029-0.02,0.045-0.029
	s0.033-0.018,0.05-0.027c0.018-0.009,0.036-0.017,0.056-0.025s0.04-0.015,0.061-0.023c0.021-0.007,0.043-0.014,0.066-0.02
	c0.023-0.006,0.046-0.012,0.071-0.018c0.024-0.006,0.049-0.011,0.075-0.016s0.053-0.01,0.08-0.014s0.056-0.008,0.085-0.012
	c0.029-0.004,0.059-0.007,0.089-0.01c0.03-0.003,0.062-0.005,0.094-0.008s0.065-0.004,0.098-0.006
	c0.033-0.001,0.067,0.063,0.102,0.062c0.035-0.001,0.07,0.064,0.106,0.064s0.073,0,0.111,0c0.038,0,0.076-0.064,0.115-0.063
	s0.078-0.03,0.118-0.028c0.04,0.002,0.081-0.012,0.122-0.01c0.041,0.003,0.083-0.003,0.126,0c0.043,0.003,0.086,0.003,0.13,0.006
	c0.044,0.004,0.088,0.006,0.133,0.01c0.045,0.004,0.091,0.008,0.137,0.013c0.046,0.005,0.093,0.01,0.14,0.016
	c0.047,0.006,0.095,0.011,0.143,0.018c0.048,0.006,0.097,0.013,0.147,0.02c0.049,0.007,0.099,0.014,0.15,0.022
	s0.101,0.015,0.153,0.024c0.051,0.008,0.103,0.017,0.156,0.025s0.105,0.018,0.159,0.027c0.053,0.009,0.107,0.019,0.161,0.029
	c0.054,0.01,0.109,0.02,0.164,0.031s0.111,0.021,0.167,0.032c0.056,0.011,0.112,0.023,0.169,0.034
	c0.057,0.012,0.114,0.024,0.171,0.036s0.115,0.025,0.174,0.038c0.058,0.013,0.117,0.026,0.176,0.039
	c0.059,0.013,0.118,0.027,0.178,0.041c0.06,0.014,0.12,0.028,0.18,0.043c0.06,0.014,0.121,0.029,0.182,0.044
	c0.061,0.015,0.122,0.03,0.184,0.046s0.124,0.031,0.186,0.047c0.062,0.016,0.125,0.032,0.188,0.049
	c0.063,0.017,0.126,0.033,0.189,0.051c0.063,0.017,0.127,0.034,0.191,0.052c0.064,0.018,0.128,0.035,0.192,0.054
	c0.064,0.018,0.129,0.036,0.194,0.055c0.065,0.019,0.13,0.037,0.195,0.057c0.065,0.019,0.13,0.038,0.196,0.058
	c0.066,0.02,0.131,0.039,0.197,0.06s0.132,0.04,0.198,0.061s0.133,0.041,0.199,0.062c0.066,0.021,0.133,0.042,0.2,0.064
	c0.067,0.022,0.134,0.043,0.201,0.065c0.067,0.022,0.134,0.044,0.201,0.067s0.134,0.045,0.202,0.068
	c0.067,0.023,0.135,0.046,0.202,0.069c0.067,0.023,0.135,0.047,0.203,0.071s0.135,0.048,0.203,0.072s0.135,0.049,0.203,0.073
	s0.135,0.049,0.203,0.075s0.136,0.05,0.203,0.076c0.068,0.025,0.135,0.051,0.203,0.077c0.068,0.026,0.135,0.052,0.203,0.078
	s0.135,0.053,0.203,0.079s0.135,0.054,0.202,0.081c0.067,0.027,0.135,0.054,0.202,0.082s0.134,0.055,0.202,0.083
	c0.067,0.028,0.134,0.056,0.201,0.084c0.067,0.028,0.134,0.057,0.2,0.085s0.133,0.057,0.2,0.086
	c0.066,0.029,0.133,0.058,0.199,0.087c0.066,0.029,0.132,0.059,0.198,0.089c0.066,0.03,0.131,0.06,0.197,0.09
	c0.065,0.03,0.131,0.06,0.196,0.091c0.065,0.03,0.13,0.061,0.194,0.092s0.129,0.062,0.193,0.093
	c0.064,0.031,0.128,0.062,0.192,0.094c0.064,0.031,0.127,0.063,0.19,0.095c0.063,0.032,0.126,0.064,0.189,0.096
	c0.063,0.032,0.125,0.064,0.187,0.097s0.124,0.065,0.185,0.097c0.061,0.033,0.123,0.065,0.183,0.098
	c0.061,0.033,0.121,0.066,0.182,0.099c0.06,0.033,0.12,0.067,0.18,0.1c0.059,0.034,0.119,0.067,0.177,0.101
	c0.059,0.034,0.117,0.068,0.175,0.102c0.058,0.034,0.116,0.068,0.173,0.103c0.057,0.034,0.114,0.069,0.171,0.104
	c0.056,0.035,0.113,0.069,0.168,0.104s0.111,0.07,0.166,0.105c0.055,0.035,0.109,0.07,0.163,0.106
	c0.054,0.035,0.107,0.071,0.16,0.107s0.105,0.071,0.157,0.107c0.052,0.036,0.104,0.072,0.155,0.108s0.102,0.072,0.152,0.109
	c0.05,0.036,0.1,0.073,0.149,0.109c0.049,0.037,0.097,0.073,0.145,0.11c0.048,0.037,0.095,0.074,0.142,0.111
	c0.047,0.037,0.093,0.074,0.139,0.111c0.046,0.037,0.091,0.075,0.135,0.112s0.089,0.075,0.132,0.113
	c0.043,0.038,0.086,0.075,0.128,0.113c0.042,0.038,0.084,0.076,0.125,0.114s0.081,0.076,0.121,0.114
	c0.04,0.038,0.079,0.076,0.117,0.115c0,0-0.001-0.001-0.003-0.003s-0.005-0.004-0.009-0.008c-0.004-0.003-0.009-0.007-0.015-0.012
	c-0.006-0.005-0.013-0.011-0.02-0.017s-0.016-0.014-0.026-0.022s-0.02-0.017-0.031-0.027s-0.023-0.02-0.036-0.031
	c-0.013-0.011-0.027-0.023-0.042-0.036c-0.015-0.013-0.03-0.026-0.047-0.04c-0.016-0.014-0.034-0.029-0.052-0.045
	s-0.037-0.032-0.057-0.049c-0.02-0.017-0.04-0.035-0.061-0.053c-0.021-0.018-0.043-0.038-0.066-0.057
	c-0.023-0.02-0.046-0.04-0.07-0.062c-0.024-0.021-0.049-0.043-0.075-0.066c-0.026-0.023-0.052-0.046-0.079-0.069
	c-0.027-0.024-0.055-0.048-0.083-0.073s-0.058-0.051-0.087-0.077c-0.03-0.026-0.06-0.053-0.091-0.081
	c-0.031-0.028-0.063-0.056-0.095-0.084c-0.032-0.029-0.065-0.058-0.099-0.088c-0.034-0.03-0.068-0.06-0.103-0.091
	c-0.035-0.031-0.07-0.063-0.106-0.095c-0.036-0.032-0.073-0.065-0.11-0.098c-0.037-0.033-0.075-0.067-0.113-0.101
	s-0.077-0.069-0.116-0.105c-0.039-0.035-0.079-0.071-0.119-0.108c-0.04-0.036-0.081-0.073-0.122-0.111
	c-0.041-0.037-0.083-0.075-0.125-0.114c-0.042-0.038-0.085-0.077-0.128-0.116c-0.043-0.039-0.087-0.079-0.131-0.119
	s-0.088-0.081-0.133-0.122c-0.045-0.041-0.09-0.083-0.136-0.125c-0.046-0.042-0.092-0.084-0.138-0.127s-0.093-0.086-0.14-0.13
	c-0.047-0.044-0.095-0.088-0.142-0.132c-0.048-0.044-0.096-0.089-0.144-0.134c-0.048-0.045-0.097-0.091-0.146-0.136
	c-0.049-0.046-0.098-0.092-0.148-0.139s-0.1-0.093-0.15-0.141c-0.05-0.047-0.101-0.095-0.151-0.143
	c-0.051-0.048-0.102-0.096-0.153-0.145c-0.051-0.049-0.103-0.097-0.154-0.147c-0.052-0.049-0.103-0.099-0.155-0.148
	c-0.052-0.05-0.104-0.1-0.156-0.15c-0.052-0.05-0.105-0.101-0.158-0.152c-0.053-0.051-0.105-0.102-0.158-0.153
	c-0.053-0.051-0.106-0.103-0.159-0.155c-0.053-0.052-0.107-0.104-0.16-0.156s-0.107-0.105-0.16-0.157s-0.107-0.106-0.161-0.159
	c-0.054-0.053-0.107-0.106-0.161-0.16c-0.054-0.053-0.108-0.107-0.162-0.161c-0.054-0.054-0.108-0.108-0.162-0.162
	s-0.108-0.108-0.162-0.163s-0.108-0.109-0.162-0.164s-0.108-0.11-0.161-0.164c-0.054-0.055-0.108-0.11-0.161-0.165
	c-0.054-0.055-0.107-0.11-0.161-0.166c-0.054-0.055-0.107-0.111-0.16-0.166c-0.053-0.056-0.107-0.111-0.16-0.167
	c-0.053-0.056-0.106-0.111-0.159-0.167s-0.106-0.112-0.158-0.168c-0.053-0.056-0.105-0.112-0.157-0.168
	c-0.052-0.056-0.104-0.112-0.156-0.168s-0.103-0.112-0.155-0.168c-0.051-0.056-0.103-0.112-0.154-0.168
	c-0.051-0.056-0.102-0.112-0.152-0.168c-0.05-0.056-0.101-0.112-0.151-0.168s-0.1-0.112-0.149-0.168s-0.098-0.112-0.147-0.167
	c-0.049-0.056-0.097-0.111-0.145-0.167c-0.048-0.056-0.096-0.111-0.144-0.167s-0.095-0.111-0.141-0.166
	c-0.047-0.055-0.093-0.11-0.139-0.165s-0.092-0.11-0.137-0.165c-0.045-0.055-0.09-0.109-0.135-0.164
	c-0.044-0.055-0.089-0.109-0.132-0.163s-0.087-0.108-0.13-0.162c-0.043-0.054-0.085-0.108-0.127-0.161s-0.083-0.107-0.124-0.16
	s-0.081-0.106-0.121-0.159c-0.04-0.053-0.079-0.105-0.118-0.158s-0.077-0.105-0.115-0.157c-0.038-0.052-0.075-0.104-0.112-0.155
	c-0.037-0.052-0.073-0.103-0.108-0.154s-0.07-0.102-0.105-0.152c-0.034-0.05-0.068-0.101-0.101-0.151s-0.066-0.1-0.097-0.149
	s-0.063-0.098-0.094-0.147s-0.06-0.097-0.09-0.145c-0.029-0.048-0.058-0.096-0.086-0.144c-0.028-0.048-0.055-0.095-0.082-0.142
	c-0.026-0.047-0.052-0.093-0.077-0.139s-0.049-0.092-0.073-0.137c-0.024-0.045-0.046-0.09-0.068-0.135
	c-0.022-0.045-0.043-0.089-0.064-0.133c-0.021-0.044-0.04-0.087-0.059-0.13c-0.019-0.043-0.037-0.086-0.054-0.128
	c-0.017-0.042-0.034-0.084-0.049-0.126c-0.016-0.041-0.03-0.082-0.044-0.123s-0.027-0.081-0.039-0.12
	c-0.012-0.04-0.024-0.079-0.034-0.118c-0.01-0.039-0.02-0.077-0.029-0.115c-0.009-0.038-0.016-0.075-0.023-0.112
	c-0.007-0.037-0.013-0.073-0.018-0.109s-0.009-0.071-0.012-0.106c-0.003-0.035-0.005-0.069-0.006-0.103
	c-0.001-0.034-0.001-0.067,0-0.099c0.001-0.033,0.003-0.065,0.006-0.096s0.007-0.062,0.012-0.093c0.005-0.03,0.011-0.06,0.018-0.089
	s0.015-0.058,0.024-0.086c0.009-0.028,0.019-0.055,0.031-0.082c0.011-0.027,0.024-0.053,0.037-0.079
	c0.014-0.026,0.028-0.051,0.044-0.075c0.016-0.024,0.033-0.048,0.051-0.071c0.018-0.023,0.037-0.045,0.058-0.067
	s0.042-0.043,0.065-0.063c0.023-0.02,0.047-0.04,0.072-0.059c0.025-0.019,0.051-0.037,0.079-0.055
	c0.028-0.018,0.056-0.035,0.086-0.051s0.061-0.032,0.094-0.046c0.033-0.015,0.066-0.029,0.101-0.042
	c0.035-0.013,0.071-0.026,0.109-0.038c0.038-0.012,0.077-0.023,0.117-0.033c0.04-0.01,0.082-0.02,0.125-0.029
	c0.043-0.009,0.087-0.017,0.133-0.024c0.022-0.004,0.045-0.006,0.069-0.008s0.048-0.003,0.072-0.003c0.025,0,0.05,0.001,0.075,0.002
	c0.026,0.002,0.052,0.004,0.078,0.007c0.027,0.003,0.054,0.007,0.082,0.012s0.056,0.011,0.085,0.017s0.058,0.014,0.088,0.022
	c0.03,0.008,0.06,0.017,0.091,0.027c0.031,0.01,0.062,0.02,0.094,0.032c0.032,0.011,0.064,0.023,0.097,0.036
	c0.033,0.013,0.066,0.027,0.1,0.041c0.034,0.014,0.068,0.03,0.103,0.046c0.035,0.016,0.07,0.033,0.106,0.05
	c0.036,0.017,0.072,0.036,0.109,0.055s0.074,0.039,0.112,0.059c0.038,0.02,0.076,0.042,0.115,0.064
	c0.039,0.022,0.078,0.045,0.118,0.068c0.04,0.023,0.08,0.047,0.121,0.072s0.082,0.05,0.124,0.076
	c0.042,0.026,0.084,0.053,0.127,0.081c0.043,0.028,0.086,0.056,0.13,0.085c0.044,0.029,0.088,0.059,0.133,0.089
	s0.09,0.061,0.135,0.093c0.046,0.032,0.092,0.064,0.138,0.097c0.047,0.033,0.094,0.067,0.141,0.101
	c0.048,0.034,0.095,0.069,0.144,0.105s0.097,0.072,0.147,0.109c0.049,0.037,0.099,0.074,0.15,0.112
	c0.05,0.038,0.101,0.077,0.152,0.116c0.051,0.039,0.103,0.079,0.155,0.12c0.052,0.041,0.105,0.082,0.158,0.124
	c0.053,0.042,0.107,0.084,0.161,0.127c0.054,0.043,0.108,0.087,0.163,0.131c0.055,0.044,0.11,0.089,0.166,0.134
	c0.056,0.045,0.112,0.091,0.169,0.138c0.057,0.046,0.114,0.093,0.171,0.141s0.116,0.096,0.174,0.144s0.117,0.098,0.177,0.148
	s0.119,0.1,0.179,0.151s0.121,0.102,0.182,0.154c0.061,0.052,0.123,0.104,0.185,0.157s0.124,0.106,0.187,0.16
	c0.063,0.054,0.126,0.108,0.19,0.163s0.128,0.11,0.192,0.166c0.065,0.056,0.13,0.112,0.195,0.169s0.131,0.114,0.198,0.172
	s0.133,0.116,0.2,0.175c0.067,0.059,0.135,0.118,0.203,0.177c0.068,0.06,0.136,0.12,0.205,0.18c0.069,0.06,0.138,0.121,0.208,0.183
	s0.14,0.123,0.21,0.185s0.141,0.125,0.213,0.188c0.071,0.063,0.143,0.127,0.215,0.19c0.072,0.064,0.145,0.128,0.217,0.193
	c0.073,0.065,0.146,0.13,0.22,0.195s0.148,0.131,0.222,0.198c0.074,0.066,0.149,0.133,0.225,0.2
	c0.075,0.067,0.151,0.134,0.227,0.202c0.076,0.068,0.153,0.136,0.229,0.204c0.077,0.068,0.154,0.137,0.232,0.207
	c0.078,0.069,0.156,0.139,0.234,0.209c0.078,0.07,0.157,0.14,0.236,0.211s0.159,0.141,0.239,0.213s0.16,0.143,0.241,0.215
	c0.081,0.072,0.162,0.144,0.243,0.216c0.081,0.072,0.163,0.145,0.246,0.218s0.165,0.146,0.248,0.22
	c0.083,0.074,0.166,0.148,0.25,0.222c0.084,0.074,0.168,0.149,0.252,0.223c0.084,0.075,0.169,0.15,0.255,0.225
	c0.085,0.075,0.171,0.151,0.257,0.227c0.086,0.076,0.172,0.152,0.259,0.228c0.087,0.076,0.174,0.153,0.261,0.23
	c0.087,0.077,0.175,0.154,0.263,0.231c0.088,0.077,0.177,0.155,0.265,0.232s0.178,0.156,0.268,0.234
	c0.09,0.078,0.179,0.156,0.27,0.235s0.181,0.157,0.272,0.236c0.091,0.079,0.182,0.158,0.274,0.237
	c0.092,0.079,0.184,0.159,0.276,0.238c0.092,0.08,0.185,0.16,0.278,0.24s0.186,0.16,0.28,0.241s0.188,0.161,0.282,0.241
	c0.094,0.081,0.189,0.161,0.284,0.242c0.095,0.081,0.19,0.162,0.286,0.243c0.096,0.081,0.192,0.163,0.288,0.244
	s0.193,0.163,0.29,0.245c0.097,0.082,0.194,0.164,0.292,0.245c0.098,0.082,0.196,0.164,0.294,0.246s0.197,0.164,0.296,0.247
	c0.099,0.082,0.198,0.165,0.298,0.247c0.1,0.082,0.199,0.165,0.3,0.248s0.201,0.165,0.302,0.248
	c0.101,0.083,0.202,0.166,0.303,0.249c0.101,0.083,0.203,0.166,0.305,0.249c0.102,0.083,0.204,0.166,0.307,0.249
	s0.206,0.166,0.309,0.249c0.103,0.083,0.207,0.166,0.311,0.25c0.104,0.083,0.208,0.166,0.313,0.25s0.209,0.166,0.314,0.25
	s0.21,0.167,0.316,0.25s0.212,0.166,0.318,0.25c0.106,0.083,0.213,0.166,0.32,0.25c0.107,0.083,0.214,0.166,0.321,0.25
	c0.107,0.083,0.215,0.166,0.323,0.249c0.108,0.083,0.216,0.166,0.325,0.249s0.217,0.166,0.327,0.249
	c0.109,0.083,0.219,0.166,0.328,0.248c0.11,0.083,0.22,0.165,0.33,0.248s0.221,0.165,0.332,0.248
	c0.111,0.082,0.222,0.165,0.333,0.247c0.111,0.082,0.223,0.164,0.335,0.247c0.112,0.082,0.224,0.164,0.336,0.246
	c0.112,0.082,0.225,0.164,0.338,0.245c0.113,0.082,0.226,0.163,0.34,0.245c0.113,0.081,0.227,0.163,0.341,0.244
	c0.114,0.081,0.228,0.162,0.343,0.243s0.229,0.162,0.344,0.242c0.115,0.081,0.23,0.161,0.346,0.241
	c0.116,0.08,0.231,0.16,0.347,0.24c0.116,0.08,0.232,0.16,0.349,0.239c0.117,0.08,0.233,0.159,0.35,0.238
	c0.117,0.079,0.234,0.158,0.352,0.237s0.235,0.158,0.353,0.236c0.118,0.078,0.236,0.157,0.355,0.235s0.237,0.156,0.356,0.234
	s0.238,0.155,0.357,0.232c0.119,0.077,0.239,0.154,0.359,0.231c-0.012-0.06-0.024-0.12-0.036-0.18s-0.023-0.121-0.035-0.182
	c-0.012-0.061-0.023-0.122-0.034-0.183c-0.011-0.061-0.023-0.122-0.034-0.184c-0.011-0.062-0.022-0.123-0.033-0.185
	c-0.011-0.062-0.022-0.124-0.032-0.186s-0.021-0.125-0.032-0.187s-0.021-0.125-0.031-0.188c-0.01-0.063-0.02-0.126-0.03-0.189
	c-0.01-0.063-0.02-0.126-0.03-0.19c-0.01-0.063-0.019-0.127-0.029-0.191c-0.01-0.064-0.019-0.128-0.028-0.191
	c-0.009-0.064-0.019-0.128-0.028-0.192s-0.018-0.128-0.027-0.193c-0.009-0.064-0.018-0.129-0.026-0.193
	c-0.009-0.065-0.017-0.129-0.026-0.194c-0.008-0.065-0.017-0.13-0.025-0.195c-0.008-0.065-0.016-0.13-0.024-0.195
	c-0.008-0.065-0.016-0.13-0.023-0.195c-0.008-0.065-0.015-0.131-0.023-0.196s-0.015-0.131-0.022-0.196
	c-0.007-0.065-0.014-0.131-0.021-0.197c-0.007-0.066-0.014-0.131-0.021-0.197c-0.007-0.066-0.013-0.131-0.02-0.197
	c-0.007-0.066-0.013-0.131-0.019-0.197c-0.006-0.066-0.013-0.131-0.019-0.197s-0.012-0.132-0.018-0.197
	c-0.006-0.066-0.012-0.132-0.017-0.197c-0.006-0.066-0.011-0.132-0.016-0.197c-0.005-0.066-0.011-0.131-0.016-0.197
	c-0.005-0.066-0.01-0.131-0.015-0.197c-0.005-0.066-0.01-0.131-0.014-0.197c-0.005-0.066-0.009-0.131-0.014-0.197
	c-0.004-0.065-0.009-0.131-0.013-0.196c-0.004-0.065-0.008-0.131-0.012-0.196c-0.004-0.065-0.008-0.13-0.011-0.196
	c-0.004-0.065-0.007-0.13-0.011-0.195c-0.003-0.065-0.007-0.13-0.01-0.195c-0.003-0.065-0.006-0.13-0.009-0.194
	s-0.006-0.129-0.008-0.194c-0.003-0.064-0.005-0.129-0.008-0.193s-0.005-0.128-0.007-0.192s-0.004-0.128-0.006-0.192
	c-0.002-0.064-0.004-0.127-0.005-0.191s-0.003-0.127-0.005-0.19s-0.003-0.126-0.004-0.189c-0.001-0.063,0.058-0.126,0.117-0.188
	c0.059-0.063,0.118-0.125,0.117-0.187c-0.001-0.062,0.059-0.124,0.118-0.186c0.059-0.062,0.119-0.124,0.119-0.185
	c0-0.062,0-0.123,0-0.184c0-0.061,0-0.122,0-0.183s-0.059-0.122-0.118-0.182c-0.059-0.06-0.118-0.121-0.117-0.181
	s-0.028-0.12-0.057-0.18c-0.029-0.06-0.057-0.119-0.056-0.178s-0.012-0.118-0.025-0.177s-0.026-0.117-0.025-0.175
	c0.002-0.058-0.004-0.116-0.009-0.174c-0.005-0.058-0.01-0.115-0.008-0.173c0.002-0.057,0.001-0.114,0-0.171
	s-0.002-0.113,0.001-0.169s0.004-0.112,0.006-0.168c0.001-0.056,0.003-0.111,0.006-0.166c0.003-0.055,0.006-0.11,0.009-0.164
	c0.003-0.054,0.006-0.109,0.01-0.162c0.004-0.054,0.008-0.107,0.012-0.161c0.004-0.053,0.008-0.106,0.012-0.159
	s0.009-0.105,0.014-0.157c0.005-0.052,0.009-0.104,0.014-0.155c0.005-0.051,0.01-0.102,0.015-0.153
	c0.005-0.051,0.011-0.101,0.016-0.151c0.006-0.05,0.011-0.099,0.017-0.149c0.006-0.049,0.012-0.098,0.018-0.146
	s0.012-0.097,0.019-0.144c0.006-0.048,0.013-0.095,0.02-0.142s0.014-0.093,0.021-0.14s0.014-0.092,0.021-0.137
	c0.007-0.045,0.015-0.09,0.022-0.135c0.008-0.045,0.015-0.089,0.023-0.132c0.008-0.044,0.016-0.087,0.024-0.13
	c0.008-0.043,0.016-0.085,0.025-0.127c0.008-0.042,0.017-0.084,0.026-0.125c0.009-0.041,0.017-0.082,0.026-0.122
	c0.009-0.04,0.018-0.08,0.027-0.119s0.019-0.078,0.028-0.117s0.019-0.076,0.029-0.114c0.01-0.037,0.02-0.075,0.03-0.111
	c0.01-0.037,0.02-0.073,0.031-0.108c0.01-0.036,0.021-0.071,0.032-0.105c0.011-0.035,0.021-0.069,0.032-0.102
	c0.011-0.034,0.022-0.067,0.033-0.099c0.011-0.033,0.023-0.065,0.034-0.096c0.012-0.032,0.023-0.063,0.035-0.093
	c0.012-0.031,0.024-0.06,0.036-0.09s0.024-0.058,0.037-0.087c0.012-0.028,0.025-0.056,0.038-0.083s0.025-0.054,0.038-0.08
	c0.013-0.026,0.026-0.052,0.039-0.077c0.013-0.025,0.027-0.049,0.04-0.073c0.014-0.024,0.027-0.047,0.041-0.07
	c0.014-0.023,0.028-0.045,0.042-0.066c0.014-0.022,0.028-0.043,0.043-0.063c0.014-0.02,0.029-0.04,0.044-0.059
	s0.03-0.038,0.045-0.056s0.03-0.035,0.045-0.052c0.015-0.017,0.031-0.033,0.046-0.048c0.016-0.015,0.031-0.03,0.047-0.044
	c0.016-0.014,0.032-0.028,0.048-0.041c0.016-0.013,0.033-0.025,0.049-0.037s0.033-0.023,0.05-0.033
	c0.017-0.01,0.034-0.02,0.051-0.029c0.017-0.009,0.034-0.017,0.052-0.025c0.017-0.008,0.035-0.015,0.053-0.021
	c0.018-0.006,0.036-0.012,0.054-0.017s0.036-0.009,0.054-0.013c0.018-0.003,0.037-0.11,0.055-0.112
	c0.019-0.002,0.037-0.108,0.056-0.108c0.019,0,0.038,0,0.057,0c0.019,0,0.039,0.106,0.058,0.108s0.039,0.057,0.059,0.061
	c0.02,0.004,0.04,0.034,0.06,0.039c0.02,0.005,0.04,0.024,0.061,0.031c0.02,0.007,0.041,0.021,0.062,0.029
	c0.021,0.008,0.042,0.021,0.063,0.03c0.021,0.01,0.042,0.022,0.064,0.033c0.021,0.011,0.043,0.024,0.065,0.037
	c0.022,0.013,0.044,0.027,0.066,0.042c0.058,0.038,0.115,0.079,0.172,0.123c0.057,0.044,0.113,0.09,0.169,0.139
	c0.056,0.049,0.112,0.101,0.167,0.155c0.055,0.054,0.11,0.111,0.165,0.171c0.055,0.059,0.109,0.121,0.163,0.186
	c0.054,0.065,0.108,0.132,0.161,0.201c0.053,0.069,0.107,0.141,0.16,0.216s0.106,0.151,0.158,0.23
	c0.053,0.079,0.105,0.16,0.157,0.244c0.052,0.084,0.104,0.169,0.156,0.257c0.052,0.088,0.104,0.178,0.155,0.271
	c0.052,0.092,0.103,0.187,0.155,0.283c0.051,0.097,0.103,0.195,0.154,0.296c0.051,0.101,0.103,0.203,0.154,0.308
	c0.051,0.105,0.103,0.211,0.154,0.32c0.051,0.109,0.103,0.219,0.154,0.331c0.051,0.112,0.103,0.226,0.154,0.342
	c0.052,0.116,0.103,0.234,0.155,0.353s0.104,0.24,0.156,0.363c0.052,0.123,0.104,0.247,0.157,0.373s0.105,0.254,0.158,0.383
	c0.053,0.129,0.106,0.26,0.159,0.392c0.053,0.132,0.107,0.266,0.16,0.401c0.054,0.135,0.108,0.271,0.162,0.409
	c0.054,0.138,0.109,0.277,0.164,0.417s0.11,0.282,0.166,0.425c0.056,0.143,0.112,0.287,0.168,0.433
	c0.056,0.145,0.113,0.292,0.171,0.44c0.057,0.148,0.115,0.296,0.173,0.446s0.117,0.301,0.176,0.453
	c0.059,0.152,0.119,0.305,0.179,0.459c0.06,0.154,0.121,0.309,0.182,0.464c0.061,0.156,0.123,0.312,0.186,0.469
	s0.126,0.315,0.189,0.474c0.064,0.159,0.128,0.319,0.193,0.479c0.065,0.16,0.131,0.321,0.197,0.483s0.133,0.324,0.201,0.487
	c0.068,0.163,0.136,0.326,0.205,0.49c0.069,0.164,0.139,0.328,0.21,0.493s0.142,0.33,0.215,0.496
	c0.072,0.166,0.146,0.332,0.22,0.498c0.074,0.166,0.149,0.333,0.225,0.5s0.152,0.334,0.23,0.502
	c0.078,0.168,0.156,0.335,0.235,0.503c0.079,0.168,0.16,0.336,0.241,0.504c0.081,0.168,0.164,0.336,0.247,0.505
	c0.083,0.168,0.168,0.337,0.253,0.505c0.085,0.168,0.172,0.336,0.259,0.505c0.087,0.168,0.176,0.336,0.266,0.504
	c0.09,0.168,0.18,0.336,0.272,0.503c0.092,0.168,0.185,0.335,0.279,0.502c0.094,0.167,0.19,0.334,0.286,0.5
	c0.097,0.166,0.194,0.333,0.293,0.498s0.199,0.331,0.301,0.496s0.204,0.329,0.308,0.493c0.104,0.164,0.209,0.327,0.316,0.49
	c0.107,0.163,0.215,0.325,0.324,0.487c0.109,0.162,0.22,0.323,0.332,0.483c0.112,0.16,0.226,0.32,0.341,0.479
	c0.115,0.159,0.231,0.317,0.349,0.474s0.237,0.314,0.358,0.469s0.243,0.31,0.367,0.464s0.249,0.307,0.376,0.458
	s0.255,0.303,0.385,0.452s0.262,0.298,0.395,0.446s0.268,0.294,0.404,0.439c0.136,0.145,0.275,0.289,0.414,0.432
	s0.281,0.285,0.424,0.425c0.143,0.14,0.288,0.279,0.435,0.417s0.295,0.274,0.445,0.409s0.302,0.268,0.456,0.4
	c0.154,0.132,0.309,0.263,0.466,0.392c0.157,0.129,0.316,0.256,0.478,0.382c0.161,0.126,0.324,0.25,0.489,0.373
	c0.165,0.123,0.331,0.244,0.5,0.363c0.169,0.119,0.339,0.237,0.512,0.352c0.173,0.116,0.347,0.23,0.523,0.342
	c0.176,0.112,0.355,0.222,0.535,0.331c0.181,0.108,0.363,0.215,0.548,0.319s0.371,0.207,0.56,0.308s0.38,0.199,0.573,0.295
	c0.193,0.096,0.388,0.191,0.585,0.283s0.397,0.182,0.598,0.27c0.202,0.088,0.405,0.174,0.611,0.257
	c0.206,0.083,0.414,0.165,0.625,0.243c0.21,0.079,0.423,0.155,0.638,0.229s0.432,0.146,0.652,0.215s0.441,0.136,0.666,0.2
	c0.224,0.064,0.451,0.126,0.68,0.185c0.229,0.059,0.46,0.116,0.694,0.17c0.234,0.054,0.47,0.106,0.708,0.154
	c0.239,0.049,0.48,0.095,0.723,0.138c0.243,0.043,0.489,0.084,0.738,0.122c0.248,0.038,0.499,0.073,0.753,0.105
	c0.254,0.032,0.51,0.061,0.768,0.088c0.259,0.026,0.52,0.05,0.784,0.07c0.264,0.02,0.53,0.038,0.799,0.052s0.541,0.026,0.815,0.034
	c0.274,0.008,0.551,0.013,0.831,0.015s0.562,0.001,0.847-0.004s0.573-0.012,0.863-0.023s0.584-0.025,0.88-0.043
	s0.595-0.039,0.897-0.063s0.606-0.052,0.914-0.083S2.687-93.682,3-93.72s0.629-0.08,0.948-0.125s0.641-0.094,0.966-0.147
	c0.325-0.053,0.653-0.109,0.983-0.169c0.331-0.06,0.664-0.124,1.001-0.191c0.337-0.067,0.676-0.139,1.019-0.214
	c0.343-0.075,0.689-0.154,1.038-0.237c0.349-0.083,0.701-0.169,1.056-0.26c0.355-0.091,0.713-0.185,1.075-0.284
	s0.726-0.201,1.093-0.308c0.368-0.107,0.738-0.217,1.113-0.332c0.374-0.115,0.751-0.234,1.132-0.357s0.764-0.25,1.151-0.382
	c0.387-0.132,0.777-0.267,1.171-0.408c0.394-0.14,0.79-0.285,1.191-0.433c0.4-0.149,0.804-0.302,1.211-0.46
	c0.407-0.158,0.817-0.32,1.231-0.486s0.831-0.338,1.251-0.513s0.844-0.356,1.272-0.541c0.427-0.185,0.858-0.374,1.292-0.568
	c0.434-0.194,0.872-0.393,1.313-0.596c0.441-0.203,0.886-0.412,1.334-0.625c0.448-0.213,0.9-0.431,1.356-0.653
	c0.455-0.223,0.915-0.45,1.377-0.683c0.036-0.018,0.073-0.037,0.111-0.056c0.038-0.019,0.076-0.038,0.115-0.057
	c0.039-0.019,0.079-0.039,0.119-0.058c0.04-0.02,0.081-0.04,0.123-0.06c0.041-0.02,0.084-0.041,0.126-0.061s0.086-0.042,0.13-0.063
	c0.044-0.021,0.088-0.043,0.133-0.065c0.045-0.022,0.091-0.044,0.137-0.066c0.046-0.022,0.093-0.045,0.14-0.068
	c0.047-0.023,0.095-0.046,0.144-0.07s0.097-0.047,0.147-0.072c0.049-0.024,0.1-0.049,0.15-0.073c0.051-0.025,0.102-0.05,0.153-0.075
	c0.052-0.025,0.104-0.051,0.156-0.077c0.053-0.026,0.106-0.052,0.159-0.079c0.054-0.027,0.108-0.054,0.162-0.081
	c0.055-0.027,0.11-0.055,0.165-0.083c0.056-0.028,0.111-0.056,0.168-0.085s0.113-0.058,0.171-0.087
	c0.057-0.029,0.115-0.059,0.173-0.089c0.058-0.03,0.117-0.061,0.176-0.092c0.059-0.031,0.119-0.062,0.178-0.094
	c0.06-0.032,0.12-0.064,0.181-0.096c0.061-0.032,0.122-0.065,0.183-0.098c0.062-0.033,0.123-0.067,0.186-0.101
	c0.062-0.034,0.125-0.068,0.188-0.103s0.126-0.07,0.19-0.105c0.064-0.036,0.128-0.072,0.192-0.108s0.129-0.073,0.194-0.11
	c0.065-0.037,0.131-0.075,0.196-0.113c0.066-0.038,0.132-0.077,0.198-0.116c0.066-0.039,0.133-0.078,0.2-0.118
	c0.067-0.04,0.134-0.08,0.202-0.121c0.068-0.041,0.136-0.082,0.204-0.124s0.137-0.084,0.206-0.126
	c0.069-0.043,0.138-0.086,0.207-0.129c0.069-0.044,0.139-0.087,0.209-0.132c0.07-0.044,0.14-0.089,0.21-0.135
	c0.07-0.045,0.141-0.091,0.212-0.138c0.071-0.046,0.142-0.093,0.213-0.141c0.071-0.047,0.143-0.095,0.214-0.144
	s0.143-0.097,0.215-0.147c0.072-0.049,0.144-0.099,0.217-0.15c0.072-0.05,0.145-0.101,0.218-0.153
	c0.073-0.051,0.146-0.104,0.219-0.156c0.073-0.053,0.146-0.106,0.22-0.159c0.073-0.054,0.147-0.108,0.221-0.162
	s0.147-0.11,0.221-0.166c0.074-0.056,0.148-0.112,0.222-0.169s0.148-0.114,0.223-0.172c0.074-0.058,0.149-0.117,0.223-0.176
	s0.149-0.119,0.224-0.179c0.075-0.06,0.15-0.121,0.224-0.183c0.075-0.061,0.15-0.124,0.225-0.186c0.075-0.063,0.15-0.126,0.225-0.19
	c0.075-0.064,0.15-0.128,0.226-0.193c0.075-0.065,0.15-0.131,0.226-0.197c0.075-0.066,0.151-0.133,0.226-0.201
	c0.075-0.068,0.151-0.136,0.226-0.204s0.151-0.138,0.226-0.208c0.075-0.07,0.151-0.141,0.226-0.212
	c0.075-0.071,0.151-0.143,0.226-0.216c0.075-0.073,0.15-0.146,0.226-0.22s0.15-0.148,0.225-0.224
	c0.075-0.075,0.15-0.151,0.225-0.228c0.075-0.077,0.15-0.154,0.225-0.232c0.075-0.078,0.15-0.156,0.224-0.236
	c0.075-0.079,0.149-0.159,0.224-0.24c0.075-0.081,0.149-0.162,0.223-0.244c0.074-0.082,0.149-0.165,0.223-0.248
	c0.074-0.083,0.148-0.167,0.222-0.252c0.074-0.085,0.148-0.17,0.221-0.257s0.147-0.173,0.22-0.261s0.146-0.176,0.219-0.265
	s0.146-0.179,0.218-0.27s0.145-0.182,0.217-0.274c0.072-0.092,0.144-0.185,0.216-0.278c0.072-0.094,0.144-0.188,0.215-0.283
	c0.071-0.095,0.143-0.191,0.214-0.287c0.071-0.097,0.142-0.194,0.213-0.292s0.141-0.197,0.211-0.297c0.07-0.1,0.14-0.2,0.21-0.301
	c0.07-0.101,0.139-0.203,0.208-0.306s0.138-0.206,0.207-0.311c0.069-0.104,0.137-0.21,0.205-0.315
	c0.068-0.106,0.136-0.213,0.203-0.32c0.067-0.108,0.135-0.216,0.202-0.325c0.067-0.109,0.133-0.219,0.2-0.33
	s0.132-0.222,0.198-0.335c0.066-0.112,0.131-0.226,0.196-0.34s0.13-0.229,0.194-0.345c0.064-0.116,0.128-0.232,0.192-0.35
	c0.064-0.118,0.127-0.236,0.19-0.355c0.063-0.119,0.125-0.239,0.187-0.36s0.124-0.243,0.185-0.365s0.122-0.246,0.183-0.371
	c0.061-0.124,0.121-0.25,0.18-0.376c0.06-0.126,0.119-0.253,0.178-0.381c0.059-0.128,0.117-0.257,0.175-0.387
	c0.058-0.13,0.116-0.26,0.173-0.392c0.057-0.132,0.114-0.264,0.17-0.397c0.056-0.133,0.112-0.268,0.167-0.403
	c0.055-0.135,0.11-0.271,0.164-0.408c0.054-0.137,0.108-0.275,0.161-0.414s0.106-0.279,0.158-0.419s0.104-0.282,0.155-0.425
	c0.051-0.143,0.102-0.286,0.152-0.431c0.05-0.145,0.1-0.29,0.149-0.436s0.098-0.294,0.146-0.442
	c0.048-0.148,0.096-0.298,0.143-0.448c0.047-0.15,0.093-0.302,0.139-0.454c0.046-0.152,0.091-0.305,0.136-0.46
	c0.045-0.154,0.089-0.309,0.132-0.466c0.044-0.156,0.087-0.313,0.129-0.472c0.042-0.158,0.084-0.317,0.125-0.478
	s0.082-0.321,0.122-0.484c0.04-0.162,0.079-0.325,0.118-0.49c0.039-0.164,0.077-0.329,0.114-0.496s0.074-0.334,0.11-0.502
	s0.071-0.338,0.106-0.508s0.069-0.342,0.102-0.514c0.033-0.173,0.066-0.346,0.098-0.521c0.032-0.175,0.063-0.35,0.094-0.527
	c0.031-0.177,0.06-0.354,0.09-0.533c0.029-0.179,0.058-0.359,0.085-0.54c0.028-0.181,0.055-0.363,0.081-0.546
	c0.026-0.183,0.052-0.367,0.077-0.553c0.025-0.185,0.049-0.372,0.072-0.559c0.004-0.033,0.009-0.067,0.013-0.101
	c0.005-0.034,0.009-0.069,0.015-0.104c0.005-0.035,0.01-0.07,0.016-0.106c0.006-0.036,0.011-0.072,0.017-0.108
	c0.006-0.036,0.012-0.073,0.019-0.11c0.006-0.037,0.013-0.074,0.02-0.111c0.007-0.037,0.014-0.075,0.021-0.113
	c0.007-0.038,0.015-0.076,0.022-0.115c0.008-0.038,0.016-0.077,0.024-0.116c0.008-0.039,0.016-0.078,0.025-0.117
	c0.008-0.039,0.017-0.079,0.026-0.119c0.009-0.04,0.018-0.08,0.027-0.12c0.009-0.04,0.019-0.08,0.028-0.121s0.019-0.081,0.029-0.121
	c0.01-0.041,0.02-0.081,0.03-0.122c0.01-0.041,0.021-0.082,0.031-0.123c0.011-0.041,0.021-0.082,0.032-0.123
	c0.011-0.041,0.022-0.082,0.033-0.123c0.011-0.041,0.023-0.082,0.034-0.123c0.012-0.041,0.023-0.082,0.035-0.123
	c0.012-0.041,0.024-0.082,0.036-0.123c0.012-0.041,0.024-0.082,0.037-0.123c0.012-0.041,0.025-0.082,0.038-0.123
	c0.013-0.041,0.026-0.082,0.039-0.122c0.013-0.041,0.026-0.081,0.039-0.122c0.013-0.041,0.027-0.081,0.04-0.121
	c0.013-0.04,0.027-0.08,0.041-0.12c0.014-0.04,0.028-0.08,0.041-0.119s0.028-0.079,0.042-0.118s0.028-0.078,0.043-0.117
	c0.014-0.039,0.029-0.078,0.043-0.116c0.015-0.038,0.029-0.077,0.044-0.115s0.029-0.076,0.044-0.113
	c0.015-0.037,0.03-0.074,0.045-0.111c0.015-0.037,0.03-0.073,0.045-0.109s0.03-0.072,0.046-0.108
	c0.015-0.036,0.031-0.071,0.046-0.105c0.015-0.035,0.031-0.069,0.047-0.103s0.031-0.068,0.047-0.101
	c0.016-0.033,0.031-0.066,0.047-0.099c0.016-0.032,0.032-0.064,0.048-0.096c0.016-0.032,0.032-0.063,0.048-0.093
	s0.032-0.061,0.048-0.091c0.016-0.03,0.032-0.059,0.048-0.088c0.016-0.029,0.032-0.057,0.049-0.085
	c0.016-0.028,0.032-0.055,0.049-0.082c0.016-0.027,0.033-0.053,0.049-0.078c0.016-0.026,0.033-0.05,0.049-0.075
	c0.016-0.024,0.033-0.048,0.049-0.071s0.033-0.046,0.049-0.068s0.033-0.043,0.049-0.064c0.016-0.021,0.033-0.041,0.049-0.06
	c0.016-0.019,0.033-0.038,0.049-0.056s0.033-0.035,0.049-0.052c0.016-0.017,0.033-0.032,0.049-0.048s0.033-0.03,0.049-0.043
	c0.016-0.014,0.032-0.027,0.049-0.039s0.032-0.023,0.048-0.034s0.032-0.02,0.048-0.029c0.016-0.009,0.032-0.017,0.048-0.024
	c0.016-0.007,0.032-0.014,0.048-0.019c0.016-0.006,0.032-0.01,0.047-0.014c0.016-0.004,0.031-0.007,0.047-0.009
	c0.016-0.002,0.031-0.003,0.047-0.004c0.016,0,0.031,0,0.046,0.002c0.015,0.002,0.031,0.004,0.046,0.008
	c0.015,0.003,0.03,0.008,0.046,0.013s0.03,0.012,0.045,0.019c0.015,0.007,0.03,0.016,0.045,0.025
	c0.015,0.009,0.029,0.02,0.044,0.031c0.015,0.011,0.029,0.024,0.044,0.037s0.029,0.028,0.043,0.044
	c0.014,0.016,0.028,0.032,0.042,0.05c0.014,0.018,0.028,0.037,0.042,0.057c0.014,0.02,0.027,0.041,0.041,0.064
	c0.014,0.022,0.027,0.046,0.04,0.071s0.027,0.051,0.04,0.078s0.026,0.055,0.039,0.085c0.013,0.029,0.026,0.06,0.038,0.092
	c0.013,0.032,0.025,0.065,0.037,0.099c0.012,0.034,0.024,0.07,0.036,0.107c0.012,0.037,0.024,0.075,0.036,0.114
	c0.012,0.039,0.023,0.08,0.035,0.122c0.011,0.042,0.023,0.085,0.034,0.13c0.011,0.045,0.022,0.091,0.033,0.138
	c0.011,0.047,0.021,0.096,0.032,0.146c0.01,0.05,0.021,0.101,0.031,0.154s0.02,0.107,0.03,0.162c0.01,0.056,0.019,0.113,0.029,0.171
	c0.009,0.058,0.019,0.118,0.028,0.18s0.018,0.124,0.027,0.188c0.009,0.064,0.017,0.13,0.025,0.197
	c0.008,0.067,0.016,0.136,0.024,0.206c0.008,0.07,0.016,0.142,0.023,0.215s0.015,0.148,0.022,0.224
	c0.007,0.076,0.014,0.154,0.021,0.234c0.007,0.079,0.013,0.16,0.019,0.243c0.006,0.083,0.012,0.167,0.018,0.253
	c0.006,0.086,0.011,0.173,0.017,0.262s0.01,0.18,0.015,0.272c0.005,0.092,0.009,0.186,0.014,0.282
	c0.004,0.096,0.008,0.193,0.012,0.292s0.008,0.2,0.011,0.302c0.003,0.103,0.007,0.207,0.009,0.313s0.006,0.214,0.008,0.323
	s0.005,0.221,0.006,0.334s0.003,0.228,0.005,0.344c0.001,0.117-0.203,0.235-0.202,0.355c0.001,0.12-0.204,0.242-0.204,0.366
	s0,0.25,0,0.377c0,0.128,0.205,0.257,0.204,0.388c-0.001,0.131,0.101,0.265,0.099,0.4c-0.001,0.135,0.048,0.272,0.046,0.411
	c-0.002,0.139,0.021,0.28,0.019,0.423c-0.003,0.143,0.007,0.288,0.004,0.434c-0.003,0.147,0,0.295-0.004,0.446
	c-0.004,0.151-0.005,0.303-0.009,0.458c-0.004,0.155-0.008,0.311-0.013,0.47c-0.005,0.159-0.01,0.32-0.016,0.482
	s-0.011,0.328-0.018,0.495s-0.013,0.336-0.02,0.507s-0.014,0.344-0.022,0.52c-0.008,0.175-0.016,0.353-0.024,0.532
	s-0.017,0.361-0.026,0.545c-0.009,0.184-0.019,0.37-0.028,0.558s-0.02,0.378-0.031,0.571c-0.011,0.193-0.021,0.387-0.033,0.584
	s-0.023,0.396-0.035,0.597c0.107-0.106,0.213-0.211,0.318-0.316c0.105-0.105,0.21-0.21,0.314-0.314
	c0.104-0.104,0.208-0.208,0.31-0.312s0.205-0.207,0.306-0.309c0.101-0.103,0.202-0.205,0.302-0.307c0.1-0.102,0.2-0.204,0.298-0.305
	c0.099-0.101,0.197-0.202,0.295-0.303c0.098-0.1,0.194-0.201,0.291-0.3c0.096-0.1,0.192-0.199,0.287-0.298s0.189-0.198,0.283-0.296
	c0.094-0.098,0.187-0.196,0.279-0.293c0.092-0.097,0.184-0.194,0.276-0.291c0.091-0.097,0.182-0.193,0.272-0.289
	c0.09-0.096,0.179-0.191,0.268-0.286c0.089-0.095,0.177-0.19,0.264-0.284c0.088-0.094,0.175-0.188,0.261-0.282
	c0.086-0.093,0.172-0.186,0.257-0.279c0.085-0.093,0.17-0.185,0.254-0.277c0.084-0.092,0.167-0.183,0.25-0.274
	c0.083-0.091,0.165-0.182,0.247-0.272c0.082-0.09,0.163-0.18,0.243-0.269c0.081-0.089,0.16-0.178,0.24-0.267
	s0.158-0.177,0.236-0.264c0.078-0.088,0.156-0.175,0.233-0.262c0.077-0.087,0.154-0.173,0.23-0.259
	c0.076-0.086,0.152-0.172,0.226-0.257s0.149-0.17,0.223-0.254c0.074-0.084,0.147-0.168,0.22-0.252
	c0.073-0.084,0.145-0.167,0.217-0.249c0.072-0.083,0.143-0.165,0.214-0.247c0.071-0.082,0.141-0.163,0.21-0.244
	c0.07-0.081,0.139-0.161,0.207-0.241c0.069-0.08,0.137-0.16,0.204-0.239c0.068-0.079,0.135-0.158,0.201-0.236
	c0.067-0.078,0.133-0.156,0.198-0.234c0.066-0.077,0.131-0.154,0.195-0.231c0.065-0.077,0.129-0.153,0.192-0.228
	s0.127-0.151,0.189-0.226s0.125-0.149,0.186-0.223c0.062-0.074,0.123-0.147,0.184-0.22c0.061-0.073,0.121-0.145,0.181-0.218
	c0.06-0.072,0.119-0.144,0.178-0.215c0.059-0.071,0.117-0.142,0.175-0.212s0.115-0.14,0.173-0.209
	c0.057-0.069,0.114-0.138,0.17-0.207c0.056-0.068,0.112-0.136,0.167-0.204c0.055-0.067,0.11-0.134,0.165-0.201
	s0.108-0.133,0.162-0.198s0.107-0.131,0.159-0.195s0.105-0.129,0.157-0.192c0.052-0.064,0.103-0.127,0.154-0.19
	c0.051-0.063,0.102-0.125,0.152-0.187c0.05-0.062,0.1-0.123,0.149-0.184c0.049-0.061,0.098-0.121,0.147-0.181
	c0.049-0.06,0.097-0.119,0.145-0.178c0.048-0.059,0.095-0.117,0.142-0.175c0.047-0.058,0.094-0.115,0.14-0.172
	c0.046-0.057,0.092-0.113,0.138-0.169c0.046-0.056,0.091-0.111,0.135-0.166s0.089-0.109,0.133-0.163
	c0.044-0.054,0.088-0.107,0.131-0.161s0.086-0.106,0.129-0.158c0.043-0.052,0.085-0.104,0.127-0.155
	c0.042-0.051,0.083-0.102,0.125-0.152s0.082-0.1,0.123-0.149c0.041-0.049,0.081-0.097,0.121-0.145
	c0.04-0.048,0.079-0.095,0.119-0.142c0.039-0.047,0.078-0.093,0.117-0.139c0.039-0.046,0.077-0.091,0.115-0.136
	c0.038-0.045,0.076-0.089,0.113-0.133c0.037-0.044,0.074-0.087,0.111-0.13c0.037-0.043,0.073-0.085,0.109-0.127
	c0.036-0.042,0.072-0.083,0.107-0.124c0.035-0.041,0.071-0.081,0.106-0.121c0.035-0.04,0.069-0.079,0.104-0.118
	s0.068-0.077,0.102-0.114c0.034-0.038,0.067-0.075,0.1-0.111c0.033-0.037,0.066-0.073,0.099-0.108
	c0.033-0.035,0.065-0.07,0.097-0.105c0.032-0.034,0.064-0.068,0.096-0.102c0.032-0.033,0.063-0.066,0.094-0.098
	c0.031-0.032,0.062-0.064,0.092-0.095c0.031-0.031,0.061-0.062,0.091-0.092c0.03-0.03,0.06-0.06,0.09-0.089
	c0.03-0.029,0.059-0.057,0.088-0.085s0.058-0.055,0.087-0.082c0.029-0.027,0.057-0.053,0.085-0.079
	c0.028-0.026,0.056-0.051,0.084-0.075c0.028-0.025,0.055-0.049,0.083-0.072c0.027-0.023,0.055-0.046,0.081-0.069
	s0.054-0.044,0.08-0.065s0.053-0.042,0.079-0.062s0.052-0.04,0.078-0.059c0.026-0.019,0.051-0.037,0.077-0.055
	s0.051-0.035,0.076-0.052s0.05-0.033,0.075-0.048c0.025-0.016,0.049-0.031,0.074-0.045s0.049-0.028,0.073-0.042
	s0.048-0.026,0.072-0.038c0.024-0.012,0.047-0.024,0.071-0.035c0.023-0.011,0.047-0.021,0.07-0.031
	c0.023-0.01,0.046-0.019,0.069-0.028s0.045-0.017,0.068-0.024c0.023-0.007,0.045-0.014,0.067-0.021
	c0.022-0.006,0.044-0.012,0.066-0.017s0.044-0.01,0.066-0.014c0.022-0.004,0.043-0.007,0.065-0.01
	c0.022-0.003,0.043,0.079,0.064,0.078c0.021-0.002,0.042,0.081,0.064,0.081c0.021,0,0.042,0,0.063,0s0.042-0.082,0.062-0.08
	c0.021,0.002,0.041-0.037,0.062-0.034s0.041-0.014,0.061-0.009s0.041-0.001,0.061,0.005c0.02,0.006,0.04,0.007,0.06,0.014
	c0.02,0.007,0.04,0.012,0.06,0.02s0.04,0.016,0.059,0.025c0.02,0.009,0.039,0.019,0.059,0.029c0.02,0.011,0.039,0.022,0.059,0.033
	s0.039,0.024,0.058,0.037c0.019,0.013,0.039,0.027,0.058,0.041c0.019,0.014,0.039,0.029,0.058,0.045
	c0.019,0.016,0.038,0.032,0.058,0.049s0.038,0.034,0.057,0.052c0.019,0.018,0.038,0.037,0.057,0.056
	c0.019,0.019,0.038,0.039,0.057,0.06c0.019,0.021,0.038,0.042,0.057,0.064C74.659-142.57,74.678-142.548,74.697-142.525z"/>
</svg>
