<?xml version="1.0" encoding="utf-8"?>
<!-- Generator: Adobe Illustrator 19.0.0, SVG Export Plug-In . SVG Version: 6.00 Build 0)  -->
<svg version="1.1" id="Camada_1" xmlns="http://www.w3.org/2000/svg" xmlns:xlink="http://www.w3.org/1999/xlink" x="0px" y="0px"
	 width="1920px" height="1080px" viewBox="0 0 1920 1080" enable-background="new 0 0 1920 1080" xml:space="preserve">
<path id="XMLID_53_" fill="#654E28" d="M23.897-89.189c0.004,0,0.008,0.001,0.012,0.003c0.003,0.002,0.046,0.004,0.048,0.008
	S24-89.171,24-89.165c0,0.005,0,0.011,0,0.018c0,0.007-0.042,0.015-0.044,0.023c-0.002,0.009-0.024,0.018-0.027,0.028
	c-0.003,0.01-0.017,0.021-0.021,0.033c-0.004,0.012-0.014,0.024-0.019,0.038s-0.014,0.028-0.02,0.043
	c-0.006,0.015-0.015,0.031-0.022,0.047c-0.008,0.016-0.016,0.034-0.025,0.052c-0.009,0.018-0.018,0.037-0.028,0.056
	c-0.01,0.019-0.02,0.04-0.031,0.061c-0.011,0.021-0.022,0.043-0.034,0.065c-0.012,0.022-0.024,0.045-0.037,0.069
	c-0.013,0.024-0.026,0.048-0.04,0.073c-0.014,0.025-0.028,0.051-0.043,0.077c-0.015,0.026-0.03,0.053-0.046,0.081
	s-0.032,0.056-0.049,0.085c-0.017,0.029-0.034,0.059-0.052,0.089c-0.018,0.03-0.036,0.061-0.055,0.093s-0.038,0.064-0.057,0.096
	s-0.039,0.066-0.06,0.1c-0.02,0.034-0.041,0.068-0.062,0.103c-0.021,0.035-0.043,0.07-0.065,0.107s-0.044,0.073-0.067,0.11
	c-0.023,0.037-0.046,0.075-0.07,0.113C23-87.468,22.976-87.43,22.952-87.39s-0.049,0.079-0.074,0.119
	c-0.025,0.04-0.051,0.081-0.076,0.122c-0.026,0.041-0.052,0.083-0.079,0.125c-0.027,0.042-0.053,0.085-0.081,0.128
	c-0.027,0.043-0.055,0.087-0.083,0.131c-0.028,0.044-0.056,0.088-0.085,0.133c-0.029,0.045-0.057,0.09-0.087,0.136
	c-0.029,0.046-0.059,0.092-0.088,0.138c-0.03,0.047-0.06,0.093-0.09,0.141c-0.03,0.047-0.061,0.095-0.092,0.143
	c-0.031,0.048-0.062,0.097-0.093,0.145c-0.031,0.049-0.063,0.098-0.095,0.147c-0.032,0.05-0.064,0.099-0.097,0.15
	c-0.032,0.05-0.065,0.101-0.098,0.152c-0.033,0.051-0.066,0.102-0.099,0.153s-0.067,0.103-0.101,0.155
	c-0.034,0.052-0.068,0.104-0.102,0.157c-0.034,0.053-0.069,0.106-0.103,0.159c-0.035,0.053-0.07,0.107-0.105,0.16
	c-0.035,0.054-0.07,0.108-0.106,0.162c-0.035,0.054-0.071,0.109-0.107,0.163c-0.036,0.055-0.072,0.109-0.108,0.165
	s-0.072,0.11-0.109,0.166s-0.073,0.111-0.11,0.167c-0.037,0.056-0.073,0.112-0.11,0.168c-0.037,0.056-0.074,0.113-0.111,0.169
	c-0.037,0.056-0.074,0.113-0.112,0.17c-0.037,0.057-0.075,0.114-0.112,0.171c-0.038,0.057-0.075,0.114-0.113,0.172
	c-0.038,0.057-0.076,0.115-0.113,0.172c-0.038,0.058-0.076,0.115-0.114,0.173c-0.038,0.058-0.076,0.115-0.114,0.173
	c-0.038,0.058-0.076,0.116-0.115,0.174c-0.038,0.058-0.077,0.116-0.115,0.174c-0.038,0.058-0.077,0.116-0.115,0.174
	c-0.038,0.058-0.077,0.116-0.115,0.175c-0.038,0.058-0.077,0.116-0.115,0.175c-0.038,0.058-0.077,0.116-0.115,0.175
	c-0.038,0.058-0.077,0.116-0.115,0.175c-0.038,0.058-0.077,0.116-0.115,0.175s-0.077,0.116-0.115,0.174
	c-0.038,0.058-0.077,0.116-0.115,0.174s-0.076,0.116-0.115,0.174c-0.038,0.058-0.076,0.115-0.114,0.173
	c-0.038,0.058-0.076,0.115-0.114,0.173s-0.076,0.115-0.113,0.172c-0.038,0.057-0.075,0.114-0.113,0.171
	c-0.038,0.057-0.075,0.114-0.112,0.17c-0.037,0.057-0.075,0.113-0.112,0.17s-0.074,0.113-0.111,0.169s-0.074,0.112-0.11,0.168
	c-0.037,0.056-0.073,0.111-0.11,0.166c-0.036,0.055-0.073,0.11-0.109,0.165c-0.036,0.055-0.072,0.109-0.108,0.164
	c-0.036,0.054-0.071,0.109-0.107,0.163s-0.071,0.108-0.106,0.161c-0.035,0.053-0.07,0.107-0.105,0.16s-0.069,0.106-0.103,0.158
	c-0.034,0.052-0.068,0.104-0.102,0.156c-0.034,0.052-0.067,0.103-0.101,0.154c-0.033,0.051-0.067,0.102-0.1,0.153
	c-0.033,0.051-0.066,0.101-0.098,0.151c-0.032,0.05-0.065,0.099-0.097,0.149s-0.064,0.098-0.095,0.146s-0.063,0.097-0.093,0.144
	c-0.031,0.048-0.062,0.095-0.092,0.142c-0.03,0.047-0.06,0.094-0.09,0.14c-0.03,0.046-0.059,0.092-0.088,0.137
	s-0.058,0.09-0.087,0.135c-0.029,0.044-0.057,0.089-0.085,0.132c-0.028,0.044-0.055,0.087-0.083,0.129s-0.054,0.085-0.081,0.127
	c-0.027,0.042-0.053,0.083-0.079,0.124s-0.051,0.081-0.076,0.121s-0.05,0.079-0.074,0.118c-0.024,0.039-0.048,0.077-0.072,0.115
	s-0.047,0.075-0.07,0.112c-0.023,0.037-0.045,0.073-0.067,0.108c-0.022,0.036-0.044,0.071-0.065,0.105
	c-0.021,0.034-0.042,0.068-0.062,0.102c-0.02,0.033-0.04,0.066-0.06,0.098c-0.02,0.032-0.039,0.064-0.057,0.094
	c-0.019,0.031-0.037,0.061-0.055,0.091c-0.018,0.03-0.035,0.059-0.052,0.087c-0.017,0.028-0.033,0.056-0.049,0.083
	s-0.031,0.054-0.046,0.079s-0.029,0.051-0.043,0.075c-0.014,0.024-0.027,0.048-0.04,0.071c-0.013,0.023-0.025,0.045-0.037,0.067
	c-0.012,0.022-0.023,0.043-0.034,0.063c-0.011,0.02-0.021,0.04-0.031,0.059s-0.019,0.037-0.028,0.054
	c-0.009,0.017-0.017,0.034-0.025,0.05c-0.008,0.016-0.015,0.031-0.021,0.045c-0.007,0.014-0.012,0.028-0.018,0.04
	c-0.005,0.013-0.01,0.025-0.014,0.036c-0.004,0.011-0.008,0.021-0.011,0.031c-0.003,0.009-0.198,0.018-0.2,0.026
	C14.194-74.03,14-74.023,14-74.017s0,0.011,0,0.016c0,0.007,0.195,0.013,0.196,0.019s0.1,0.011,0.102,0.016
	c0.002,0.005,0.053,0.009,0.055,0.013s0.03,0.008,0.033,0.011c0.003,0.003,0.019,0.006,0.022,0.008
	c0.004,0.002,0.014-0.034,0.018-0.032C14.431-73.964,14.442-74,14.446-74c0.005,0,0.01,0,0.015,0c0.005,0,0.011,0.037,0.017,0.036
	s0.012,0.016,0.018,0.015c0.006-0.002,0.013,0.005,0.02,0.003c0.007-0.003,0.014-0.001,0.021-0.004
	c0.007-0.003,0.015-0.005,0.023-0.009c0.008-0.004,0.016-0.008,0.024-0.013c0.008-0.005,0.017-0.01,0.025-0.015
	s0.018-0.011,0.027-0.018c0.009-0.006,0.018-0.013,0.028-0.02c0.01-0.007,0.019-0.015,0.029-0.022
	c0.01-0.008,0.02-0.016,0.031-0.024c0.01-0.008,0.021-0.017,0.032-0.026c0.011-0.009,0.022-0.019,0.033-0.028
	c0.011-0.01,0.023-0.02,0.034-0.03c0.012-0.01,0.023-0.021,0.035-0.032s0.024-0.022,0.037-0.034
	c0.012-0.012,0.025-0.024,0.038-0.036c0.013-0.012,0.026-0.025,0.039-0.038s0.026-0.026,0.04-0.039
	c0.013-0.013,0.027-0.027,0.041-0.041c0.014-0.014,0.028-0.028,0.042-0.043c0.014-0.015,0.029-0.029,0.043-0.044
	c0.014-0.015,0.029-0.03,0.044-0.046c0.015-0.016,0.03-0.031,0.045-0.047c0.015-0.016,0.03-0.032,0.046-0.049
	s0.031-0.033,0.047-0.05s0.032-0.034,0.048-0.052c0.016-0.017,0.032-0.035,0.049-0.053c0.016-0.018,0.033-0.036,0.049-0.054
	c0.017-0.018,0.033-0.037,0.05-0.056c0.017-0.019,0.034-0.038,0.051-0.057s0.034-0.039,0.052-0.058s0.035-0.039,0.052-0.059
	c0.018-0.02,0.035-0.04,0.053-0.06s0.036-0.041,0.054-0.061s0.036-0.041,0.054-0.062c0.018-0.021,0.037-0.042,0.055-0.063
	c0.018-0.021,0.037-0.043,0.056-0.064s0.037-0.043,0.056-0.065s0.038-0.044,0.057-0.066c0.019-0.022,0.038-0.044,0.057-0.067
	c0.019-0.022,0.039-0.045,0.058-0.068c0.019-0.023,0.039-0.045,0.058-0.068s0.039-0.046,0.059-0.069
	c0.02-0.023,0.039-0.046,0.059-0.07c0.02-0.023,0.04-0.047,0.06-0.07c0.02-0.024,0.04-0.047,0.06-0.071s0.04-0.047,0.06-0.071
	c0.02-0.024,0.04-0.048,0.061-0.072s0.041-0.048,0.061-0.072s0.041-0.048,0.061-0.073c0.02-0.024,0.041-0.049,0.062-0.073
	s0.041-0.049,0.062-0.073c0.021-0.024,0.041-0.049,0.062-0.074c0.021-0.025,0.041-0.049,0.062-0.074s0.042-0.049,0.062-0.074
	s0.042-0.049,0.063-0.074s0.042-0.049,0.063-0.074c0.021-0.025,0.042-0.049,0.063-0.074c0.021-0.025,0.042-0.049,0.063-0.074
	s0.042-0.049,0.063-0.074c0.021-0.025,0.042-0.049,0.063-0.074c0.021-0.025,0.042-0.049,0.063-0.074s0.042-0.049,0.063-0.074
	c0.021-0.025,0.042-0.049,0.063-0.074c0.021-0.025,0.042-0.049,0.063-0.073s0.042-0.049,0.063-0.073
	c0.021-0.024,0.042-0.049,0.062-0.073c0.021-0.024,0.042-0.048,0.062-0.073c0.021-0.024,0.041-0.048,0.062-0.072
	s0.041-0.048,0.062-0.072c0.021-0.024,0.041-0.048,0.062-0.071c0.02-0.024,0.041-0.047,0.061-0.071
	c0.02-0.023,0.041-0.047,0.061-0.07s0.041-0.046,0.061-0.069c0.02-0.023,0.04-0.046,0.06-0.069s0.04-0.046,0.06-0.068
	c0.02-0.023,0.04-0.045,0.06-0.067c0.02-0.022,0.04-0.045,0.059-0.067c0.02-0.022,0.039-0.044,0.059-0.066s0.039-0.043,0.058-0.065
	s0.039-0.043,0.058-0.064c0.019-0.021,0.038-0.042,0.057-0.063c0.019-0.021,0.038-0.042,0.057-0.062
	c0.019-0.021,0.038-0.041,0.056-0.061c0.019-0.02,0.037-0.04,0.056-0.06c0.018-0.02,0.037-0.039,0.055-0.059
	c0.018-0.019,0.036-0.039,0.054-0.058c0.018-0.019,0.036-0.038,0.054-0.057c0.018-0.019,0.036-0.037,0.053-0.055
	c0.018-0.018,0.035-0.036,0.052-0.054s0.035-0.035,0.052-0.053c0.017-0.017,0.034-0.034,0.051-0.051
	c0.017-0.017,0.034-0.034,0.05-0.05c0.017-0.016,0.033-0.033,0.049-0.049c0.016-0.016,0.032-0.032,0.049-0.047
	c0.016-0.015,0.032-0.031,0.048-0.045c0.016-0.015,0.031-0.03,0.047-0.044c0.015-0.014,0.031-0.028,0.046-0.042
	c0.015-0.014,0.03-0.027,0.045-0.041c0.015-0.013,0.029-0.026,0.044-0.039s0.029-0.025,0.043-0.037
	c0.014-0.012,0.028-0.024,0.042-0.035c0.014-0.012,0.028-0.023,0.041-0.034c0.013-0.011,0.027-0.021,0.04-0.032
	c0.013-0.01,0.026-0.02,0.039-0.03c0.013-0.01,0.025-0.019,0.038-0.028c0.012-0.009,0.025-0.018,0.037-0.026
	c0.012-0.008,0.024-0.016,0.035-0.024c0.012-0.008,0.023-0.015,0.034-0.022s0.022-0.014,0.033-0.02
	c0.011-0.006,0.021-0.012,0.032-0.018s0.021-0.011,0.031-0.015c0.01-0.005,0.02-0.009,0.029-0.013
	c0.01-0.004,0.019-0.008,0.028-0.011c0.009-0.003,0.018-0.006,0.027-0.009c0.009-0.002,0.017-0.005,0.025-0.006
	c0.008-0.002,0.016-0.003,0.024-0.004c0.008-0.001,0.015-0.001,0.023-0.001c0.007,0,0.014,0,0.021,0.001
	c0.008,0.001,0.014,0.003,0.019,0.007c0.005,0.004,0.009,0.009,0.012,0.015c0.003,0.006,0.005,0.014,0.005,0.023
	c0.001,0.009,0,0.019-0.002,0.031c-0.002,0.012-0.004,0.024-0.008,0.038c-0.004,0.014-0.009,0.029-0.015,0.046
	c-0.006,0.017-0.013,0.034-0.021,0.054c-0.008,0.019-0.017,0.039-0.028,0.061c-0.01,0.022-0.022,0.044-0.034,0.068
	c-0.012,0.024-0.026,0.049-0.04,0.075c-0.014,0.026-0.03,0.054-0.046,0.083c-0.016,0.029-0.034,0.059-0.052,0.09
	s-0.038,0.063-0.058,0.096c-0.02,0.033-0.041,0.068-0.063,0.103c-0.022,0.035-0.045,0.072-0.069,0.11
	c-0.024,0.038-0.049,0.076-0.074,0.116c-0.026,0.04-0.052,0.081-0.08,0.123c-0.027,0.042-0.056,0.085-0.085,0.129
	s-0.059,0.089-0.09,0.135c-0.031,0.046-0.063,0.093-0.095,0.141c-0.033,0.048-0.066,0.097-0.1,0.147s-0.069,0.101-0.105,0.153
	s-0.072,0.105-0.11,0.159c-0.037,0.054-0.075,0.109-0.114,0.165s-0.078,0.113-0.119,0.17c-0.04,0.058-0.081,0.116-0.123,0.176
	c-0.042,0.059-0.084,0.12-0.127,0.181c-0.043,0.061-0.087,0.123-0.132,0.186c-0.045,0.063-0.09,0.127-0.136,0.191
	c-0.046,0.065-0.092,0.13-0.14,0.196c-0.047,0.066-0.095,0.133-0.143,0.201c-0.048,0.068-0.098,0.136-0.147,0.206
	c-0.05,0.069-0.1,0.14-0.151,0.21c-0.051,0.071-0.102,0.143-0.154,0.215s-0.105,0.146-0.158,0.219
	c-0.053,0.074-0.107,0.148-0.161,0.224c-0.054,0.075-0.109,0.151-0.164,0.228c-0.055,0.077-0.111,0.154-0.167,0.232
	c-0.056,0.078-0.113,0.157-0.17,0.236c-0.057,0.079-0.115,0.159-0.173,0.24s-0.117,0.162-0.176,0.244
	c-0.059,0.082-0.119,0.164-0.178,0.247c-0.06,0.083-0.12,0.167-0.181,0.251c-0.061,0.084-0.122,0.169-0.183,0.254
	s-0.123,0.171-0.186,0.258s-0.125,0.173-0.188,0.261c-0.063,0.088-0.126,0.176-0.19,0.264s-0.128,0.178-0.192,0.267
	c-0.064,0.09-0.129,0.18-0.194,0.27c-0.065,0.09-0.13,0.181-0.196,0.273c-0.065,0.091-0.131,0.183-0.197,0.275
	c-0.066,0.092-0.132,0.185-0.199,0.278c-0.067,0.093-0.133,0.187-0.2,0.28c-0.067,0.094-0.134,0.188-0.202,0.283
	c-0.067,0.095-0.135,0.19-0.203,0.285c-0.068,0.095-0.136,0.191-0.204,0.287c-0.068,0.096-0.136,0.192-0.205,0.289
	c-0.068,0.097-0.137,0.194-0.206,0.291s-0.138,0.195-0.207,0.293s-0.138,0.196-0.207,0.294c-0.069,0.098-0.138,0.197-0.208,0.296
	c-0.069,0.099-0.139,0.198-0.208,0.298c-0.069,0.099-0.139,0.199-0.209,0.299c-0.07,0.1-0.139,0.2-0.209,0.3
	c-0.07,0.1-0.139,0.201-0.209,0.301c-0.07,0.101-0.139,0.201-0.209,0.302c-0.07,0.101-0.139,0.202-0.209,0.303
	c-0.07,0.101-0.139,0.203-0.209,0.304c-0.069,0.101-0.139,0.203-0.208,0.305c-0.069,0.102-0.139,0.203-0.208,0.305
	c-0.069,0.102-0.138,0.204-0.207,0.306c-0.069,0.102-0.138,0.204-0.207,0.306c-0.069,0.102-0.137,0.204-0.206,0.306
	c-0.068,0.102-0.137,0.204-0.205,0.306s-0.136,0.204-0.204,0.306c-0.068,0.102-0.136,0.204-0.203,0.306
	c-0.067,0.102-0.135,0.204-0.202,0.306c-0.067,0.102-0.134,0.204-0.2,0.306c-0.067,0.102-0.133,0.204-0.199,0.305
	c-0.066,0.102-0.132,0.203-0.198,0.305s-0.131,0.203-0.196,0.304c-0.065,0.101-0.13,0.202-0.194,0.303
	c-0.064,0.101-0.129,0.202-0.192,0.303c-0.064,0.101-0.127,0.201-0.19,0.302s-0.126,0.201-0.188,0.301
	c-0.062,0.1-0.124,0.2-0.186,0.299c-0.062,0.1-0.123,0.199-0.184,0.298c-0.061,0.099-0.121,0.198-0.181,0.297
	c-0.06,0.099-0.12,0.197-0.179,0.295c-0.059,0.098-0.118,0.196-0.176,0.293c-0.058,0.098-0.116,0.195-0.174,0.292
	c-0.057,0.097-0.114,0.194-0.171,0.29s-0.112,0.192-0.168,0.288c-0.055,0.096-0.11,0.191-0.165,0.286
	c-0.054,0.095-0.108,0.189-0.162,0.284c-0.053,0.094-0.106,0.188-0.158,0.281c-0.052,0.093-0.104,0.186-0.155,0.279
	c-0.051,0.093-0.102,0.185-0.152,0.276c-0.05,0.092-0.099,0.183-0.148,0.274c-0.049,0.091-0.097,0.181-0.144,0.271
	c-0.047,0.09-0.094,0.179-0.14,0.268c-0.046,0.089-0.092,0.177-0.137,0.265s-0.089,0.175-0.132,0.262s-0.086,0.173-0.128,0.259
	c-0.042,0.086-0.083,0.171-0.124,0.256s-0.081,0.169-0.12,0.252c-0.039,0.084-0.078,0.166-0.115,0.249
	c-0.038,0.082-0.075,0.164-0.111,0.245C4.08-54.88,4.045-54.799,4.01-54.72c-0.035,0.08-0.068,0.159-0.101,0.238
	c-0.033,0.079-0.065,0.156-0.096,0.234c-0.031,0.077-0.062,0.154-0.091,0.23c-0.03,0.076-0.058,0.151-0.086,0.225
	s-0.055,0.148-0.081,0.221s-0.051,0.145-0.076,0.217s-0.048,0.142-0.07,0.212c-0.022,0.07-0.044,0.139-0.065,0.208
	c-0.021,0.068-0.04,0.136-0.059,0.203S3.249-52.6,3.232-52.535c-0.017,0.065-0.032,0.13-0.047,0.193
	c-0.015,0.064-0.029,0.126-0.041,0.188s-0.024,0.123-0.035,0.183c-0.011,0.06-0.02,0.119-0.029,0.178
	c-0.009,0.058-0.016,0.116-0.023,0.172s-0.012,0.112-0.016,0.167s-0.008,0.108-0.01,0.161c-0.002,0.053-0.003,0.105-0.003,0.155
	c0,0.051,0.001,0.101,0.004,0.15c0.012,0.243,0.023,0.485,0.034,0.725s0.021,0.478,0.03,0.714s0.018,0.471,0.027,0.704
	c0.008,0.233,0.016,0.465,0.023,0.694s0.014,0.458,0.02,0.685c0.006,0.227,0.012,0.452,0.017,0.675
	c0.005,0.223,0.01,0.445,0.014,0.666s0.008,0.439,0.012,0.657s0.007,0.433,0.009,0.648c0.003,0.214,0.005,0.427,0.007,0.639
	s-0.113,0.422-0.112,0.63C3.115-43.342,3-43.135,3-42.929s0,0.41,0,0.614c0,0.203,0,0.405,0,0.605c0,0.2,0.115,0.4,0.114,0.598
	c-0.001,0.198,0.056,0.394,0.055,0.59c-0.001,0.195,0.026,0.389,0.024,0.582c-0.002,0.193,0.011,0.384,0.009,0.575
	c-0.002,0.19,0.003,0.38,0.001,0.568s-0.001,0.375-0.004,0.561c-0.003,0.186-0.003,0.37-0.006,0.554
	c-0.003,0.184-0.004,0.366-0.007,0.547c-0.003,0.181-0.005,0.362-0.008,0.541s-0.005,0.357-0.008,0.535
	c-0.003,0.177-0.005,0.353-0.008,0.528s-0.005,0.349-0.007,0.523s-0.005,0.345-0.007,0.517c-0.002,0.171-0.004,0.342-0.006,0.511
	c-0.002,0.17-0.004,0.338-0.005,0.506c-0.002,0.168-0.003,0.335-0.004,0.501c-0.001,0.166-0.066,0.331-0.067,0.496
	S3-32.151,3-31.988c0,0.163,0,0.325,0,0.486s0.065,0.322,0.066,0.482s0.034,0.319,0.036,0.478c0.002,0.158,0.019,0.316,0.022,0.473
	c0.002,0.157,0.013,0.314,0.016,0.47c0.003,0.156,0.01,0.311,0.014,0.466c0.004,0.155,0.01,0.309,0.015,0.462
	c0.005,0.154,0.011,0.306,0.017,0.459c0.006,0.152,0.012,0.304,0.019,0.456c0.007,0.151,0.014,0.302,0.022,0.453
	s0.016,0.3,0.025,0.45c0.009,0.15,0.018,0.299,0.029,0.447c0.01,0.149,0.021,0.297,0.032,0.445c0.011,0.148,0.023,0.295,0.036,0.443
	c0.013,0.147,0.026,0.294,0.04,0.44c0.014,0.146,0.029,0.293,0.044,0.439c0.015,0.146,0.031,0.291,0.048,0.437
	s0.034,0.29,0.053,0.435c0.018,0.145,0.037,0.289,0.057,0.434s0.041,0.289,0.062,0.433c0.022,0.144,0.044,0.288,0.067,0.432
	c0.023,0.144,0.047,0.287,0.072,0.431s0.051,0.287,0.078,0.43c0.027,0.143,0.054,0.287,0.083,0.43
	c0.029,0.143,0.058,0.286,0.089,0.43c0.031,0.143,0.062,0.286,0.095,0.429c0.033,0.143,0.066,0.286,0.101,0.43
	c0.035,0.143,0.07,0.286,0.107,0.43c0.037,0.143,0.074,0.287,0.113,0.43s0.079,0.287,0.12,0.431s0.083,0.288,0.126,0.432
	c0.043,0.144,0.088,0.288,0.133,0.433s0.092,0.289,0.14,0.434s0.097,0.29,0.147,0.435c0.05,0.145,0.102,0.291,0.155,0.437
	c0.053,0.146,0.107,0.292,0.162,0.439c0.055,0.146,0.112,0.293,0.17,0.44c0.058,0.147,0.117,0.295,0.178,0.443
	c0.061,0.148,0.123,0.296,0.186,0.445c0.063,0.149,0.128,0.298,0.194,0.447c0.066,0.15,0.134,0.299,0.202,0.45
	s0.139,0.301,0.211,0.453c0.072,0.151,0.145,0.303,0.22,0.456s0.151,0.305,0.229,0.459c0.078,0.154,0.157,0.308,0.238,0.462
	s0.163,0.31,0.247,0.466c0.084,0.156,0.169,0.312,0.256,0.47s0.176,0.315,0.266,0.473c0.09,0.158,0.182,0.318,0.276,0.477
	c0.094,0.16,0.189,0.32,0.286,0.482c0.097,0.161,0.195,0.323,0.296,0.486c0.1,0.163,0.202,0.326,0.306,0.491
	c0.104,0.164,0.209,0.33,0.316,0.496c0.107,0.166,0.216,0.333,0.327,0.501c0.111,0.168,0.223,0.336,0.338,0.506
	c0.114,0.169,0.231,0.34,0.349,0.511c0.118,0.171,0.238,0.344,0.36,0.517c0.122,0.173,0.245,0.347,0.371,0.522
	c0.126,0.175,0.253,0.351,0.383,0.528s0.261,0.355,0.394,0.534c0.133,0.179,0.269,0.359,0.406,0.541
	c0.137,0.181,0.277,0.364,0.418,0.547c0.141,0.183,0.285,0.368,0.43,0.554c0.145,0.186,0.293,0.373,0.442,0.561
	s0.301,0.377,0.455,0.568c0.154,0.19,0.31,0.382,0.467,0.575c0.158,0.193,0.318,0.387,0.48,0.582
	c0.162,0.195,0.327,0.392,0.493,0.59c0.167,0.198,0.335,0.397,0.506,0.597c0.171,0.2,0.344,0.402,0.52,0.605
	c0.175,0.203,0.353,0.408,0.533,0.613c0.18,0.206,0.362,0.413,0.547,0.622c0.185,0.209,0.372,0.419,0.561,0.63
	c0.189,0.211,0.381,0.424,0.575,0.639c0.194,0.214,0.39,0.43,0.589,0.648c0.199,0.217,0.4,0.436,0.603,0.657
	c0.203,0.22,0.409,0.442,0.618,0.666c0.208,0.223,0.419,0.448,0.632,0.675c0.213,0.227,0.429,0.455,0.647,0.685
	c0.218,0.23,0.439,0.461,0.662,0.694c0.223,0.233,0.449,0.468,0.678,0.704c0.228,0.236,0.459,0.475,0.693,0.714
	c0.234,0.24,0.47,0.481,0.708,0.725c0.239,0.243,0.48,0.488,0.724,0.735c0.244,0.247,0.491,0.495,0.74,0.746
	s0.501,0.502,0.756,0.756c0.255,0.254,0.512,0.51,0.772,0.767c0.26,0.258,0.523,0.517,0.789,0.779
	c0.266,0.261,0.534,0.525,0.805,0.79c0.271,0.265,0.545,0.532,0.822,0.802c0.277,0.269,0.556,0.54,0.839,0.813
	c0.282,0.273,0.568,0.548,0.856,0.825c0.288,0.277,0.579,0.556,0.873,0.837c0.294,0.281,0.591,0.564,0.891,0.85
	c0.3,0.285,0.603,0.573,0.908,0.862c0.306,0.289,0.614,0.581,0.926,0.875c0,0-0.001-0.001-0.002-0.002
	c-0.001-0.002-0.003-0.004-0.006-0.007c-0.003-0.003-0.006-0.007-0.01-0.011c-0.004-0.004-0.008-0.01-0.014-0.016
	c-0.005-0.006-0.011-0.013-0.018-0.02c-0.006-0.007-0.014-0.015-0.021-0.024c-0.008-0.009-0.016-0.018-0.025-0.028
	c-0.009-0.01-0.019-0.021-0.029-0.032c-0.01-0.011-0.021-0.024-0.033-0.036s-0.024-0.026-0.037-0.04s-0.026-0.029-0.04-0.044
	s-0.029-0.031-0.044-0.048s-0.031-0.034-0.048-0.052c-0.017-0.018-0.034-0.036-0.052-0.055c-0.018-0.019-0.036-0.039-0.055-0.059
	c-0.019-0.02-0.039-0.041-0.059-0.063c-0.02-0.021-0.041-0.043-0.063-0.066c-0.021-0.023-0.044-0.046-0.066-0.069
	c-0.023-0.024-0.046-0.048-0.07-0.073c-0.024-0.025-0.048-0.05-0.074-0.076c-0.025-0.026-0.051-0.052-0.077-0.079
	c-0.026-0.027-0.053-0.054-0.081-0.082c-0.027-0.028-0.056-0.056-0.084-0.085c-0.029-0.029-0.058-0.058-0.088-0.088
	s-0.06-0.06-0.091-0.091c-0.031-0.031-0.063-0.062-0.095-0.094c-0.032-0.032-0.065-0.064-0.098-0.096
	c-0.033-0.033-0.067-0.065-0.102-0.099s-0.07-0.067-0.105-0.101s-0.072-0.069-0.109-0.104c-0.037-0.035-0.074-0.07-0.112-0.106
	c-0.038-0.036-0.077-0.072-0.116-0.109c-0.039-0.037-0.079-0.073-0.119-0.111c-0.04-0.037-0.081-0.075-0.122-0.113
	s-0.083-0.076-0.126-0.115c-0.042-0.039-0.086-0.078-0.129-0.117s-0.088-0.079-0.132-0.119c-0.045-0.04-0.09-0.08-0.136-0.121
	c-0.046-0.041-0.092-0.082-0.139-0.123c-0.047-0.041-0.094-0.083-0.142-0.124c-0.048-0.042-0.097-0.084-0.146-0.126
	c-0.049-0.042-0.099-0.085-0.149-0.128s-0.101-0.086-0.152-0.129s-0.103-0.087-0.155-0.131s-0.105-0.088-0.158-0.132
	c-0.053-0.044-0.107-0.089-0.162-0.133c-0.054-0.045-0.109-0.089-0.165-0.135c-0.055-0.045-0.111-0.09-0.168-0.136
	c-0.057-0.045-0.114-0.091-0.171-0.137c-0.058-0.046-0.116-0.092-0.174-0.138s-0.118-0.092-0.177-0.139s-0.12-0.093-0.18-0.139
	c-0.061-0.047-0.122-0.093-0.183-0.14c-0.062-0.047-0.124-0.094-0.187-0.141s-0.126-0.094-0.19-0.142
	c-0.064-0.047-0.128-0.095-0.193-0.142c-0.065-0.047-0.13-0.095-0.196-0.143c-0.066-0.048-0.132-0.095-0.199-0.143
	c-0.067-0.048-0.134-0.096-0.202-0.143s-0.136-0.096-0.204-0.144s-0.138-0.096-0.207-0.144c-0.07-0.048-0.14-0.096-0.21-0.144
	s-0.142-0.096-0.213-0.144s-0.144-0.096-0.216-0.144c-0.073-0.048-0.146-0.096-0.219-0.144c-0.073-0.048-0.147-0.096-0.222-0.144
	c-0.074-0.048-0.149-0.096-0.225-0.143c-0.075-0.048-0.151-0.095-0.227-0.143c-0.076-0.048-0.153-0.095-0.23-0.143
	c-0.077-0.047-0.155-0.095-0.233-0.142c-0.078-0.047-0.157-0.094-0.236-0.142c-0.079-0.047-0.159-0.094-0.239-0.141
	c-0.08-0.047-0.16-0.094-0.241-0.14c-0.081-0.047-0.162-0.093-0.244-0.139c-0.082-0.046-0.164-0.093-0.247-0.139
	c-0.083-0.046-0.166-0.092-0.249-0.138c-0.084-0.046-0.168-0.091-0.252-0.137c-0.084-0.045-0.169-0.091-0.255-0.136
	s-0.171-0.09-0.257-0.134c-0.086-0.045-0.173-0.089-0.26-0.133c-0.087-0.044-0.175-0.088-0.263-0.132
	c-0.088-0.044-0.176-0.087-0.265-0.131c-0.089-0.043-0.178-0.086-0.268-0.129c-0.09-0.043-0.18-0.085-0.27-0.128
	c-0.091-0.042-0.181-0.084-0.273-0.126c-0.091-0.042-0.183-0.083-0.275-0.124c-0.092-0.041-0.185-0.082-0.278-0.123
	s-0.186-0.081-0.28-0.121c-0.094-0.04-0.188-0.08-0.283-0.119s-0.19-0.078-0.285-0.117c-0.095-0.039-0.191-0.077-0.288-0.115
	c-0.096-0.038-0.193-0.076-0.29-0.113c-0.097-0.037-0.195-0.074-0.292-0.111c-0.098-0.037-0.196-0.073-0.295-0.108
	s-0.198-0.071-0.297-0.106s-0.199-0.07-0.3-0.104c-0.1-0.034-0.201-0.068-0.302-0.101c-0.101-0.033-0.202-0.066-0.304-0.099
	s-0.204-0.064-0.306-0.096c-0.103-0.032-0.205-0.063-0.309-0.093c-0.103-0.031-0.207-0.061-0.311-0.091
	c-0.104-0.03-0.208-0.059-0.313-0.088s-0.21-0.057-0.315-0.085c-0.106-0.028-0.211-0.055-0.318-0.082
	c-0.106-0.027-0.213-0.053-0.32-0.079c-0.107-0.026-0.214-0.051-0.322-0.076c-0.108-0.025-0.216-0.049-0.324-0.072
	c-0.108-0.024-0.217-0.047-0.326-0.069C15.86,8.942,15.75,8.92,15.64,8.899c-0.11-0.021-0.22-0.042-0.331-0.062
	c-0.111-0.02-0.221-0.04-0.333-0.059c-0.111-0.019-0.223-0.037-0.335-0.055c-0.112-0.018-0.224-0.035-0.337-0.052
	c-0.113-0.017-0.226-0.033-0.339-0.048c-0.113-0.015-0.227-0.03-0.341-0.044c-0.114-0.014-0.228-0.027-0.343-0.04
	s-0.23-0.025-0.345-0.036C12.822,8.491,12.706,8.48,12.59,8.47c-0.116-0.01-0.232-0.019-0.349-0.028
	c-0.117-0.009-0.234-0.017-0.351-0.024s-0.235-0.014-0.353-0.02c-0.118-0.006-0.236-0.011-0.355-0.015
	c-0.119-0.004-0.237-0.008-0.357-0.011s-0.239-0.005-0.359-0.007s-0.24-0.002-0.36-0.002c-0.12,0-0.241,0.001-0.362,0.003
	C9.624,8.367,9.503,8.369,9.381,8.372C9.26,8.376,9.138,8.38,9.015,8.384C8.907,8.389,8.799,8.394,8.691,8.4
	S8.476,8.413,8.368,8.421C8.26,8.429,8.152,8.438,8.045,8.447c-0.108,0.01-0.215,0.02-0.323,0.032S7.506,8.503,7.399,8.516
	C7.291,8.53,7.184,8.544,7.076,8.559C6.969,8.574,6.862,8.589,6.754,8.606C6.647,8.623,6.539,8.64,6.432,8.658
	C6.325,8.677,6.218,8.696,6.11,8.716c-0.107,0.02-0.214,0.041-0.322,0.062C5.682,8.799,5.575,8.821,5.467,8.844
	C5.36,8.868,5.253,8.891,5.146,8.916C5.039,8.94,4.932,8.966,4.825,8.992c-0.107,0.026-0.214,0.053-0.321,0.08
	C4.397,9.1,4.29,9.128,4.183,9.157S3.97,9.215,3.863,9.246c-0.107,0.03-0.214,0.061-0.321,0.093S3.328,9.403,3.222,9.436
	s-0.214,0.067-0.32,0.101c-0.107,0.034-0.214,0.069-0.32,0.105S2.367,9.714,2.26,9.751S2.047,9.825,1.94,9.863
	C1.833,9.901,1.726,9.94,1.619,9.979c-0.107,0.039-0.214,0.079-0.32,0.12s-0.214,0.081-0.32,0.123s-0.214,0.084-0.321,0.126
	s-0.214,0.086-0.321,0.129c-0.107,0.044-0.214,0.088-0.321,0.133s-0.214,0.09-0.321,0.136s-0.214,0.092-0.321,0.139
	c-0.107,0.047-0.214,0.094-0.321,0.141c-0.107,0.048-0.214,0.096-0.321,0.144s-0.214,0.097-0.321,0.147
	c-0.107,0.049-0.214,0.099-0.322,0.149s-0.214,0.101-0.322,0.152c-0.107,0.051-0.215,0.102-0.322,0.154
	c-0.107,0.052-0.215,0.104-0.322,0.157s-0.215,0.105-0.322,0.159s-0.215,0.107-0.323,0.161s-0.215,0.108-0.323,0.163
	s-0.215,0.11-0.323,0.165c-0.108,0.055-0.216,0.111-0.324,0.167c-0.108,0.056-0.216,0.112-0.324,0.168
	c-0.108,0.056-0.216,0.113-0.324,0.17c-0.108,0.057-0.216,0.114-0.325,0.172c-0.108,0.057-0.217,0.115-0.325,0.173
	s-0.217,0.116-0.325,0.174c-0.108,0.058-0.217,0.117-0.326,0.176c-0.109,0.059-0.217,0.118-0.326,0.177
	c-0.109,0.059-0.218,0.118-0.327,0.178s-0.218,0.119-0.327,0.179c-0.109,0.06-0.218,0.12-0.327,0.18
	c-0.109,0.06-0.219,0.12-0.328,0.181c-0.109,0.06-0.219,0.121-0.328,0.181c-0.11,0.061-0.219,0.121-0.329,0.182
	s-0.22,0.122-0.329,0.182c-0.11,0.061-0.22,0.122-0.33,0.183c-0.11,0.061-0.22,0.122-0.33,0.183s-0.221,0.122-0.331,0.184
	s-0.221,0.122-0.332,0.184c-0.111,0.061-0.221,0.122-0.332,0.184c-0.111,0.061-0.222,0.122-0.333,0.184
	c-0.111,0.061-0.222,0.122-0.334,0.184c-0.111,0.061-0.223,0.122-0.334,0.183c-0.111,0.061-0.223,0.122-0.335,0.183
	c-0.112,0.061-0.224,0.122-0.335,0.183c-0.112,0.061-0.224,0.122-0.336,0.182c-0.112,0.061-0.224,0.121-0.337,0.182
	c-0.112,0.06-0.225,0.121-0.338,0.181s-0.225,0.12-0.338,0.18c-0.113,0.06-0.226,0.12-0.339,0.179
	c-0.113,0.06-0.226,0.119-0.34,0.178c-0.113,0.059-0.227,0.118-0.341,0.177c-0.114,0.059-0.228,0.118-0.342,0.176
	c-0.114,0.059-0.228,0.117-0.342,0.175c-0.114,0.058-0.229,0.116-0.343,0.174c-0.115,0.058-0.229,0.115-0.344,0.172
	c-0.115,0.057-0.23,0.114-0.345,0.171c-0.115,0.057-0.23,0.113-0.346,0.169c-0.115,0.056-0.231,0.112-0.347,0.167
	c-0.116,0.055-0.232,0.111-0.348,0.166s-0.232,0.109-0.349,0.164s-0.233,0.108-0.349,0.162c-0.117,0.054-0.233,0.107-0.35,0.16
	c-0.117,0.053-0.234,0.105-0.351,0.157c-0.117,0.052-0.235,0.104-0.352,0.155c-0.118,0.051-0.235,0.102-0.353,0.153
	c-0.118,0.051-0.236,0.101-0.354,0.15c-0.118,0.05-0.237,0.099-0.355,0.148c-0.119,0.049-0.238,0.097-0.357,0.145
	s-0.238,0.095-0.358,0.143c-0.119,0.047-0.239,0.094-0.359,0.14s-0.24,0.092-0.36,0.137c-0.12,0.045-0.24,0.09-0.361,0.134
	c-0.12,0.044-0.241,0.088-0.362,0.131c-0.121,0.043-0.242,0.086-0.363,0.128c-0.121,0.042-0.243,0.083-0.364,0.124
	c-0.122,0.041-0.243,0.081-0.366,0.121c-0.122,0.04-0.244,0.079-0.367,0.117s-0.245,0.077-0.368,0.114s-0.246,0.074-0.369,0.11
	c-0.123,0.036-0.247,0.072-0.37,0.106c-0.124,0.035-0.248,0.069-0.372,0.103s-0.248,0.066-0.373,0.099
	c-0.125,0.032-0.249,0.064-0.374,0.095c-0.125,0.031-0.25,0.061-0.376,0.091c-0.125,0.029-0.251,0.058-0.377,0.086
	c-0.126,0.028-0.252,0.055-0.378,0.082c-0.126,0.027-0.253,0.053-0.38,0.078c-0.127,0.025-0.254,0.05-0.381,0.073
	c-0.127,0.024-0.255,0.047-0.382,0.069c-0.128,0.022-0.256,0.043-0.384,0.064s-0.257,0.04-0.385,0.059
	c-0.129,0.019-0.257,0.037-0.387,0.054c-0.129,0.017-0.258,0.034-0.388,0.049c-0.13,0.016-0.259,0.03-0.389,0.044
	s-0.26,0.027-0.391,0.039c-0.131,0.012-0.261,0.024-0.392,0.034s-0.262,0.02-0.394,0.029s-0.263,0.016-0.396,0.023
	c-0.132,0.007-0.264,0.013-0.397,0.018c-0.133,0.005-0.265,0.009-0.399,0.012c-0.133,0.003-0.267,0.005-0.4,0.006
	c-0.134,0.001-0.268,0.001-0.402,0.001s-0.269-0.003-0.403-0.005s-0.27-0.006-0.405-0.011c-0.135-0.005-0.271-0.01-0.407-0.017
	c-0.136-0.007-0.272-0.015-0.408-0.023c-0.037-0.002-0.074-0.005-0.111-0.007c-0.037-0.002-0.074-0.004-0.11-0.006
	c-0.037-0.002-0.073-0.004-0.11-0.005s-0.073-0.003-0.11-0.005c-0.037-0.001-0.073-0.003-0.109-0.004
	c-0.036-0.001-0.073-0.002-0.109-0.003c-0.036-0.001-0.073,0.037-0.109,0.075s-0.073,0.076-0.109,0.076s-0.072,0.038-0.109,0.076
	C-36.191,23.961-36.227,24-36.263,24c-0.036,0-0.072,0-0.108,0c-0.036,0-0.072,0-0.108,0c-0.036,0-0.072,0-0.108,0s-0.072,0-0.108,0
	c-0.036,0-0.072-0.039-0.108-0.077c-0.036-0.039-0.072-0.077-0.108-0.077c-0.036,0-0.072-0.019-0.108-0.037
	s-0.072-0.038-0.108-0.037s-0.072-0.008-0.108-0.018s-0.072-0.018-0.108-0.017c-0.036,0.001-0.072-0.003-0.108-0.007
	c-0.036-0.004-0.072-0.008-0.108-0.007s-0.072,0.141-0.108,0.139C-37.705,23.859-37.742,24-37.778,24c-0.036,0-0.072,0-0.109,0
	s-0.072,0-0.109,0s-0.073-0.14-0.109-0.14c-0.036,0-0.073-0.07-0.109-0.069c-0.036,0.001-0.073-0.034-0.109-0.034
	c-0.036,0-0.073-0.017-0.11-0.016c-0.037,0.001-0.073-0.008-0.11-0.007c-0.037,0.001-0.073-0.003-0.11-0.003
	c-0.037,0.001-0.074,0.032-0.11,0.066c-0.037,0.034-0.074,0.067-0.111,0.067c-0.037,0-0.074,0.034-0.111,0.068
	C-39.021,23.967-39.058,24-39.095,24c-0.037,0-0.074,0-0.112,0c-0.037,0-0.075,0-0.112,0c-0.037,0-0.075-0.034-0.112-0.067
	c-0.038-0.034-0.075-0.067-0.113-0.068c-0.038,0-0.075-0.018-0.113-0.035s-0.076-0.035-0.114-0.035s-0.076-0.01-0.114-0.019
	c-0.038-0.009-0.076-0.019-0.115-0.02s-0.077-0.006-0.115-0.012s-0.077-0.011-0.116-0.012c-0.039-0.001-0.077-0.005-0.116-0.009
	c-0.039-0.004-0.078-0.008-0.117-0.01c-0.039-0.002-0.078-0.005-0.117-0.008c-0.039-0.003-0.079-0.007-0.118-0.009
	c-0.039-0.002-0.079-0.006-0.119-0.009c-0.04-0.003-0.079-0.007-0.119-0.01c-0.04-0.003-0.08-0.006-0.12-0.01
	c-0.04-0.004-0.08-0.007-0.121-0.011c-0.04-0.004-0.081-0.007-0.121-0.012s-0.081-0.008-0.122-0.012
	c-0.041-0.004-0.082-0.009-0.123-0.013c-0.041-0.005-0.082-0.009-0.123-0.014c-0.041-0.005-0.083-0.01-0.124-0.015
	s-0.083-0.011-0.125-0.016c-0.042-0.006-0.084-0.011-0.126-0.017c-0.042-0.006-0.084-0.012-0.127-0.019s-0.085-0.013-0.127-0.02
	s-0.085-0.014-0.128-0.021s-0.086-0.015-0.129-0.022c-0.043-0.008-0.087-0.015-0.13-0.023s-0.087-0.016-0.131-0.025
	c-0.044-0.008-0.088-0.017-0.132-0.026c-0.044-0.009-0.088-0.018-0.133-0.027c-0.044-0.009-0.089-0.019-0.134-0.029
	c-0.045-0.01-0.09-0.02-0.135-0.03c-0.045-0.01-0.09-0.021-0.136-0.032c-0.045-0.011-0.091-0.022-0.137-0.033
	c-0.046-0.011-0.092-0.023-0.138-0.035c-0.046-0.012-0.092-0.024-0.139-0.036c-0.047-0.012-0.093-0.025-0.14-0.038
	s-0.094-0.026-0.141-0.039s-0.095-0.027-0.142-0.041c-0.048-0.014-0.095-0.028-0.143-0.043c-0.048-0.015-0.096-0.029-0.145-0.045
	c-0.048-0.015-0.097-0.031-0.146-0.046c-0.049-0.016-0.098-0.032-0.147-0.048s-0.099-0.033-0.148-0.05
	c-0.05-0.017-0.099-0.034-0.149-0.052c-0.05-0.018-0.1-0.035-0.151-0.054c-0.05-0.018-0.101-0.037-0.152-0.055
	c-0.051-0.019-0.102-0.038-0.153-0.057c-0.051-0.019-0.103-0.039-0.154-0.059s-0.104-0.041-0.156-0.061
	c-0.052-0.021-0.105-0.042-0.157-0.063c-0.053-0.021-0.105-0.043-0.159-0.065c-0.053-0.022-0.106-0.045-0.16-0.068
	c-0.054-0.023-0.107-0.046-0.161-0.07c-0.054-0.024-0.108-0.048-0.163-0.072s-0.109-0.049-0.164-0.074
	c-0.055-0.025-0.11-0.05-0.166-0.076s-0.111-0.052-0.167-0.078c-0.056-0.027-0.112-0.053-0.169-0.081
	c-0.056-0.027-0.113-0.055-0.17-0.083c-0.057-0.028-0.114-0.057-0.172-0.085c-0.057-0.029-0.115-0.058-0.173-0.088
	c-0.058-0.03-0.116-0.06-0.175-0.09s-0.117-0.061-0.176-0.093c-0.059-0.031-0.118-0.063-0.178-0.095
	c-0.06-0.032-0.119-0.065-0.18-0.098c-0.06-0.033-0.12-0.066-0.181-0.1s-0.122-0.068-0.183-0.103
	c-0.061-0.035-0.123-0.07-0.184-0.105c-0.062-0.036-0.124-0.071-0.186-0.108c-0.062-0.036-0.125-0.073-0.188-0.111
	s-0.126-0.075-0.19-0.113c-0.063-0.038-0.127-0.077-0.191-0.116c-0.064-0.039-0.128-0.079-0.193-0.119
	c-0.065-0.04-0.13-0.081-0.195-0.121c-0.065-0.041-0.131-0.082-0.197-0.124c-0.066-0.042-0.132-0.084-0.199-0.127
	c-0.066-0.043-0.133-0.086-0.2-0.13c-0.067-0.044-0.135-0.088-0.202-0.133s-0.136-0.09-0.204-0.136
	c-0.068-0.046-0.137-0.092-0.206-0.139c-0.069-0.047-0.138-0.094-0.208-0.142c-0.07-0.048-0.14-0.096-0.21-0.145
	c-0.07-0.049-0.141-0.098-0.212-0.148s-0.142-0.1-0.214-0.151c-0.072-0.051-0.144-0.102-0.216-0.154s-0.145-0.104-0.218-0.157
	c-0.073-0.053-0.146-0.106-0.22-0.161c-0.074-0.054-0.148-0.109-0.222-0.164c0.465,0.141,0.926,0.277,1.384,0.407
	c0.457,0.13,0.911,0.254,1.361,0.373s0.896,0.232,1.338,0.34c0.442,0.108,0.881,0.21,1.315,0.307s0.866,0.188,1.293,0.274
	c0.427,0.086,0.851,0.167,1.271,0.242c0.42,0.075,0.836,0.145,1.249,0.21c0.413,0.065,0.821,0.124,1.227,0.179
	c0.405,0.054,0.807,0.104,1.205,0.148c0.398,0.044,0.792,0.083,1.183,0.118s0.778,0.063,1.162,0.087s0.764,0.043,1.141,0.058
	c0.377,0.014,0.75,0.024,1.12,0.029c0.37,0.005,0.736,0.005,1.099,0c0.363-0.005,0.722-0.014,1.078-0.028
	c0.356-0.014,0.708-0.033,1.057-0.056c0.349-0.023,0.695-0.051,1.037-0.084c0.342-0.032,0.681-0.069,1.017-0.111
	c0.336-0.041,0.668-0.087,0.997-0.137c0.329-0.05,0.655-0.105,0.977-0.164s0.641-0.122,0.957-0.189s0.628-0.139,0.938-0.215
	s0.615-0.156,0.918-0.24s0.603-0.172,0.899-0.264s0.59-0.188,0.88-0.288c0.29-0.1,0.577-0.204,0.861-0.312s0.565-0.219,0.842-0.335
	s0.552-0.235,0.824-0.358c0.272-0.123,0.54-0.25,0.805-0.38c0.265-0.13,0.528-0.264,0.787-0.402
	c0.259-0.138,0.516-0.279,0.769-0.423s0.504-0.293,0.751-0.444c0.248-0.152,0.492-0.307,0.734-0.465
	c0.242-0.158,0.48-0.32,0.716-0.485s0.469-0.333,0.699-0.505c0.23-0.172,0.457-0.346,0.682-0.524
	c0.224-0.178,0.446-0.359,0.665-0.543c0.219-0.184,0.435-0.371,0.648-0.562s0.423-0.384,0.631-0.58
	c0.208-0.196,0.412-0.395,0.615-0.597c0.202-0.202,0.401-0.407,0.598-0.615s0.391-0.418,0.582-0.631
	c0.191-0.213,0.38-0.429,0.566-0.648c0.186-0.219,0.369-0.44,0.55-0.664c0.181-0.224,0.359-0.45,0.534-0.679s0.349-0.46,0.519-0.694
	c0.17-0.234,0.338-0.47,0.504-0.709C-10.123,7.404-9.96,7.163-9.8,6.92c0.16-0.243,0.318-0.489,0.473-0.737
	c0.155-0.248,0.308-0.498,0.459-0.75c0.15-0.252,0.298-0.507,0.444-0.763c0.146-0.256,0.289-0.515,0.429-0.775
	c0.141-0.261,0.279-0.523,0.415-0.788s0.27-0.531,0.401-0.799s0.26-0.538,0.387-0.81c0.127-0.272,0.251-0.546,0.373-0.821
	s0.242-0.553,0.36-0.831c0.118-0.279,0.233-0.559,0.346-0.841s0.224-0.566,0.333-0.851s0.215-0.572,0.32-0.86
	c0.104-0.288,0.207-0.578,0.307-0.869s0.198-0.583,0.294-0.877c0.096-0.294,0.19-0.588,0.281-0.884
	C-4.087-5.633-3.998-5.93-3.91-6.229s0.173-0.598,0.256-0.899C-3.57-7.428-3.489-7.73-3.409-8.033
	c0.079-0.303,0.157-0.607,0.232-0.911c0.075-0.305,0.149-0.61,0.22-0.917c0.072-0.307,0.141-0.614,0.209-0.922
	c0.068-0.308,0.133-0.617,0.197-0.927c0.064-0.31,0.126-0.62,0.186-0.931s0.118-0.623,0.175-0.935s0.111-0.625,0.164-0.939
	c0.053-0.313,0.104-0.627,0.153-0.942c0.049-0.314,0.097-0.629,0.143-0.944c0.046-0.315,0.09-0.631,0.132-0.946
	c0.042-0.316,0.083-0.632,0.122-0.948s0.076-0.633,0.112-0.95c0.036-0.317,0.07-0.634,0.102-0.95s0.063-0.634,0.092-0.951
	c0.029-0.317,0.057-0.634,0.082-0.951s0.05-0.634,0.073-0.951s0.044-0.633,0.064-0.95c0.02-0.316,0.038-0.633,0.055-0.949
	c0.017-0.316,0.032-0.632,0.046-0.947c0.014-0.315,0.026-0.63,0.037-0.945c0.011-0.315,0.02-0.629,0.028-0.942
	c0.008-0.314,0.015-0.627,0.02-0.939c0.005-0.313,0.009-0.625,0.012-0.936c0.003-0.311,0.004-0.622,0.004-0.932
	c0-0.31-0.002-0.619-0.004-0.928c-0.003-0.309-0.007-0.616-0.012-0.923c-0.005-0.307-0.012-0.613-0.02-0.918
	s-0.017-0.609-0.027-0.913c-0.01-0.303-0.022-0.606-0.034-0.907c-0.013-0.301-0.026-0.601-0.041-0.9
	c-0.015-0.299-0.031-0.597-0.048-0.894s-0.036-0.592-0.055-0.886c-0.019-0.294-0.04-0.587-0.062-0.879
	c-0.022-0.292-0.044-0.582-0.068-0.871s-0.049-0.576-0.074-0.862c-0.026-0.286-0.053-0.57-0.08-0.853
	c-0.028-0.283-0.057-0.564-0.086-0.844c-0.03-0.28-0.06-0.558-0.092-0.834s-0.064-0.551-0.098-0.824
	c-0.033-0.273-0.068-0.544-0.103-0.813s-0.071-0.537-0.108-0.802c-0.037-0.265-0.075-0.529-0.113-0.791
	c-0.039-0.262-0.078-0.521-0.118-0.779s-0.081-0.513-0.123-0.766c-0.042-0.253-0.084-0.505-0.127-0.754
	c-0.043-0.249-0.087-0.496-0.132-0.74c-0.045-0.245-0.09-0.487-0.136-0.727c-0.046-0.24-0.093-0.477-0.14-0.713
	c-0.047-0.235-0.095-0.468-0.144-0.698c-0.049-0.23-0.098-0.458-0.148-0.683c-0.05-0.225-0.1-0.448-0.151-0.668
	s-0.102-0.437-0.155-0.652c-0.052-0.215-0.105-0.427-0.158-0.636c-0.053-0.209-0.107-0.416-0.161-0.619
	c-0.054-0.204-0.109-0.404-0.164-0.602s-0.11-0.393-0.166-0.584c-0.056-0.192-0.112-0.381-0.169-0.567
	c-0.057-0.186-0.114-0.369-0.171-0.548s-0.115-0.356-0.173-0.529s-0.117-0.343-0.175-0.51s-0.118-0.33-0.177-0.491
	c-0.059-0.16-0.119-0.317-0.179-0.47c-0.029-0.074-0.059-0.149-0.09-0.224c-0.031-0.075-0.063-0.151-0.096-0.228
	c-0.033-0.076-0.067-0.153-0.102-0.231c-0.035-0.078-0.071-0.156-0.108-0.234c-0.037-0.079-0.075-0.158-0.113-0.237
	s-0.078-0.16-0.119-0.241c-0.041-0.081-0.082-0.162-0.125-0.244c-0.042-0.082-0.086-0.164-0.13-0.246
	c-0.044-0.083-0.089-0.166-0.135-0.249c-0.046-0.084-0.093-0.168-0.14-0.252s-0.096-0.169-0.145-0.255s-0.099-0.171-0.15-0.257
	c-0.051-0.086-0.103-0.173-0.155-0.26c-0.053-0.087-0.106-0.175-0.16-0.262c-0.054-0.088-0.109-0.176-0.165-0.265
	c-0.056-0.089-0.112-0.178-0.169-0.267c-0.057-0.089-0.115-0.179-0.174-0.269c-0.059-0.09-0.118-0.181-0.178-0.271
	s-0.121-0.182-0.182-0.274s-0.124-0.183-0.186-0.276c-0.063-0.092-0.126-0.185-0.19-0.277c-0.064-0.093-0.129-0.186-0.194-0.279
	s-0.131-0.187-0.198-0.281c-0.067-0.094-0.134-0.188-0.202-0.283c-0.068-0.095-0.136-0.189-0.205-0.284
	c-0.069-0.095-0.139-0.19-0.209-0.286c-0.07-0.096-0.141-0.191-0.212-0.287s-0.143-0.192-0.215-0.289
	c-0.072-0.096-0.145-0.193-0.219-0.29c-0.073-0.097-0.147-0.194-0.222-0.291c-0.074-0.097-0.149-0.195-0.225-0.292
	c-0.075-0.098-0.151-0.195-0.227-0.294c-0.076-0.098-0.153-0.196-0.23-0.294c-0.077-0.098-0.155-0.197-0.233-0.295
	s-0.156-0.197-0.235-0.296s-0.158-0.198-0.238-0.297c-0.08-0.099-0.16-0.198-0.24-0.298c-0.08-0.099-0.161-0.199-0.242-0.298
	c-0.081-0.1-0.163-0.199-0.244-0.299c-0.082-0.1-0.164-0.199-0.246-0.299c-0.082-0.1-0.165-0.2-0.248-0.3
	c-0.083-0.1-0.166-0.2-0.25-0.3s-0.168-0.2-0.252-0.3s-0.169-0.2-0.253-0.3s-0.17-0.2-0.255-0.3c-0.085-0.1-0.171-0.2-0.256-0.3
	c-0.086-0.1-0.171-0.2-0.258-0.3c-0.086-0.1-0.172-0.2-0.259-0.3c-0.086-0.1-0.173-0.2-0.26-0.3c-0.087-0.1-0.174-0.2-0.261-0.3
	c-0.087-0.1-0.174-0.2-0.262-0.299c-0.087-0.1-0.175-0.199-0.262-0.299c-0.088-0.1-0.175-0.199-0.263-0.298
	c-0.088-0.099-0.176-0.199-0.263-0.298c-0.088-0.099-0.176-0.198-0.264-0.297s-0.176-0.198-0.264-0.296
	c-0.088-0.099-0.176-0.197-0.264-0.295c-0.088-0.098-0.176-0.196-0.264-0.294c-0.088-0.098-0.176-0.196-0.264-0.293
	c-0.088-0.098-0.176-0.195-0.264-0.292c-0.088-0.097-0.176-0.194-0.264-0.291c-0.088-0.097-0.176-0.193-0.264-0.29
	c-0.088-0.096-0.176-0.193-0.263-0.289c-0.088-0.096-0.175-0.192-0.263-0.287c-0.088-0.095-0.175-0.191-0.262-0.286
	c-0.087-0.095-0.174-0.19-0.262-0.284c-0.087-0.094-0.174-0.189-0.261-0.282c-0.087-0.094-0.173-0.187-0.26-0.281
	s-0.173-0.186-0.259-0.279c-0.086-0.093-0.172-0.185-0.258-0.277c-0.086-0.092-0.171-0.184-0.256-0.275
	c-0.085-0.091-0.17-0.182-0.255-0.273c-0.085-0.091-0.169-0.181-0.253-0.271c-0.084-0.09-0.168-0.18-0.252-0.269
	c-0.084-0.089-0.167-0.178-0.25-0.267c-0.083-0.089-0.166-0.177-0.248-0.264c-0.082-0.088-0.165-0.175-0.246-0.262
	c-0.082-0.087-0.163-0.173-0.244-0.259c-0.081-0.086-0.162-0.172-0.242-0.257c-0.08-0.085-0.16-0.17-0.24-0.254
	s-0.159-0.168-0.238-0.252c-0.079-0.083-0.157-0.166-0.235-0.249c-0.078-0.082-0.156-0.164-0.233-0.246
	c-0.077-0.081-0.154-0.162-0.23-0.243c-0.076-0.08-0.152-0.16-0.227-0.24c-0.075-0.079-0.15-0.158-0.225-0.237
	c-0.074-0.078-0.148-0.156-0.222-0.234c-0.073-0.077-0.146-0.154-0.219-0.23c-0.072-0.076-0.144-0.152-0.215-0.227
	c-0.071-0.075-0.142-0.15-0.212-0.224c-0.07-0.074-0.14-0.147-0.209-0.22c-0.069-0.073-0.137-0.145-0.205-0.217
	c-0.068-0.072-0.135-0.143-0.202-0.213c-0.067-0.07-0.133-0.14-0.198-0.209c-0.065-0.069-0.13-0.138-0.194-0.206
	s-0.128-0.135-0.19-0.202s-0.125-0.133-0.186-0.198c-0.061-0.065-0.122-0.13-0.182-0.194c-0.06-0.064-0.119-0.127-0.178-0.19
	s-0.117-0.124-0.174-0.185c-0.057-0.061-0.114-0.122-0.169-0.181c-0.056-0.06-0.111-0.119-0.165-0.177
	c-0.054-0.058-0.107-0.116-0.16-0.173s-0.104-0.113-0.155-0.168c-0.051-0.055-0.101-0.11-0.15-0.163
	c-0.049-0.054-0.098-0.107-0.145-0.159c-0.048-0.052-0.094-0.104-0.14-0.154c-0.046-0.051-0.091-0.1-0.135-0.149
	c-0.044-0.049-0.088-0.097-0.13-0.144c-0.042-0.047-0.084-0.094-0.125-0.14c-0.041-0.046-0.08-0.091-0.119-0.135
	c-0.039-0.044-0.077-0.087-0.114-0.129c-0.037-0.042-0.073-0.084-0.108-0.124c-0.035-0.041-0.069-0.08-0.102-0.119
	s-0.065-0.077-0.096-0.114c-0.031-0.037-0.061-0.073-0.09-0.108c-0.029-0.035-0.057-0.069-0.084-0.103
	c-0.027-0.033-0.053-0.066-0.078-0.097c-0.025-0.031-0.049-0.062-0.071-0.092c-0.023-0.03-0.044-0.058-0.065-0.086
	s-0.04-0.054-0.058-0.08c-0.018-0.026-0.036-0.05-0.052-0.074s-0.031-0.046-0.045-0.068c-0.014-0.022-0.027-0.042-0.038-0.062
	c-0.012-0.02-0.022-0.038-0.031-0.056s-0.017-0.034-0.024-0.05s-0.013-0.03-0.017-0.044s-0.008-0.026-0.01-0.037
	c-0.005-0.026-0.009-0.052-0.012-0.076s0.176-0.048,0.174-0.07C-29.18-89.051-29-89.073-29-89.093s0-0.04,0-0.059
	c0-0.019-0.181-0.036-0.18-0.053c0.001-0.017-0.088-0.033-0.085-0.047s-0.04-0.029-0.036-0.042c0.004-0.013-0.015-0.025-0.01-0.037
	c0.005-0.011-0.001-0.022,0.005-0.031c0.006-0.01,0.007-0.018,0.014-0.026c0.007-0.008,0.012-0.015,0.02-0.021
	c0.008-0.006,0.015-0.011,0.025-0.016c0.009-0.004,0.018-0.008,0.028-0.011c0.01-0.003,0.021-0.005,0.032-0.006
	c0.011-0.001,0.023-0.002,0.035-0.001c0.012,0,0.025,0.002,0.038,0.003c0.013,0.002,0.027,0.005,0.041,0.008
	c0.014,0.003,0.029,0.008,0.044,0.012c0.015,0.005,0.031,0.011,0.047,0.017s0.032,0.013,0.049,0.021
	c0.017,0.008,0.034,0.016,0.052,0.025c0.018,0.009,0.036,0.019,0.055,0.03c0.019,0.011,0.038,0.022,0.057,0.034
	c0.019,0.012,0.039,0.024,0.06,0.038c0.02,0.013,0.041,0.027,0.062,0.041c0.021,0.014,0.042,0.03,0.064,0.045
	s0.044,0.032,0.067,0.049s0.045,0.034,0.069,0.052c0.023,0.018,0.047,0.037,0.071,0.056c0.024,0.019,0.048,0.039,0.073,0.059
	c0.025,0.02,0.05,0.041,0.075,0.063c0.025,0.021,0.051,0.043,0.077,0.066c0.026,0.022,0.052,0.046,0.079,0.069
	c0.027,0.024,0.054,0.048,0.081,0.072s0.055,0.05,0.083,0.075s0.056,0.051,0.084,0.078c0.028,0.026,0.057,0.053,0.086,0.081
	c0.029,0.027,0.058,0.055,0.088,0.083s0.059,0.057,0.089,0.086s0.06,0.059,0.091,0.088c0.03,0.03,0.061,0.06,0.092,0.091
	s0.062,0.062,0.094,0.093s0.063,0.063,0.095,0.095c0.032,0.032,0.064,0.065,0.096,0.098c0.032,0.033,0.065,0.066,0.097,0.1
	c0.033,0.034,0.065,0.067,0.099,0.102c0.033,0.034,0.066,0.069,0.1,0.103c0.033,0.035,0.067,0.07,0.101,0.105
	c0.034,0.035,0.068,0.071,0.102,0.107c0.034,0.036,0.068,0.072,0.103,0.109c0.034,0.036,0.069,0.073,0.103,0.11
	c0.035,0.037,0.069,0.074,0.104,0.111c0.035,0.037,0.07,0.075,0.105,0.113c0.035,0.038,0.07,0.076,0.106,0.114
	c0.035,0.038,0.071,0.077,0.106,0.115s0.071,0.077,0.107,0.116c0.036,0.039,0.071,0.078,0.107,0.117
	c0.036,0.039,0.072,0.079,0.108,0.118s0.072,0.079,0.108,0.119c0.036,0.04,0.072,0.08,0.108,0.12c0.036,0.04,0.072,0.08,0.109,0.12
	c0.036,0.04,0.072,0.08,0.109,0.121s0.073,0.081,0.109,0.121s0.073,0.081,0.109,0.121c0.036,0.041,0.073,0.081,0.109,0.122
	s0.073,0.081,0.109,0.122c0.036,0.041,0.073,0.081,0.109,0.122s0.072,0.081,0.109,0.122s0.072,0.081,0.108,0.122
	c0.036,0.041,0.072,0.081,0.108,0.122c0.036,0.04,0.072,0.081,0.108,0.121c0.036,0.04,0.072,0.081,0.107,0.121
	c0.036,0.04,0.071,0.08,0.107,0.12c0.036,0.04,0.071,0.08,0.106,0.12c0.035,0.04,0.071,0.08,0.106,0.119
	c0.035,0.04,0.07,0.079,0.105,0.118c0.035,0.039,0.07,0.079,0.105,0.118c0.035,0.039,0.069,0.078,0.104,0.117
	s0.069,0.077,0.103,0.116c0.034,0.038,0.068,0.077,0.102,0.115s0.068,0.076,0.101,0.113c0.034,0.038,0.067,0.075,0.1,0.112
	c0.033,0.037,0.066,0.074,0.099,0.111s0.065,0.073,0.098,0.109c0.032,0.036,0.065,0.072,0.097,0.108
	c0.032,0.036,0.064,0.071,0.096,0.106c0.032,0.035,0.063,0.07,0.094,0.104c0.031,0.034,0.062,0.069,0.093,0.102
	c0.031,0.034,0.061,0.067,0.091,0.101s0.06,0.066,0.09,0.099s0.059,0.065,0.088,0.096c0.029,0.032,0.058,0.063,0.087,0.094
	c0.029,0.031,0.057,0.062,0.085,0.092c0.028,0.03,0.056,0.06,0.084,0.09c0.028,0.029,0.055,0.058,0.082,0.087
	c0.027,0.029,0.054,0.057,0.08,0.085s0.052,0.055,0.078,0.082s0.051,0.053,0.076,0.079c0.025,0.026,0.05,0.051,0.074,0.076
	c0.024,0.025,0.048,0.049,0.072,0.073s0.047,0.047,0.07,0.07s0.045,0.045,0.068,0.067c0.022,0.022,0.044,0.043,0.065,0.064
	c0.021,0.021,0.042,0.041,0.063,0.061s0.041,0.039,0.061,0.057c0.02,0.019,0.039,0.037,0.058,0.054
	c0.019,0.017,0.038,0.034,0.056,0.05c0.018,0.016,0.036,0.032,0.053,0.047s0.034,0.029,0.051,0.043
	c0.016,0.014,0.032,0.027,0.048,0.039s0.031,0.024,0.045,0.035c0.015,0.011,0.029,0.022,0.042,0.031
	c0.014,0.01,0.027,0.019,0.04,0.027c0.013,0.008,0.025,0.016,0.037,0.023c0.012,0.007,0.023,0.013,0.034,0.019
	c0.011,0.006,0.021,0.01,0.031,0.014s0.019,0.007,0.028,0.01c0.009,0.003,0.017,0.004,0.025,0.005
	c0.008,0.001,0.015,0.001,0.021,0.001c0.007-0.001,0.013-0.002,0.018-0.004s0.01-0.005,0.015-0.009
	c0.004-0.004,0.008-0.008,0.011-0.014c0.003-0.005-0.206-0.012-0.204-0.019S-21-81.055-21-81.064s0-0.018,0-0.029
	c0-0.011,0.211-0.022,0.21-0.034s0.103-0.025,0.1-0.04c-0.003-0.014,0.047-0.029,0.043-0.045c-0.002-0.009,0.021-0.02,0.017-0.032
	c-0.004-0.012,0.004-0.025-0.002-0.039c-0.006-0.014-0.007-0.03-0.015-0.046c-0.008-0.017-0.014-0.034-0.024-0.053
	c-0.01-0.019-0.019-0.039-0.031-0.06c-0.012-0.021-0.023-0.044-0.037-0.067c-0.013-0.024-0.027-0.048-0.043-0.074
	c-0.015-0.026-0.031-0.053-0.048-0.081c-0.017-0.028-0.035-0.057-0.053-0.087c-0.019-0.03-0.038-0.061-0.058-0.093
	s-0.041-0.065-0.063-0.1s-0.044-0.07-0.068-0.106c-0.023-0.036-0.048-0.074-0.073-0.112c-0.025-0.038-0.051-0.078-0.077-0.118
	c-0.026-0.04-0.054-0.081-0.082-0.124c-0.028-0.042-0.057-0.085-0.086-0.129c-0.029-0.044-0.06-0.089-0.09-0.135
	c-0.031-0.046-0.062-0.093-0.095-0.14c-0.032-0.048-0.065-0.096-0.099-0.146c-0.034-0.049-0.068-0.1-0.103-0.151
	c-0.035-0.051-0.07-0.103-0.107-0.156c-0.036-0.053-0.073-0.106-0.111-0.161s-0.076-0.11-0.114-0.166
	c-0.039-0.056-0.078-0.113-0.118-0.17c-0.04-0.058-0.08-0.116-0.121-0.175c-0.041-0.059-0.083-0.119-0.125-0.179
	c-0.042-0.061-0.085-0.122-0.128-0.184c-0.043-0.062-0.087-0.125-0.132-0.188c-0.044-0.063-0.089-0.127-0.135-0.192
	s-0.091-0.13-0.138-0.196c-0.046-0.066-0.093-0.133-0.141-0.2c-0.047-0.067-0.095-0.135-0.144-0.204
	c-0.048-0.069-0.097-0.138-0.146-0.207c-0.049-0.07-0.099-0.14-0.149-0.211c-0.05-0.071-0.101-0.142-0.152-0.214
	s-0.102-0.144-0.154-0.218c-0.052-0.073-0.104-0.147-0.157-0.221s-0.106-0.149-0.159-0.224c-0.053-0.075-0.107-0.151-0.161-0.227
	s-0.108-0.153-0.163-0.229c-0.055-0.077-0.11-0.154-0.165-0.232c-0.055-0.078-0.111-0.156-0.167-0.235
	c-0.056-0.079-0.112-0.158-0.169-0.237s-0.113-0.159-0.171-0.239c-0.057-0.08-0.115-0.161-0.172-0.242s-0.116-0.162-0.174-0.244
	s-0.117-0.164-0.175-0.246c-0.059-0.082-0.118-0.165-0.177-0.248c-0.059-0.083-0.118-0.166-0.178-0.249s-0.119-0.167-0.179-0.251
	c-0.06-0.084-0.12-0.168-0.18-0.252c-0.06-0.084-0.121-0.169-0.181-0.254c-0.061-0.085-0.121-0.17-0.182-0.255
	c-0.061-0.085-0.122-0.171-0.183-0.256c-0.061-0.086-0.122-0.171-0.183-0.257s-0.123-0.172-0.184-0.258
	c-0.061-0.086-0.123-0.173-0.184-0.259c-0.062-0.086-0.123-0.173-0.185-0.26s-0.123-0.173-0.185-0.26
	c-0.062-0.087-0.124-0.174-0.185-0.261s-0.124-0.174-0.185-0.261s-0.124-0.174-0.185-0.261c-0.062-0.087-0.124-0.174-0.185-0.261
	c-0.062-0.087-0.124-0.174-0.185-0.261c-0.062-0.087-0.123-0.174-0.185-0.261c-0.062-0.087-0.123-0.174-0.185-0.261
	s-0.123-0.174-0.184-0.26c-0.061-0.087-0.122-0.173-0.184-0.26c-0.061-0.086-0.122-0.173-0.183-0.259
	c-0.061-0.086-0.122-0.172-0.182-0.258c-0.061-0.086-0.121-0.172-0.181-0.257c-0.06-0.086-0.12-0.171-0.18-0.256
	c-0.06-0.085-0.12-0.17-0.179-0.255c-0.06-0.085-0.119-0.17-0.178-0.254c-0.059-0.084-0.118-0.169-0.177-0.253
	c-0.059-0.084-0.117-0.168-0.176-0.251s-0.116-0.167-0.174-0.25c-0.058-0.083-0.115-0.166-0.173-0.248
	c-0.057-0.082-0.114-0.164-0.171-0.246c-0.057-0.082-0.113-0.163-0.169-0.244s-0.112-0.162-0.168-0.242
	c-0.056-0.08-0.111-0.16-0.166-0.24c-0.055-0.08-0.109-0.159-0.164-0.238c-0.054-0.079-0.108-0.157-0.162-0.235
	c-0.053-0.078-0.107-0.155-0.159-0.233c-0.053-0.077-0.105-0.154-0.157-0.23c-0.052-0.076-0.104-0.152-0.155-0.227
	c-0.051-0.075-0.102-0.15-0.152-0.224c-0.05-0.074-0.1-0.148-0.15-0.221c-0.049-0.073-0.098-0.146-0.147-0.218
	c-0.049-0.072-0.097-0.144-0.144-0.215s-0.095-0.141-0.141-0.211c-0.047-0.07-0.093-0.139-0.138-0.208
	c-0.046-0.069-0.091-0.137-0.135-0.204c-0.045-0.067-0.089-0.134-0.132-0.201c-0.044-0.066-0.087-0.132-0.129-0.197
	c-0.042-0.065-0.084-0.129-0.126-0.193c-0.041-0.064-0.082-0.126-0.122-0.189s-0.08-0.124-0.119-0.184s-0.077-0.121-0.115-0.18
	c-0.038-0.059-0.075-0.118-0.111-0.176c-0.036-0.058-0.072-0.115-0.108-0.171c-0.035-0.056-0.07-0.112-0.104-0.166
	s-0.067-0.108-0.1-0.161c-0.033-0.053-0.064-0.105-0.096-0.157s-0.062-0.102-0.091-0.152c-0.03-0.05-0.059-0.098-0.087-0.146
	c-0.028-0.048-0.056-0.095-0.083-0.141c-0.027-0.046-0.053-0.091-0.078-0.136c-0.025-0.044-0.05-0.088-0.074-0.13
	c-0.024-0.042-0.047-0.084-0.069-0.124s-0.044-0.08-0.064-0.119c-0.021-0.039-0.04-0.076-0.059-0.113
	c-0.019-0.037-0.037-0.072-0.054-0.107c-0.017-0.035-0.034-0.068-0.049-0.101c-0.016-0.033-0.03-0.064-0.044-0.094
	s-0.027-0.06-0.039-0.088c-0.012-0.028-0.023-0.056-0.034-0.082c-0.01-0.026-0.02-0.051-0.028-0.075
	c-0.008-0.024-0.016-0.047-0.023-0.068c-0.007-0.022-0.012-0.042-0.017-0.061c-0.005-0.019-0.008-0.038-0.011-0.055
	c-0.003-0.017-0.005-0.033-0.005-0.047c-0.001-0.015-0.001-0.028,0-0.04c0.001-0.012,0.003-0.023,0.006-0.033
	c0.003-0.01,0.007-0.018,0.013-0.026c0.005-0.007,0.011-0.013,0.019-0.018c0.007-0.005,0.016-0.008,0.025-0.01
	c0.011-0.003,0.023-0.004,0.036-0.003c0.013,0,0.027,0.002,0.042,0.006c0.015,0.003,0.03,0.008,0.047,0.014
	c0.016,0.006,0.034,0.014,0.052,0.023s0.037,0.019,0.057,0.031c0.02,0.012,0.041,0.025,0.062,0.039s0.044,0.03,0.067,0.047
	s0.047,0.036,0.072,0.055c0.025,0.02,0.05,0.041,0.077,0.063c0.026,0.022,0.053,0.046,0.081,0.071
	c0.028,0.025,0.057,0.051,0.086,0.078c0.029,0.027,0.06,0.056,0.09,0.086c0.031,0.03,0.063,0.061,0.095,0.093
	c0.032,0.032,0.065,0.066,0.099,0.1c0.034,0.035,0.068,0.07,0.104,0.107c0.035,0.037,0.071,0.075,0.108,0.114
	c0.037,0.039,0.074,0.079,0.112,0.121c0.038,0.041,0.077,0.084,0.116,0.127c0.039,0.044,0.079,0.088,0.12,0.134
	c0.041,0.046,0.082,0.092,0.124,0.14c0.042,0.048,0.084,0.096,0.127,0.146c0.043,0.05,0.087,0.101,0.131,0.152
	c0.044,0.052,0.089,0.104,0.135,0.158s0.091,0.108,0.138,0.164c0.047,0.056,0.094,0.112,0.141,0.169
	c0.048,0.057,0.096,0.116,0.145,0.175s0.098,0.119,0.148,0.18s0.1,0.123,0.151,0.186c0.051,0.063,0.102,0.126,0.154,0.191
	c0.052,0.064,0.104,0.13,0.157,0.196c0.053,0.066,0.106,0.133,0.16,0.2c0.054,0.068,0.108,0.136,0.163,0.205
	c0.055,0.069,0.11,0.139,0.166,0.21s0.112,0.142,0.168,0.214c0.057,0.072,0.113,0.145,0.171,0.218
	c0.057,0.073,0.115,0.147,0.173,0.222s0.117,0.15,0.176,0.226c0.059,0.076,0.118,0.153,0.178,0.23c0.06,0.077,0.12,0.155,0.18,0.234
	c0.06,0.079,0.121,0.158,0.182,0.237s0.123,0.16,0.184,0.241c0.062,0.081,0.124,0.162,0.186,0.244
	c0.062,0.082,0.125,0.164,0.188,0.247s0.126,0.166,0.19,0.25c0.064,0.084,0.127,0.168,0.192,0.253
	c0.064,0.085,0.129,0.17,0.193,0.256c0.065,0.086,0.13,0.172,0.195,0.258c0.065,0.087,0.131,0.174,0.196,0.261
	c0.066,0.087,0.132,0.175,0.198,0.263s0.132,0.177,0.199,0.265c0.066,0.089,0.133,0.178,0.2,0.267
	c0.067,0.089,0.134,0.179,0.201,0.269c0.067,0.09,0.135,0.18,0.202,0.271s0.135,0.182,0.203,0.273
	c0.068,0.091,0.136,0.183,0.204,0.274c0.068,0.092,0.136,0.184,0.205,0.276c0.068,0.092,0.137,0.184,0.205,0.277
	s0.137,0.185,0.206,0.278c0.069,0.093,0.138,0.186,0.207,0.279c0.069,0.093,0.138,0.186,0.207,0.28s0.138,0.187,0.207,0.28
	c0.069,0.094,0.138,0.187,0.208,0.281c0.069,0.094,0.138,0.188,0.208,0.281c0.069,0.094,0.139,0.188,0.208,0.282
	c0.069,0.094,0.139,0.188,0.208,0.282c0.069,0.094,0.138,0.188,0.208,0.282c0.069,0.094,0.138,0.188,0.208,0.282
	c0.069,0.094,0.138,0.188,0.207,0.281s0.138,0.187,0.207,0.281c0.069,0.094,0.138,0.187,0.206,0.28
	c0.069,0.093,0.137,0.187,0.206,0.28s0.137,0.186,0.205,0.279c0.068,0.093,0.137,0.185,0.205,0.278
	c0.068,0.092,0.136,0.185,0.204,0.277c0.068,0.092,0.136,0.184,0.203,0.276c0.068,0.092,0.135,0.183,0.202,0.274
	c0.067,0.091,0.134,0.182,0.201,0.273c0.067,0.091,0.134,0.181,0.2,0.271c0.066,0.09,0.133,0.18,0.199,0.269
	c0.066,0.089,0.132,0.179,0.197,0.267c0.066,0.089,0.131,0.177,0.196,0.265c0.065,0.088,0.13,0.176,0.195,0.263
	s0.129,0.174,0.193,0.261c0.064,0.087,0.128,0.173,0.192,0.258c0.064,0.086,0.127,0.171,0.19,0.256
	c0.063,0.085,0.126,0.169,0.188,0.253s0.124,0.167,0.186,0.25c0.062,0.083,0.123,0.165,0.184,0.247
	c0.061,0.082,0.122,0.163,0.182,0.244s0.12,0.161,0.18,0.241c0.06,0.08,0.119,0.159,0.178,0.237
	c0.059,0.078,0.117,0.156,0.175,0.234s0.116,0.154,0.173,0.23c0.057,0.076,0.114,0.151,0.171,0.226
	c0.056,0.075,0.112,0.149,0.168,0.222c0.056,0.073,0.111,0.146,0.165,0.218c0.055,0.072,0.109,0.143,0.163,0.214
	c0.054,0.07,0.107,0.14,0.16,0.209s0.105,0.137,0.157,0.205c0.052,0.067,0.103,0.134,0.154,0.2c0.051,0.066,0.101,0.131,0.151,0.195
	c0.05,0.064,0.099,0.128,0.148,0.19s0.097,0.124,0.144,0.185c0.048,0.061,0.095,0.121,0.141,0.18
	c0.046,0.059,0.092,0.117,0.138,0.175c0.045,0.057,0.09,0.114,0.134,0.169c0.044,0.055,0.088,0.11,0.131,0.164
	c0.043,0.054,0.085,0.106,0.127,0.158c0.042,0.052,0.083,0.102,0.123,0.152c0.04,0.05,0.08,0.098,0.119,0.146
	c0.039,0.048,0.078,0.094,0.115,0.14c0.038,0.046,0.075,0.09,0.111,0.133c0.036,0.043,0.072,0.086,0.107,0.127
	s0.069,0.081,0.103,0.12c0.034,0.039,0.067,0.077,0.099,0.114c0.032,0.037,0.064,0.072,0.095,0.107
	c0.031,0.034,0.061,0.068,0.09,0.1s0.058,0.063,0.086,0.093c0.028,0.03,0.055,0.058,0.081,0.085
	c0.026,0.027,0.052,0.053,0.076,0.078s0.048,0.048,0.072,0.07c0.023,0.022,0.045,0.043,0.067,0.063
	c0.021,0.02,0.042,0.038,0.062,0.055s0.039,0.033,0.057,0.047s0.035,0.027,0.052,0.039c0.016,0.012,0.032,0.022,0.046,0.031
	s0.028,0.016,0.041,0.022c0.013,0.006,0.025,0.011,0.036,0.014c0.017,0.005,0.033,0.008,0.048,0.011
	c0.015,0.002,0.029,0.004,0.043,0.004c0.014,0,0.026-0.001,0.038-0.003c0.012-0.002,0.023-0.006,0.033-0.01
	c0.01-0.005,0.02-0.01,0.029-0.017s0.017-0.015,0.024-0.023c0.007-0.009,0.014-0.019,0.02-0.03c0.006-0.011,0.011-0.023,0.015-0.036
	s0.008-0.027,0.011-0.043s0.005-0.032,0.007-0.049s0.002-0.036,0.002-0.055s0-0.04-0.002-0.061
	c-0.001-0.021-0.003-0.044-0.006-0.067c-0.003-0.023-0.006-0.047-0.01-0.073c-0.004-0.025-0.008-0.051-0.013-0.078
	c-0.005-0.027-0.011-0.055-0.017-0.084c-0.006-0.029-0.013-0.059-0.021-0.089c-0.008-0.031-0.016-0.062-0.025-0.094
	c-0.009-0.032-0.018-0.066-0.028-0.1c-0.01-0.034-0.021-0.069-0.032-0.105c-0.011-0.036-0.023-0.072-0.035-0.11
	c-0.012-0.037-0.025-0.076-0.038-0.115c-0.013-0.039-0.027-0.079-0.042-0.119c-0.014-0.041-0.029-0.082-0.045-0.124
	c-0.015-0.042-0.031-0.085-0.048-0.128c-0.016-0.044-0.033-0.088-0.051-0.133c-0.017-0.045-0.035-0.091-0.054-0.137
	c-0.018-0.046-0.037-0.094-0.057-0.141c-0.019-0.048-0.039-0.096-0.059-0.145s-0.041-0.099-0.062-0.149
	c-0.021-0.05-0.043-0.102-0.065-0.153s-0.044-0.104-0.067-0.157c-0.023-0.053-0.046-0.106-0.07-0.161
	c-0.024-0.054-0.048-0.109-0.072-0.164c-0.024-0.055-0.049-0.111-0.074-0.168c-0.025-0.056-0.051-0.113-0.077-0.171
	c-0.026-0.057-0.052-0.115-0.079-0.174c-0.027-0.059-0.053-0.118-0.081-0.177c-0.027-0.06-0.055-0.12-0.083-0.18
	c-0.028-0.06-0.056-0.121-0.085-0.183c-0.028-0.061-0.057-0.123-0.086-0.186c-0.029-0.062-0.058-0.125-0.088-0.188
	s-0.06-0.127-0.09-0.191c-0.03-0.064-0.061-0.128-0.091-0.193c-0.031-0.065-0.062-0.13-0.093-0.195s-0.063-0.131-0.094-0.198
	c-0.032-0.066-0.064-0.133-0.096-0.2s-0.064-0.134-0.097-0.202c-0.033-0.068-0.065-0.135-0.098-0.204
	c-0.033-0.068-0.066-0.137-0.099-0.205s-0.067-0.138-0.1-0.207c-0.034-0.069-0.067-0.139-0.101-0.208
	c-0.034-0.07-0.068-0.14-0.102-0.21c-0.034-0.07-0.068-0.141-0.103-0.211c-0.034-0.071-0.069-0.141-0.104-0.212
	s-0.069-0.142-0.104-0.213s-0.07-0.143-0.105-0.214c-0.035-0.072-0.07-0.143-0.105-0.215c-0.035-0.072-0.07-0.144-0.106-0.216
	c-0.035-0.072-0.071-0.144-0.106-0.217c-0.035-0.072-0.071-0.145-0.106-0.217c-0.035-0.072-0.071-0.145-0.106-0.217
	c-0.035-0.073-0.071-0.145-0.106-0.218c-0.035-0.073-0.071-0.145-0.106-0.218c-0.035-0.073-0.071-0.145-0.106-0.218
	s-0.071-0.145-0.106-0.218s-0.071-0.145-0.106-0.218s-0.07-0.145-0.106-0.218c-0.035-0.072-0.07-0.145-0.105-0.217
	c-0.035-0.072-0.07-0.145-0.105-0.217c-0.035-0.072-0.07-0.144-0.104-0.216s-0.069-0.144-0.104-0.215
	c-0.034-0.072-0.069-0.143-0.103-0.215c-0.034-0.071-0.068-0.143-0.102-0.214s-0.068-0.142-0.101-0.213
	c-0.034-0.071-0.067-0.141-0.1-0.211c-0.033-0.07-0.066-0.14-0.099-0.21s-0.066-0.139-0.098-0.209s-0.065-0.138-0.097-0.207
	s-0.064-0.137-0.096-0.206c-0.032-0.068-0.063-0.136-0.094-0.204c-0.031-0.068-0.062-0.135-0.093-0.202s-0.061-0.134-0.091-0.2
	c-0.03-0.066-0.06-0.132-0.09-0.198c-0.03-0.066-0.059-0.131-0.088-0.196c-0.029-0.065-0.058-0.13-0.087-0.194
	s-0.057-0.128-0.085-0.191c-0.028-0.063-0.056-0.126-0.083-0.189c-0.027-0.063-0.054-0.125-0.081-0.186
	c-0.027-0.062-0.053-0.123-0.079-0.184c-0.026-0.061-0.051-0.121-0.077-0.181c-0.025-0.06-0.05-0.119-0.074-0.178
	c-0.024-0.059-0.048-0.117-0.072-0.175s-0.047-0.115-0.07-0.172s-0.045-0.113-0.067-0.168s-0.044-0.111-0.065-0.165
	s-0.042-0.108-0.062-0.161c-0.02-0.053-0.04-0.106-0.06-0.158s-0.038-0.103-0.057-0.154c-0.018-0.051-0.036-0.101-0.054-0.15
	c-0.017-0.049-0.035-0.098-0.051-0.146c-0.017-0.048-0.033-0.096-0.048-0.142c-0.015-0.047-0.03-0.093-0.045-0.138
	c-0.014-0.045-0.028-0.09-0.042-0.134c-0.013-0.044-0.026-0.087-0.039-0.129c-0.012-0.042-0.024-0.084-0.035-0.125
	c-0.011-0.041-0.022-0.081-0.032-0.12c-0.01-0.039-0.02-0.078-0.028-0.116c-0.009-0.038-0.017-0.075-0.025-0.111
	c-0.008-0.036-0.015-0.071-0.021-0.106c-0.006-0.034-0.012-0.068-0.018-0.101c-0.005-0.033-0.01-0.065-0.014-0.096
	s-0.007-0.061-0.01-0.09s-0.005-0.058-0.006-0.085c-0.001-0.027-0.002-0.054-0.002-0.079s0.001-0.05,0.002-0.074
	s0.004-0.046,0.006-0.068s0.006-0.043,0.011-0.062c0.004-0.02,0.009-0.039,0.015-0.056c0.006-0.018,0.012-0.035,0.019-0.05
	c0.007-0.016,0.015-0.03,0.024-0.044c0.009-0.014,0.018-0.026,0.028-0.038c0.01-0.012,0.021-0.022,0.033-0.031
	s0.024-0.018,0.038-0.025c0.013-0.007,0.028-0.013,0.043-0.018c0.015-0.005,0.031-0.009,0.048-0.012
	c0.017-0.003,0.034-0.004,0.053-0.005c0.018,0,0.038,0,0.058,0.002c0.019,0.002,0.039,0.006,0.059,0.012s0.041,0.015,0.062,0.025
	c0.021,0.011,0.043,0.023,0.065,0.038c0.022,0.015,0.045,0.032,0.069,0.051c0.023,0.019,0.047,0.04,0.072,0.063
	s0.049,0.048,0.075,0.076c0.025,0.027,0.051,0.057,0.078,0.088c0.026,0.031,0.053,0.065,0.081,0.1
	c0.027,0.035,0.055,0.072,0.084,0.111c0.028,0.039,0.057,0.08,0.087,0.123s0.059,0.088,0.09,0.134s0.061,0.095,0.093,0.145
	c0.031,0.05,0.063,0.102,0.096,0.156c0.032,0.054,0.065,0.109,0.099,0.167c0.033,0.057,0.067,0.116,0.101,0.177
	c0.034,0.061,0.069,0.123,0.104,0.187c0.035,0.064,0.071,0.13,0.107,0.197c0.036,0.067,0.073,0.136,0.11,0.207
	c0.037,0.071,0.075,0.143,0.113,0.217c0.038,0.074,0.077,0.149,0.116,0.226c0.039,0.077,0.078,0.155,0.118,0.235
	c0.04,0.08,0.08,0.161,0.121,0.244c0.041,0.083,0.082,0.167,0.124,0.253c0.042,0.086,0.084,0.173,0.126,0.261
	s0.086,0.178,0.129,0.269c0.043,0.091,0.087,0.184,0.132,0.278c0.044,0.094,0.089,0.189,0.134,0.285
	c0.045,0.096,0.091,0.194,0.137,0.293c0.046,0.099,0.093,0.199,0.139,0.301c0.047,0.101,0.094,0.204,0.142,0.308
	c0.048,0.104,0.096,0.209,0.144,0.315s0.098,0.213,0.147,0.322c0.049,0.108,0.099,0.218,0.149,0.328
	c0.05,0.11,0.101,0.222,0.152,0.335s0.102,0.226,0.154,0.341s0.104,0.23,0.157,0.347s0.106,0.234,0.159,0.352
	c0.053,0.118,0.107,0.238,0.161,0.358c0.054,0.12,0.109,0.241,0.164,0.363c0.055,0.122,0.11,0.245,0.166,0.368
	c0.056,0.124,0.112,0.248,0.168,0.373c0.057,0.125,0.113,0.251,0.171,0.378c0.057,0.127,0.115,0.254,0.173,0.383
	c0.058,0.128,0.116,0.257,0.175,0.387c0.059,0.13,0.118,0.26,0.177,0.391c0.059,0.131,0.119,0.263,0.179,0.395
	c0.06,0.132,0.121,0.265,0.182,0.398s0.122,0.267,0.184,0.402c0.062,0.134,0.124,0.27,0.186,0.405
	c0.062,0.136,0.125,0.272,0.188,0.408s0.126,0.273,0.19,0.411c0.064,0.137,0.128,0.275,0.192,0.413s0.129,0.277,0.194,0.416
	c0.065,0.139,0.13,0.278,0.196,0.418c0.066,0.14,0.132,0.28,0.198,0.42c0.066,0.14,0.133,0.281,0.2,0.422s0.134,0.282,0.202,0.423
	s0.136,0.283,0.204,0.424s0.137,0.284,0.206,0.426c0.069,0.142,0.138,0.284,0.208,0.426s0.139,0.285,0.209,0.427
	c0.07,0.142,0.141,0.285,0.211,0.428c0.071,0.143,0.142,0.285,0.213,0.428c0.071,0.143,0.143,0.285,0.215,0.428
	c0.072,0.143,0.144,0.285,0.217,0.428c0.072,0.143,0.145,0.285,0.218,0.427c0.073,0.142,0.146,0.285,0.22,0.427
	c0.074,0.142,0.147,0.284,0.222,0.426c0.074,0.142,0.149,0.283,0.223,0.425s0.15,0.283,0.225,0.424
	c0.075,0.141,0.151,0.282,0.226,0.422s0.152,0.281,0.228,0.421c0.076,0.14,0.153,0.28,0.23,0.419s0.154,0.278,0.231,0.417
	s0.155,0.277,0.233,0.414c0.078,0.138,0.156,0.275,0.234,0.412c0.078,0.137,0.157,0.273,0.236,0.409
	c0.079,0.136,0.158,0.271,0.237,0.406c0.079,0.135,0.159,0.269,0.239,0.403s0.16,0.267,0.24,0.4c0.08,0.133,0.161,0.265,0.241,0.396
	c0.081,0.131,0.162,0.262,0.243,0.393c0.081,0.13,0.162,0.26,0.244,0.389s0.163,0.257,0.245,0.384
	c0.082,0.127,0.164,0.254,0.247,0.38c0.082,0.126,0.165,0.251,0.248,0.375c0.083,0.124,0.166,0.248,0.249,0.371
	s0.167,0.245,0.25,0.366c0.084,0.121,0.168,0.241,0.252,0.36c0.084,0.119,0.168,0.237,0.253,0.355
	c0.084,0.117,0.169,0.234,0.254,0.349c0.085,0.115,0.17,0.23,0.255,0.343c0.085,0.113,0.171,0.226,0.256,0.337
	c0.086,0.111,0.171,0.222,0.257,0.331c0.086,0.109,0.172,0.217,0.258,0.324c0.086,0.107,0.173,0.213,0.259,0.318
	c0.087,0.105,0.173,0.208,0.26,0.311s0.174,0.204,0.261,0.304c0.087,0.1,0.175,0.199,0.262,0.296
	c0.088,0.097,0.175,0.194,0.263,0.289c0.088,0.095,0.176,0.189,0.264,0.281s0.177,0.183,0.265,0.273
	c0.089,0.09,0.177,0.178,0.266,0.265c0.089,0.087,0.178,0.172,0.267,0.256c0.089,0.084,0.178,0.167,0.268,0.248
	c0.089,0.081,0.179,0.161,0.269,0.239c0.09,0.078,0.179,0.155,0.269,0.23c0.09,0.075,0.18,0.149,0.27,0.22
	c0.09,0.072,0.18,0.142,0.271,0.211c0.09,0.069,0.181,0.136,0.272,0.201c0.091,0.065,0.181,0.129,0.272,0.191
	s0.182,0.123,0.273,0.181c0.091,0.059,0.182,0.116,0.274,0.171c0.091,0.055,0.183,0.109,0.274,0.16
	c0.092,0.052,0.183,0.102,0.275,0.15c0.092,0.048,0.184,0.094,0.275,0.139c0.092,0.044,0.184,0.087,0.276,0.128
	s0.184,0.079,0.277,0.116c0.092,0.037,0.185,0.072,0.277,0.105c0.092,0.033,0.185,0.064,0.278,0.093s0.185,0.056,0.278,0.081
	c0.093,0.025,0.186,0.048,0.279,0.069c0.093,0.021,0.186,0.04,0.279,0.056s0.186,0.031,0.279,0.043
	c0.093,0.012,0.186,0.023,0.28,0.031c0.093,0.008,0.187,0.014,0.28,0.018c0.093,0.004,0.187,0.005,0.28,0.004
	c0.094-0.001,0.187-0.004,0.281-0.009c0.042-0.002,0.084-0.006,0.126-0.012c0.042-0.005,0.084-0.012,0.125-0.02
	c0.042-0.008,0.083-0.018,0.125-0.029s0.083-0.023,0.125-0.037c0.041-0.014,0.083-0.029,0.124-0.045
	c0.041-0.016,0.083-0.034,0.124-0.053s0.082-0.039,0.123-0.061s0.082-0.045,0.123-0.069c0.041-0.024,0.082-0.05,0.123-0.076
	s0.081-0.055,0.122-0.084c0.041-0.029,0.081-0.06,0.122-0.091s0.081-0.064,0.121-0.098c0.04-0.034,0.081-0.069,0.121-0.105
	c0.04-0.036,0.08-0.074,0.12-0.112c0.04-0.039,0.08-0.078,0.12-0.119c0.04-0.041,0.08-0.083,0.12-0.126
	c0.04-0.043,0.08-0.087,0.119-0.132c0.04-0.045,0.079-0.091,0.119-0.139c0.04-0.047,0.079-0.096,0.118-0.145s0.079-0.1,0.118-0.151
	c0.039-0.051,0.078-0.104,0.117-0.157s0.078-0.108,0.117-0.163c0.039-0.055,0.078-0.112,0.117-0.169
	c0.039-0.057,0.078-0.115,0.116-0.174s0.077-0.119,0.116-0.18c0.038-0.061,0.077-0.123,0.115-0.185s0.077-0.126,0.115-0.19
	s0.076-0.129,0.114-0.195c0.038-0.066,0.076-0.133,0.114-0.2c0.038-0.068,0.076-0.136,0.114-0.205
	c0.038-0.069,0.075-0.139,0.113-0.21c0.038-0.071,0.075-0.142,0.113-0.214c0.037-0.072,0.075-0.145,0.112-0.219
	c0.037-0.074,0.075-0.148,0.112-0.223c0.037-0.075,0.074-0.151,0.111-0.227s0.074-0.153,0.111-0.231
	c0.037-0.078,0.074-0.156,0.11-0.235c0.037-0.079,0.073-0.158,0.11-0.238c0.037-0.08,0.073-0.161,0.109-0.242
	s0.073-0.163,0.109-0.245c0.036-0.082,0.072-0.165,0.108-0.249c0.036-0.083,0.072-0.167,0.108-0.252
	c0.036-0.084,0.072-0.169,0.108-0.255c0.036-0.085,0.071-0.171,0.107-0.258s0.071-0.173,0.107-0.26
	c0.035-0.087,0.071-0.175,0.106-0.263c0.035-0.088,0.071-0.177,0.106-0.265c0.035-0.089,0.07-0.178,0.105-0.268
	c0.035-0.09,0.07-0.18,0.105-0.27c0.035-0.09,0.07-0.181,0.104-0.272c0.035-0.091,0.069-0.182,0.104-0.274s0.069-0.184,0.103-0.276
	c0.034-0.092,0.069-0.185,0.103-0.277c0.034-0.093,0.068-0.186,0.102-0.279s0.068-0.187,0.102-0.28s0.068-0.188,0.101-0.282
	c0.034-0.094,0.067-0.188,0.101-0.283c0.034-0.094,0.067-0.189,0.1-0.284c0.033-0.095,0.067-0.19,0.1-0.285
	c0.033-0.095,0.066-0.19,0.099-0.285c0.033-0.095,0.066-0.19,0.099-0.286c0.033-0.095,0.066-0.191,0.098-0.286
	c0.033-0.095,0.065-0.191,0.098-0.287c0.033-0.096,0.065-0.191,0.097-0.287c0.032-0.096,0.065-0.191,0.097-0.287
	c0.032-0.096,0.064-0.191,0.096-0.287s0.064-0.191,0.096-0.286c0.032-0.095,0.064-0.191,0.095-0.286s0.063-0.19,0.095-0.286
	s0.063-0.19,0.094-0.285c0.031-0.095,0.063-0.19,0.094-0.284s0.062-0.189,0.093-0.283s0.062-0.188,0.093-0.282
	c0.031-0.094,0.062-0.187,0.092-0.281c0.031-0.093,0.061-0.187,0.092-0.28c0.03-0.093,0.061-0.186,0.091-0.278
	c0.03-0.092,0.06-0.185,0.091-0.277c0.03-0.092,0.06-0.183,0.09-0.275c0.03-0.091,0.06-0.182,0.09-0.273
	c0.03-0.091,0.059-0.181,0.089-0.271c0.03-0.09,0.059-0.18,0.088-0.269c0.029-0.089,0.059-0.178,0.088-0.266
	s0.058-0.176,0.087-0.264c0.029-0.088,0.058-0.175,0.087-0.262c0.029-0.087,0.058-0.173,0.086-0.259
	c0.029-0.086,0.057-0.171,0.086-0.256c0.029-0.085,0.057-0.169,0.085-0.253c0.028-0.084,0.057-0.167,0.085-0.25
	c0.028-0.083,0.056-0.165,0.084-0.247c0.028-0.082,0.056-0.163,0.084-0.243c0.028-0.081,0.055-0.161,0.083-0.24
	c0.028-0.079,0.055-0.158,0.082-0.236c0.027-0.078,0.055-0.156,0.082-0.232c0.027-0.077,0.054-0.153,0.081-0.229
	c0.027-0.076,0.054-0.15,0.081-0.225c0.027-0.074,0.054-0.148,0.08-0.22c0.027-0.073,0.053-0.145,0.08-0.216
	c0.026-0.071,0.053-0.142,0.079-0.212c0.026-0.07,0.052-0.139,0.079-0.207c0.026-0.068,0.052-0.136,0.078-0.202
	c0.026-0.067,0.052-0.132,0.077-0.197s0.051-0.129,0.077-0.192s0.051-0.126,0.076-0.187s0.051-0.122,0.076-0.182
	c0.025-0.06,0.05-0.119,0.075-0.177c0.025-0.058,0.05-0.115,0.075-0.171s0.049-0.111,0.074-0.165
	c0.025-0.054,0.049-0.107,0.073-0.16c0.024-0.052,0.049-0.103,0.073-0.154c0.024-0.05,0.048-0.099,0.072-0.148
	c0.024-0.048,0.048-0.095,0.072-0.141c0.024-0.046,0.047-0.091,0.071-0.135c0.024-0.044,0.047-0.087,0.07-0.129
	c0.023-0.042,0.047-0.082,0.07-0.122s0.046-0.078,0.069-0.115s0.046-0.073,0.069-0.108s0.046-0.069,0.068-0.101
	c0.023-0.033,0.045-0.064,0.068-0.094c0.022-0.03,0.045-0.059,0.067-0.087c0.022-0.028,0.044-0.054,0.066-0.079
	c0.022-0.025,0.044-0.049,0.066-0.072s0.043-0.044,0.065-0.064s0.043-0.039,0.064-0.056c0.021-0.017,0.043-0.034,0.064-0.048
	c0.021-0.015,0.042-0.028,0.063-0.04c0.021-0.012,0.042-0.023,0.063-0.032c0.021-0.009,0.041-0.017,0.062-0.024
	c0.021-0.006,0.041-0.065,0.061-0.069C14.397-86.944,14.409-87,14.421-87c0.011,0,0.022,0,0.033,0s0.021,0.056,0.03,0.058
	c0.01,0.002,0.019,0.032,0.028,0.035c0.009,0.003,0.017,0.021,0.025,0.026c0.008,0.005,0.016,0.017,0.023,0.023
	c0.007,0.006,0.014,0.016,0.02,0.024c0.006,0.007,0.012,0.017,0.018,0.026c0.006,0.009,0.011,0.019,0.016,0.029
	c0.005,0.01,0.009,0.021,0.013,0.032c0.004,0.011,0.008,0.023,0.011,0.036c0.003,0.012,0.006,0.026,0.009,0.039
	s0.005,0.028,0.007,0.043c0.002,0.015,0.172,0.03,0.174,0.046S15-86.551,15-86.534c0,0.017,0,0.035,0,0.053
	c0,0.018-0.169,0.037-0.17,0.056s-0.086,0.039-0.088,0.059c-0.001,0.02-0.045,0.041-0.048,0.062s-0.026,0.043-0.028,0.065
	c-0.003,0.022-0.016,0.045-0.02,0.068c-0.003,0.023-0.012,0.047-0.016,0.071s-0.011,0.049-0.015,0.074s-0.011,0.051-0.016,0.077
	s-0.011,0.053-0.017,0.08c-0.006,0.027-0.012,0.054-0.018,0.082c-0.006,0.028-0.013,0.056-0.02,0.085s-0.014,0.058-0.021,0.087
	c-0.007,0.029-0.015,0.059-0.023,0.09s-0.016,0.061-0.024,0.092s-0.017,0.062-0.026,0.094c-0.009,0.032-0.018,0.064-0.027,0.096
	s-0.019,0.065-0.028,0.099c-0.01,0.033-0.02,0.067-0.03,0.101c-0.01,0.034-0.021,0.068-0.031,0.103s-0.021,0.069-0.032,0.105
	c-0.011,0.035-0.022,0.071-0.034,0.106c-0.011,0.036-0.023,0.072-0.035,0.108s-0.024,0.073-0.036,0.11
	c-0.012,0.037-0.024,0.074-0.037,0.112c-0.013,0.037-0.025,0.075-0.038,0.113c-0.013,0.038-0.026,0.076-0.039,0.115
	s-0.027,0.077-0.04,0.116c-0.014,0.039-0.027,0.078-0.041,0.117c-0.014,0.039-0.028,0.079-0.042,0.119
	c-0.014,0.04-0.028,0.08-0.043,0.12c-0.014,0.04-0.029,0.081-0.044,0.121c-0.015,0.041-0.029,0.081-0.044,0.122
	c-0.015,0.041-0.03,0.082-0.045,0.123c-0.015,0.041-0.03,0.083-0.046,0.124c-0.015,0.042-0.031,0.083-0.046,0.125
	c-0.016,0.042-0.031,0.084-0.047,0.126c-0.016,0.042-0.032,0.084-0.048,0.127c-0.016,0.042-0.032,0.085-0.048,0.127
	c-0.016,0.043-0.032,0.085-0.049,0.128c-0.016,0.043-0.033,0.086-0.049,0.129c-0.016,0.043-0.033,0.086-0.05,0.129
	s-0.033,0.086-0.05,0.129c-0.017,0.043-0.033,0.086-0.05,0.13c-0.017,0.043-0.034,0.087-0.051,0.13
	c-0.017,0.043-0.034,0.087-0.051,0.13s-0.034,0.087-0.051,0.13c-0.017,0.043-0.034,0.087-0.051,0.13s-0.034,0.087-0.051,0.13
	c-0.017,0.043-0.034,0.087-0.051,0.13c-0.017,0.043-0.034,0.087-0.051,0.13c-0.017,0.043-0.034,0.087-0.051,0.13
	c-0.017,0.043-0.034,0.086-0.051,0.13c-0.017,0.043-0.034,0.086-0.051,0.129c-0.017,0.043-0.034,0.086-0.051,0.129
	c-0.017,0.043-0.034,0.086-0.051,0.128s-0.034,0.085-0.051,0.128c-0.017,0.042-0.034,0.085-0.051,0.127
	c-0.017,0.042-0.034,0.084-0.05,0.126c-0.017,0.042-0.033,0.084-0.05,0.125c-0.017,0.042-0.033,0.083-0.05,0.125
	s-0.033,0.083-0.049,0.124s-0.033,0.082-0.049,0.123c-0.016,0.041-0.032,0.081-0.049,0.122s-0.032,0.08-0.048,0.12
	s-0.032,0.08-0.047,0.119s-0.031,0.079-0.047,0.118s-0.031,0.078-0.046,0.117s-0.031,0.077-0.046,0.115
	c-0.015,0.038-0.03,0.076-0.045,0.114c-0.015,0.038-0.03,0.075-0.044,0.112c-0.015,0.037-0.029,0.074-0.043,0.111
	c-0.014,0.037-0.029,0.073-0.043,0.109c-0.014,0.036-0.028,0.072-0.042,0.107c-0.014,0.035-0.027,0.07-0.041,0.105
	s-0.027,0.069-0.04,0.103c-0.013,0.034-0.026,0.068-0.039,0.101c-0.013,0.033-0.025,0.067-0.038,0.099
	c-0.012,0.033-0.025,0.065-0.037,0.097c-0.012,0.032-0.024,0.064-0.036,0.095c-0.012,0.031-0.023,0.062-0.034,0.093
	c-0.011,0.031-0.022,0.061-0.033,0.09c-0.011,0.03-0.022,0.059-0.032,0.088c-0.01,0.029-0.021,0.058-0.031,0.086
	c-0.01,0.028-0.02,0.056-0.029,0.083c-0.01,0.027-0.019,0.054-0.028,0.081c-0.009,0.026-0.018,0.052-0.027,0.078
	c-0.009,0.025-0.017,0.051-0.025,0.075c-0.008,0.025-0.016,0.049-0.024,0.072c-0.008,0.024-0.015,0.047-0.022,0.069
	s-0.014,0.045-0.021,0.066c-0.007,0.022-0.013,0.043-0.019,0.063c-0.006,0.021-0.012,0.041-0.018,0.06
	c-0.006,0.02-0.011,0.039-0.016,0.057c-0.005,0.019-0.01,0.037-0.014,0.054s-0.009,0.034-0.012,0.051
	c-0.004,0.016-0.007,0.032-0.011,0.047c-0.003,0.015-0.006,0.03-0.009,0.044c-0.003,0.014-0.005,0.028-0.007,0.04
	c-0.002,0.013-0.004,0.025-0.005,0.037c-0.001,0.012-0.095,0.023-0.096,0.033C11.093-76.38,11-76.37,11-76.361s0,0.018,0,0.026
	s0.095,0.015,0.096,0.022c0.001,0.007,0.05,0.013,0.052,0.018c0.002,0.005,0.028,0.01,0.031,0.014s0.018,0.007,0.021,0.01
	c0.004,0.003,0.013,0.005,0.018,0.006c0.004,0.001,0.012,0.002,0.017,0.002s0.012-0.001,0.018-0.003
	c0.006-0.002,0.013-0.004,0.019-0.007c0.007-0.003,0.014-0.007,0.021-0.012s0.015-0.01,0.024-0.016
	c0.008-0.006,0.017-0.013,0.026-0.02c0.009-0.007,0.019-0.015,0.029-0.024c0.01-0.009,0.021-0.018,0.033-0.028
	c0.011-0.01,0.023-0.021,0.036-0.032c0.012-0.011,0.026-0.023,0.039-0.036c0.014-0.013,0.028-0.026,0.042-0.04
	c0.015-0.014,0.03-0.028,0.045-0.044c0.016-0.015,0.032-0.031,0.048-0.047s0.034-0.033,0.051-0.051
	c0.018-0.018,0.036-0.036,0.054-0.054s0.037-0.038,0.057-0.058c0.019-0.02,0.039-0.04,0.06-0.061
	c0.02-0.021,0.041-0.043,0.062-0.065c0.021-0.022,0.043-0.045,0.065-0.068s0.045-0.047,0.068-0.071
	c0.023-0.024,0.047-0.049,0.07-0.074s0.048-0.051,0.073-0.077c0.025-0.026,0.05-0.053,0.075-0.08
	c0.026-0.027,0.052-0.055,0.078-0.083c0.026-0.028,0.053-0.057,0.08-0.086c0.027-0.029,0.055-0.059,0.083-0.089
	s0.056-0.061,0.085-0.092c0.029-0.031,0.058-0.063,0.087-0.095s0.059-0.064,0.089-0.097s0.061-0.066,0.091-0.1
	s0.062-0.068,0.093-0.102c0.031-0.034,0.063-0.069,0.095-0.105c0.032-0.035,0.065-0.071,0.097-0.107
	c0.033-0.036,0.066-0.072,0.099-0.109c0.033-0.037,0.067-0.074,0.101-0.111c0.034-0.037,0.068-0.075,0.103-0.114
	c0.035-0.038,0.07-0.077,0.105-0.116s0.071-0.078,0.107-0.118s0.072-0.079,0.108-0.12c0.036-0.04,0.073-0.081,0.11-0.121
	c0.037-0.041,0.074-0.082,0.111-0.123c0.037-0.041,0.075-0.083,0.113-0.125c0.038-0.042,0.076-0.084,0.114-0.127
	c0.038-0.042,0.077-0.085,0.116-0.128s0.078-0.086,0.117-0.13c0.039-0.044,0.079-0.087,0.118-0.131
	c0.04-0.044,0.079-0.088,0.12-0.133c0.04-0.044,0.08-0.089,0.121-0.134s0.081-0.09,0.122-0.135c0.041-0.045,0.082-0.091,0.123-0.137
	c0.041-0.046,0.082-0.092,0.124-0.138c0.041-0.046,0.083-0.092,0.125-0.139c0.042-0.046,0.084-0.093,0.126-0.14
	c0.042-0.047,0.084-0.094,0.127-0.141s0.085-0.094,0.128-0.142c0.043-0.047,0.085-0.095,0.128-0.142
	c0.043-0.048,0.086-0.095,0.129-0.143c0.043-0.048,0.086-0.096,0.13-0.144c0.043-0.048,0.087-0.096,0.13-0.144
	c0.044-0.048,0.087-0.096,0.131-0.145c0.044-0.048,0.088-0.097,0.131-0.145c0.044-0.049,0.088-0.097,0.132-0.146
	s0.088-0.097,0.132-0.146c0.044-0.049,0.088-0.097,0.133-0.146c0.044-0.049,0.089-0.098,0.133-0.146s0.089-0.098,0.133-0.147
	s0.089-0.098,0.133-0.147s0.089-0.098,0.134-0.147c0.045-0.049,0.089-0.098,0.134-0.147c0.045-0.049,0.089-0.098,0.134-0.146
	c0.045-0.049,0.089-0.098,0.134-0.146c0.045-0.049,0.089-0.097,0.134-0.146c0.045-0.049,0.089-0.097,0.134-0.146
	s0.089-0.097,0.133-0.145c0.044-0.048,0.089-0.097,0.133-0.145c0.044-0.048,0.089-0.096,0.133-0.144
	c0.044-0.048,0.088-0.096,0.133-0.144c0.044-0.048,0.088-0.095,0.132-0.143s0.088-0.095,0.132-0.142
	c0.044-0.047,0.088-0.094,0.131-0.141c0.044-0.047,0.087-0.094,0.131-0.14c0.044-0.047,0.087-0.093,0.13-0.14
	c0.043-0.046,0.087-0.093,0.13-0.138c0.043-0.046,0.086-0.092,0.129-0.137s0.086-0.091,0.128-0.136
	c0.043-0.045,0.085-0.09,0.127-0.135c0.042-0.045,0.085-0.089,0.127-0.134c0.042-0.044,0.084-0.089,0.126-0.132
	c0.042-0.044,0.083-0.088,0.125-0.131c0.041-0.043,0.083-0.087,0.124-0.13c0.041-0.043,0.082-0.086,0.123-0.128
	c0.041-0.042,0.081-0.085,0.122-0.126s0.081-0.083,0.12-0.125c0.04-0.041,0.08-0.082,0.119-0.123
	c0.04-0.041,0.079-0.081,0.118-0.121c0.039-0.04,0.078-0.08,0.117-0.119c0.039-0.039,0.077-0.078,0.115-0.117
	s0.076-0.077,0.114-0.115c0.038-0.038,0.075-0.076,0.113-0.113s0.074-0.074,0.111-0.111c0.037-0.037,0.073-0.073,0.109-0.109
	c0.036-0.036,0.072-0.071,0.108-0.106c0.036-0.035,0.071-0.07,0.106-0.104c0.035-0.034,0.07-0.068,0.104-0.102
	c0.035-0.033,0.069-0.067,0.103-0.099s0.068-0.065,0.101-0.097s0.066-0.063,0.099-0.094c0.033-0.031,0.065-0.061,0.097-0.091
	c0.032-0.03,0.064-0.06,0.095-0.089c0.031-0.029,0.062-0.058,0.093-0.086c0.031-0.028,0.061-0.056,0.091-0.083
	s0.06-0.054,0.089-0.08s0.058-0.052,0.087-0.077c0.029-0.025,0.057-0.05,0.084-0.074c0.028-0.024,0.055-0.048,0.082-0.071
	c0.027-0.023,0.054-0.045,0.08-0.067c0.026-0.022,0.052-0.043,0.077-0.064c0.025-0.021,0.05-0.041,0.075-0.061
	c0.025-0.02,0.049-0.039,0.072-0.057c0.024-0.019,0.047-0.036,0.07-0.054c0.023-0.017,0.045-0.034,0.067-0.05
	c0.022-0.016,0.044-0.032,0.065-0.047c0.021-0.015,0.042-0.029,0.062-0.043c0.02-0.014,0.04-0.027,0.059-0.039
	s0.038-0.024,0.056-0.035c0.018-0.011,0.036-0.022,0.053-0.031c0.017-0.01,0.034-0.019,0.051-0.027
	c0.016-0.008,0.032-0.016,0.048-0.023s0.03-0.014,0.045-0.019c0.014-0.006,0.028-0.011,0.042-0.015s0.026-0.008,0.038-0.011
	c0.012-0.003,0.024-0.005,0.035-0.007C23.876-89.188,23.887-89.189,23.897-89.189z"/>
</svg>
