<?xml version="1.0" encoding="utf-8"?>
<!-- Generator: Adobe Illustrator 19.0.0, SVG Export Plug-In . SVG Version: 6.00 Build 0)  -->
<svg version="1.1" id="Camada_1" xmlns="http://www.w3.org/2000/svg" xmlns:xlink="http://www.w3.org/1999/xlink" x="0px" y="0px"
	 width="14400px" height="14400px" viewBox="0 0 14400 14400" enable-background="new 0 0 14400 14400" xml:space="preserve">
<path id="XMLID_378_" fill="#654E28" d="M6240.5,6661.849c0,0.004-0.055,0.007-0.076,0.011s-0.053,0.007-0.036,0.011
	c0.017,0.003,0.009,0.007,0.005,0.011c-0.004,0.004-0.017,0.007-0.017,0.011c0,0.003-0.002,0.007,0.002,0.011
	c0.004,0.003,0.012,0.007,0.029,0.011c0.017,0.003,0.055,0.007,0.059,0.011c0.004,0.004,0.034,0.008,0.034,0.012s0,0.008,0,0.012
	s0,0.008,0,0.012c0,0.004,0,0.008,0,0.012s0,0.008,0,0.012s0,0.008,0,0.012c0,0.004,0,0.008,0,0.013c0,0.004,0,0.008,0,0.012
	c0,0.004,0,0.009,0,0.013c0,0.004,0,0.009,0,0.013c0,0.004,0,0.008,0,0.013s0,0.009,0,0.013s0,0.009,0,0.013s0,0.009,0,0.013
	s0,0.009,0,0.013s0,0.009,0,0.014s0,0.009,0,0.014c0,0.004-0.039,0.009-0.051,0.014c-0.012,0.004-0.044,0.009-0.061,0.014
	s-0.041,0.009-0.054,0.014c-0.012,0.005-0.024,0.01-0.024,0.014c0,0.005-0.006,0.009-0.012,0.014s-0.016,0.009-0.024,0.014
	s-0.017,0.009-0.023,0.014c-0.006,0.005-0.011,0.01-0.011,0.015c0,0.004-0.002,0.009-0.005,0.014s-0.007,0.01-0.011,0.015
	c-0.004,0.005-0.008,0.01-0.011,0.015s-0.005,0.01-0.005,0.015c0,0.005-0.001,0.01-0.002,0.015s-0.003,0.01-0.005,0.015
	s0.15,0.01,0.148,0.015c-0.001,0.005,0.152,0.01,0.152,0.015s0,0.01,0,0.015s0.001,0.01,0,0.015c-0.001,0.005,0,0.01,0,0.015
	c0,0.005,0,0.01,0,0.016c0,0.005-0.125,0.01-0.093,0.015c0.032,0.005-0.015,0.01-0.016,0.015c0,0.005,0.022,0.01,0.054,0.015
	c0.032,0.005,0.055,0.01,0.055,0.016c0,0.005,0,0.01,0,0.015c0,0.005,0,0.01,0,0.016c0,0.005,0,0.01,0,0.015
	c0,0.005,0,0.011,0,0.016c0,0.005,0,0.01,0,0.016c0,0.005,0,0.01,0,0.016c0,0.005-0.062,0.01-0.094,0.016
	c-0.032,0.005-0.079,0.01-0.078,0.016c0,0.005-0.023,0.01-0.039,0.016c-0.016,0.005-0.035,0.01-0.035,0.016
	c0,0.005-0.01,0.01-0.018,0.016c-0.008,0.005-0.017,0.01-0.016,0.016c0,0.005-0.004,0.01-0.008,0.016
	c-0.004,0.005-0.008,0.01-0.008,0.016s-0.002,0.01-0.003,0.016c-0.002,0.005-0.004,0.01-0.003,0.016
	c0,0.005,0.152,0.011,0.151,0.016c0,0.005,0.151,0.011,0.151,0.016c0,0.005,0,0.011,0,0.016c0,0.005,0,0.01,0,0.016
	c0,0.005,0,0.01,0,0.016c0,0.005,0,0.01,0,0.016c0,0.005,0,0.01,0,0.016c0,0.005,0,0.01,0,0.016c0,0.005,0,0.01,0,0.016
	c0,0.005,0,0.01,0,0.016c0,0.005,0,0.01,0,0.015c0,0.005,0,0.011,0,0.016c0,0.005,0,0.01,0,0.016s0,0.01,0,0.016
	c0,0.005,0,0.01,0,0.015c0,0.005,0,0.01,0,0.016c0,0.005,0,0.01,0,0.015c0,0.005,0,0.01,0,0.015c0,0.005,0,0.01,0,0.016
	c0,0.005,0,0.01,0,0.015s0,0.01,0,0.015s0,0.01,0,0.015s0,0.01,0,0.015c0,0.005,0,0.01,0,0.015c0,0.005,0,0.01,0,0.015
	s0,0.01,0,0.015s0,0.01,0,0.015s0,0.01,0,0.015s0,0.01,0,0.015s0,0.01,0,0.015s0,0.009,0,0.014s0,0.01,0,0.015s0,0.009,0,0.014
	s0,0.01,0,0.014c0,0.005,0,0.01,0,0.014c0,0.005,0,0.01,0,0.014c0,0.005,0,0.009,0,0.014c0,0.004,0,0.009,0,0.014
	c0,0.005,0,0.009,0,0.014c0,0.004,0,0.009,0,0.014c0,0.004-0.141,0.009-0.138,0.014c0.003,0.004-0.064,0.009-0.059,0.013
	s-0.024,0.009-0.018,0.014c0.006,0.004-0.004,0.009,0.002,0.013c0.007,0.004,0.005,0.009,0.012,0.013
	c0.006,0.004,0.008,0.009,0.013,0.013c0.005,0.004,0.008,0.009,0.011,0.013c0.003,0.004,0.004,0.009,0.004,0.013
	c0,0.004,0.001,0.009,0.005,0.013c0.003,0.004,0.007,0.008,0.012,0.013c0.005,0.004,0.011,0.008,0.018,0.012
	c0.006,0.004,0.014,0.008,0.021,0.013c0.007,0.004,0.014,0.008,0.021,0.012c0.007,0.004,0.013,0.008,0.018,0.012
	s0.04,0.008,0.043,0.012c0.003,0.004,0.035,0.008,0.035,0.012s0,0.008,0,0.011c0,0.004,0,0.008,0,0.012s0,0.007,0,0.011
	s0,0.007,0,0.011s0,0.007,0,0.011c0,0.003,0,0.007,0,0.011c0,0.003,0,0.007,0,0.011c0,0.003,0,0.007,0,0.01
	c0,0.005-0.032,0.01-0.035,0.016c-0.003,0.005-0.022,0.01-0.027,0.015c-0.005,0.005-0.019,0.01-0.026,0.015
	c-0.006,0.005-0.017,0.01-0.024,0.015c-0.007,0.005-0.016,0.01-0.022,0.015s-0.014,0.01-0.019,0.015s-0.011,0.01-0.014,0.015
	c-0.003,0.005-0.005,0.01-0.006,0.015c0,0.004-0.001,0.009-0.003,0.014c-0.002,0.004-0.004,0.009-0.007,0.014
	c-0.003,0.004-0.006,0.009-0.01,0.014c-0.003,0.005-0.007,0.01-0.011,0.014s-0.008,0.009-0.011,0.014
	c-0.003,0.005-0.007,0.009-0.01,0.014c-0.003,0.005-0.005,0.009-0.007,0.014s-0.003,0.009-0.003,0.014
	c0,0.004-0.001,0.009-0.002,0.013s-0.003,0.009-0.004,0.013c-0.002,0.004-0.003,0.009-0.006,0.013
	c-0.002,0.004-0.004,0.009-0.006,0.013c-0.002,0.004-0.004,0.008-0.006,0.013s-0.004,0.009-0.006,0.013
	c-0.002,0.004-0.003,0.008-0.004,0.013c-0.001,0.004-0.002,0.008-0.003,0.013c0,0.004-0.001,0.008-0.002,0.012
	c-0.001,0.004-0.002,0.009-0.003,0.013c-0.001,0.004-0.002,0.008-0.004,0.013c-0.001,0.004-0.003,0.008-0.004,0.012
	c-0.001,0.004-0.003,0.008-0.004,0.012s-0.003,0.008-0.004,0.012c-0.001,0.004-0.002,0.008-0.003,0.012
	c-0.001,0.004-0.002,0.008-0.002,0.012s-0.001,0.008-0.002,0.012c0,0.004-0.001,0.008-0.002,0.012s-0.002,0.008-0.003,0.012
	c-0.001,0.004-0.002,0.008-0.003,0.012s-0.002,0.008-0.003,0.012s-0.002,0.008-0.003,0.012s-0.002,0.008-0.003,0.012
	s-0.001,0.008-0.002,0.011c0,0.004-0.001,0.008-0.002,0.012c-0.001,0.004-0.002,0.007-0.003,0.011c0,0.004-0.001,0.008-0.002,0.012
	c-0.001,0.003-0.002,0.007-0.003,0.011c-0.001,0.003-0.002,0.007-0.003,0.011c0,0.003-0.001,0.007-0.002,0.011
	c-0.001,0.003-0.002,0.007-0.002,0.011c-0.001,0.003-0.002,0.007-0.002,0.011c-0.001,0.003-0.001,0.007-0.002,0.011
	c-0.001,0.004-0.001,0.007-0.002,0.011s-0.002,0.007-0.002,0.011c-0.001,0.003-0.002,0.007-0.003,0.011
	c0,0.004-0.001,0.007-0.002,0.011c-0.001,0.003-0.001,0.007-0.002,0.011c-0.001,0.004-0.002,0.007-0.002,0.011
	c-0.001,0.003-0.002,0.007-0.002,0.011c-0.001,0.004-0.001,0.007-0.002,0.011c0,0.004-0.001,0.007-0.002,0.011
	c0,0.003-0.001,0.007-0.002,0.011c0,0.004-0.001,0.007-0.002,0.011c0,0.004-0.001,0.007-0.002,0.011
	c0,0.003-0.001,0.007-0.002,0.011c0,0.003-0.001,0.007-0.002,0.011c0,0.003-0.001,0.007-0.002,0.011
	c-0.001,0.004-0.001,0.007-0.002,0.011c-0.001,0.003-0.001,0.007-0.002,0.011c0,0.003-0.001,0.007-0.002,0.011
	c-0.001,0.003-0.002,0.007-0.002,0.011c-0.001,0.004-0.001,0.007-0.002,0.011c0,0.003-0.001,0.007-0.002,0.011
	c0,0.003-0.001,0.007-0.002,0.011c-0.001,0.004-0.001,0.007-0.002,0.011c0,0.004-0.001,0.007-0.002,0.011
	c-0.001,0.003-0.001,0.007-0.002,0.011c-0.001,0.004-0.001,0.007-0.002,0.011c0,0.003-0.001,0.007-0.002,0.011
	c-0.001,0.004-0.001,0.007-0.002,0.011c0,0.003-0.001,0.007-0.002,0.011c0,0.003-0.001,0.007-0.002,0.011
	c0,0.004-0.001,0.007-0.002,0.011s-0.001,0.007-0.002,0.011c0,0.003-0.001,0.007-0.002,0.011c0,0.003-0.001,0.007-0.002,0.011
	c0,0.003-0.001,0.007-0.002,0.011c0,0.004-0.001,0.007-0.001,0.011c-0.001,0.004-0.001,0.007-0.002,0.011s-0.001,0.008-0.002,0.012
	c0,0.003-0.001,0.007-0.001,0.011s-0.001,0.008-0.002,0.012s-0.001,0.007-0.001,0.011s-0.001,0.008-0.001,0.012
	s-0.001,0.008-0.001,0.012c-0.001,0.004-0.001,0.008-0.002,0.012s-0.001,0.008-0.001,0.012s0,0.008-0.001,0.012
	s-0.001,0.008-0.001,0.012s-0.001,0.008-0.001,0.012s-0.001,0.008-0.001,0.012c0,0.004-0.001,0.008-0.001,0.012
	c0,0.004,0,0.008-0.001,0.013c0,0.004,0.226,0.008,0.226,0.012c0,0.004,0.226,0.008,0.226,0.012c0,0.004,0,0.008,0,0.013
	c0,0.004,0,0.008,0,0.012c0,0.004,0,0.009,0,0.013c0,0.004-0.5,0.009-0.5,0.013c0,0.004-0.5,0.008-0.5,0.013s0,0.008,0,0.013
	s0.262,0.009,0.249,0.013s0.104,0.009,0.087,0.013s0.033,0.009,0.02,0.013s0.012,0.009,0.012,0.013c0,0.005,0.008,0.009-0.005,0.014
	s-0.022,0.009-0.04,0.014c-0.018,0.004-0.161,0.009-0.174,0.014c-0.013,0.004-0.148,0.009-0.148,0.014c0,0.004,0,0.009,0,0.014
	c0,0.005,0,0.009,0,0.014s0,0.009,0,0.014s0,0.009,0,0.014s0.139,0.01,0.152,0.015s0.096,0.009,0.113,0.014
	c0.018,0.005,0.068,0.01,0.081,0.015s0.039,0.01,0.039,0.015c0,0.005,0.013,0.01,0.02,0.015s0.02,0.01,0.029,0.015
	c0.009,0.005,0.02,0.01,0.026,0.015s0.013,0.01,0.013,0.015c0,0.005,0.003,0.01,0.007,0.016c0.003,0.005,0.008,0.01,0.013,0.015
	c0.005,0.005,0.01,0.01,0.014,0.015c0.003,0.005,0.006,0.01,0.007,0.015s0.002,0.01,0.004,0.015c0.002,0.005,0.005,0.01,0.008,0.015
	s0.005,0.01,0.008,0.015c0.002,0.004,0.004,0.009,0.004,0.014c0.001,0.004,0.002,0.009,0.003,0.014
	c0.001,0.004,0.003,0.009,0.005,0.014c0.001,0.005,0.003,0.009,0.005,0.014c0.002,0.005,0.003,0.009,0.004,0.014
	s0.002,0.009,0.003,0.014c0.001,0.004,0.003,0.009,0.004,0.013s0.003,0.009,0.004,0.013c0.001,0.004,0.002,0.008,0.003,0.013
	s0.002,0.009,0.003,0.013c0.001,0.004,0.002,0.009,0.004,0.013c0.001,0.004,0.002,0.008,0.004,0.013
	c0.001,0.004,0.002,0.008,0.003,0.012c0.001,0.004,0.002,0.008,0.004,0.012c0.001,0.004,0.002,0.008,0.003,0.012
	c0.001,0.004,0.003,0.008,0.004,0.012c0.001,0.004,0.002,0.008,0.004,0.012c0.001,0.004,0.002,0.008,0.004,0.011
	c0.001,0.004,0.002,0.008,0.004,0.012s0.003,0.007,0.004,0.011s0.003,0.007,0.004,0.011s0.003,0.007,0.004,0.011
	c0.001,0.003,0.003,0.007,0.004,0.011c0.001,0.003,0.003,0.007,0.004,0.011c0.002,0.003,0.003,0.007,0.005,0.011
	c0.001,0.003,0.003,0.007,0.005,0.01c0.001,0.003,0.003,0.007,0.005,0.01c0.001,0.003,0.003,0.007,0.005,0.01
	c0.002,0.003,0.003,0.007,0.005,0.01c0.001,0.003,0.003,0.007,0.005,0.01c0.002,0.003,0.003,0.006,0.005,0.01
	c0.002,0.003,0.004,0.006,0.005,0.01c0.002,0.003,0.004,0.006,0.006,0.009c0.002,0.003,0.003,0.007,0.005,0.01
	s0.004,0.006,0.006,0.009c0.002,0.003,0.004,0.006,0.006,0.009c0.002,0.003,0.004,0.006,0.006,0.009
	c0.002,0.003,0.004,0.006,0.006,0.009c0.002,0.003,0.004,0.006,0.006,0.009c0.002,0.003,0.004,0.006,0.006,0.009
	c0.002,0.003,0.004,0.006,0.006,0.009c0.002,0.003,0.004,0.006,0.006,0.009c0.002,0.003,0.004,0.005,0.007,0.008
	c0.002,0.003,0.004,0.006,0.007,0.008c0.002,0.003,0.004,0.006,0.007,0.009c0.002,0.002,0.004,0.005,0.007,0.008
	c0.002,0.003,0.004,0.006,0.007,0.008c0.002,0.003,0.005,0.005,0.007,0.008c0.002,0.002,0.005,0.005,0.007,0.008
	c0.002,0.002,0.005,0.005,0.007,0.008s0.005,0.005,0.008,0.008c0.002,0.002,0.005,0.005,0.007,0.008
	c0.002,0.002,0.005,0.005,0.008,0.007s0.005,0.005,0.008,0.008s0.005,0.005,0.008,0.007c0.003,0.002,0.005,0.005,0.008,0.007
	c0.002,0.002,0.005,0.005,0.008,0.007c0.003,0.002,0.006,0.005,0.008,0.007c0.003,0.002,0.006,0.004,0.008,0.007
	c0.003,0.002,0.006,0.005,0.009,0.007c0.003,0.002,0.005,0.004,0.008,0.007s0.006,0.004,0.009,0.007s0.006,0.004,0.009,0.007
	s0.006,0.004,0.009,0.007s0.006,0.004,0.009,0.007c0.003,0.002,0.006,0.004,0.009,0.006c0.003,0.002,0.006,0.004,0.009,0.007
	c0.003,0.002,0.006,0.004,0.009,0.006c0.003,0.002,0.006,0.004,0.01,0.006c0.003,0.002,0.006,0.004,0.009,0.006
	c0.003,0.002,0.006,0.004,0.01,0.006c0.003,0.002,0.006,0.004,0.01,0.006c0.003,0.002,0.006,0.004,0.01,0.006
	c0.003,0.002,0.006,0.004,0.01,0.006s0.007,0.004,0.01,0.006s0.006,0.004,0.01,0.006s0.007,0.004,0.01,0.006
	s0.007,0.004,0.011,0.006c0.003,0.002,0.007,0.004,0.01,0.006s0.007,0.004,0.01,0.006c0.004,0.002,0.007,0.004,0.011,0.006
	c0.004,0.002,0.007,0.004,0.011,0.006c0.004,0.002,0.007,0.004,0.011,0.006c0.004,0.002,0.007,0.003,0.011,0.005
	c0.003,0.002,0.007,0.004,0.011,0.006c0.003,0.002,0.007,0.004,0.011,0.006c0.004,0.002,0.008,0.004,0.011,0.005
	c0.004,0.002,0.008,0.004,0.012,0.006c0.003,0.002,0.007,0.004,0.011,0.006c0.004,0.001,0.008,0.003,0.012,0.005
	s0.008,0.004,0.012,0.005c0.004,0.002,0.008,0.004,0.012,0.006s0.008,0.003,0.012,0.005s0.008,0.004,0.012,0.005
	c0.004,0.002,0.008,0.004,0.012,0.006c0.004,0.001,0.008,0.003,0.012,0.005s0.008,0.003,0.012,0.005s0.008,0.003,0.012,0.005
	c0.004,0.002,0.008,0.004,0.013,0.005c0.004,0.002,0.008,0.004,0.012,0.005c0.004,0.002,0.009,0.004,0.013,0.006
	c0.004,0.001,0.009,0.003,0.013,0.005c0.004,0.001,0.009,0.003,0.013,0.005c0.004,0.001,0.008,0.003,0.013,0.005
	s0.009,0.003,0.013,0.005s0.008,0.003,0.013,0.005s0.009,0.003,0.014,0.005c0.004,0.002,0.009,0.004,0.013,0.005
	c0.004,0.002,0.009,0.004,0.013,0.005c0.004,0.002,0.009,0.004,0.014,0.006c0.004,0.001,0.009,0.003,0.014,0.005
	c0.004,0.001,0.009,0.003,0.014,0.005c0.004,0.002,0.009,0.003,0.014,0.005s0.009,0.004,0.014,0.005
	c0.005,0.002,0.009,0.004,0.014,0.006c0.005,0.001,0.009,0.003,0.014,0.005c0.004,0.002,0.009,0.004,0.014,0.005
	c0.005,0.002,0.009,0.004,0.014,0.006s0.01,0.003,0.014,0.005c0.005,0.002,0.01,0.004,0.015,0.006s0.01,0.003,0.015,0.005
	c0.01,0.004,0.02,0.008,0.03,0.012c0.01,0.004,0.02,0.008,0.03,0.011c0.01,0.004,0.02,0.008,0.03,0.011
	c0.01,0.004,0.02,0.007,0.029,0.011c0.01,0.004,0.02,0.007,0.029,0.011s0.02,0.007,0.029,0.01c0.009,0.003,0.019,0.007,0.029,0.01
	c0.009,0.003,0.019,0.007,0.028,0.01c0.009,0.003,0.019,0.007,0.028,0.01c0.009,0.003,0.019,0.006,0.028,0.01
	c0.009,0.003,0.019,0.006,0.028,0.009c0.009,0.003,0.019,0.006,0.028,0.009s0.018,0.006,0.027,0.009s0.018,0.006,0.027,0.008
	c0.009,0.003,0.018,0.006,0.027,0.008c0.009,0.003,0.018,0.006,0.027,0.008c0.009,0.003,0.018,0.005,0.026,0.008
	c0.009,0.002,0.018,0.005,0.026,0.007c0.009,0.003,0.018,0.005,0.026,0.008c0.009,0.002,0.018,0.005,0.026,0.007
	c0.009,0.002,0.018,0.005,0.026,0.007s0.017,0.005,0.025,0.007c0.008,0.002,0.017,0.004,0.025,0.007
	c0.008,0.002,0.017,0.004,0.025,0.006c0.008,0.002,0.017,0.004,0.025,0.007c0.008,0.002,0.017,0.004,0.025,0.006
	s0.016,0.004,0.024,0.006s0.016,0.004,0.024,0.006c0.008,0.002,0.016,0.004,0.024,0.006s0.016,0.004,0.024,0.006
	s0.016,0.004,0.024,0.005c0.008,0.002,0.016,0.004,0.023,0.006s0.016,0.003,0.023,0.005s0.015,0.004,0.023,0.005
	c0.008,0.002,0.016,0.003,0.023,0.005c0.008,0.001,0.016,0.003,0.023,0.005c0.008,0.002,0.015,0.003,0.023,0.005
	c0.007,0.001,0.015,0.003,0.022,0.005c0.007,0.001,0.015,0.003,0.022,0.005c0.008,0.001,0.015,0.003,0.022,0.004
	c0.007,0.002,0.015,0.003,0.022,0.005s0.015,0.003,0.022,0.004c0.007,0.002,0.014,0.003,0.021,0.005s0.014,0.003,0.021,0.004
	s0.014,0.003,0.021,0.004c0.007,0.001,0.014,0.003,0.021,0.004c0.007,0.001,0.014,0.002,0.021,0.004
	c0.007,0.001,0.014,0.003,0.021,0.004s0.014,0.003,0.021,0.004c0.007,0.001,0.014,0.003,0.021,0.004s0.014,0.002,0.021,0.004
	s0.014,0.003,0.021,0.004c0.006,0.001,0.013,0.003,0.02,0.004c0.007,0.001,0.013,0.002,0.02,0.004
	c0.007,0.001,0.013,0.002,0.02,0.004c0.006,0.001,0.013,0.002,0.02,0.004c0.007,0.001,0.013,0.002,0.02,0.004
	c0.006,0.001,0.013,0.002,0.02,0.004c0.006,0.001,0.013,0.002,0.019,0.004c0.007,0.001,0.013,0.002,0.02,0.004
	s0.013,0.002,0.019,0.004s0.013,0.002,0.019,0.004s0.013,0.002,0.019,0.004s0.013,0.003,0.019,0.004
	c0.006,0.001,0.013,0.003,0.019,0.004c0.006,0.001,0.012,0.003,0.019,0.004c0.006,0.001,0.012,0.002,0.019,0.004
	c0.006,0.001,0.012,0.003,0.018,0.004c0.006,0.001,0.012,0.003,0.019,0.004c0.006,0.001,0.012,0.003,0.018,0.004
	c0.006,0.001,0.012,0.003,0.018,0.004s0.012,0.003,0.018,0.004s0.012,0.003,0.018,0.004c0.006,0.001,0.012,0.003,0.018,0.004
	s0.012,0.003,0.018,0.004s0.012,0.003,0.018,0.004c0.006,0.002,0.012,0.003,0.018,0.005s0.012,0.003,0.018,0.005
	c0.006,0.001,0.011,0.003,0.017,0.005c0.006,0.001,0.012,0.003,0.018,0.005c0.005,0.001,0.011,0.003,0.017,0.005
	c0.005,0.001,0.011,0.003,0.017,0.005c0.005,0.002,0.011,0.003,0.017,0.005c0.005,0.002,0.011,0.003,0.017,0.005
	c0.006,0.002,0.012,0.003,0.017,0.005c0.006,0.002,0.011,0.004,0.017,0.006c0.005,0.001,0.011,0.003,0.017,0.005
	c0.005,0.002,0.011,0.004,0.017,0.006s0.011,0.004,0.017,0.006s0.011,0.004,0.017,0.006s0.011,0.004,0.017,0.006
	c0.005,0.002,0.011,0.004,0.017,0.006c0.005,0.002,0.011,0.004,0.016,0.006c0.005,0.002,0.011,0.004,0.017,0.007
	c0.005,0.002,0.011,0.004,0.016,0.007s0.011,0.004,0.016,0.007c0.006,0.002,0.011,0.005,0.017,0.007s0.011,0.005,0.016,0.007
	s0.011,0.005,0.016,0.007c0.005,0.003,0.011,0.005,0.016,0.008c0.005,0.003,0.011,0.005,0.016,0.008
	c0.005,0.002,0.011,0.005,0.016,0.008c0.005,0.003,0.01,0.005,0.016,0.008s0.011,0.006,0.016,0.009s0.011,0.005,0.016,0.009
	c0.005,0.003,0.01,0.006,0.016,0.009s0.011,0.006,0.016,0.009c0.005,0.003,0.01,0.006,0.016,0.009
	c0.005,0.003,0.011,0.006,0.016,0.009c0.005,0.003,0.01,0.007,0.016,0.01c0.005,0.003,0.011,0.006,0.016,0.01
	c0.005,0.003,0.01,0.007,0.016,0.01s0.011,0.007,0.016,0.011c0.005,0.003,0.011,0.007,0.016,0.011
	c0.005,0.003,0.01,0.007,0.016,0.011c0.005,0.003,0.01,0.007,0.016,0.011s0.011,0.008,0.016,0.012
	c0.005,0.004,0.01,0.008,0.016,0.012s0.01,0.008,0.016,0.012c0.005,0.004,0.011,0.008,0.016,0.012
	c0.005,0.004,0.01,0.008,0.016,0.013s0.01,0.008,0.016,0.013s0.011,0.009,0.016,0.014c0.005,0.004,0.01,0.009,0.016,0.013
	c0.005,0.005,0.011,0.009,0.016,0.014c0.005,0.004,0.011,0.009,0.016,0.014c0.005,0.004-0.071,0.009-0.066,0.014
	s-0.066,0.01-0.066,0.015c0,0,0,0.038,0,0.076c0,0.038,0,0.076,0,0.076c0,0,0,0.038,0,0.076c0,0.038,0,0.076,0,0.076s0,0,0,0
	s0,0,0,0s0-0.038,0-0.075s0.08-0.075,0.08-0.075c0,0,0.04-0.019,0.04-0.037c0-0.019,0.02-0.038,0.019-0.037
	c0,0,0.009-0.009,0.009-0.019c0-0.009-0.072-0.019-0.073-0.018c0,0-0.075-0.004-0.075-0.009c0-0.005,0-0.009,0-0.009
	c0,0,0-0.002,0-0.004c0-0.002,0.075-0.004,0.074-0.004c0,0,0.037,0.145,0.037,0.144c-0.001-0.001,0.037,0.144,0.036,0.144
	c0,0-0.001,0-0.002,0s-0.001,0-0.002,0c0,0-0.001,0-0.002,0s-0.002,0-0.002,0c-0.001,0-0.002-0.145-0.003-0.144
	c-0.001,0-0.002-0.072-0.003-0.072c-0.001,0-0.002-0.036-0.003-0.036c-0.001,0-0.002-0.018-0.003-0.017s-0.002-0.008-0.003-0.008
	c-0.001,0-0.002,0.137-0.004,0.137c-0.001,0-0.002,0.14-0.004,0.14s-0.003,0-0.004,0s-0.003,0-0.004,0s-0.003-0.14-0.004-0.139
	c-0.001,0-0.003-0.07-0.005-0.069c-0.001,0-0.003-0.034-0.005-0.034c-0.002,0-0.003-0.017-0.005-0.017
	c-0.001,0-0.003,0.127-0.005,0.127s-0.004,0.131-0.006,0.131s-0.004,0-0.006,0s-0.004,0-0.006,0c-0.002,0-0.004,0-0.007,0
	c-0.002,0-0.004-0.134-0.006-0.133c-0.002,0-0.005-0.066-0.007-0.066c-0.002,0-0.005-0.033-0.007-0.032s-0.005-0.016-0.007-0.016
	c-0.003,0-0.005,0.122-0.008,0.122c-0.003,0-0.005,0.126-0.008,0.126c-0.002,0-0.005,0-0.008,0c-0.003,0-0.006,0-0.009,0
	s-0.006,0-0.009,0s-0.006-0.128-0.009-0.127c-0.003,0-0.006-0.063-0.009-0.063c-0.003,0-0.006-0.031-0.01-0.031
	c-0.003,0-0.006-0.015-0.01-0.015s-0.007,0.115-0.01,0.116s-0.007,0.12-0.011,0.12s-0.007,0-0.011,0c-0.004,0-0.008,0-0.011,0
	c-0.004,0-0.008,0-0.012,0s-0.008-0.122-0.012-0.122c-0.004,0-0.008-0.061-0.012-0.06c-0.004,0-0.008-0.03-0.013-0.029
	s-0.009-0.015-0.013-0.014c-0.004,0-0.009-0.007-0.014-0.006c-0.004,0-0.009-0.003-0.013-0.003c-0.005,0-0.009-0.001-0.014,0
	c-0.004,0-0.009,0-0.014,0s-0.01,0-0.015,0.001c-0.005,0-0.01,0-0.015,0c-0.005,0-0.01,0-0.015,0.001
	c-0.005,0-0.011,0.116-0.016,0.116c-0.005,0-0.011,0.116-0.016,0.116c-0.006,0-0.011,0-0.017,0c-0.006,0-0.011,0-0.017,0
	s-0.011,0-0.017,0s-0.012,0-0.018,0c-0.006,0-0.012,0-0.018,0c-0.006,0-0.012,0-0.019,0s-0.013,0-0.019,0s-0.013,0-0.019,0
	c-0.007,0-0.013,0-0.02,0c-0.006,0-0.013,0-0.02,0s-0.014,0-0.021,0s-0.014,0-0.021,0c-0.007,0-0.014,0-0.021,0
	s-0.014-0.103-0.022-0.093c-0.007,0.01-0.015-0.031-0.022-0.017c-0.007,0.014-0.015,0-0.023,0.01
	c-0.007,0.01-0.015,0.003-0.023,0.003s-0.016,0-0.024,0.01c-0.008,0.011-0.016,0.021-0.024,0.035
	c-0.008,0.014-0.016,0.025-0.024,0.036c-0.008,0.011-0.017,0.016-0.025,0.016c-0.009,0-0.017,0-0.026,0c-0.008,0-0.017,0-0.026,0
	s-0.018,0-0.026,0s-0.018,0-0.027,0c-0.009,0-0.018-0.007-0.027-0.017s-0.019-0.024-0.028-0.038s-0.019-0.027-0.028-0.038
	c-0.01-0.01-0.02-0.017-0.029-0.018c-0.009,0-0.02-0.003-0.029-0.009s-0.02-0.012-0.03-0.02c-0.01-0.007-0.02-0.014-0.03-0.019
	s-0.021-0.009-0.031-0.009c-0.01,0-0.021-0.002-0.031-0.005c-0.011-0.002-0.021-0.006-0.032-0.01
	c-0.011-0.003-0.021-0.007-0.032-0.01c-0.011-0.003-0.022-0.005-0.033-0.005c-0.011,0-0.022-0.002-0.034-0.003
	s-0.022-0.004-0.034-0.006c-0.011-0.002-0.023-0.004-0.035-0.006c-0.011-0.002-0.023-0.003-0.035-0.003
	c-0.012,0-0.023-0.001-0.036-0.002s-0.024-0.002-0.036-0.004s-0.025-0.002-0.037-0.004c-0.012-0.001-0.025-0.002-0.038-0.002
	c-0.013-0.001-0.025-0.001-0.038-0.002s-0.025-0.002-0.039-0.003c-0.013-0.001-0.026-0.002-0.039-0.003s-0.026-0.001-0.04-0.002
	c-0.013,0-0.027-0.001-0.04-0.002c-0.014,0-0.027-0.001-0.041-0.002s-0.028-0.002-0.042-0.003c-0.014-0.001-0.028-0.002-0.042-0.002
	c-0.014-0.001-0.028-0.002-0.042-0.003c-0.015-0.001-0.029-0.002-0.043-0.003s-0.029-0.002-0.044-0.003
	c-0.015-0.001-0.03-0.002-0.045-0.003c-0.013,0-0.026-0.001-0.04-0.002s-0.026-0.002-0.039-0.002
	c-0.013-0.001-0.025-0.002-0.037-0.003s-0.024-0.001-0.036-0.002c-0.012-0.001-0.023-0.001-0.035-0.002s-0.023-0.002-0.034-0.002
	c-0.011-0.001-0.022-0.002-0.033-0.002c-0.011-0.001-0.021-0.002-0.032-0.002c-0.01-0.001-0.021-0.002-0.031-0.002
	c-0.01-0.001-0.02-0.001-0.03-0.002s-0.02-0.001-0.029-0.002c-0.01,0-0.019-0.001-0.028-0.002c-0.009,0-0.019-0.001-0.027-0.002
	c-0.009-0.001-0.018-0.001-0.026-0.002c-0.009,0-0.017-0.001-0.025-0.002c-0.008-0.001-0.016-0.001-0.024-0.002
	c-0.008,0-0.016-0.001-0.023-0.002c-0.008-0.001-0.015-0.001-0.022-0.002c-0.008,0-0.015-0.001-0.022-0.002
	c-0.007,0-0.014-0.001-0.021-0.002s-0.014-0.001-0.021-0.002c-0.006,0-0.013-0.001-0.02-0.002s-0.013-0.001-0.019-0.002
	c-0.006,0-0.012-0.001-0.018-0.002c-0.006,0-0.012-0.001-0.017-0.002c-0.006,0-0.011-0.001-0.017-0.001
	c-0.005-0.001-0.011-0.001-0.016-0.002s-0.01-0.001-0.016-0.002c-0.005,0-0.01-0.001-0.015-0.001s-0.01-0.001-0.014-0.001
	c-0.005-0.001-0.009-0.001-0.014-0.002c-0.004,0-0.009-0.001-0.013-0.001s-0.008-0.001-0.013-0.001
	c-0.004,0-0.008-0.001-0.012-0.001s-0.008-0.001-0.012-0.001s-0.008-0.001-0.011-0.001c-0.004,0-0.007-0.001-0.011-0.001
	c-0.004,0-0.007-0.001-0.011-0.001c-0.003,0-0.007,0-0.01-0.001c-0.003,0-0.006-0.001-0.009-0.001c-0.003,0-0.006,0.171-0.01,0.17
	c-0.003,0-0.006,0.171-0.009,0.171s-0.006,0-0.009,0s-0.005,0-0.008,0s-0.005,0-0.008,0c-0.002,0-0.005,0-0.008,0s-0.005,0-0.008,0
	s-0.005,0-0.007,0s-0.005-0.183-0.007-0.196c-0.002-0.013-0.005-0.117-0.007-0.134s-0.004-0.078-0.007-0.09
	s-0.004-0.043-0.007-0.043c-0.002,0-0.004-0.02-0.007-0.032s-0.004-0.035-0.007-0.052c-0.002-0.017-0.004-0.226-0.006-0.238
	c-0.002-0.013-0.004-0.213-0.007-0.213c-0.002,0-0.004,0-0.006,0c-0.002,0-0.004,0-0.007,0c-0.002,0-0.004,0-0.007,0
	c-0.002,0-0.004,0-0.006,0c-0.002,0-0.004,0.198-0.007,0.21s-0.004,0.125-0.007,0.142s-0.004,0.082-0.007,0.094
	s-0.005,0.045-0.007,0.045s-0.005,0.017-0.007,0.023s-0.005,0.021-0.007,0.03s-0.005,0.021-0.007,0.027
	c-0.003,0.007-0.005,0.013-0.008,0.013c-0.003,0-0.005,0.003-0.008,0.007c-0.002,0.003-0.005,0.008-0.008,0.013
	c-0.003,0.004-0.005,0.009-0.008,0.013s-0.006,0.006-0.009,0.006c-0.003,0-0.006,0.002-0.009,0.004
	c-0.003,0.002-0.006,0.004-0.01,0.007c-0.003,0.003-0.006,0.005-0.01,0.007s-0.007,0.004-0.01,0.004s-0.007,0.001-0.011,0.003
	c-0.004,0.001-0.007,0.003-0.011,0.004c-0.004,0.002-0.007,0.003-0.011,0.005c-0.004,0.001-0.008,0.002-0.012,0.003
	c-0.004,0-0.008,0.001-0.013,0.002c-0.004,0.001-0.008,0.002-0.013,0.003c-0.004,0.001-0.009,0.003-0.014,0.004
	s-0.009,0.002-0.014,0.003s-0.01,0.002-0.015,0.003s-0.01,0.002-0.015,0.003c-0.005,0.001-0.011,0.002-0.016,0.003
	s-0.011,0.002-0.016,0.003c-0.006,0.001-0.012,0.002-0.017,0.003c-0.006,0.001-0.012,0.002-0.018,0.003
	c-0.006,0.001-0.012,0.002-0.019,0.003c-0.006,0.001-0.013,0.002-0.019,0.003c-0.007,0.001-0.013,0.002-0.02,0.003
	s-0.014,0.002-0.021,0.003c-0.007,0.001-0.014,0.002-0.021,0.004c-0.007,0.001-0.015,0.002-0.022,0.003
	c-0.008,0.001-0.016,0.002-0.023,0.004s-0.016,0.002-0.024,0.004c-0.008,0.001-0.016,0.003-0.025,0.004
	c-0.008,0.001-0.017,0.003-0.025,0.004s-0.018,0.002-0.027,0.004c-0.009,0.001-0.018,0.003-0.027,0.004s-0.019,0.003-0.028,0.004
	c-0.01,0.001-0.02,0.003-0.03,0.005c-0.01,0.001-0.02,0.003-0.03,0.004s-0.021,0.003-0.031,0.005
	c-0.011,0.001-0.021,0.003-0.033,0.005c-0.011,0.002-0.022,0.003-0.034,0.005c-0.011,0.002-0.022,0.003-0.034,0.005
	s-0.024,0.003-0.036,0.005c-0.012,0.002-0.024,0.003-0.037,0.005c-0.012,0.002-0.025,0.003-0.038,0.005
	c-0.013,0.002-0.026,0.004-0.039,0.006s-0.026,0.004-0.04,0.006s-0.027,0.004-0.042,0.006s-0.028,0.004-0.042,0.006
	c-0.015,0.002-0.029,0.004-0.044,0.006c-0.015,0.002-0.03,0.004-0.045,0.006s-0.031,0.004-0.046,0.006
	c-0.016,0.002-0.032,0.004-0.048,0.007c-0.016,0.002-0.032,0.004-0.049,0.007c-0.017,0.002-0.034,0.004-0.05,0.007
	c-0.017,0.002-0.035,0.004-0.052,0.007c-0.017,0.002-0.035,0.005-0.053,0.007c-0.018,0.002-0.036,0.005-0.055,0.007
	s-0.037,0.005-0.056,0.007s-0.038,0.005-0.057,0.008c-0.02,0.002-0.039,0.005-0.059,0.007c-0.006,0.001-0.011,0.001-0.017,0.002
	c-0.005,0-0.011,0.001-0.016,0.002c-0.005,0.001-0.011,0.001-0.016,0.002c-0.005,0-0.01,0.001-0.015,0.002
	c-0.005,0-0.009,0.001-0.014,0.002c-0.004,0-0.009,0.001-0.014,0.002c-0.004,0-0.009,0.001-0.013,0.002
	c-0.004,0-0.008,0.001-0.012,0.001c-0.004,0.001-0.008,0.001-0.012,0.002s-0.008,0.001-0.011,0.002
	c-0.004,0-0.008,0.001-0.011,0.001s-0.007,0.001-0.011,0.001c-0.003,0.001-0.007,0.001-0.01,0.002c-0.003,0-0.006,0.001-0.009,0.001
	c-0.003,0-0.006,0.001-0.009,0.001c-0.003,0-0.006,0.001-0.009,0.001c-0.002,0-0.005,0.001-0.008,0.001s-0.005,0.001-0.008,0.001
	c-0.003,0-0.005,0.001-0.008,0.001s-0.005,0.001-0.007,0.001s-0.005,0-0.007,0.001c-0.002,0-0.004,0.001-0.006,0.001
	c-0.002,0-0.004,0.001-0.007,0.001c-0.002,0-0.004,0.001-0.006,0.001s-0.004,0-0.006,0.001s-0.004,0.001-0.005,0.001
	c-0.002,0-0.004,0.001-0.005,0.001c-0.002,0-0.003,0.03-0.005,0.03c-0.002,0-0.003,0.031-0.005,0.031c-0.002,0-0.003,0-0.005,0
	s-0.003,0-0.004,0s-0.003,0-0.004,0c-0.001,0-0.003,0-0.004,0c-0.001,0-0.002,0-0.004,0c-0.001,0-0.002,0-0.003,0
	c-0.001,0-0.002,0-0.004,0c-0.001,0-0.002,0-0.003,0s-0.002,0-0.003,0s-0.002,0-0.003,0s-0.002,0-0.003,0c-0.001,0-0.002,0-0.003,0
	s-0.002,0-0.003,0s-0.002,0-0.003,0s-0.002,0-0.003,0c-0.001,0-0.002,0-0.003,0s-0.002,0-0.003,0c-0.001,0-0.002,0-0.003,0
	s-0.002,0-0.003,0c-0.001,0-0.002,0-0.003,0s-0.002,0-0.003,0s-0.002,0-0.003,0s-0.002,0-0.003,0c-0.001,0-0.002,0-0.004,0
	c-0.001,0-0.002,0-0.003,0c-0.001,0-0.003,0-0.004,0c-0.001,0-0.003,0-0.004,0s-0.002,0-0.004,0s-0.003,0-0.004,0s-0.003,0-0.005,0
	s-0.003,0-0.005,0c-0.001,0-0.003,0-0.005,0c-0.002,0-0.003,0-0.005,0s-0.003,0-0.005,0s-0.004,0-0.006,0s-0.004,0-0.006,0
	c-0.002,0-0.004,0-0.006,0c-0.002,0-0.004,0-0.007,0c-0.002,0-0.004,0-0.007,0s-0.005-0.014-0.007-0.009
	c-0.002,0.005-0.005,0-0.008,0c-0.002,0-0.005,0-0.008,0.005c-0.002,0.004-0.005,0.004-0.008,0.004s-0.006,0-0.009,0
	s-0.006,0-0.009,0c-0.003,0-0.006,0-0.01,0s-0.007,0-0.01,0s-0.007-0.004-0.011-0.008c-0.003-0.004-0.007-0.008-0.011-0.008
	c-0.004,0-0.008-0.001-0.012-0.004c-0.004-0.002-0.008-0.004-0.012-0.004c-0.004,0-0.008,0-0.012-0.001
	c-0.004-0.001-0.009-0.002-0.013-0.002s-0.009,0.014-0.014,0.014c-0.005,0-0.009,0.014-0.014,0.014s-0.01,0-0.015,0
	c-0.005,0-0.01,0-0.016,0c-0.005,0-0.01,0-0.016,0s-0.011,0-0.017,0c-0.006,0-0.011,0-0.017,0s-0.012,0-0.018,0
	c-0.006,0-0.012,0-0.018,0c-0.006,0-0.013,0-0.02,0c-0.006,0-0.013,0-0.02,0s-0.014,0-0.021,0s-0.014,0-0.021,0
	c-0.007,0-0.015,0-0.022,0c-0.008,0-0.015,0-0.023,0c-0.007,0-0.015,0-0.023,0c-0.008,0-0.016,0-0.024,0s-0.017,0-0.025,0
	s-0.017,0-0.026,0s-0.018,0-0.026,0c-0.009,0-0.018,0-0.027,0s-0.019,0-0.028,0s-0.019-0.011-0.029-0.011
	c-0.01,0-0.02-0.005-0.03-0.005c-0.01,0-0.02,0.007-0.031,0.007c-0.01,0-0.021,0.008-0.032,0.008s-0.021,0-0.032,0
	c-0.011,0-0.022,0-0.034,0s-0.023,0-0.035,0c-0.011,0-0.023-0.008-0.035-0.008c-0.012,0-0.024,0.002-0.036,0.003
	c-0.013,0-0.025,0.005-0.038,0.005s-0.025,0-0.038,0c-0.013,0-0.026,0-0.04,0s-0.027,0-0.04,0c-0.014,0-0.028,0-0.042,0
	c-0.014,0-0.028,0-0.042,0s-0.029,0-0.043,0s-0.03-0.001-0.044-0.001c-0.015,0-0.03,0.001-0.046,0.001c-0.015,0-0.031,0-0.047,0
	c-0.016,0-0.032,0-0.048,0s-0.032,0-0.049,0s-0.033,0-0.05,0c-0.017,0-0.034,0-0.051,0c-0.017,0-0.035,0-0.052,0
	c0.011,0,0.023-0.02,0.034-0.029c0.012-0.01,0.023-0.02,0.034-0.029c0.011-0.009,0.022-0.019,0.033-0.028
	c0.011-0.01,0.022-0.019,0.033-0.028c0.011-0.009,0.021-0.018,0.032-0.027c0.011-0.009,0.021-0.018,0.032-0.027
	c0.01-0.008,0.021-0.017,0.031-0.026c0.01-0.008,0.021-0.017,0.031-0.025c0.01-0.008,0.02-0.017,0.03-0.025
	c0.01-0.008,0.02-0.016,0.03-0.024c0.01-0.008,0.02-0.016,0.029-0.024s0.019-0.015,0.029-0.023c0.009-0.007,0.019-0.015,0.028-0.022
	s0.019-0.015,0.027-0.022c0.009-0.007,0.019-0.014,0.027-0.021c0.009-0.007,0.018-0.014,0.027-0.021s0.018-0.014,0.026-0.021
	s0.017-0.013,0.026-0.02c0.009-0.006,0.017-0.013,0.025-0.02c0.008-0.006,0.017-0.013,0.025-0.019
	c0.008-0.006,0.017-0.012,0.024-0.019c0.008-0.006,0.017-0.012,0.024-0.018c0.008-0.006,0.016-0.012,0.023-0.018
	s0.016-0.012,0.023-0.017c0.008-0.006,0.015-0.011,0.023-0.017c0.007-0.005,0.015-0.011,0.022-0.016s0.015-0.011,0.022-0.016
	s0.015-0.01,0.022-0.016c0.007-0.005,0.014-0.01,0.021-0.015c0.007-0.005,0.014-0.01,0.021-0.015s0.014-0.01,0.021-0.015
	s0.014-0.009,0.021-0.014c0.006-0.004,0.013-0.009,0.02-0.014c0.007-0.004,0.013-0.009,0.02-0.014
	c0.006-0.004,0.013-0.008,0.019-0.013s0.013-0.009,0.019-0.013c0.006-0.004,0.012-0.008,0.019-0.013
	c0.006-0.004,0.012-0.008,0.018-0.012c0.006-0.004,0.012-0.008,0.018-0.012s0.012-0.008,0.018-0.011
	c0.006-0.004,0.011-0.008,0.017-0.012c0.006-0.003,0.011-0.007,0.017-0.011c0.005-0.003,0.011-0.007,0.017-0.011
	s0.011-0.007,0.017-0.01c0.005-0.003,0.011-0.007,0.016-0.01c0.005-0.003,0.01-0.007,0.016-0.01s0.01-0.006,0.016-0.01
	c0.005-0.003,0.01-0.006,0.015-0.009c0.005-0.003,0.01-0.006,0.015-0.01c0.005-0.003,0.01-0.006,0.015-0.009s0.01-0.006,0.015-0.009
	s0.009-0.006,0.014-0.009c0.005-0.002,0.01-0.005,0.014-0.008c0.005-0.003,0.009-0.006,0.014-0.008
	c0.004-0.003,0.009-0.006,0.014-0.008c0.004-0.003,0.009-0.006,0.014-0.008c0.004-0.003,0.009-0.005,0.013-0.008
	c0.004-0.002,0.009-0.005,0.013-0.008c0.004-0.002,0.009-0.005,0.013-0.008c0.004-0.002,0.008-0.005,0.013-0.007
	c0.004-0.003,0.008-0.005,0.013-0.008s0.008-0.005,0.013-0.007c0.004-0.002,0.008-0.005,0.012-0.007
	c0.004-0.002,0.008-0.005,0.012-0.007s0.008-0.005,0.012-0.007c0.004-0.002,0.008-0.005,0.012-0.007s0.008-0.005,0.012-0.007
	c0.004-0.002,0.008-0.004,0.012-0.007s0.008-0.005,0.012-0.007s0.007-0.004,0.011-0.007s0.008-0.005,0.011-0.007
	c0.004-0.002,0.008-0.004,0.012-0.007c0.003-0.002,0.007-0.005,0.011-0.007c0.004-0.002,0.008-0.004,0.011-0.007
	c0.004-0.002,0.007-0.005,0.011-0.007c0.003-0.002,0.007-0.005,0.011-0.007c0.004-0.002,0.007-0.005,0.011-0.007
	c0.003-0.002,0.007-0.005,0.011-0.007c0.003-0.002,0.007-0.005,0.011-0.007s0.007-0.005,0.011-0.008s0.007-0.005,0.011-0.007
	s0.007-0.005,0.011-0.008c0.003-0.002,0.007-0.005,0.011-0.007c0.003-0.003,0.007-0.005,0.011-0.008
	c0.003-0.003,0.007-0.005,0.011-0.008c0.003-0.002,0.007-0.005,0.01-0.008c0.004-0.003,0.007-0.005,0.011-0.008
	c0.004-0.002,0.007-0.005,0.011-0.008c0.004-0.003,0.007-0.005,0.011-0.008c0.004-0.003,0.007-0.006,0.011-0.009
	c0.004-0.003,0.007-0.006,0.011-0.009c0.004-0.003,0.007-0.006,0.011-0.009c0.003-0.003,0.007-0.006,0.011-0.009
	c0.003-0.003,0.007-0.006,0.011-0.01c0.004-0.003,0.007-0.006,0.011-0.009c0.003-0.003,0.007-0.007,0.011-0.01
	c0.004-0.003,0.008-0.006,0.011-0.01c0.004-0.003,0.007-0.007,0.011-0.01s0.008-0.007,0.011-0.011
	c0.004-0.003,0.008-0.007,0.012-0.011c0.003-0.004,0.007-0.007,0.011-0.011c0.004-0.003,0.008-0.007,0.012-0.011
	s0.008-0.008,0.012-0.012s0.008-0.008,0.012-0.012s0.008-0.008,0.012-0.012c0.004-0.004,0.008-0.008,0.012-0.013
	c0.004-0.004,0.008-0.008,0.012-0.013c0.004-0.004,0.008-0.009,0.012-0.013c0.004-0.004,0.008-0.009,0.013-0.014
	s0.008-0.009,0.013-0.014c0.004-0.005,0.009-0.01,0.013-0.014c0.004-0.005,0.009-0.01,0.013-0.015s0.009-0.01,0.013-0.015
	c0.004-0.005,0.009-0.01,0.014-0.015c0.004-0.005,0.009-0.011,0.014-0.016c0.004-0.005,0.009-0.011,0.014-0.016
	c0.005-0.006,0.009-0.011,0.014-0.017c0.005-0.006,0.009-0.011,0.014-0.017s0.01-0.012,0.015-0.018s0.01-0.012,0.015-0.018
	s0.01-0.012,0.015-0.019c0.005-0.006,0.01-0.012,0.015-0.019c0.005-0.006,0.01-0.013,0.015-0.019
	c0.005-0.006,0.011-0.013,0.016-0.02c0.005-0.007,0.011-0.014,0.016-0.021s0.011-0.014,0.016-0.021
	c0.006-0.007,0.011-0.014,0.017-0.021c0.006-0.007,0.011-0.015,0.017-0.022c0.002-0.003,0.005-0.006,0.007-0.009
	c0.002-0.003,0.005-0.006,0.007-0.009c0.002-0.003,0.005-0.006,0.007-0.009c0.002-0.003,0.005-0.006,0.007-0.009
	c0.002-0.003,0.004-0.006,0.007-0.008c0.002-0.003,0.004-0.006,0.006-0.008c0.002-0.003,0.004-0.006,0.006-0.008
	c0.002-0.002,0.004-0.005,0.006-0.008c0.002-0.002,0.004-0.005,0.006-0.008s0.004-0.005,0.006-0.007s0.004-0.005,0.006-0.007
	c0.002-0.002,0.004-0.005,0.006-0.007c0.002-0.002,0.004-0.004,0.006-0.007c0.001-0.002,0.003-0.004,0.005-0.006
	c0.001-0.002,0.003-0.004,0.005-0.006c0.001-0.002,0.003-0.004,0.005-0.006s0.003-0.004,0.005-0.006
	c0.002-0.002,0.003-0.004,0.005-0.006s0.003-0.004,0.005-0.005c0.001-0.002,0.003-0.004,0.004-0.006s0.003-0.003,0.004-0.005
	s0.003-0.003,0.004-0.005s0.003-0.003,0.004-0.005c0.001-0.001,0.002-0.003,0.004-0.005s0.002-0.003,0.004-0.005
	c0.001-0.002,0.002-0.003,0.003-0.005c0.001-0.001,0.003-0.003,0.004-0.005s0.002-0.003,0.003-0.004
	c0.001-0.002,0.002-0.003,0.003-0.005s0.002-0.003,0.003-0.004s0.002-0.003,0.003-0.004s0.002-0.003,0.003-0.004
	s0.002-0.003,0.003-0.004s0.002-0.003,0.003-0.004s0.002-0.002,0.002-0.004c0.001-0.001,0.002-0.003,0.003-0.004
	c0-0.001,0.001-0.003,0.002-0.004c0.001-0.001,0.002-0.003,0.002-0.004c0.001-0.001,0.001-0.003,0.002-0.004
	c0-0.001,0.001-0.003,0.002-0.004s0.001-0.002,0.002-0.004s0.001-0.003,0.002-0.004c0-0.001,0.001-0.002,0.001-0.004
	c0.001-0.001,0.001-0.003,0.002-0.004c0-0.001,0.001-0.002,0.001-0.004s0.001-0.003,0.001-0.004s0.001-0.002,0.001-0.004
	s0-0.003,0.001-0.004s0.186-0.003,0.187-0.004s0.187-0.003,0.187-0.004s0-0.003,0-0.004s0-0.003,0-0.005
	c0-0.001-0.186-0.003-0.188-0.004c-0.002-0.001-0.097-0.003-0.1-0.005c-0.003-0.001-0.052-0.003-0.055-0.005
	c-0.002-0.001-0.027-0.003-0.027-0.005c0-0.001-0.013-0.003-0.015-0.005c-0.002-0.002-0.011-0.003-0.014-0.005
	c-0.003-0.001,0.199-0.003,0.197-0.005c-0.002-0.002,0.202-0.004,0.202-0.006c0-0.001,0-0.003,0-0.005s0-0.004,0-0.006
	c0-0.001,0-0.003,0-0.006c0-0.002,0-0.004,0-0.006s-0.207-0.004-0.205-0.006c0.002-0.002-0.099-0.004-0.096-0.006
	c0.003-0.002-0.046-0.004-0.043-0.007c0.002-0.002-0.022-0.004-0.022-0.007c0-0.002-0.013-0.004-0.011-0.007
	c0.001-0.002-0.004-0.004-0.003-0.007s0-0.005,0-0.007s0-0.005,0-0.008c0-0.002-0.006-0.005-0.01-0.008
	c-0.004-0.002-0.009-0.005-0.009-0.008c0-0.002,0.205-0.005,0.2-0.008c-0.005-0.002,0.199-0.005,0.199-0.008s0-0.006,0-0.009
	s0-0.006,0-0.009s-0.204-0.006-0.199-0.009c0.004-0.003-0.095-0.006-0.096-0.01c0-0.003-0.05-0.006-0.048-0.01
	c0.002-0.003-0.022-0.006-0.022-0.01c0-0.003,0.182-0.007,0.183-0.01c0.001-0.004,0.183-0.007,0.183-0.011c0-0.004,0-0.007,0-0.011
	c0-0.003,0-0.007,0-0.011s0-0.008,0-0.012s-0.195-0.008-0.195-0.012s0.1-0.008,0.099-0.012c0-0.004,0.096-0.008,0.096-0.013
	s0-0.008,0-0.013s0-0.009,0-0.014c0-0.004-0.199-0.009-0.199-0.014c0-0.004,0.102-0.009,0.101-0.014c0-0.005,0.098-0.01,0.098-0.015
	s0-0.01,0-0.015s0.002-0.01,0.002-0.015c0-0.005-0.002-0.01-0.002-0.016s0-0.011,0-0.016s0-0.011,0-0.016
	c0-0.006-0.206-0.011-0.207-0.017c0-0.005-0.104-0.011-0.104-0.017c0-0.006-0.052-0.012-0.053-0.018
	c0-0.006-0.027-0.012-0.027-0.018c-0.001-0.006-0.014-0.012-0.015-0.019c0-0.006-0.008-0.013-0.008-0.019s-0.004-0.013-0.005-0.02
	c0-0.006-0.003-0.013-0.003-0.02c-0.001-0.007-0.002-0.014-0.003-0.021c-0.001-0.007-0.002-0.014-0.003-0.021
	c0-0.007-0.001-0.014-0.002-0.021c-0.001-0.007-0.002-0.015-0.002-0.022s-0.001-0.015-0.002-0.022c0-0.007-0.001-0.015-0.002-0.023
	c-0.001-0.007-0.001-0.015-0.002-0.023c0-0.008-0.001-0.016-0.002-0.024c0-0.008-0.001-0.017-0.002-0.024
	c-0.001-0.008-0.001-0.017-0.002-0.025c0-0.008-0.001-0.017-0.002-0.025c-0.001-0.008-0.001-0.017-0.002-0.026
	c0-0.009-0.001-0.018-0.002-0.027c-0.001-0.009-0.001-0.018-0.002-0.027c0-0.009-0.001-0.019-0.002-0.028
	c-0.001-0.009-0.001-0.019-0.002-0.028c0-0.01-0.001-0.02-0.002-0.029c0-0.01-0.001-0.02-0.002-0.03
	c-0.001-0.01,0.233-0.02,0.232-0.03c-0.001-0.01,0.232-0.02,0.232-0.03c0-0.003,0-0.005,0-0.008c0-0.002,0-0.005,0-0.008
	c0-0.002,0-0.005,0-0.008c0-0.003,0-0.006,0-0.008c0-0.003-0.236-0.006-0.236-0.008c0-0.003-0.119-0.006-0.119-0.009
	c0-0.002-0.06-0.005-0.06-0.008c0-0.003-0.03-0.006-0.03-0.009c0-0.003-0.015-0.006-0.015-0.009c0-0.003-0.008-0.006-0.008-0.009
	c0-0.003-0.004-0.006-0.005-0.009c0-0.003-0.002-0.006-0.002-0.009c0-0.003-0.002-0.006-0.002-0.009
	c0-0.003-0.001-0.006-0.001-0.009c0-0.003-0.001-0.006-0.001-0.009c0-0.003,0-0.006-0.001-0.009s-0.001-0.006-0.001-0.009
	c0-0.003-0.001-0.007-0.001-0.01c0-0.003,0-0.006-0.001-0.01s-0.001-0.006-0.001-0.01c0-0.003,0-0.007-0.001-0.01
	c0-0.003-0.001-0.007-0.001-0.01c0-0.003,0-0.006-0.001-0.01s-0.001-0.007-0.001-0.01s0-0.007-0.001-0.01s-0.001-0.007-0.001-0.01
	s-0.001-0.007-0.001-0.01s-0.001-0.007-0.001-0.01c0-0.003,0-0.007-0.001-0.011s-0.001-0.007-0.001-0.01s-0.001-0.007-0.001-0.011
	s-0.001-0.007-0.001-0.011c0-0.003-0.001-0.007-0.001-0.011c0-0.003-0.001-0.007-0.001-0.011c0-0.003-0.001-0.007-0.001-0.011
	s-0.001-0.007-0.001-0.011c0-0.004-0.001-0.007-0.002-0.011c0-0.003-0.001-0.007-0.001-0.011c0-0.004-0.001-0.007-0.001-0.011
	c0-0.003-0.001-0.007-0.001-0.011c0-0.004-0.001-0.008-0.002-0.011c0-0.004-0.001-0.008-0.001-0.011
	c0-0.004-0.001-0.007-0.001-0.011s-0.001-0.007-0.002-0.011c0-0.004-0.001-0.008-0.001-0.011c0-0.004-0.001-0.008-0.001-0.012
	c-0.001-0.003-0.001-0.007-0.002-0.011s-0.001-0.007-0.001-0.011s-0.001-0.008-0.002-0.012c0-0.003-0.001-0.007-0.001-0.011
	s-0.001-0.008-0.002-0.011c0-0.004-0.001-0.008-0.001-0.012c-0.001-0.004-0.001-0.008-0.002-0.012c0-0.003-0.001-0.007-0.002-0.011
	c0-0.004-0.001-0.008-0.001-0.012s-0.001-0.008-0.002-0.012s-0.001-0.007-0.001-0.011c-0.001-0.004-0.001-0.008-0.002-0.012
	s-0.001-0.008-0.002-0.012c0-0.004-0.001-0.008-0.001-0.012c-0.001-0.004-0.001-0.008-0.002-0.012s-0.001-0.008-0.002-0.011
	c0-0.004-0.001-0.008-0.001-0.012c-0.001-0.004-0.001-0.008-0.002-0.012s-0.001-0.008-0.002-0.012c0-0.004-0.001-0.008-0.001-0.012
	c-0.001-0.004-0.001-0.008-0.002-0.012s-0.001-0.008-0.002-0.012c0-0.004-0.001-0.007-0.001-0.011
	c-0.001-0.004-0.001-0.008-0.002-0.012s-0.001-0.008-0.002-0.012s-0.001-0.008-0.001-0.012c-0.001-0.004-0.001-0.008-0.002-0.011
	c0-0.004-0.001-0.008-0.002-0.012s-0.001-0.008-0.001-0.012c-0.001-0.004-0.001-0.007-0.002-0.011s-0.001-0.008-0.002-0.012
	c0-0.004-0.001-0.008-0.001-0.011c0-0.004-0.001-0.008-0.002-0.012s-0.001-0.007-0.001-0.011c-0.001-0.004-0.001-0.008-0.002-0.012
	c0-0.003-0.001-0.007-0.002-0.011c0-0.004-0.001-0.007-0.001-0.011s-0.001-0.007-0.002-0.011c0-0.004-0.001-0.008-0.001-0.011
	c0-0.004-0.001-0.008-0.002-0.011c0-0.004-0.001-0.007-0.001-0.011s-0.001-0.007-0.001-0.011c-0.001-0.003-0.001-0.007-0.002-0.011
	c0-0.003-0.001-0.007-0.001-0.011c0-0.004-0.001-0.007-0.001-0.011c-0.001-0.003-0.001-0.007-0.002-0.011s-0.001-0.007-0.001-0.011
	c0-0.004-0.001-0.007-0.001-0.011c0-0.004-0.001-0.007-0.002-0.011c0-0.003-0.001-0.007-0.001-0.01c0-0.004-0.001-0.007-0.001-0.011
	c0-0.004-0.001-0.007-0.001-0.011s-0.001-0.007-0.001-0.011c0-0.003-0.001-0.007-0.001-0.01s-0.001-0.007-0.001-0.01
	s-0.001-0.007-0.001-0.01s-0.001-0.007-0.001-0.01s-0.001-0.007-0.001-0.01s-0.001-0.007-0.001-0.01s0-0.007-0.001-0.01
	c0-0.003-0.001-0.007-0.001-0.01s-0.001-0.006-0.001-0.01s-0.001-0.006-0.001-0.01c0-0.003-0.001-0.006-0.001-0.01
	s-0.001-0.006-0.001-0.01c0-0.003,0-0.006-0.001-0.009c0-0.003-0.001-0.006-0.001-0.009c0-0.003-0.001-0.006-0.001-0.01
	c0-0.003,0-0.006-0.001-0.009c0-0.003-0.001-0.006-0.001-0.009c0-0.003-0.001-0.006-0.001-0.009c0-0.003-0.18-0.006-0.18-0.009
	c0-0.003-0.181-0.006-0.181-0.009s0-0.006,0-0.009s0-0.006,0-0.009s0-0.006,0-0.008c0-0.003,0-0.006,0-0.009
	c0-0.002,0-0.005,0-0.008c0-0.002,0-0.005,0-0.008c0-0.003,0-0.006,0-0.008c0-0.003,0.5-0.005,0.5-0.008
	c0-0.003,0.5-0.005,0.5-0.008s0-0.005,0-0.007s0-0.005,0-0.007s0-0.005,0-0.007s0-0.005,0-0.007s0-0.005,0-0.007s0-0.005,0-0.008
	s0-0.005,0-0.008c0-0.002,0-0.005,0-0.008c0-0.002,0-0.005,0-0.008c0-0.002,0-0.005,0-0.008c0-0.003,0-0.005,0-0.008
	c0-0.002,0-0.005,0-0.008c0-0.002,0-0.005,0-0.008c0-0.002,0-0.005,0-0.008c0-0.002,0-0.005,0-0.008s0-0.006,0-0.009
	c0-0.002,0-0.005,0-0.008s0-0.006,0-0.009s0-0.006,0-0.009s0-0.006,0-0.009s0-0.006,0-0.009c0-0.003,0-0.006,0-0.009
	s0-0.006,0-0.009c0-0.003,0-0.006,0-0.009c0-0.003,0-0.006,0-0.009c0-0.003,0-0.006,0-0.009c0-0.003,0-0.006,0-0.009
	c0-0.003,0-0.006,0-0.01c0-0.003,0-0.006,0-0.009c0-0.003,0-0.006,0-0.01c0-0.003,0-0.006,0-0.009c0-0.003,0-0.006,0-0.01
	s0-0.006,0-0.01s0-0.006,0-0.01s0-0.006,0-0.01s0-0.007,0-0.01c0-0.003,0-0.007,0-0.01c0-0.003,0-0.006,0-0.01s0-0.007,0-0.01
	c0-0.003,0-0.006,0-0.01s0-0.007,0-0.01s0-0.007,0-0.01c0-0.003,0-0.006,0-0.01s0-0.007,0-0.01s0-0.007,0-0.01s0-0.007,0-0.01
	s0-0.007,0-0.01s0-0.007,0-0.011s0-0.007,0-0.01s0-0.007,0-0.01s0-0.007,0-0.01c0-0.004,0-0.007,0-0.011s0-0.007,0-0.01
	s0-0.007,0-0.011s0-0.007,0-0.01s0-0.007,0-0.011s0-0.007,0-0.01s0-0.007,0-0.011s0-0.007,0-0.01c0-0.004,0-0.007,0-0.011
	s0-0.007,0-0.011c0-0.003,0-0.007,0-0.01c0-0.004,0-0.007,0-0.011s0-0.007,0-0.011c0-0.003,0-0.007,0-0.01c0-0.004,0-0.007,0-0.011
	s0-0.007,0-0.011c0-0.003,0-0.007,0-0.01s0-0.007,0-0.011s0-0.007,0-0.01c0-0.004,0-0.007,0-0.011s0-0.007,0-0.011
	c0-0.003,0-0.007,0-0.01s0-0.007,0-0.011c0-0.003,0-0.007,0-0.01s0-0.007,0-0.01c0-0.004,0-0.007,0-0.011s0-0.007,0-0.01
	s0-0.007,0-0.01c0-0.004,0-0.007,0-0.011s0-0.007,0-0.01s0-0.007,0-0.01s0-0.007,0-0.01s0-0.007,0-0.01s0-0.007,0-0.01
	s0-0.007,0-0.01s0-0.007,0-0.01c0-0.003,0-0.006,0-0.01s0-0.007,0-0.01s0-0.007,0-0.01c0-0.003,0-0.007,0-0.01s0-0.006,0-0.01
	s0-0.007,0-0.01c0-0.003,0-0.007,0-0.01c0-0.003,0-0.007,0-0.01c0-0.003,0-0.007,0-0.01c0-0.003,0-0.007,0-0.01
	c0-0.003,0-0.006,0-0.01c0-0.003,0-0.006,0-0.009c0-0.003,0-0.006,0-0.01c0-0.003,0-0.006,0-0.009c0-0.003,0-0.006,0-0.009
	c0-0.003,0-0.006,0-0.009c0-0.003,0-0.006,0-0.009c0-0.003,0-0.006,0-0.009s0-0.006,0-0.009c0-0.003,0-0.006,0-0.009
	s0-0.006,0-0.009c0-0.003,0-0.006,0-0.009s0-0.006,0-0.009s0-0.006,0-0.008c0-0.003,0-0.006,0-0.009s0-0.006,0-0.009
	c0-0.002,0-0.005,0-0.008s0-0.005,0-0.008s0-0.005,0-0.008s0-0.005,0-0.008c0-0.002,0-0.005,0-0.008c0-0.003,0-0.005,0-0.008
	c0-0.002,0-0.005,0-0.008c0-0.003,0-0.005,0-0.008s0-0.005,0-0.008s0-0.005,0-0.008c0-0.002,0-0.005,0-0.007s0-0.005,0-0.007
	s0-0.005,0-0.007s0-0.005,0-0.007s0-0.005,0-0.007s0-0.005,0-0.008s0-0.006,0-0.008c0-0.003,0-0.006,0-0.009s0-0.006,0-0.009
	s0-0.006,0-0.009s0-0.006,0-0.009c0-0.003-0.354-0.006-0.354-0.009c0-0.003-0.177-0.006-0.177-0.009c0-0.003-0.089-0.006-0.089-0.01
	c0-0.003-0.044-0.006-0.045-0.009c0-0.003-0.022-0.006-0.023-0.01c0-0.003-0.011-0.006-0.012-0.01s-0.006-0.007-0.006-0.01
	c0-0.003-0.003-0.007-0.004-0.01c0-0.003-0.002-0.007-0.002-0.01c0-0.003-0.001-0.007-0.001-0.01s-0.001-0.007-0.001-0.01
	c0-0.003-0.001-0.007-0.001-0.011c0-0.003-0.001-0.007-0.001-0.01c0-0.003,0-0.007-0.001-0.011s-0.001-0.007-0.001-0.011
	c0-0.003-0.001-0.007-0.001-0.011c0-0.003,0-0.007-0.001-0.011s-0.001-0.007-0.001-0.011c0-0.004,0-0.007-0.001-0.011
	c0-0.003-0.001-0.007-0.001-0.011c0-0.003,0-0.007-0.001-0.011c0-0.003-0.001-0.007-0.001-0.011c0-0.003-0.001-0.007-0.001-0.011
	c0-0.004-0.001-0.007-0.001-0.011s-0.001-0.008-0.001-0.012c0-0.003-0.001-0.007-0.001-0.011c0-0.004,0-0.008-0.001-0.012
	s-0.001-0.008-0.001-0.012s-0.001-0.008-0.001-0.012s-0.001-0.008-0.001-0.012s-0.001-0.008-0.001-0.012s0-0.008-0.001-0.012
	c0-0.004-0.001-0.008-0.001-0.012s-0.001-0.008-0.001-0.012c0-0.004-0.001-0.008-0.001-0.012c0-0.004-0.001-0.008-0.001-0.012
	s-0.001-0.008-0.001-0.012s-0.001-0.008-0.001-0.012s-0.001-0.008-0.001-0.012s-0.001-0.008-0.001-0.012
	c0-0.004-0.001-0.008-0.001-0.012c0-0.004-0.001-0.008-0.001-0.013c0-0.004-0.001-0.008-0.001-0.012
	c0-0.004-0.001-0.008-0.001-0.012c0-0.004,0-0.008-0.001-0.013c0-0.004-0.001-0.008-0.001-0.012c0-0.004-0.001-0.008-0.001-0.013
	c0-0.004-0.001-0.008-0.001-0.012c0-0.004-0.001-0.009-0.001-0.013c0-0.004-0.001-0.008-0.001-0.013
	c0-0.004-0.001-0.008-0.001-0.013c0-0.004-0.001-0.008-0.001-0.012c0-0.004-0.001-0.008-0.001-0.013s-0.001-0.008-0.001-0.013
	c0-0.004-0.001-0.008-0.001-0.013c0-0.004-0.001-0.008-0.001-0.012c0-0.004-0.001-0.009-0.001-0.013
	c0-0.004-0.001-0.008-0.001-0.013s0-0.008-0.001-0.013s-0.001-0.008-0.001-0.013c0-0.004-0.001-0.008-0.001-0.013
	c0-0.004-0.001-0.008-0.001-0.012c0-0.004-0.001-0.009-0.001-0.013c0-0.004-0.001-0.008-0.001-0.013c0-0.004,0-0.008-0.001-0.013
	c0-0.004-0.001-0.008-0.001-0.012c0-0.004-0.001-0.008-0.001-0.013c0-0.004,0-0.008-0.001-0.013c0-0.004-0.104-0.008-0.105-0.012
	c0-0.004-0.105-0.008-0.105-0.013c0-0.004,0-0.008,0-0.012c0-0.004,0-0.008,0-0.013c0-0.004,0-0.008,0-0.012
	c0-0.004,0-0.008,0-0.012c0-0.004,0.099-0.008,0.095-0.012c-0.004-0.004,0.041-0.008,0.034-0.013
	c-0.007-0.004,0.01-0.008,0.001-0.012c-0.009-0.004-0.005-0.008-0.015-0.012c-0.009-0.004-0.012-0.008-0.021-0.012
	c-0.009-0.004-0.014-0.008-0.021-0.012c-0.007-0.004-0.012-0.008-0.016-0.012c-0.004-0.004-0.006-0.008-0.006-0.012
	c0-0.004-0.002-0.008-0.006-0.012c-0.004-0.004-0.01-0.008-0.017-0.012c-0.007-0.004-0.015-0.008-0.024-0.012
	s-0.018-0.008-0.027-0.012s-0.019-0.008-0.027-0.012c-0.008-0.004-0.017-0.008-0.023-0.012s0.036-0.008,0.031-0.012
	c-0.004-0.004,0.042-0.008,0.042-0.011c0-0.004,0-0.008,0-0.012s0-0.008,0-0.011c0-0.004,0-0.008,0-0.012c0-0.003,0-0.007,0-0.011
	c0-0.003,0-0.007,0-0.011c0-0.003,0-0.007,0-0.011c0-0.004,0-0.007,0-0.011c0-0.003,0-0.007,0-0.011
	c0-0.004-0.046-0.007-0.042-0.011c0.004-0.003-0.014-0.007-0.007-0.011c0.007-0.003,0.003-0.007,0.012-0.011
	c0.009-0.003,0.012-0.007,0.021-0.01c0.009-0.004,0.015-0.007,0.024-0.011s0.016-0.007,0.022-0.01
	c0.007-0.003,0.012-0.007,0.017-0.01c0.004-0.003,0.006-0.007,0.006-0.01c0-0.003,0.001-0.007,0.004-0.01
	c0.002-0.003,0.005-0.007,0.009-0.01c0.004-0.003,0.008-0.006,0.013-0.01c0.004-0.003,0.009-0.006,0.014-0.01s0.01-0.006,0.014-0.01
	c0.005-0.003,0.009-0.006,0.013-0.009c0.004-0.003,0.007-0.006,0.009-0.01c0.002-0.003,0.004-0.006,0.004-0.009
	s0.001-0.006,0.003-0.009s0.003-0.006,0.005-0.009c0.002-0.003,0.005-0.006,0.007-0.009s0.005-0.006,0.008-0.009
	c0.002-0.003,0.005-0.006,0.008-0.009c0.002-0.003,0.005-0.006,0.007-0.009s0.004-0.005,0.006-0.008s0.002-0.006,0.003-0.008
	c0-0.002,0.001-0.005,0.002-0.008c0.001-0.002,0.002-0.005,0.003-0.008s0.003-0.005,0.004-0.008
	c0.002-0.003,0.003-0.006,0.005-0.009c0.001-0.003,0.003-0.006,0.005-0.01c0.001-0.003,0.003-0.006,0.004-0.01
	s0.003-0.007,0.004-0.01s0.002-0.007,0.002-0.011c0-0.003,0.001-0.007,0.002-0.011c0-0.003,0.001-0.007,0.002-0.011
	s0.002-0.008,0.003-0.012s0.002-0.008,0.003-0.012c0.001-0.004,0.002-0.009,0.003-0.013c0.001-0.004,0.002-0.009,0.003-0.013
	c0.001-0.005,0.002-0.009,0.003-0.014c0.001-0.005,0.001-0.009,0.002-0.014c0-0.004,0.001-0.009,0.002-0.014
	c0-0.005,0.001-0.01,0.002-0.015s0.002-0.01,0.002-0.015c0.001-0.005,0.002-0.01,0.003-0.015c0.001-0.005,0.002-0.01,0.003-0.016
	s0.002-0.01,0.003-0.016s0.002-0.011,0.002-0.017c0.001-0.005,0.002-0.011,0.002-0.017c0-0.005,0.001-0.011,0.002-0.017
	c0-0.006,0.001-0.011,0.002-0.017c0-0.006,0.001-0.012,0.002-0.018s0.002-0.012,0.003-0.018c0-0.006,0.001-0.012,0.002-0.018
	c0.001-0.006,0.002-0.012,0.003-0.018c0-0.006,0.001-0.012,0.002-0.018c0.001-0.006,0.002-0.013,0.002-0.019
	c0.001-0.006,0.002-0.012,0.002-0.019c0.001-0.006,0.002-0.013,0.003-0.019s0.001-0.013,0.002-0.02
	c0.001-0.006,0.002-0.013,0.003-0.019c0.001-0.007,0.002-0.013,0.003-0.02c0.001-0.006,0.002-0.013,0.003-0.02
	c0.001-0.007,0.002-0.013,0.003-0.02c0-0.007,0.001-0.014,0.002-0.02c0.001-0.007,0.002-0.014,0.003-0.021s0.002-0.014,0.003-0.021
	s0.002-0.014,0.003-0.021s0.002-0.014,0.003-0.021c0.001-0.007,0.002-0.014,0.003-0.021s0.002-0.014,0.003-0.021
	c0.001-0.007,0.002-0.014,0.003-0.021c0.001-0.007,0.002-0.014,0.003-0.021c0.001-0.007,0.002-0.014,0.003-0.021
	c0.001-0.007,0.002-0.014,0.003-0.021c0.001-0.007,0.002-0.014,0.003-0.021c0.001-0.007,0.002-0.015,0.003-0.021
	c0.001-0.007,0.002-0.014,0.003-0.021s0.002-0.014,0.003-0.021c0.001-0.007,0.002-0.014,0.004-0.021
	c0.001-0.007,0.002-0.014,0.003-0.021c0.001-0.007,0.002-0.014,0.004-0.021c0.001-0.007,0.002-0.014,0.003-0.021
	c0.001-0.007,0.002-0.015,0.004-0.021c0.001-0.007,0.002-0.015,0.004-0.021c0.001-0.007,0.002-0.015,0.004-0.021
	c0.001-0.007,0.003-0.014,0.004-0.021c0.001-0.007,0.003-0.014,0.004-0.021c0.001-0.007,0.002-0.014,0.004-0.021
	c0.001-0.007,0.003-0.014,0.004-0.021c0.001-0.007,0.003-0.014,0.004-0.021c0.001-0.007,0.003-0.014,0.004-0.021
	s0.003-0.014,0.004-0.021s0.003-0.014,0.004-0.021s0.003-0.014,0.004-0.021s0.003-0.014,0.005-0.021
	c0.001-0.007,0.003-0.014,0.004-0.021s0.003-0.014,0.005-0.021s0.003-0.013,0.005-0.02s0.003-0.014,0.005-0.021
	c0.001-0.006,0.003-0.013,0.005-0.02c0.002-0.006,0.003-0.013,0.005-0.02c0.001-0.006,0.003-0.013,0.005-0.02
	c0.002-0.006,0.003-0.013,0.005-0.02s0.003-0.013,0.005-0.02c0.001-0.006,0.003-0.013,0.005-0.019s0.003-0.013,0.005-0.019
	s0.004-0.012,0.005-0.019c0.002-0.006,0.004-0.013,0.006-0.019c0.002-0.006,0.004-0.012,0.006-0.019
	c0.002-0.006,0.004-0.012,0.006-0.018c0.002-0.006,0.004-0.012,0.006-0.018s0.004-0.012,0.006-0.018s0.004-0.012,0.006-0.017
	c0.002-0.006,0.004-0.012,0.006-0.017c0.002-0.006,0.004-0.011,0.006-0.017c0.002-0.006,0.004-0.011,0.006-0.017
	c0.002-0.005,0.004-0.011,0.006-0.016s0.004-0.011,0.006-0.016c0.002-0.005,0.004-0.011,0.007-0.016
	c0.002-0.005,0.004-0.01,0.007-0.015c0.002-0.005,0.004-0.01,0.007-0.015c0.002-0.005,0.004-0.01,0.007-0.015
	s0.004-0.009,0.007-0.014c0.002-0.004,0.005-0.009,0.007-0.014s0.004-0.009,0.007-0.014s0.005-0.008,0.007-0.013
	s0.005-0.009,0.007-0.013c0.003-0.004,0.005-0.008,0.008-0.012s0.005-0.008,0.007-0.012c0.003-0.004,0.005-0.008,0.008-0.012
	c0.002-0.003,0.005-0.007,0.008-0.011s0.005-0.007,0.008-0.011c0.003-0.003,0.005-0.006,0.008-0.01
	c0.002-0.003,0.005-0.007,0.008-0.01c0.003-0.003,0.006-0.006,0.008-0.009c0.003-0.003,0.006-0.006,0.008-0.009
	c0.003-0.002,0.006-0.005,0.009-0.008c0.002-0.003,0.005-0.005,0.008-0.008s0.006-0.005,0.009-0.007s0.006-0.005,0.009-0.007
	c0.003-0.002,0.006-0.004,0.009-0.006s0.006-0.004,0.009-0.006c0.003-0.001,0.006-0.003,0.009-0.005
	c0.003-0.002,0.006-0.003,0.009-0.005s0.006-0.003,0.009-0.004c0.003-0.001,0.006-0.002,0.009-0.003
	c0.003-0.001,0.006-0.002,0.01-0.003c0.003,0,0.006-0.001,0.01-0.002c0.003,0,0.006-0.001,0.01-0.001s0.006,0.021,0.01,0.021
	c0.003,0,0.007,0.021,0.01,0.021s0.007,0,0.01,0c0.002,0,0.005,0,0.008,0c0.003,0,0.005,0,0.008,0c0.002,0,0.005,0,0.008,0
	c0.002,0,0.005-0.021,0.008-0.021c0.003,0,0.005-0.01,0.008-0.01c0.003,0,0.005,0.013,0.008,0.014c0.002,0,0.005,0.017,0.008,0.017
	c0.002,0,0.005,0,0.008,0c0.003,0,0.006,0,0.008,0c0.003,0,0.006-0.017,0.008-0.016c0.003,0,0.006,0.005,0.008,0.006
	c0.003,0,0.006,0.01,0.008,0.01c0.003,0,0.006,0,0.008,0c0.003,0,0.006-0.013,0.008-0.012c0.003,0.001,0.006-0.005,0.008-0.005
	c0.003,0.001,0.006-0.002,0.008-0.001c0.003,0.001,0.006,0,0.009,0.001c0.002,0.001,0.005,0.001,0.008,0.002
	c0.002,0.001,0.005,0.001,0.008,0.002c0.002,0.001,0.005,0.001,0.008,0.002s0.005,0.002,0.008,0.003s0.005,0.002,0.008,0.003
	s0.006,0.002,0.008,0.003c0.003,0.001,0.006,0.002,0.009,0.003c0.002,0.001,0.005,0.002,0.008,0.003
	c0.002,0.001,0.005,0.002,0.008,0.004c0.003,0.001,0.005,0.002,0.008,0.003c0.003,0.001,0.005,0.003,0.008,0.004
	c0.003,0.001,0.006,0.003,0.008,0.004c0.003,0.001,0.006,0.002,0.009,0.004c0.002,0.001,0.005,0.003,0.008,0.004
	c0.002,0.001,0.005,0.002,0.008,0.004s0.005,0.003,0.008,0.005c0.003,0.001,0.005,0.003,0.008,0.004s0.005,0.003,0.008,0.004
	s0.006,0.003,0.008,0.005c0.003,0.001,0.006,0.003,0.008,0.005c0.003,0.001,0.006,0.003,0.008,0.005
	c0.003,0.001,0.006,0.003,0.008,0.005c0.003,0.001,0.006,0.003,0.008,0.005c0.003,0.002,0.006,0.003,0.008,0.005
	c0.003,0.002,0.006,0.003,0.008,0.005c0.003,0.001,0.005,0.003,0.008,0.005c0.003,0.001,0.005,0.003,0.008,0.005
	c0.003,0.001,0.005,0.003,0.008,0.005c0.002,0.002,0.005,0.003,0.008,0.005c0.002,0.002,0.005,0.004,0.008,0.006
	c0.003,0.002,0.005,0.004,0.008,0.005c0.003,0.002,0.005,0.004,0.008,0.006c0.002,0.002,0.005,0.004,0.008,0.006
	c0.003,0.002,0.005,0.004,0.008,0.006c0.002,0.002,0.005,0.004,0.008,0.006c0.003,0.002,0.005,0.004,0.008,0.006
	c0.002,0.002,0.005,0.004,0.008,0.006c0.003,0.002,0.005,0.004,0.008,0.006c0.002,0.002,0.005,0.004,0.008,0.006
	c0.002,0.002,0.005,0.004,0.008,0.006c0.003,0.002,0.005,0.004,0.008,0.006c0.003,0.002,0.005,0.004,0.008,0.006
	c0.003,0.002,0.005,0.004,0.008,0.007c0.002,0.002,0.005,0.004,0.008,0.006c0.002,0.002,0.005,0.004,0.007,0.006
	c0.003,0.002,0.005,0.004,0.008,0.007c0.003,0.002,0.005,0.004,0.008,0.006c0.002,0.002,0.005,0.004,0.008,0.007
	c0.002,0.002,0.005,0.004,0.007,0.006c0.003,0.002,0.005,0.004,0.008,0.007s0.005,0.004,0.007,0.007
	c0.003,0.002,0.005,0.004,0.008,0.007c0.002,0.002,0.005,0.004,0.007,0.007c0.002,0.002,0.005,0.004,0.007,0.006
	c0.002,0.002,0.005,0.005,0.007,0.007c0.002,0.002,0.005,0.004,0.008,0.007c0.002,0.002,0.004,0.004,0.007,0.007
	c0.002,0.002,0.005,0.004,0.007,0.007s0.005,0.004,0.007,0.007s0.005,0.005,0.007,0.007c0.002,0.002,0.004,0.005,0.007,0.007
	c0.002,0.002,0.005,0.004,0.007,0.007s0.004,0.004,0.007,0.007s0.005,0.005,0.007,0.007c0.002,0.002,0.005,0.005,0.007,0.007
	c0.002,0.002,0.004,0.004,0.007,0.007c0.002,0.002,0.004,0.005,0.006,0.007c0.002,0.002,0.005,0.005,0.007,0.007
	c0.002,0.002,0.004,0.004,0.007,0.007s0.004,0.005,0.007,0.007c0.002,0.002,0.004,0.004,0.006,0.007
	c0.002,0.002,0.004,0.004,0.006,0.007c0.002,0.002,0.004,0.005,0.007,0.007c0.002,0.002,0.004,0.004,0.006,0.007
	c0.002,0.002,0.004,0.004,0.006,0.007c0.002,0.002,0.004,0.005,0.006,0.007c0.002,0.002,0.004,0.005,0.006,0.007
	c0.002,0.002,0.004,0.004,0.006,0.007c0.002,0.002,0.004,0.004,0.006,0.007s0.004,0.004,0.006,0.007s0.004,0.004,0.006,0.007
	s0.004,0.004,0.006,0.007s0.004,0.004,0.006,0.007s0.004,0.004,0.005,0.007c0.002,0.002,0.004,0.004,0.006,0.007
	c0.002,0.002,0.004,0.004,0.005,0.006c0.002,0.002,0.004,0.004,0.006,0.007s0.003,0.004,0.005,0.007
	c0.002,0.002,0.003,0.004,0.005,0.006c0.002,0.002,0.003,0.004,0.005,0.007c0.001,0.002,0.003,0.004,0.005,0.006
	c0.002,0.002,0.004,0.004,0.005,0.006c0.002,0.002,0.003,0.004,0.005,0.006c0.002,0.002,0.003,0.004,0.005,0.006
	c0.001,0.002,0.003,0.004,0.005,0.006c0.001,0.002,0.003,0.004,0.005,0.006c0.001,0.002,0.003,0.004,0.004,0.006
	s0.003,0.004,0.005,0.006c0.001,0.002,0.003,0.004,0.004,0.006s0.003,0.004,0.004,0.006c0.001,0.002,0.003,0.004,0.004,0.006
	s0.003,0.004,0.004,0.006s0.003,0.004,0.004,0.006s0.002,0.004,0.004,0.006s0.003,0.004,0.004,0.005
	c0.001,0.002,0.002,0.004,0.004,0.006c0.001,0.002,0.002,0.004,0.004,0.005c0.001,0.002,0.002,0.004,0.003,0.006
	c0.001,0.001,0.002,0.003,0.004,0.005c0.001,0.001,0.002,0.003,0.003,0.005c0.001,0.001,0.002,0.003,0.003,0.005
	c0.001,0.001,0.002,0.002,0.003,0.004s0.002,0.003,0.003,0.004c0,0.001,0.001,0.003,0.002,0.004s0.001,0.003,0.002,0.005
	s0.002,0.003,0.002,0.004c0.001,0.001,0.001,0.003,0.002,0.005c0.001,0.001,0.001,0.003,0.002,0.004
	c0,0.002,0.001,0.003,0.002,0.005c0,0.001,0.001,0.003,0.002,0.005c0.001,0.001,0.001,0.003,0.002,0.005
	c0.001,0.002,0.001,0.003,0.002,0.005c0,0.002,0.001,0.003,0.002,0.005c0,0.001,0.001,0.003,0.002,0.005
	c0,0.002,0.001,0.003,0.002,0.005c0,0.001,0.001,0.003,0.001,0.005c0.001,0.002,0.001,0.004,0.002,0.005
	c0,0.002,0.001,0.003,0.001,0.005c0.001,0.002,0.001,0.003,0.002,0.005s0.001,0.004,0.001,0.005c0,0.002,0.001,0.004,0.001,0.006
	c0,0.001,0.001,0.003,0.001,0.005s0.001,0.004,0.001,0.005c0,0.002,0.001,0.004,0.001,0.006s0.001,0.004,0.001,0.006
	c0,0.001,0,0.003,0.001,0.005s0.001,0.004,0.001,0.006s0,0.004,0.001,0.006s0.001,0.004,0.001,0.006
	c0,0.002,0.109,0.004,0.109,0.006c0,0.002,0.11,0.004,0.11,0.006c0,0.002,0,0.004,0,0.006s0,0.004,0,0.006s0,0.004,0,0.006
	c0,0.002,0,0.004,0,0.006s0,0.004,0,0.006c0,0.002,0,0.004,0,0.006c0,0.002,0,0.004,0,0.006s0,0.004,0,0.006s0,0.004,0,0.006
	c0,0.002,0,0.004,0,0.006c0,0.002,0,0.004,0,0.006c0,0.002,0,0.004,0,0.006c0,0.002,0,0.004,0,0.006c0,0.002,0,0.004,0,0.006
	c0,0.002,0,0.004,0,0.006s0,0.004,0,0.006c0,0.002-0.084,0.004-0.066,0.007c0.018,0.002-0.015,0.004-0.015,0.006
	c0,0.002,0.022,0.004,0.041,0.006c0.018,0.002,0.041,0.004,0.041,0.007c0,0.002,0,0.004,0,0.006c0,0.002,0,0.004,0,0.007
	c0,0.002-0.043,0.004-0.055,0.006c-0.011,0.002-0.035,0.004-0.026,0.007c0.009,0.002,0.001,0.004-0.001,0.006
	c-0.002,0.002-0.01,0.004-0.01,0.007c0,0.002-0.001,0.004,0,0.006c0.002,0.002,0.006,0.005,0.015,0.007
	c0.009,0.002,0.043,0.004,0.045,0.007c0.002,0.002,0.032,0.004,0.032,0.006c0,0.002,0,0.005,0,0.007c0,0.002,0,0.004,0,0.007
	c0,0.002,0,0.004,0,0.007c0,0.002,0,0.004,0,0.006c0,0.002,0,0.004,0,0.007s0,0.004,0,0.007c0,0.002,0,0.004,0,0.006
	c0,0.002,0,0.005,0,0.007c0,0.002,0,0.004,0,0.007c0,0.002,0,0.004,0,0.007c0,0.002,0,0.004,0,0.006c0,0.002,0,0.004,0,0.007
	c0,0.002,0,0.004,0,0.007c0,0.002,0,0.004,0,0.006c0,0.002,0,0.004,0,0.007c0,0.002,0,0.004,0,0.006c0,0.002,0,0.005,0,0.007
	c0,0.002,0,0.004,0,0.007c0,0.002,0,0.004,0,0.006c0,0.002,0,0.004,0,0.007c0,0.002,0,0.004,0,0.006c0,0.002,0,0.004,0,0.007
	c0,0.002,0,0.004,0,0.006c0,0.002,0,0.004,0,0.006c0,0.002-0.034,0.004-0.041,0.007c-0.006,0.002-0.03,0.004-0.039,0.006
	c-0.008,0.002-0.024,0.004-0.031,0.006c-0.006,0.002-0.015,0.004-0.015,0.006c0,0.002-0.003,0.004-0.007,0.006
	c-0.003,0.002-0.008,0.004-0.013,0.007c-0.004,0.002-0.009,0.004-0.012,0.006c-0.003,0.002-0.005,0.004-0.005,0.006
	c0,0.002-0.001,0.004-0.002,0.006c-0.001,0.002-0.004,0.004-0.006,0.006c-0.002,0.002,0.085,0.004,0.083,0.006
	s0.086,0.004,0.086,0.006s0,0.004,0,0.006c0,0.002,0.001,0.004,0,0.006s0,0.004,0,0.006c0,0.002,0,0.004,0,0.006
	s-0.076,0.004-0.061,0.006c0.016,0.002-0.015,0.004-0.015,0.006c0,0.002,0.022,0.004,0.038,0.006s0.039,0.004,0.039,0.006
	s0,0.004,0,0.006s0,0.004,0,0.006s0,0.004,0,0.005c0,0.002,0,0.004,0,0.006s-0.045,0.004-0.061,0.006
	c-0.015,0.002-0.046,0.004-0.045,0.005c0,0.002-0.015,0.004-0.023,0.006c-0.007,0.002-0.019,0.003-0.019,0.005
	s-0.005,0.004-0.009,0.005c-0.003,0.002-0.008,0.004-0.008,0.005c0,0.002-0.002,0.004-0.003,0.005
	c-0.002,0.002-0.003,0.004-0.003,0.005c0,0.002,0.086,0.004,0.086,0.005c-0.001,0.002,0.085,0.003,0.085,0.005
	c0,0.001,0,0.003,0,0.005c0,0.002,0,0.003,0,0.005c0,0.001-0.085,0.003-0.085,0.005c0,0.001-0.042,0.003-0.042,0.005
	c0,0.002-0.021,0.003-0.021,0.005c0,0.002,0.072,0.003,0.072,0.005s0.076,0.003,0.076,0.005s0,0.003,0,0.005
	c0,0.001-0.082,0.003-0.081,0.004s-0.04,0.003-0.04,0.004c0,0.002-0.019,0.004-0.019,0.006s0.067,0.004,0.068,0.006
	c0.001,0.002,0.071,0.004,0.071,0.006s0,0.004,0,0.006s-0.076,0.004-0.075,0.006s-0.037,0.004-0.037,0.006
	c0,0.002-0.018,0.004-0.018,0.006c0,0.002,0.063,0.004,0.063,0.006c0,0.002,0.066,0.004,0.066,0.006c0,0.002,0,0.004,0,0.006
	c0,0.002,0,0.004,0,0.007c0,0.002,0,0.004,0,0.006c0,0.002-0.07,0.004-0.069,0.007s-0.035,0.004-0.034,0.007
	s0.051,0.004,0.052,0.007s0.052,0.004,0.052,0.007s0,0.005,0,0.007c0,0.002,0,0.005,0,0.007s0,0.005,0,0.007
	c0,0.002,0,0.004,0,0.007s-0.064,0.005-0.061,0.007s-0.025,0.005-0.021,0.007c0.004,0.002-0.008,0.005-0.004,0.007
	c0.003,0.003-0.002,0.005-0.002,0.008s-0.001,0.005,0.002,0.007s0.006,0.005,0.01,0.008s0.038,0.005,0.041,0.007
	c0.003,0.003,0.035,0.005,0.035,0.008s0,0.005,0,0.008s0,0.005,0,0.008s0,0.005,0,0.008c0,0.003,0,0.005,0,0.008
	c0,0.003,0,0.005,0,0.008c0,0.002,0,0.005,0,0.008c0,0.003,0,0.005,0,0.008c0,0.002,0,0.005,0,0.008
	c0,0.003-0.032,0.005-0.036,0.008s-0.022,0.005-0.027,0.008c-0.004,0.002-0.017,0.005-0.02,0.008
	c-0.003,0.002-0.01,0.005-0.01,0.008c0,0.002-0.003,0.005-0.005,0.008c-0.001,0.002-0.005,0.005-0.007,0.008
	c-0.002,0.002-0.005,0.005-0.007,0.008c-0.001,0.003-0.003,0.005-0.003,0.008c0,0.003-0.001,0.006-0.002,0.008
	c-0.001,0.003-0.002,0.006-0.003,0.009s-0.002,0.005-0.003,0.008c-0.001,0.003-0.002,0.006-0.002,0.009c0,0.003,0,0.005-0.001,0.008
	c-0.001,0.003-0.001,0.006-0.002,0.009c0,0.003-0.001,0.006-0.002,0.008c-0.001,0.003-0.001,0.006-0.001,0.009
	c0,0.003-0.001,0.006-0.001,0.009s-0.001,0.006-0.001,0.009s-0.001,0.005-0.001,0.008s-0.001,0.006-0.001,0.009s0,0.006-0.001,0.009
	s-0.001,0.006-0.001,0.009s-0.001,0.006-0.001,0.009s-0.001,0.006-0.001,0.009c0,0.003-0.001,0.006-0.001,0.009
	c0,0.003,0,0.006-0.001,0.009s-0.001,0.006-0.001,0.009s-0.001,0.006-0.001,0.008c0,0.003-0.001,0.006-0.001,0.009
	s0,0.006-0.001,0.009s-0.001,0.006-0.001,0.009s-0.001,0.006-0.001,0.009c0,0.003-0.001,0.006-0.001,0.009s-0.001,0.006-0.001,0.009
	s0,0.006-0.001,0.009s-0.001,0.006-0.001,0.009s-0.001,0.006-0.001,0.009s0,0.006-0.001,0.009s-0.001,0.006-0.001,0.009
	c0,0.002-0.001,0.005-0.001,0.008s-0.001,0.006-0.001,0.009c0,0.003-0.001,0.006-0.001,0.009s-0.001,0.006-0.001,0.008
	c0,0.003-0.001,0.006-0.001,0.009s-0.001,0.006-0.001,0.009c0,0.003,0,0.005-0.001,0.008s-0.001,0.006-0.001,0.009
	s-0.001,0.005-0.001,0.008s-0.001,0.006-0.001,0.009c0,0.002-0.001,0.005-0.001,0.008s0,0.005-0.001,0.008s-0.001,0.006-0.001,0.008
	c0,0.003-0.001,0.006-0.001,0.008c0,0.003-0.001,0.006-0.001,0.008c0,0.003-0.001,0.006-0.001,0.008c0,0.003,0,0.006-0.001,0.008
	c0,0.003-0.001,0.006-0.001,0.008c0,0.003-0.001,0.005-0.001,0.008c0,0.002-0.001,0.005-0.001,0.008c0,0.003,0,0.005-0.001,0.008
	c0,0.002-0.001,0.005-0.001,0.008c0,0.003-0.001,0.005-0.001,0.008c0,0.002,0,0.005-0.001,0.008s-0.001,0.005-0.001,0.008
	c0,0.003-0.001,0.005-0.001,0.008c0,0.003-0.001,0.005-0.001,0.008s-0.001,0.005-0.001,0.008c0,0.002-0.001,0.005-0.001,0.008
	c0,0.002-0.001,0.005-0.001,0.007c0,0.002-0.001,0.005-0.001,0.008s0,0.005-0.001,0.007s-0.001,0.005-0.001,0.007
	c0,0.002-0.001,0.005-0.001,0.007s0,0.005-0.001,0.007s0,0.005-0.001,0.007s0.104,0.005,0.104,0.007
	c0,0.002,0.104,0.004,0.104,0.007s0,0.005,0,0.007c0,0.002,0,0.005,0,0.007c0,0.002,0,0.004,0,0.007c0,0.002,0,0.004,0,0.007
	c0,0.002,0,0.004,0,0.006c0,0.002,0,0.004,0,0.007c0,0.002,0,0.004,0,0.006c0,0.002,0,0.004,0,0.007c0,0.002,0,0.004,0,0.006
	c0,0.002,0,0.004,0,0.006c0,0.002,0,0.004,0,0.006c0,0.002,0,0.004,0,0.006s0,0.004,0,0.006s0,0.004,0,0.006s0,0.004,0,0.006
	s0,0.004,0,0.006s0,0.004,0,0.006s0,0.004,0,0.006s0,0.004,0,0.006s0,0.004,0,0.006c0,0.002,0,0.004,0,0.006s0,0.004,0,0.006
	c0,0.002,0,0.004,0,0.006c0,0.002,0,0.004,0,0.006c0,0.002,0,0.004,0,0.007c0,0.002,0,0.004,0,0.006
	c0,0.002-0.115,0.004-0.115,0.006c0,0.002-0.058,0.004-0.058,0.007c0,0.002-0.029,0.004-0.029,0.007
	c0,0.002-0.015,0.004-0.015,0.007c0,0.002-0.007,0.004-0.008,0.007c0,0.002-0.004,0.004-0.004,0.007
	c0,0.002-0.002,0.004-0.002,0.007c0,0.002,0.116,0.005,0.116,0.007c0,0.002,0.116,0.004,0.116,0.007s0,0.005,0,0.007
	s0,0.005,0,0.007c0,0.002,0,0.004,0,0.007s0,0.005,0,0.007s0,0.005,0,0.008s0,0.005,0,0.007s0,0.005,0,0.007s0,0.005,0,0.008
	c0,0.002,0,0.005,0,0.007s0,0.005,0,0.008s0,0.005,0,0.008c0,0.002,0,0.005,0,0.007c0,0.003,0,0.005,0,0.008
	c0,0.003,0,0.005,0,0.008c0,0.003,0,0.005,0,0.008c0,0.003,0,0.005,0,0.008c0,0.002,0,0.005,0,0.008s0,0.005,0,0.008
	c0,0.003,0,0.005,0,0.008c0,0.002,0,0.005,0,0.008c0,0.003-0.127,0.005-0.128,0.008c0,0.002-0.064,0.005-0.064,0.008
	c0,0.003-0.032,0.005-0.033,0.008c0,0.003-0.017,0.005-0.017,0.008c0,0.002-0.009,0.005-0.009,0.008
	c0,0.002-0.004,0.005-0.005,0.008c0,0.003-0.002,0.006-0.003,0.008c0,0.003-0.001,0.006-0.002,0.008
	c0,0.003-0.001,0.006-0.001,0.008c0,0.003-0.001,0.006-0.001,0.008c0,0.003-0.001,0.006-0.001,0.008
	c0,0.003-0.001,0.006-0.001,0.008c0,0.003,0,0.006-0.001,0.009c0,0.002,0,0.005-0.001,0.008s0,0.005-0.001,0.008
	s-0.001,0.005-0.001,0.008c0,0.003-0.001,0.006-0.001,0.008c0,0.003,0,0.006-0.001,0.009c0,0.002,0,0.005-0.001,0.008
	s0,0.006-0.001,0.008c0,0.003-0.001,0.006-0.001,0.009c0,0.002-0.001,0.005-0.001,0.008c0,0.003-0.001,0.005-0.001,0.008
	c0,0.003,0,0.006-0.001,0.009c0,0.002,0,0.005-0.001,0.008s0,0.005-0.001,0.008s0,0.006-0.001,0.009
	c0,0.002-0.001,0.005-0.001,0.008c0,0.003-0.001,0.005-0.001,0.008c0,0.003-0.001,0.006-0.001,0.008c0,0.003,0,0.006-0.001,0.009
	c0,0.003,0,0.005-0.001,0.008s0,0.006-0.001,0.008c0,0.003,0,0.006-0.001,0.008c0,0.003,0,0.006-0.001,0.009
	c0,0.002,0.146,0.005,0.145,0.008c0,0.002,0.145,0.005,0.145,0.008s0,0.005,0,0.008s0,0.005,0,0.008s0,0.005,0,0.008
	s0,0.005,0,0.008s0,0.005,0,0.008c0,0.002,0,0.005,0,0.008c0,0.002,0,0.005,0,0.008c0,0.003,0,0.006,0,0.008
	c0,0.003,0,0.005,0,0.008c0,0.002,0,0.005,0,0.008c0,0.002,0,0.005,0,0.008c0,0.003,0,0.005,0,0.008c0,0.002,0,0.005,0,0.008
	s0,0.005,0,0.008c0,0.003,0,0.005,0,0.008c0,0.002,0,0.005,0,0.008c0,0.002,0,0.005,0,0.008s0,0.005,0,0.008s0,0.005,0,0.008
	s0,0.005,0,0.008c0,0.002,0,0.005,0,0.008c0,0.002,0,0.005,0,0.007s0,0.005,0,0.008s0,0.005,0,0.007s0,0.005,0,0.008
	c0,0.002,0,0.005,0,0.007s0,0.005,0,0.007s0,0.005,0,0.007s0,0.005,0,0.007s0,0.005,0,0.007s0,0.005,0,0.007
	c0,0.002,0,0.005,0,0.007s0,0.005,0,0.007c0,0.002,0,0.005,0,0.007c0,0.002,0,0.004,0,0.007s0,0.004,0,0.007s0,0.004,0,0.007
	c0,0.002,0,0.004,0,0.007c0,0.002,0,0.004,0,0.006c0,0.002,0,0.004,0,0.007c0,0.002,0,0.004,0,0.006s0,0.004,0,0.006
	s0,0.004,0,0.006s-0.129,0.004-0.096,0.006s-0.015,0.004-0.015,0.006c0,0.002,0.022,0.004,0.056,0.006s0.056,0.004,0.056,0.006
	s0,0.004,0,0.006s0,0.004,0,0.006s0,0.004,0,0.006S6240.5,6661.848,6240.5,6661.849z"/>
</svg>
