<?xml version="1.0" encoding="utf-8"?>
<!-- Generator: Adobe Illustrator 19.0.0, SVG Export Plug-In . SVG Version: 6.00 Build 0)  -->
<svg version="1.1" id="Camada_1" xmlns="http://www.w3.org/2000/svg" xmlns:xlink="http://www.w3.org/1999/xlink" x="0px" y="0px"
	 width="1920px" height="1080px" viewBox="0 0 1920 1080" enable-background="new 0 0 1920 1080" xml:space="preserve">
<path id="XMLID_794_" fill="#563824" d="M108.564-281.49c0,0,0,0.005,0.001,0.015c0.001,0.01,0.002,0.025,0.004,0.046
	c0.002,0.02,0.004,0.046,0.007,0.076s0.006,0.065,0.009,0.106c0.003,0.04,0.007,0.085,0.011,0.135s0.009,0.105,0.014,0.164
	s0.01,0.124,0.015,0.193c0.005,0.069,0.011,0.143,0.017,0.222s0.012,0.162,0.019,0.25c0.007,0.088,0.013,0.181,0.02,0.278
	c0.007,0.097,0.014,0.199,0.022,0.306s0.015,0.217,0.023,0.333s0.016,0.236,0.024,0.36s0.016,0.254,0.024,0.387
	c0.008,0.133,0.017,0.271,0.025,0.413s0.017,0.289,0.025,0.44c0.008,0.151,0.017,0.306,0.026,0.466
	c0.009,0.159,0.017,0.323,0.026,0.491c0.009,0.168,0.017,0.34,0.026,0.516c0.009,0.176,0.017,0.357,0.025,0.541
	c0.008,0.185,0.017,0.373,0.025,0.566c0.008,0.193,0.016,0.39,0.024,0.591c0.008,0.201,0.016,0.406,0.024,0.615
	s0.015,0.422,0.023,0.638c0.007,0.217,0.015,0.437,0.022,0.662c0.007,0.225,0.014,0.453,0.021,0.685s0.013,0.468,0.019,0.708
	c0.006,0.24,0.012,0.483,0.018,0.731s0.011,0.498,0.016,0.753c0.005,0.255,0.01,0.513,0.014,0.775
	c0.004,0.262,0.008,0.528,0.012,0.797c0.004,0.269,0.007,0.542,0.01,0.818s0.005,0.556,0.007,0.839
	c0.002,0.283-0.081,0.57-0.079,0.86s-0.082,0.584-0.082,0.88c0,0.297,0,0.597,0,0.901c0,0.304,0.082,0.61,0.08,0.921
	s0.038,0.624,0.035,0.94c-0.003,0.317,0.015,0.636,0.01,0.96c-0.004,0.323,0.002,0.649-0.004,0.979s-0.006,0.662-0.012,0.997
	c-0.007,0.336-0.011,0.674-0.019,1.016s-0.015,0.686-0.024,1.034c-0.009,0.348-0.019,0.698-0.029,1.052
	c-0.011,0.353-0.022,0.71-0.034,1.069c-0.012,0.359-0.025,0.721-0.039,1.086c-0.014,0.365-0.028,0.733-0.043,1.103
	c-0.015,0.371-0.031,0.744-0.048,1.12c-0.017,0.376-0.035,0.755-0.053,1.136c-0.019,0.381-0.038,0.765-0.059,1.152
	s-0.042,0.776-0.064,1.168s-0.045,0.786-0.069,1.183c-0.024,0.397-0.049,0.796-0.075,1.198c-0.026,0.402-0.053,0.806-0.081,1.213
	s-0.057,0.816-0.087,1.228c-0.03,0.412-0.061,0.826-0.093,1.242s-0.065,0.835-0.1,1.256c-0.034,0.421-0.07,0.844-0.106,1.27
	s-0.074,0.853-0.113,1.283c-0.039,0.43-0.079,0.862-0.12,1.296c-0.041,0.434-0.083,0.87-0.127,1.309
	c-0.043,0.438-0.088,0.879-0.134,1.321c-0.046,0.442-0.093,0.887-0.141,1.333c-0.048,0.446-0.098,0.895-0.149,1.345
	s-0.103,0.902-0.157,1.356c-0.053,0.454-0.108,0.91-0.164,1.368c-0.056,0.458-0.114,0.917-0.172,1.379
	c-0.059,0.461-0.119,0.924-0.181,1.389c-0.062,0.465-0.125,0.931-0.189,1.4c-0.064,0.468-0.13,0.938-0.197,1.41
	c-0.067,0.472-0.136,0.945-0.206,1.419c-0.07,0.475-0.142,0.951-0.215,1.429c-0.073,0.478-0.148,0.957-0.224,1.438
	c-0.076,0.481-0.154,0.963-0.233,1.447s-0.16,0.969-0.243,1.455s-0.166,0.974-0.252,1.463c-0.086,0.489-0.173,0.98-0.262,1.471
	s-0.179,0.985-0.272,1.479c-0.092,0.494-0.186,0.99-0.282,1.486c-0.096,0.497-0.193,0.994-0.292,1.493
	c-0.099,0.499-0.2,0.999-0.302,1.5c-0.102,0.501-0.207,1.003-0.313,1.507c-0.106,0.503-0.214,1.007-0.323,1.513
	c-0.11,0.505-0.221,1.011-0.334,1.519s-0.228,1.015-0.345,1.524c-0.117,0.509-0.236,1.019-0.356,1.529
	c-0.121,0.511-0.243,1.022-0.368,1.534c-0.124,0.512-0.251,1.025-0.379,1.539c-0.128,0.514-0.259,1.028-0.391,1.543
	c-0.132,0.515-0.266,1.031-0.403,1.547c-0.136,0.516-0.274,1.033-0.415,1.551s-0.283,1.036-0.427,1.554s-0.291,1.038-0.439,1.558
	c-0.148,0.52-0.299,1.04-0.452,1.56c-0.153,0.521-0.307,1.042-0.464,1.563c-0.157,0.521-0.316,1.043-0.477,1.565
	c-0.161,0.522-0.325,1.044-0.49,1.567c-0.166,0.523-0.333,1.046-0.503,1.569c-0.17,0.523-0.342,1.047-0.517,1.57
	c-0.174,0.524-0.351,1.047-0.53,1.571c-0.179,0.524-0.36,1.048-0.544,1.572s-0.369,1.048-0.558,1.572
	c-0.188,0.524-0.379,1.048-0.572,1.573c-0.193,0.524-0.388,1.048-0.586,1.572c-0.198,0.524-0.398,1.048-0.6,1.572
	s-0.407,1.048-0.615,1.571c-0.207,0.524-0.417,1.047-0.629,1.57c-0.212,0.523-0.427,1.046-0.644,1.569
	c-0.217,0.523-0.437,1.045-0.659,1.567c-0.222,0.522-0.447,1.044-0.674,1.565c-0.227,0.521-0.457,1.042-0.689,1.563
	c-0.232,0.521-0.467,1.041-0.705,1.56c-0.238,0.52-0.478,1.039-0.721,1.558c-0.243,0.519-0.488,1.037-0.736,1.554
	s-0.499,1.035-0.752,1.551c-0.253,0.516-0.51,1.032-0.769,1.547s-0.521,1.029-0.785,1.543c-0.264,0.514-0.531,1.027-0.801,1.539
	c-0.27,0.512-0.543,1.024-0.818,1.534c-0.275,0.511-0.554,1.02-0.835,1.529c-0.281,0.509-0.565,1.017-0.852,1.524
	c-0.287,0.507-0.576,1.013-0.869,1.518c-0.293,0.505-0.588,1.009-0.886,1.513s-0.6,1.005-0.904,1.506
	c-0.304,0.501-0.611,1.001-0.921,1.5c-0.31,0.499-0.623,0.997-0.939,1.493c-0.316,0.497-0.635,0.992-0.957,1.486
	c-0.322,0.494-0.647,0.987-0.975,1.479c0,0,0.002-0.001,0.007-0.002s0.011-0.003,0.02-0.006c0.009-0.003,0.02-0.006,0.033-0.01
	c0.013-0.004,0.029-0.009,0.047-0.014c0.018-0.005,0.038-0.011,0.06-0.018c0.022-0.007,0.046-0.014,0.072-0.021
	s0.055-0.016,0.085-0.025c0.03-0.009,0.063-0.018,0.098-0.028s0.071-0.021,0.11-0.032c0.039-0.011,0.079-0.023,0.122-0.035
	c0.043-0.012,0.088-0.025,0.134-0.038s0.096-0.027,0.146-0.041c0.051-0.014,0.103-0.029,0.158-0.044
	c0.055-0.015,0.111-0.031,0.17-0.047s0.119-0.032,0.181-0.049c0.062-0.017,0.126-0.034,0.193-0.052
	c0.066-0.018,0.134-0.036,0.204-0.054c0.07-0.018,0.141-0.037,0.215-0.057c0.073-0.019,0.149-0.039,0.226-0.059
	c0.077-0.02,0.156-0.04,0.236-0.061c0.081-0.021,0.163-0.042,0.247-0.063c0.084-0.021,0.17-0.043,0.257-0.065
	s0.177-0.044,0.268-0.067c0.091-0.023,0.184-0.045,0.278-0.068s0.19-0.046,0.288-0.07c0.098-0.024,0.197-0.047,0.298-0.072
	c0.101-0.024,0.203-0.048,0.307-0.073c0.104-0.025,0.21-0.049,0.317-0.074s0.216-0.05,0.326-0.075s0.222-0.051,0.336-0.076
	c0.113-0.026,0.228-0.051,0.345-0.077s0.234-0.052,0.354-0.078s0.24-0.052,0.362-0.079s0.246-0.053,0.371-0.079
	c0.125-0.027,0.252-0.053,0.38-0.08s0.257-0.054,0.388-0.08c0.131-0.027,0.263-0.054,0.396-0.081
	c0.133-0.027,0.268-0.054,0.404-0.081c0.136-0.027,0.273-0.054,0.412-0.081c0.139-0.027,0.279-0.054,0.42-0.081
	s0.284-0.054,0.427-0.081s0.289-0.054,0.435-0.081c0.146-0.027,0.294-0.054,0.442-0.08c0.149-0.027,0.298-0.053,0.449-0.08
	c0.151-0.026,0.303-0.053,0.456-0.079c0.153-0.026,0.308-0.052,0.463-0.078c0.156-0.026,0.312-0.052,0.47-0.078
	c0.158-0.026,0.317-0.051,0.477-0.077c0.16-0.025,0.321-0.051,0.483-0.076c0.162-0.025,0.325-0.05,0.489-0.075
	c0.164-0.025,0.329-0.049,0.495-0.073c0.166-0.024,0.333-0.048,0.501-0.072c0.168-0.024,0.337-0.047,0.507-0.071
	c0.17-0.023,0.341-0.046,0.513-0.069c0.172-0.023,0.345-0.045,0.518-0.067s0.348-0.044,0.524-0.066
	c0.175-0.022,0.352-0.043,0.529-0.064c0.177-0.021,0.355-0.042,0.534-0.062c0.179-0.02,0.358-0.04,0.539-0.06
	c0.18-0.02,0.362-0.039,0.544-0.058c0.182-0.019,0.365-0.037,0.548-0.055c0.184-0.018,0.368-0.036,0.553-0.053
	s0.371-0.034,0.557-0.05c0.186-0.016,0.373-0.032,0.561-0.048c0.188-0.015,0.376-0.03,0.565-0.045
	c0.189-0.015,0.379-0.029,0.569-0.042c0.19-0.014,0.381-0.027,0.573-0.039c0.192-0.013,0.384-0.025,0.576-0.036
	c0.193-0.012,0.386-0.023,0.58-0.033c0.194-0.01,0.388-0.02,0.583-0.03c0.195-0.009,0.39-0.018,0.586-0.026
	c0.196-0.008,0.392-0.016,0.589-0.023c0.197-0.007,0.394-0.013,0.592-0.019c0.198-0.006,0.396-0.011,0.595-0.016
	s0.398-0.008,0.597-0.012s0.399-0.039,0.6-0.041s0.401-0.037,0.602-0.037c0.201,0,0.402,0,0.604,0s0.404,0.036,0.606,0.038
	c0.202,0.002,0.405,0.022,0.608,0.026c0.203,0.004,0.406,0.017,0.609,0.022c0.203,0.005,0.407,0.015,0.611,0.022
	c0.204,0.007,0.408,0.016,0.612,0.025c0.204,0.008,0.409,0.019,0.613,0.029c0.205,0.01,0.409,0.021,0.614,0.033
	c0.205,0.012,0.41,0.024,0.615,0.038c0.205,0.013,0.411,0.028,0.616,0.043c0.205,0.015,0.411,0.031,0.617,0.048
	s0.411,0.034,0.617,0.053c0.206,0.019,0.411,0.038,0.617,0.058c0.206,0.02,0.412,0.042,0.617,0.064
	c0.206,0.022,0.412,0.045,0.617,0.07c0.206,0.024,0.412,0.049,0.617,0.075c0.206,0.026,0.411,0.053,0.617,0.081
	c0.206,0.028,0.411,0.057,0.617,0.087c0.205,0.03,0.411,0.061,0.616,0.093c0.205,0.032,0.41,0.065,0.615,0.1s0.41,0.069,0.614,0.106
	c0.205,0.036,0.409,0.074,0.613,0.112c0.204,0.038,0.408,0.078,0.612,0.119c0.204,0.041,0.407,0.082,0.611,0.125
	s0.406,0.087,0.609,0.132c0.203,0.045,0.405,0.091,0.607,0.139s0.404,0.096,0.606,0.146s0.403,0.101,0.604,0.153
	c0.201,0.052,0.401,0.106,0.602,0.16c0.2,0.055,0.4,0.11,0.599,0.167c0.199,0.057,0.398,0.115,0.597,0.175
	c0.199,0.059,0.397,0.12,0.594,0.182c0.198,0.062,0.395,0.125,0.592,0.19c0.197,0.065,0.393,0.13,0.589,0.198
	c0.196,0.067,0.391,0.136,0.586,0.205s0.389,0.141,0.583,0.213c0.194,0.072,0.387,0.146,0.579,0.221
	c0.193,0.075,0.385,0.152,0.576,0.229s0.382,0.157,0.572,0.238c0.19,0.081,0.38,0.163,0.569,0.246s0.377,0.168,0.565,0.254
	s0.375,0.174,0.561,0.263c0.186,0.089,0.372,0.18,0.557,0.272c0.185,0.092,0.369,0.186,0.552,0.28
	c0.183,0.095,0.366,0.191,0.548,0.289c0.182,0.098,0.363,0.197,0.543,0.298s0.36,0.203,0.538,0.307s0.356,0.21,0.533,0.317
	c0.177,0.107,0.353,0.216,0.528,0.326c0.175,0.11,0.35,0.222,0.523,0.335c0.173,0.113,0.346,0.228,0.518,0.345
	c-0.35-0.051-0.701-0.1-1.051-0.147c-0.35-0.047-0.7-0.092-1.05-0.134s-0.7-0.083-1.049-0.122c-0.35-0.039-0.699-0.075-1.048-0.11
	s-0.698-0.067-1.047-0.098c-0.349-0.03-0.698-0.059-1.046-0.085s-0.697-0.051-1.045-0.073c-0.348-0.022-0.696-0.043-1.044-0.062
	c-0.348-0.019-0.695-0.035-1.043-0.05c-0.347-0.015-0.694-0.027-1.041-0.038c-0.347-0.011-0.694-0.02-1.04-0.026
	c-0.346-0.007-0.693-0.012-1.039-0.015s-0.692-0.004-1.037-0.003s-0.691,0.003-1.036,0.008c-0.345,0.005-0.69,0.011-1.034,0.019
	s-0.688,0.018-1.032,0.03c-0.344,0.012-0.687,0.026-1.03,0.041s-0.686,0.033-1.029,0.052c-0.343,0.019-0.685,0.04-1.027,0.063
	s-0.684,0.048-1.025,0.074s-0.682,0.055-1.023,0.085s-0.681,0.062-1.021,0.095c-0.34,0.034-0.679,0.069-1.019,0.106
	c-0.339,0.037-0.678,0.076-1.016,0.116s-0.676,0.083-1.014,0.127c-0.338,0.044-0.675,0.09-1.012,0.137s-0.673,0.096-1.009,0.147
	s-0.672,0.103-1.007,0.157c-0.335,0.054-0.67,0.11-1.004,0.167s-0.668,0.117-1.002,0.177c-0.333,0.061-0.666,0.123-0.999,0.187
	c-0.333,0.064-0.665,0.13-0.996,0.197s-0.663,0.136-0.993,0.206c-0.331,0.07-0.661,0.142-0.99,0.216
	c-0.33,0.074-0.659,0.149-0.987,0.225c-0.329,0.077-0.657,0.155-0.984,0.235c-0.328,0.08-0.655,0.161-0.981,0.244
	c-0.327,0.083-0.653,0.167-0.978,0.253s-0.651,0.173-0.975,0.262s-0.648,0.179-0.972,0.271s-0.646,0.185-0.968,0.28
	c-0.322,0.095-0.644,0.191-0.965,0.289c-0.321,0.098-0.642,0.197-0.961,0.298c-0.32,0.101-0.639,0.203-0.958,0.306
	c-0.319,0.103-0.637,0.208-0.954,0.315s-0.634,0.214-0.951,0.323s-0.632,0.22-0.947,0.331s-0.629,0.225-0.943,0.34
	c-0.314,0.115-0.627,0.231-0.939,0.348s-0.624,0.236-0.935,0.356s-0.621,0.241-0.931,0.364c-0.31,0.123-0.619,0.247-0.927,0.372
	c-0.308,0.125-0.616,0.252-0.923,0.38s-0.613,0.257-0.919,0.387c-0.306,0.13-0.61,0.262-0.915,0.395s-0.608,0.267-0.91,0.402
	s-0.605,0.272-0.906,0.41s-0.602,0.277-0.901,0.417c-0.3,0.14-0.599,0.282-0.897,0.424c-0.298,0.143-0.596,0.287-0.892,0.432
	s-0.592,0.291-0.887,0.439s-0.589,0.296-0.883,0.446c-0.293,0.15-0.586,0.301-0.878,0.453c-0.292,0.152-0.583,0.305-0.873,0.459
	c-0.29,0.154-0.58,0.31-0.868,0.466c-0.289,0.156-0.576,0.314-0.863,0.473s-0.573,0.318-0.858,0.479
	c-0.285,0.161-0.569,0.323-0.853,0.486s-0.566,0.327-0.848,0.492s-0.562,0.331-0.842,0.498c-0.28,0.167-0.559,0.335-0.837,0.504
	c-0.278,0.169-0.555,0.339-0.832,0.51c-0.276,0.171-0.552,0.343-0.826,0.516c-0.274,0.173-0.548,0.347-0.821,0.522
	s-0.544,0.351-0.815,0.528c-0.271,0.177-0.541,0.355-0.809,0.534c-0.269,0.179-0.537,0.359-0.804,0.539
	c-0.267,0.181-0.533,0.362-0.798,0.545s-0.529,0.366-0.792,0.55c-0.263,0.184-0.525,0.369-0.786,0.556
	c-0.261,0.186-0.521,0.373-0.78,0.561s-0.517,0.376-0.774,0.566s-0.513,0.38-0.768,0.571c-0.255,0.191-0.509,0.383-0.762,0.576
	c-0.253,0.193-0.505,0.386-0.755,0.581s-0.5,0.39-0.749,0.586s-0.496,0.393-0.743,0.59c-0.246,0.198-0.492,0.396-0.736,0.595
	c-0.244,0.199-0.488,0.399-0.73,0.599s-0.483,0.402-0.723,0.604c-0.24,0.202-0.479,0.405-0.716,0.608
	c-0.238,0.203-0.474,0.408-0.71,0.612s-0.47,0.41-0.703,0.617c-0.233,0.206-0.465,0.413-0.696,0.621
	c-0.231,0.208-0.461,0.416-0.689,0.625c-0.229,0.209-0.456,0.418-0.682,0.628c-0.226,0.21-0.451,0.421-0.675,0.632
	c-0.224,0.211-0.446,0.423-0.668,0.636c-0.221,0.213-0.442,0.426-0.661,0.639c-0.219,0.214-0.437,0.428-0.653,0.643
	c-0.217,0.215-0.432,0.43-0.646,0.646c-0.214,0.216-0.427,0.433-0.639,0.65c-0.212,0.217-0.422,0.435-0.631,0.653
	c-0.209,0.218-0.417,0.437-0.624,0.656s-0.412,0.439-0.616,0.659c-0.204,0.22-0.407,0.441-0.608,0.662
	c-0.202,0.221-0.402,0.443-0.601,0.665s-0.397,0.445-0.593,0.668s-0.391,0.447-0.585,0.67c-0.194,0.224-0.386,0.448-0.577,0.673
	c-0.191,0.225-0.381,0.45-0.569,0.676s-0.375,0.452-0.561,0.678c-0.186,0.226-0.37,0.453-0.553,0.68
	c-0.183,0.227-0.365,0.455-0.545,0.682c-0.18,0.228-0.359,0.456-0.537,0.685c-0.177,0.229-0.354,0.457-0.528,0.687
	c-0.175,0.229-0.348,0.459-0.52,0.689c-0.172,0.23-0.342,0.46-0.511,0.69c-0.169,0.23-0.337,0.461-0.503,0.692
	c-0.166,0.231-0.331,0.462-0.494,0.694c-0.163,0.232-0.325,0.463-0.486,0.696s-0.319,0.464-0.477,0.697
	c-0.157,0.233-0.314,0.465-0.468,0.698c-0.155,0.233-0.308,0.466-0.459,0.7s-0.302,0.467-0.45,0.701
	c-0.149,0.234-0.296,0.468-0.441,0.702s-0.29,0.469-0.432,0.703c-0.143,0.235-0.284,0.469-0.423,0.704
	c-0.101,0.17-0.202,0.343-0.302,0.517c-0.1,0.174-0.199,0.35-0.298,0.528c-0.099,0.178-0.197,0.357-0.294,0.538
	s-0.194,0.364-0.29,0.549c-0.096,0.185-0.191,0.371-0.286,0.559s-0.189,0.378-0.282,0.57c-0.093,0.192-0.186,0.385-0.278,0.58
	c-0.092,0.195-0.183,0.392-0.274,0.59s-0.18,0.398-0.27,0.6c-0.089,0.202-0.178,0.405-0.265,0.609s-0.175,0.411-0.261,0.619
	c-0.086,0.208-0.172,0.417-0.257,0.628s-0.169,0.423-0.253,0.637c-0.083,0.214-0.166,0.429-0.248,0.646
	c-0.082,0.217-0.163,0.435-0.244,0.655s-0.16,0.441-0.239,0.664c-0.079,0.223-0.157,0.447-0.235,0.672
	c-0.078,0.225-0.154,0.452-0.23,0.681s-0.151,0.458-0.226,0.689s-0.148,0.463-0.221,0.697c-0.073,0.234-0.145,0.468-0.217,0.705
	s-0.142,0.474-0.212,0.712c-0.07,0.239-0.139,0.479-0.207,0.72c-0.068,0.241-0.136,0.484-0.202,0.727
	c-0.067,0.244-0.133,0.488-0.198,0.734c-0.065,0.246-0.129,0.493-0.193,0.741c-0.063,0.248-0.126,0.498-0.188,0.748
	c-0.062,0.251-0.123,0.502-0.183,0.755c-0.06,0.253-0.12,0.507-0.178,0.761c-0.059,0.255-0.116,0.511-0.173,0.768
	c-0.057,0.257-0.113,0.515-0.168,0.774c-0.055,0.259-0.109,0.519-0.163,0.78c-0.053,0.261-0.106,0.523-0.158,0.786
	c-0.052,0.263-0.103,0.527-0.153,0.792c-0.05,0.265-0.099,0.53-0.147,0.797s-0.096,0.534-0.142,0.802
	c-0.046,0.268-0.092,0.538-0.137,0.808c-0.045,0.27-0.089,0.541-0.132,0.813c-0.043,0.272-0.085,0.544-0.126,0.818
	c-0.041,0.273-0.081,0.547-0.121,0.822s-0.078,0.55-0.115,0.827s-0.074,0.553-0.11,0.831c-0.036,0.278-0.07,0.556-0.104,0.835
	c-0.034,0.279-0.067,0.559-0.099,0.839c-0.032,0.28-0.063,0.562-0.093,0.843c-0.03,0.282-0.059,0.564-0.087,0.847
	s-0.055,0.566-0.082,0.851s-0.052,0.569-0.076,0.854c-0.024,0.285-0.048,0.571-0.07,0.857c-0.022,0.286-0.044,0.573-0.064,0.86
	c-0.021,0.287-0.04,0.575-0.059,0.863s-0.036,0.577-0.053,0.866c-0.017,0.289-0.032,0.579-0.047,0.868
	c-0.015,0.29-0.028,0.58-0.041,0.871s-0.024,0.582-0.035,0.873c-0.011,0.291-0.02,0.583-0.029,0.875
	c-0.009,0.292-0.016,0.584-0.023,0.877s-0.012,0.586-0.016,0.879s-0.008,0.587-0.01,0.88c-0.002,0.294-0.004,0.588-0.004,0.882
	c0,0.294,0,0.589,0.002,0.883s0.005,0.589,0.009,0.884c0.004,0.295,0.009,0.59,0.015,0.885s0.013,0.59,0.021,0.886
	c0.008,0.295,0.017,0.591,0.028,0.886c0.01,0.296,0.022,0.591,0.034,0.887c0.012,0.296,0.026,0.591,0.041,0.887
	c0.015,0.296,0.03,0.591,0.047,0.887c0.017,0.296,0.035,0.591,0.054,0.887c0.019,0.296,0.039,0.591,0.06,0.887
	c0.021,0.296,0.044,0.591,0.067,0.887c0.023,0.295,0.048,0.591,0.074,0.886c0.026,0.295,0.053,0.59,0.08,0.885
	s0.057,0.59,0.087,0.884c0.03,0.295,0.062,0.589,0.094,0.883c0.033,0.294,0.066,0.588,0.101,0.882
	c0.035,0.294,0.071,0.587,0.108,0.881s0.075,0.586,0.115,0.879c0.039,0.293,0.08,0.585,0.122,0.877
	c0.042,0.292,0.085,0.584,0.129,0.876c0.044,0.292,0.089,0.583,0.136,0.873c0.046,0.291,0.094,0.581,0.143,0.871
	c0.049,0.29,0.099,0.58,0.15,0.869c0.051,0.289,0.104,0.578,0.157,0.866c0.054,0.288,0.109,0.576,0.165,0.864
	c0.056,0.287,0.113,0.574,0.172,0.861c0.058,0.286,0.118,0.572,0.179,0.858c0.061,0.285,0.123,0.57,0.187,0.855
	c0.063,0.284,0.128,0.568,0.194,0.851c0.066,0.283,0.133,0.566,0.201,0.848s0.138,0.563,0.209,0.844
	c0.071,0.281,0.143,0.561,0.216,0.84c0.073,0.279,0.148,0.558,0.224,0.836c0.076,0.278,0.153,0.555,0.231,0.832
	c0.078,0.277,0.158,0.552,0.239,0.828c0.081,0.275,0.163,0.549,0.247,0.823c0.084,0.274,0.168,0.546,0.255,0.818
	c0.086,0.272,0.174,0.543,0.262,0.814s0.179,0.54,0.27,0.808s0.184,0.536,0.278,0.803c0.094,0.267,0.189,0.533,0.286,0.798
	s0.194,0.529,0.294,0.792c0.099,0.263,0.2,0.525,0.302,0.787s0.205,0.522,0.31,0.781s0.21,0.518,0.318,0.775
	c0.107,0.257,0.216,0.514,0.326,0.769c0.11,0.255,0.221,0.509,0.334,0.762s0.227,0.505,0.342,0.756s0.232,0.501,0.35,0.749
	c0.118,0.249,0.238,0.496,0.359,0.743s0.243,0.492,0.367,0.736c0.124,0.244,0.249,0.487,0.375,0.728s0.254,0.482,0.383,0.721
	c0.129,0.239,0.26,0.477,0.392,0.714c0.132,0.237,0.265,0.472,0.4,0.706s0.271,0.467,0.409,0.698
	c0.138,0.231,0.277,0.461,0.417,0.69c0.141,0.229,0.283,0.456,0.426,0.682c0.143,0.226,0.288,0.451,0.435,0.674
	c0.146,0.223,0.294,0.445,0.443,0.665c0.149,0.22,0.3,0.439,0.452,0.657c0.152,0.217,0.306,0.433,0.461,0.648
	c0.155,0.214,0.311,0.427,0.469,0.639c0.158,0.211,0.317,0.421,0.478,0.63c0.161,0.208,0.323,0.415,0.487,0.62
	c0.164,0.205,0.329,0.409,0.496,0.611c0.167,0.202,0.335,0.403,0.505,0.601c0.17,0.199,0.341,0.396,0.514,0.592
	c0,0-0.001-0.001-0.002-0.002c-0.001-0.001-0.003-0.003-0.006-0.005c-0.003-0.002-0.006-0.005-0.01-0.008
	c-0.004-0.003-0.009-0.007-0.015-0.011s-0.012-0.009-0.019-0.014c-0.007-0.005-0.014-0.01-0.023-0.016s-0.017-0.012-0.027-0.019
	c-0.01-0.007-0.02-0.014-0.031-0.022c-0.011-0.008-0.023-0.016-0.035-0.025c-0.012-0.009-0.025-0.018-0.039-0.027
	s-0.028-0.02-0.043-0.03c-0.015-0.01-0.031-0.021-0.047-0.033c-0.016-0.011-0.033-0.023-0.051-0.035
	c-0.018-0.012-0.036-0.025-0.055-0.038c-0.019-0.013-0.038-0.026-0.059-0.04s-0.041-0.028-0.063-0.042s-0.044-0.029-0.066-0.045
	s-0.046-0.031-0.07-0.047s-0.049-0.033-0.074-0.049c-0.025-0.017-0.051-0.034-0.078-0.052c-0.027-0.018-0.054-0.035-0.082-0.054
	c-0.028-0.018-0.056-0.037-0.085-0.056s-0.059-0.038-0.089-0.058s-0.061-0.04-0.093-0.06c-0.032-0.02-0.064-0.041-0.097-0.062
	c-0.033-0.021-0.066-0.042-0.1-0.064c-0.034-0.021-0.069-0.043-0.104-0.065c-0.035-0.022-0.071-0.044-0.108-0.067
	c-0.036-0.023-0.073-0.046-0.111-0.069c-0.038-0.023-0.076-0.047-0.115-0.071c-0.039-0.024-0.078-0.048-0.118-0.072
	c-0.04-0.024-0.081-0.049-0.122-0.074c-0.041-0.025-0.083-0.05-0.125-0.075s-0.085-0.051-0.129-0.077s-0.088-0.052-0.132-0.078
	c-0.045-0.026-0.09-0.053-0.136-0.08s-0.092-0.054-0.139-0.081s-0.095-0.055-0.143-0.082c-0.048-0.028-0.097-0.056-0.146-0.084
	c-0.049-0.028-0.099-0.056-0.15-0.085s-0.101-0.057-0.153-0.086c-0.052-0.029-0.104-0.058-0.156-0.087
	c-0.053-0.029-0.106-0.059-0.16-0.088c-0.054-0.03-0.108-0.059-0.163-0.089c-0.055-0.03-0.11-0.06-0.166-0.09
	c-0.056-0.03-0.112-0.06-0.169-0.091c-0.057-0.03-0.115-0.061-0.173-0.092s-0.117-0.062-0.176-0.093
	c-0.059-0.031-0.119-0.062-0.179-0.093s-0.121-0.063-0.182-0.094c-0.061-0.031-0.123-0.063-0.185-0.095
	c-0.062-0.032-0.125-0.063-0.189-0.095c-0.063-0.032-0.127-0.064-0.192-0.096c-0.064-0.032-0.129-0.064-0.195-0.096
	s-0.131-0.064-0.198-0.097c-0.066-0.032-0.133-0.065-0.201-0.097c-0.067-0.032-0.135-0.065-0.204-0.097
	c-0.068-0.033-0.137-0.065-0.207-0.098c-0.069-0.033-0.139-0.065-0.21-0.098c-0.07-0.033-0.141-0.065-0.213-0.098
	s-0.143-0.066-0.216-0.098c-0.072-0.033-0.145-0.066-0.219-0.098s-0.147-0.066-0.222-0.099c-0.074-0.033-0.149-0.066-0.225-0.099
	c-0.075-0.033-0.151-0.066-0.227-0.098c-0.076-0.033-0.153-0.066-0.23-0.098s-0.155-0.066-0.233-0.098
	c-0.078-0.033-0.157-0.065-0.236-0.098s-0.159-0.065-0.239-0.098s-0.161-0.065-0.241-0.097c-0.081-0.032-0.162-0.065-0.244-0.097
	c-0.082-0.032-0.164-0.065-0.247-0.097c-0.083-0.032-0.166-0.064-0.25-0.096c-0.084-0.032-0.168-0.064-0.252-0.096
	c-0.085-0.032-0.17-0.064-0.255-0.095c-0.085-0.032-0.171-0.063-0.258-0.095c-0.086-0.031-0.173-0.063-0.26-0.094
	c-0.087-0.031-0.175-0.062-0.263-0.093c-0.088-0.031-0.177-0.062-0.265-0.093c-0.089-0.031-0.178-0.061-0.268-0.092
	c-0.09-0.03-0.18-0.061-0.27-0.091c-0.091-0.03-0.182-0.06-0.273-0.09s-0.183-0.06-0.275-0.089s-0.185-0.059-0.278-0.088
	c-0.093-0.029-0.187-0.058-0.28-0.087c-0.094-0.029-0.188-0.058-0.283-0.086c-0.095-0.028-0.19-0.057-0.285-0.085
	c-0.095-0.028-0.191-0.056-0.288-0.084s-0.193-0.055-0.29-0.082c-0.097-0.027-0.195-0.054-0.292-0.081
	c-0.098-0.027-0.196-0.053-0.295-0.08c-0.099-0.026-0.198-0.053-0.297-0.078s-0.199-0.052-0.299-0.077
	c-0.1-0.025-0.201-0.051-0.302-0.076s-0.202-0.05-0.304-0.074s-0.204-0.049-0.306-0.072c-0.102-0.024-0.205-0.047-0.308-0.071
	c-0.103-0.023-0.207-0.046-0.31-0.069c-0.104-0.023-0.208-0.045-0.313-0.067c-0.105-0.022-0.209-0.044-0.315-0.066
	s-0.211-0.043-0.317-0.064c-0.106-0.021-0.212-0.042-0.319-0.062c-0.107-0.02-0.214-0.04-0.321-0.06
	c-0.107-0.02-0.215-0.039-0.323-0.058c-0.108-0.019-0.216-0.038-0.325-0.056s-0.218-0.036-0.327-0.054s-0.219-0.035-0.329-0.052
	s-0.22-0.033-0.331-0.05c-0.111-0.016-0.222-0.032-0.333-0.047s-0.223-0.03-0.335-0.045s-0.224-0.029-0.337-0.043
	c-0.113-0.014-0.226-0.027-0.339-0.04c-0.113-0.013-0.227-0.026-0.341-0.038s-0.228-0.024-0.342-0.036s-0.229-0.022-0.344-0.033
	s-0.23-0.021-0.346-0.03c-0.116-0.01-0.232-0.019-0.348-0.028c-0.116-0.009-0.233-0.017-0.35-0.025
	c-0.117-0.008-0.234-0.015-0.351-0.022s-0.235-0.014-0.353-0.02c-0.118-0.006-0.236-0.012-0.355-0.017
	c-0.119-0.005-0.237-0.01-0.357-0.014c-0.119-0.004-0.239-0.008-0.358-0.011c-0.12-0.003-0.24-0.006-0.36-0.008
	s-0.241-0.004-0.361-0.005c-0.121-0.001-0.242-0.002-0.363-0.002c-0.121,0-0.243,0-0.365,0.001S7.622,10.748,7.5,10.75
	c-0.121,0.002-0.242,0.005-0.362,0.008c-0.12,0.004-0.241,0.008-0.36,0.013c-0.12,0.005-0.239,0.011-0.359,0.018
	c-0.119,0.007-0.238,0.014-0.357,0.022c-0.119,0.008-0.237,0.017-0.355,0.027c-0.118,0.01-0.236,0.02-0.353,0.031
	c-0.117,0.011-0.235,0.023-0.351,0.035s-0.233,0.026-0.35,0.04c-0.116,0.014-0.232,0.029-0.348,0.044s-0.231,0.031-0.347,0.048
	c-0.115,0.017-0.23,0.034-0.345,0.052s-0.229,0.037-0.343,0.056c-0.114,0.019-0.228,0.039-0.342,0.06
	c-0.114,0.021-0.227,0.042-0.34,0.063s-0.226,0.044-0.339,0.067s-0.225,0.047-0.338,0.071s-0.224,0.049-0.336,0.074
	c-0.112,0.025-0.223,0.051-0.335,0.078c-0.111,0.026-0.223,0.054-0.334,0.081s-0.222,0.056-0.332,0.084
	c-0.111,0.029-0.221,0.058-0.331,0.088c-0.11,0.03-0.22,0.06-0.33,0.091s-0.219,0.062-0.329,0.094s-0.219,0.064-0.328,0.097
	s-0.218,0.066-0.327,0.1c-0.109,0.034-0.217,0.068-0.326,0.103c-0.108,0.035-0.217,0.07-0.325,0.105
	c-0.108,0.036-0.216,0.072-0.324,0.108s-0.215,0.073-0.323,0.111c-0.107,0.037-0.215,0.075-0.322,0.113s-0.214,0.077-0.321,0.116
	c-0.107,0.039-0.214,0.078-0.32,0.118s-0.213,0.08-0.319,0.12c-0.106,0.04-0.212,0.081-0.319,0.122
	c-0.106,0.041-0.212,0.083-0.318,0.124c-0.106,0.042-0.212,0.084-0.317,0.127c-0.106,0.043-0.211,0.085-0.316,0.128
	c-0.105,0.043-0.211,0.087-0.316,0.13s-0.21,0.088-0.315,0.132c-0.105,0.044-0.21,0.089-0.315,0.134
	c-0.105,0.045-0.21,0.09-0.314,0.136c-0.105,0.045-0.209,0.091-0.314,0.137c-0.105,0.046-0.209,0.092-0.313,0.139
	c-0.104,0.046-0.209,0.093-0.313,0.14c-0.104,0.047-0.208,0.094-0.313,0.141c-0.104,0.047-0.208,0.095-0.312,0.143
	c-0.104,0.048-0.208,0.096-0.312,0.144c-0.104,0.048-0.208,0.096-0.312,0.145s-0.208,0.097-0.312,0.146
	c-0.104,0.049-0.208,0.098-0.311,0.147c-0.104,0.049-0.207,0.098-0.311,0.148c-0.104,0.049-0.207,0.099-0.311,0.148
	c-0.104,0.05-0.207,0.099-0.311,0.149c-0.104,0.05-0.207,0.1-0.311,0.15c-0.104,0.05-0.207,0.1-0.311,0.15
	c-0.104,0.05-0.207,0.1-0.311,0.151c-0.104,0.05-0.207,0.101-0.311,0.151c-0.104,0.05-0.207,0.101-0.311,0.151
	c-0.104,0.05-0.208,0.101-0.311,0.152c-0.104,0.051-0.208,0.101-0.312,0.152c-0.104,0.051-0.208,0.101-0.312,0.152
	c-0.104,0.051-0.208,0.101-0.312,0.152s-0.208,0.101-0.312,0.152c-0.104,0.051-0.208,0.101-0.313,0.151
	c-0.104,0.05-0.209,0.101-0.313,0.151s-0.209,0.101-0.313,0.151s-0.209,0.1-0.314,0.15c-0.105,0.05-0.209,0.1-0.314,0.15
	c-0.105,0.05-0.21,0.1-0.315,0.149c-0.105,0.05-0.21,0.099-0.315,0.149c-0.105,0.049-0.21,0.099-0.316,0.148
	c-0.105,0.049-0.211,0.098-0.316,0.147c-0.106,0.049-0.211,0.098-0.317,0.146c-0.106,0.049-0.212,0.097-0.318,0.145
	c-0.106,0.048-0.212,0.096-0.319,0.144s-0.213,0.096-0.319,0.143c-0.107,0.048-0.213,0.095-0.32,0.142s-0.214,0.094-0.321,0.141
	c-0.107,0.047-0.214,0.093-0.322,0.139c-0.107,0.046-0.215,0.092-0.323,0.138c-0.108,0.046-0.216,0.091-0.324,0.136
	c-0.108,0.045-0.216,0.09-0.325,0.135c-0.108,0.045-0.217,0.089-0.326,0.133s-0.218,0.088-0.327,0.131
	c-0.109,0.044-0.218,0.087-0.328,0.13c-0.109,0.043-0.219,0.085-0.329,0.128s-0.22,0.084-0.33,0.126
	c-0.11,0.042-0.221,0.083-0.331,0.124c-0.111,0.041-0.221,0.081-0.332,0.121c-0.111,0.04-0.222,0.08-0.334,0.119
	s-0.223,0.078-0.335,0.117c-0.112,0.039-0.224,0.077-0.336,0.115c-0.112,0.038-0.225,0.075-0.338,0.112
	c-0.113,0.037-0.226,0.073-0.339,0.11c-0.113,0.036-0.227,0.072-0.34,0.107c-0.114,0.035-0.228,0.07-0.342,0.104
	s-0.229,0.068-0.343,0.101c-0.115,0.033-0.23,0.066-0.345,0.099c-0.115,0.032-0.231,0.064-0.346,0.096
	c-0.116,0.031-0.232,0.062-0.348,0.093c-0.116,0.03-0.233,0.06-0.35,0.09s-0.234,0.058-0.351,0.086
	c-0.117,0.028-0.235,0.056-0.353,0.083s-0.236,0.054-0.355,0.08c-0.119,0.026-0.237,0.051-0.357,0.076
	c-0.119,0.025-0.239,0.049-0.359,0.073c-0.12,0.024-0.24,0.047-0.36,0.069c-0.12,0.022-0.241,0.044-0.362,0.066
	c-0.121,0.021-0.242,0.042-0.364,0.062c-0.122,0.02-0.244,0.039-0.366,0.058c-0.122,0.019-0.245,0.037-0.368,0.054
	c-0.123,0.017-0.246,0.034-0.37,0.05c-0.124,0.016-0.248,0.032-0.372,0.046c-0.124,0.015-0.249,0.029-0.374,0.042
	c-0.125,0.013-0.251,0.026-0.377,0.038c-0.126,0.012-0.252,0.023-0.379,0.034c-0.127,0.01-0.254,0.02-0.381,0.029
	c-0.127,0.009-0.255,0.017-0.383,0.025c-0.128,0.008-0.257,0.014-0.386,0.02s-0.258,0.011-0.388,0.016
	c-0.13,0.004-0.26,0.008-0.39,0.011c-0.13,0.003-0.261,0.005-0.393,0.006c-0.131,0.001-0.263,0.002-0.395,0.001
	c-0.132,0-0.265-0.001-0.398-0.003s-0.266-0.005-0.4-0.008c-0.134-0.004-0.268-0.008-0.403-0.014s-0.27-0.012-0.405-0.019
	c-0.135-0.007-0.271-0.015-0.408-0.024c-0.037-0.002-0.074-0.005-0.11-0.007c-0.037-0.002-0.073-0.005-0.11-0.007
	c-0.036-0.002-0.073-0.005-0.109-0.007c-0.036-0.002-0.072-0.004-0.108-0.007c-0.036-0.002-0.072-0.004-0.108-0.006
	c-0.036-0.002-0.072-0.004-0.107-0.006c-0.036-0.002-0.071-0.004-0.107-0.006c-0.035-0.002-0.071-0.004-0.106-0.006
	c-0.035-0.002-0.07-0.004-0.106-0.006c-0.035-0.002-0.07-0.004-0.105-0.006c-0.035-0.002-0.07-0.004-0.105-0.006
	c-0.035-0.002-0.07-0.004-0.104-0.006c-0.035-0.002-0.069-0.004-0.104-0.006c-0.035-0.002-0.069-0.004-0.103-0.006
	c-0.034-0.002-0.069-0.004-0.103-0.006s-0.069-0.004-0.103-0.006c-0.034-0.002-0.068-0.004-0.103-0.006
	c-0.034-0.002-0.068-0.004-0.102-0.006c-0.034-0.002-0.068-0.004-0.102-0.006c-0.034-0.002-0.068-0.004-0.102-0.006
	c-0.034-0.002-0.068-0.004-0.102-0.006c-0.034-0.002-0.068-0.004-0.102-0.006s-0.068-0.004-0.101-0.007s-0.068-0.004-0.101-0.007
	c-0.034-0.002-0.067-0.005-0.101-0.007c-0.034-0.002-0.067-0.005-0.101-0.007c-0.034-0.002-0.067-0.005-0.101-0.007
	s-0.067-0.005-0.101-0.008s-0.067-0.005-0.101-0.008c-0.034-0.003-0.067-0.005-0.101-0.008c-0.034-0.003-0.068-0.005-0.101-0.008
	c-0.034-0.003-0.068-0.006-0.101-0.008c-0.034-0.003-0.068-0.006-0.102-0.009s-0.068-0.006-0.102-0.009
	c-0.034-0.003-0.068-0.006-0.102-0.009c-0.034-0.003-0.068-0.006-0.102-0.01s-0.068-0.007-0.102-0.01
	c-0.034-0.003-0.068-0.007-0.103-0.01c-0.034-0.004-0.069-0.007-0.103-0.011s-0.069-0.007-0.103-0.011
	c-0.034-0.004-0.069-0.008-0.104-0.012c-0.035-0.004-0.069-0.008-0.104-0.012c-0.035-0.004-0.07-0.008-0.104-0.012
	c-0.035-0.004-0.07-0.009-0.105-0.013c-0.035-0.004-0.07-0.009-0.105-0.013s-0.07-0.009-0.106-0.014
	c-0.035-0.005-0.071-0.009-0.106-0.014c-0.036-0.005-0.071-0.01-0.107-0.015c-0.036-0.005-0.072-0.01-0.107-0.015
	s-0.072-0.01-0.108-0.016c-0.036-0.005-0.072-0.011-0.109-0.016c-0.036-0.006-0.073-0.011-0.109-0.017
	c-0.037-0.006-0.073-0.012-0.11-0.018c-0.037-0.006-0.074-0.012-0.111-0.018c-0.037-0.006-0.074-0.012-0.111-0.019
	s-0.075-0.013-0.112-0.019s-0.075-0.013-0.113-0.02s-0.076-0.014-0.114-0.021s-0.076-0.014-0.115-0.021
	c-0.038-0.007-0.077-0.015-0.115-0.022c-0.039-0.007-0.077-0.015-0.116-0.023c-0.039-0.008-0.078-0.016-0.117-0.023
	c-0.039-0.008-0.079-0.016-0.118-0.024c-0.04-0.008-0.079-0.017-0.119-0.025c-0.04-0.008-0.08-0.017-0.12-0.026
	s-0.081-0.018-0.121-0.026c-0.041-0.009-0.081-0.018-0.122-0.027c-0.041-0.009-0.082-0.019-0.123-0.028
	c-0.041-0.009-0.083-0.019-0.124-0.029c-0.042-0.01-0.083-0.02-0.125-0.03c-0.042-0.01-0.084-0.02-0.127-0.031
	s-0.085-0.021-0.128-0.031c-0.043-0.011-0.086-0.021-0.129-0.032c-0.043-0.011-0.087-0.022-0.13-0.033s-0.087-0.023-0.131-0.034
	s-0.088-0.023-0.133-0.035c-0.044-0.012-0.089-0.024-0.134-0.036c-0.045-0.012-0.09-0.024-0.135-0.037
	c-0.045-0.012-0.091-0.025-0.137-0.038s-0.092-0.026-0.138-0.039s-0.093-0.026-0.14-0.04c-0.047-0.013-0.094-0.027-0.141-0.041
	s-0.095-0.028-0.142-0.042c-0.048-0.014-0.096-0.028-0.144-0.043c-0.048-0.014-0.097-0.029-0.145-0.044
	c-0.049-0.015-0.098-0.03-0.147-0.045s-0.099-0.031-0.149-0.046c-0.05-0.016-0.1-0.031-0.15-0.047
	c-0.05-0.016-0.101-0.032-0.152-0.048c-0.051-0.016-0.102-0.033-0.153-0.05s-0.103-0.034-0.155-0.051
	c-0.052-0.017-0.104-0.034-0.157-0.052c-0.053-0.017-0.105-0.035-0.159-0.053c-0.053-0.018-0.107-0.036-0.16-0.054
	s-0.108-0.037-0.162-0.055c-0.054-0.019-0.109-0.038-0.164-0.057c-0.055-0.019-0.11-0.038-0.166-0.058s-0.111-0.039-0.168-0.059
	s-0.113-0.04-0.17-0.06c-0.057-0.02-0.114-0.041-0.172-0.062c-0.057-0.021-0.115-0.042-0.173-0.063
	c-0.058-0.021-0.117-0.043-0.175-0.064c-0.059-0.022-0.118-0.044-0.177-0.066c-0.059-0.022-0.119-0.044-0.179-0.067
	c-0.06-0.023-0.121-0.045-0.182-0.068s-0.122-0.046-0.184-0.07c-0.062-0.023-0.123-0.047-0.186-0.071s-0.125-0.048-0.188-0.072
	c-0.063-0.024-0.126-0.049-0.19-0.074c-0.064-0.025-0.128-0.05-0.192-0.075c-0.064-0.025-0.129-0.051-0.194-0.077
	c-0.065-0.026-0.131-0.052-0.197-0.078c-0.066-0.026-0.132-0.053-0.199-0.08s-0.134-0.054-0.201-0.081
	c-0.067-0.027-0.135-0.055-0.204-0.083c-0.068-0.028-0.137-0.056-0.206-0.084c-0.069-0.028-0.138-0.057-0.208-0.086
	s-0.14-0.058-0.211-0.087s-0.142-0.059-0.213-0.089c-0.071-0.03-0.143-0.06-0.215-0.09c-0.072-0.03-0.145-0.061-0.218-0.092
	s-0.147-0.062-0.22-0.094c-0.074-0.031-0.148-0.063-0.223-0.095c-0.075-0.032-0.15-0.064-0.226-0.097
	c-0.076-0.033-0.152-0.065-0.228-0.099c-0.076-0.033-0.153-0.066-0.231-0.1c-0.077-0.034-0.155-0.068-0.233-0.102
	c-0.078-0.034-0.157-0.069-0.236-0.104c0.293-0.205,0.585-0.411,0.874-0.618c0.289-0.208,0.577-0.417,0.863-0.627
	c0.286-0.211,0.569-0.423,0.851-0.636c0.282-0.213,0.562-0.428,0.839-0.645c0.278-0.216,0.554-0.434,0.828-0.653
	c0.274-0.219,0.546-0.44,0.816-0.662s0.538-0.446,0.804-0.67s0.53-0.451,0.792-0.679c0.262-0.228,0.522-0.457,0.781-0.687
	c0.258-0.23,0.514-0.462,0.769-0.695s0.507-0.467,0.757-0.703s0.499-0.473,0.745-0.711s0.491-0.478,0.733-0.719
	s0.483-0.483,0.721-0.727c0.238-0.243,0.475-0.488,0.709-0.734c0.234-0.246,0.467-0.493,0.697-0.742
	c0.23-0.248,0.459-0.498,0.685-0.749c0.226-0.251,0.451-0.503,0.673-0.756c0.222-0.253,0.443-0.508,0.661-0.764
	s0.435-0.513,0.649-0.771c0.214-0.258,0.427-0.517,0.637-0.778c0.21-0.26,0.419-0.522,0.625-0.785s0.411-0.526,0.613-0.791
	c0.202-0.265,0.402-0.531,0.601-0.798s0.394-0.535,0.588-0.805c0.194-0.269,0.386-0.54,0.576-0.811s0.378-0.544,0.564-0.817
	c0.186-0.274,0.37-0.548,0.552-0.824c0.182-0.276,0.362-0.552,0.539-0.83s0.354-0.556,0.527-0.836
	c0.174-0.28,0.345-0.56,0.515-0.842c0.17-0.282,0.337-0.564,0.502-0.848c0.165-0.283,0.329-0.568,0.49-0.853
	c0.161-0.285,0.321-0.572,0.478-0.859c0.157-0.287,0.312-0.575,0.465-0.864c0.153-0.289,0.304-0.579,0.453-0.87
	c0.149-0.291,0.296-0.583,0.44-0.875c0.145-0.293,0.287-0.586,0.428-0.88s0.279-0.589,0.415-0.885
	c0.136-0.296,0.271-0.593,0.403-0.89c0.132-0.298,0.262-0.596,0.39-0.895c0.128-0.299,0.254-0.599,0.378-0.9
	c0.124-0.301,0.245-0.602,0.365-0.905c0.12-0.302,0.237-0.606,0.352-0.909c0.115-0.304,0.229-0.609,0.34-0.914
	c0.111-0.305,0.22-0.611,0.327-0.918c0.107-0.307,0.212-0.614,0.314-0.922c0.103-0.308,0.203-0.617,0.302-0.927
	c0.098-0.31,0.195-0.62,0.289-0.931c0.094-0.311,0.186-0.622,0.276-0.935s0.178-0.625,0.263-0.938s0.169-0.628,0.25-0.942
	c0.081-0.315,0.16-0.63,0.237-0.946c0.077-0.316,0.152-0.632,0.225-0.949c0.073-0.317,0.143-0.635,0.212-0.953
	c0.068-0.318,0.135-0.637,0.199-0.956s0.126-0.639,0.186-0.959c0.06-0.32,0.117-0.641,0.173-0.962s0.109-0.643,0.16-0.965
	c0.051-0.322,0.1-0.645,0.147-0.968s0.091-0.647,0.134-0.971c0.042-0.324,0.083-0.649,0.121-0.974s0.074-0.651,0.107-0.976
	s0.065-0.652,0.094-0.979c0.029-0.327,0.056-0.654,0.081-0.981c0.025-0.327,0.048-0.655,0.068-0.984
	c0.02-0.328,0.039-0.657,0.055-0.986c0.016-0.329,0.03-0.658,0.042-0.988c0.012-0.33,0.021-0.66,0.028-0.99s0.012-0.661,0.015-0.992
	c0.003-0.331,0.003-0.662,0.002-0.993c-0.002-0.331-0.005-0.663-0.012-0.995c-0.006-0.332-0.014-0.664-0.025-0.997
	c-0.011-0.332-0.023-0.665-0.038-0.998s-0.032-0.666-0.052-0.999s-0.041-0.667-0.065-1.001c-0.024-0.334-0.05-0.668-0.078-1.002
	c-0.028-0.334-0.059-0.668-0.092-1.003c-0.033-0.334-0.068-0.669-0.105-1.004c-0.037-0.335-0.077-0.67-0.119-1.005
	s-0.086-0.67-0.132-1.005c-0.046-0.335-0.095-0.67-0.146-1.006c-0.051-0.335-0.104-0.671-0.16-1.006s-0.113-0.671-0.173-1.007
	s-0.122-0.671-0.187-1.007s-0.131-0.671-0.201-1.007c-0.069-0.336-0.141-0.672-0.214-1.007c-0.074-0.336-0.15-0.672-0.228-1.007
	s-0.159-0.671-0.242-1.007c-0.083-0.336-0.168-0.671-0.255-1.007c-0.087-0.336-0.177-0.671-0.269-1.007
	c-0.092-0.335-0.186-0.671-0.283-1.006c-0.097-0.335-0.196-0.67-0.297-1.006c-0.101-0.335-0.205-0.67-0.311-1.005
	s-0.214-0.67-0.325-1.004c-0.11-0.335-0.223-0.669-0.338-1.003s-0.233-0.668-0.352-1.002c-0.12-0.334-0.242-0.668-0.366-1.001
	c-0.124-0.334-0.251-0.667-0.38-1s-0.261-0.666-0.394-0.999c-0.134-0.333-0.27-0.665-0.408-0.997
	c-0.138-0.332-0.279-0.664-0.422-0.996c-0.143-0.332-0.289-0.663-0.436-0.994c-0.148-0.331-0.298-0.662-0.45-0.993
	c-0.153-0.331-0.307-0.661-0.465-0.991c-0.157-0.33-0.317-0.66-0.479-0.989s-0.326-0.658-0.493-0.987
	c-0.167-0.329-0.336-0.657-0.507-0.985c-0.171-0.328-0.345-0.655-0.521-0.983c-0.176-0.327-0.355-0.654-0.536-0.98
	c-0.181-0.326-0.364-0.652-0.55-0.978c-0.186-0.326-0.374-0.651-0.564-0.975c-0.19-0.325-0.383-0.649-0.578-0.973
	s-0.393-0.647-0.593-0.97c-0.2-0.323-0.402-0.645-0.607-0.967c-0.205-0.322-0.412-0.643-0.621-0.964
	c-0.21-0.321-0.422-0.641-0.636-0.961s-0.431-0.639-0.65-0.958c-0.219-0.319-0.441-0.637-0.665-0.955
	c-0.224-0.318-0.45-0.635-0.679-0.951c-0.229-0.317-0.46-0.633-0.694-0.948c-0.234-0.315-0.47-0.63-0.708-0.944
	c-0.239-0.314-0.479-0.628-0.723-0.941c-0.243-0.313-0.489-0.625-0.737-0.937s-0.499-0.623-0.752-0.933
	c-0.253-0.31-0.509-0.62-0.767-0.929c-0.258-0.309-0.518-0.617-0.781-0.925c-0.263-0.308-0.528-0.615-0.796-0.921
	c-0.149-0.17-0.3-0.341-0.453-0.511c-0.153-0.17-0.308-0.34-0.465-0.509s-0.316-0.339-0.477-0.508
	c-0.161-0.169-0.324-0.337-0.489-0.506s-0.331-0.336-0.5-0.504c-0.169-0.168-0.339-0.335-0.511-0.502
	c-0.172-0.167-0.346-0.334-0.522-0.5c-0.176-0.166-0.353-0.332-0.533-0.498s-0.36-0.331-0.543-0.495
	c-0.183-0.165-0.367-0.329-0.554-0.493c-0.186-0.164-0.374-0.327-0.564-0.49s-0.381-0.325-0.574-0.488
	c-0.193-0.162-0.387-0.324-0.583-0.485c-0.196-0.161-0.394-0.322-0.593-0.482s-0.4-0.32-0.602-0.479s-0.406-0.318-0.611-0.476
	s-0.412-0.315-0.62-0.472c-0.208-0.157-0.418-0.313-0.629-0.469c-0.211-0.156-0.423-0.311-0.637-0.465
	c-0.214-0.155-0.429-0.308-0.646-0.462c-0.217-0.153-0.434-0.306-0.654-0.458c-0.219-0.152-0.44-0.303-0.661-0.454
	c-0.222-0.151-0.445-0.301-0.669-0.45s-0.45-0.298-0.677-0.446c-0.227-0.148-0.455-0.295-0.684-0.442
	c-0.229-0.146-0.459-0.292-0.691-0.437c-0.231-0.145-0.464-0.289-0.698-0.433c-0.234-0.144-0.468-0.286-0.704-0.428
	c-0.236-0.142-0.473-0.283-0.711-0.423c-0.238-0.14-0.477-0.28-0.717-0.419c-0.24-0.139-0.481-0.277-0.723-0.414
	s-0.485-0.273-0.729-0.409s-0.489-0.27-0.734-0.403c-0.246-0.134-0.492-0.266-0.74-0.398c-0.247-0.132-0.496-0.263-0.745-0.393
	s-0.499-0.259-0.75-0.387s-0.502-0.255-0.754-0.381c-0.252-0.126-0.505-0.251-0.759-0.376c-0.254-0.124-0.508-0.247-0.763-0.37
	c-0.255-0.122-0.511-0.243-0.767-0.364s-0.514-0.239-0.771-0.357c-0.258-0.118-0.516-0.235-0.775-0.351
	c-0.259-0.116-0.519-0.231-0.779-0.345c-0.26-0.114-0.521-0.227-0.782-0.338c-0.261-0.112-0.523-0.222-0.785-0.332
	c-0.262-0.109-0.525-0.218-0.788-0.325c-0.263-0.107-0.527-0.213-0.791-0.318c-0.264-0.105-0.528-0.209-0.793-0.311
	c-0.265-0.103-0.53-0.204-0.795-0.304c-0.265-0.1-0.531-0.199-0.797-0.297c-0.266-0.098-0.533-0.194-0.799-0.289
	c-0.267-0.095-0.534-0.189-0.801-0.282c-0.267-0.093-0.535-0.184-0.802-0.274s-0.536-0.179-0.804-0.267
	c-0.268-0.088-0.536-0.174-0.805-0.259c-0.268-0.085-0.537-0.169-0.806-0.251c-0.269-0.082-0.537-0.163-0.806-0.243
	c-0.269-0.08-0.538-0.158-0.807-0.235c-0.269-0.077-0.538-0.152-0.807-0.226c-0.269-0.074-0.538-0.147-0.807-0.218
	s-0.538-0.141-0.807-0.209s-0.538-0.135-0.806-0.201s-0.537-0.129-0.806-0.192c-0.268-0.062-0.537-0.123-0.805-0.183
	c-0.268-0.06-0.536-0.118-0.804-0.174s-0.535-0.111-0.803-0.165c-0.267-0.053-0.534-0.105-0.801-0.156s-0.533-0.099-0.799-0.146
	c-0.266-0.047-0.532-0.093-0.798-0.137c-0.266-0.044-0.531-0.086-0.796-0.127c-0.265-0.041-0.529-0.08-0.793-0.117
	c-0.264-0.037-0.528-0.073-0.791-0.108c-0.263-0.034-0.526-0.067-0.788-0.098s-0.524-0.06-0.785-0.087
	c-0.261-0.027-0.522-0.053-0.782-0.077c-0.26-0.024-0.52-0.046-0.779-0.067c-0.259-0.021-0.518-0.039-0.775-0.056
	s-0.515-0.032-0.772-0.046c-0.257-0.014-0.513-0.025-0.768-0.035s-0.51-0.018-0.764-0.024c-0.254-0.006-0.507-0.011-0.759-0.013
	c-0.252-0.003-0.504-0.003-0.755-0.002s-0.501,0.004-0.75,0.009c-0.249,0.005-0.498,0.011-0.745,0.02
	c-0.248,0.009-0.494,0.019-0.74,0.031c-0.246,0.012-0.491,0.027-0.735,0.043c-0.244,0.016-0.487,0.034-0.729,0.055
	c-0.242,0.02-0.483,0.042-0.723,0.066c-0.24,0.024-0.479,0.05-0.717,0.078c-0.238,0.028-0.475,0.058-0.711,0.09
	c-0.236,0.032-0.471,0.066-0.705,0.102c-0.234,0.036-0.467,0.074-0.698,0.115c-0.232,0.04-0.462,0.083-0.691,0.127
	s-0.457,0.091-0.684,0.139c-0.227,0.049-0.453,0.099-0.677,0.152c-0.224,0.053-0.448,0.108-0.67,0.165
	c-0.222,0.057-0.443,0.116-0.662,0.178s-0.437,0.125-0.654,0.19c-0.217,0.066-0.432,0.134-0.646,0.204
	c-0.214,0.07-0.427,0.142-0.638,0.217c-0.211,0.074-0.421,0.151-0.629,0.23c-0.208,0.079-0.415,0.16-0.621,0.243
	s-0.409,0.169-0.612,0.257c-0.202,0.088-0.403,0.178-0.603,0.271c-0.199,0.093-0.397,0.187-0.594,0.284s-0.391,0.197-0.584,0.298
	c-0.193,0.102-0.385,0.206-0.574,0.312c-0.19,0.106-0.378,0.215-0.565,0.327c-0.187,0.111-0.371,0.225-0.554,0.341
	c-0.183,0.116-0.364,0.234-0.544,0.355c-0.18,0.121-0.358,0.244-0.534,0.37c-0.176,0.126-0.35,0.254-0.523,0.384
	c-0.172,0.131-0.343,0.264-0.512,0.399c-0.169,0.135-0.336,0.273-0.501,0.414c-0.165,0.14-0.328,0.283-0.489,0.429
	c-0.161,0.145-0.321,0.293-0.478,0.444c-0.157,0.151-0.313,0.304-0.466,0.459c-0.153,0.156-0.305,0.314-0.454,0.475
	c-0.149,0.161-0.297,0.324-0.442,0.49s-0.289,0.334-0.43,0.506s-0.28,0.345-0.417,0.521c-0.137,0.176-0.272,0.355-0.404,0.537
	c-0.133,0.182-0.263,0.366-0.391,0.553c-0.128,0.187-0.254,0.377-0.378,0.569s-0.245,0.387-0.365,0.585
	c-0.119,0.198-0.236,0.398-0.351,0.602c-0.115,0.203-0.227,0.409-0.337,0.618s-0.218,0.42-0.323,0.635
	c0.021-0.058,0.043-0.117,0.065-0.177c0.022-0.06,0.045-0.121,0.069-0.183c0.024-0.062,0.048-0.125,0.072-0.188
	c0.025-0.064,0.05-0.128,0.076-0.194c0.026-0.065,0.053-0.132,0.08-0.199c0.027-0.067,0.055-0.135,0.084-0.204
	s0.058-0.138,0.088-0.209s0.06-0.142,0.092-0.214s0.063-0.145,0.096-0.218c0.033-0.074,0.066-0.148,0.1-0.223
	c0.034-0.075,0.068-0.151,0.104-0.227s0.071-0.153,0.108-0.231c0.037-0.078,0.074-0.156,0.112-0.235s0.077-0.159,0.116-0.239
	c0.04-0.08,0.08-0.161,0.121-0.243c0.041-0.082,0.083-0.164,0.125-0.246c0.042-0.083,0.086-0.166,0.13-0.25
	c0.044-0.084,0.089-0.168,0.134-0.253c0.045-0.085,0.092-0.17,0.139-0.256c0.047-0.086,0.095-0.172,0.143-0.259
	c0.049-0.087,0.098-0.174,0.148-0.262c0.05-0.088,0.101-0.176,0.153-0.264c0.052-0.088,0.104-0.177,0.158-0.267
	c0.053-0.089,0.107-0.179,0.162-0.269c0.055-0.09,0.111-0.18,0.167-0.271c0.057-0.091,0.114-0.182,0.172-0.273
	c0.058-0.091,0.117-0.183,0.177-0.275s0.121-0.184,0.182-0.276c0.062-0.092,0.124-0.185,0.188-0.278s0.128-0.186,0.193-0.279
	c0.065-0.093,0.131-0.187,0.198-0.28c0.067-0.094,0.135-0.187,0.203-0.281s0.138-0.188,0.209-0.282
	c0.07-0.094,0.142-0.189,0.214-0.283s0.146-0.189,0.22-0.284c0.074-0.095,0.149-0.189,0.225-0.284
	c0.076-0.095,0.153-0.189,0.231-0.284c0.078-0.095,0.157-0.19,0.236-0.284c0.08-0.095,0.16-0.189,0.242-0.284
	c0.082-0.095,0.164-0.189,0.248-0.284s0.168-0.189,0.254-0.284c0.086-0.094,0.172-0.189,0.26-0.283s0.176-0.188,0.266-0.282
	s0.18-0.188,0.272-0.281c0.092-0.094,0.184-0.187,0.278-0.28c0.094-0.093,0.188-0.186,0.284-0.279
	c0.096-0.093,0.192-0.185,0.29-0.278s0.196-0.185,0.296-0.276s0.201-0.183,0.302-0.275c0.102-0.091,0.205-0.182,0.309-0.273
	s0.209-0.181,0.315-0.271c0.106-0.09,0.213-0.18,0.322-0.269s0.218-0.178,0.328-0.267c0.11-0.088,0.222-0.176,0.335-0.264
	c0.113-0.088,0.226-0.175,0.341-0.261s0.231-0.173,0.348-0.259c0.117-0.086,0.235-0.171,0.355-0.256
	c0.119-0.085,0.24-0.169,0.362-0.253c0.122-0.084,0.244-0.167,0.368-0.25c0.124-0.083,0.249-0.165,0.375-0.246
	s0.254-0.162,0.382-0.243c0.129-0.08,0.258-0.16,0.389-0.239c0.131-0.079,0.263-0.157,0.396-0.235
	c0.133-0.078,0.268-0.155,0.404-0.231c0.136-0.076,0.273-0.152,0.411-0.227c0.138-0.075,0.277-0.149,0.418-0.223
	c0.141-0.073,0.282-0.146,0.425-0.218c0.143-0.072,0.287-0.143,0.433-0.213c0.145-0.07,0.292-0.14,0.44-0.209
	c0.148-0.069,0.297-0.137,0.448-0.204c0.15-0.067,0.302-0.133,0.455-0.199c0.153-0.065,0.307-0.13,0.463-0.193
	c0.156-0.064,0.312-0.126,0.47-0.188s0.317-0.122,0.478-0.182c0.161-0.06,0.323-0.119,0.486-0.176s0.328-0.115,0.494-0.171
	c0.166-0.056,0.333-0.111,0.502-0.165c0.169-0.054,0.338-0.107,0.51-0.158c0.171-0.052,0.344-0.102,0.518-0.152
	c0.174-0.05,0.349-0.098,0.526-0.145c0.177-0.047,0.354-0.094,0.534-0.139s0.36-0.089,0.542-0.132s0.365-0.084,0.55-0.125
	c0.185-0.04,0.371-0.08,0.558-0.118c0.188-0.038,0.376-0.075,0.567-0.11c0.19-0.036,0.382-0.07,0.575-0.103
	c0.193-0.033,0.388-0.065,0.584-0.095c0.196-0.03,0.393-0.06,0.592-0.088s0.399-0.054,0.601-0.08
	c0.202-0.025,0.405-0.049,0.609-0.071c0.205-0.022,0.411-0.044,0.618-0.063s0.416-0.038,0.627-0.055s0.422-0.032,0.635-0.046
	c0.213-0.014,0.428-0.026,0.644-0.037c0.216-0.011,0.434-0.021,0.653-0.029c0.219-0.008,0.44-0.015,0.662-0.02
	s0.446-0.008,0.671-0.01c0.225-0.002,0.452-0.002,0.68-0.001s0.458,0.004,0.689,0.009c0.231,0.004,0.464,0.011,0.699,0.018
	c0.234,0.008,0.47,0.017,0.708,0.028c0.238,0.011,0.477,0.024,0.717,0.038c0.241,0.014,0.483,0.03,0.727,0.048
	s0.489,0.037,0.736,0.058s0.495,0.044,0.745,0.069c0.25,0.025,0.502,0.051,0.755,0.08s0.508,0.058,0.765,0.09
	s0.515,0.066,0.774,0.101c0.26,0.036,0.521,0.073,0.784,0.112c0.263,0.039,0.528,0.081,0.794,0.124
	c0.266,0.043,0.534,0.088,0.804,0.135s0.541,0.096,0.813,0.147c0.273,0.051,0.547,0.104,0.823,0.158
	c0.276,0.055,0.554,0.111,0.833,0.17s0.561,0.119,0.843,0.182c0.283,0.063,0.567,0.128,0.854,0.194
	c0.286,0.067,0.574,0.136,0.864,0.207c0.29,0.071,0.581,0.144,0.874,0.219c0.293,0.075,0.588,0.152,0.884,0.232
	c0.296,0.079,0.595,0.161,0.895,0.245c0.3,0.084,0.602,0.17,0.905,0.258c0.303,0.088,0.608,0.178,0.915,0.271
	c0.307,0.092,0.615,0.187,0.926,0.284c0.31,0.097,0.623,0.196,0.936,0.298s0.63,0.205,0.947,0.311
	c0.317,0.106,0.637,0.214,0.958,0.325c0.321,0.111,0.644,0.224,0.968,0.339c0.325,0.115,0.651,0.233,0.979,0.353
	c0,0-0.003-0.005-0.01-0.015c-0.007-0.01-0.017-0.025-0.03-0.044c-0.013-0.02-0.03-0.044-0.05-0.073
	c-0.02-0.029-0.043-0.063-0.069-0.102c-0.026-0.039-0.055-0.082-0.087-0.13s-0.067-0.101-0.105-0.159s-0.079-0.12-0.123-0.187
	c-0.044-0.067-0.091-0.138-0.14-0.214c-0.049-0.076-0.102-0.156-0.157-0.241c-0.055-0.085-0.113-0.175-0.173-0.268
	c-0.06-0.094-0.123-0.192-0.189-0.295c-0.065-0.103-0.134-0.21-0.204-0.322c-0.071-0.112-0.144-0.228-0.219-0.348
	s-0.153-0.245-0.233-0.374c-0.08-0.129-0.163-0.262-0.247-0.399c-0.085-0.137-0.172-0.279-0.261-0.425
	c-0.089-0.146-0.18-0.296-0.274-0.45c-0.093-0.154-0.189-0.312-0.286-0.474c-0.098-0.162-0.197-0.329-0.299-0.499
	c-0.101-0.17-0.205-0.345-0.31-0.523s-0.212-0.361-0.321-0.547s-0.22-0.376-0.332-0.57s-0.227-0.392-0.342-0.594
	c-0.116-0.202-0.233-0.407-0.352-0.617c-0.119-0.209-0.24-0.423-0.362-0.64c-0.122-0.217-0.246-0.438-0.37-0.662
	c-0.125-0.224-0.251-0.452-0.379-0.684c-0.128-0.232-0.257-0.467-0.387-0.706c-0.13-0.239-0.262-0.481-0.394-0.728
	c-0.133-0.246-0.266-0.496-0.401-0.749c-0.135-0.253-0.271-0.51-0.408-0.77c-0.137-0.26-0.275-0.524-0.414-0.791
	c-0.139-0.267-0.279-0.537-0.42-0.811c-0.141-0.274-0.283-0.551-0.425-0.831c-0.142-0.28-0.286-0.564-0.43-0.851
	c-0.144-0.287-0.289-0.577-0.434-0.87c-0.145-0.293-0.291-0.59-0.438-0.89c-0.147-0.3-0.294-0.603-0.441-0.909
	s-0.296-0.615-0.444-0.927s-0.297-0.628-0.447-0.946c-0.149-0.318-0.299-0.64-0.449-0.964c-0.15-0.324-0.3-0.652-0.45-0.982
	c-0.15-0.33-0.301-0.663-0.451-0.999c-0.151-0.336-0.301-0.675-0.452-1.017c-0.151-0.342-0.301-0.686-0.452-1.034
	s-0.301-0.697-0.452-1.05c-0.15-0.353-0.301-0.708-0.451-1.067s-0.3-0.719-0.45-1.083c-0.15-0.364-0.299-0.73-0.448-1.099
	s-0.298-0.74-0.446-1.114c-0.148-0.374-0.296-0.75-0.443-1.129s-0.294-0.76-0.44-1.144c-0.146-0.384-0.292-0.77-0.437-1.159
	c-0.145-0.389-0.289-0.78-0.433-1.173c-0.144-0.393-0.286-0.789-0.428-1.187c-0.142-0.398-0.283-0.799-0.423-1.201
	c-0.14-0.403-0.28-0.808-0.418-1.215c-0.138-0.407-0.276-0.816-0.412-1.228c-0.136-0.411-0.272-0.825-0.406-1.241
	c-0.134-0.416-0.267-0.834-0.399-1.253c-0.132-0.42-0.263-0.842-0.392-1.266c-0.129-0.424-0.258-0.85-0.384-1.278
	c-0.127-0.428-0.252-0.858-0.376-1.29c-0.124-0.432-0.247-0.866-0.368-1.301s-0.241-0.873-0.359-1.312
	c-0.118-0.439-0.234-0.88-0.349-1.323c-0.115-0.443-0.228-0.888-0.339-1.334c-0.111-0.446-0.221-0.895-0.329-1.344
	c-0.108-0.45-0.214-0.901-0.318-1.354c-0.104-0.453-0.206-0.908-0.306-1.364s-0.198-0.914-0.295-1.374
	c-0.096-0.459-0.19-0.92-0.282-1.383c-0.092-0.462-0.182-0.926-0.27-1.392c-0.088-0.465-0.173-0.932-0.256-1.4
	s-0.164-0.938-0.243-1.409c-0.079-0.471-0.155-0.943-0.229-1.417c-0.074-0.474-0.145-0.948-0.214-1.424
	c-0.069-0.476-0.135-0.953-0.199-1.432c-0.064-0.479-0.125-0.958-0.184-1.439c-0.059-0.481-0.114-0.963-0.168-1.446
	c-0.053-0.483-0.104-0.967-0.151-1.453c-0.048-0.485-0.092-0.972-0.134-1.459c-0.042-0.487-0.081-0.976-0.117-1.465
	s-0.069-0.98-0.099-1.471c-0.03-0.491-0.057-0.983-0.081-1.476s-0.045-0.987-0.062-1.481c-0.018-0.495-0.032-0.99-0.043-1.486
	c-0.011-0.496-0.019-0.993-0.024-1.491s-0.006-0.996-0.003-1.495c0.002-0.499,0.008-0.999,0.017-1.499
	c0.009-0.5,0.022-1.001,0.038-1.503c0.016-0.502,0.036-1.004,0.06-1.506c0.023-0.503,0.051-1.006,0.081-1.509
	c0.031-0.504,0.065-1.008,0.104-1.512c0.038-0.505,0.081-1.01,0.127-1.515c0.046-0.505,0.096-1.011,0.15-1.517
	s0.112-1.013,0.174-1.519c0.062-0.507,0.128-1.014,0.198-1.521c0.07-0.507,0.144-1.015,0.223-1.522
	c0.078-0.508,0.161-1.016,0.248-1.523c0.087-0.508,0.178-1.016,0.273-1.524s0.195-1.017,0.299-1.525
	c0.104-0.508,0.213-1.017,0.326-1.525c0.113-0.508,0.231-1.017,0.353-1.525c0.122-0.508,0.249-1.017,0.38-1.525
	s0.268-1.016,0.408-1.524c0.141-0.508,0.286-1.016,0.437-1.523c0.15-0.508,0.305-1.015,0.466-1.522s0.325-1.014,0.495-1.521
	s0.345-1.013,0.525-1.519s0.365-1.012,0.555-1.517s0.385-1.01,0.585-1.515c0.2-0.504,0.406-1.009,0.617-1.512
	s0.427-1.007,0.648-1.509c0.221-0.503,0.448-1.005,0.68-1.506s0.47-1.002,0.713-1.503s0.492-1,0.746-1.499
	c0.254-0.499,0.514-0.997,0.779-1.495c0.265-0.498,0.536-0.994,0.813-1.49s0.559-0.991,0.847-1.486
	c0.288-0.494,0.582-0.988,0.882-1.481c0.3-0.493,0.606-0.985,0.917-1.476c0.312-0.491,0.629-0.981,0.953-1.47
	c0.324-0.489,0.653-0.977,0.989-1.464c0.336-0.487,0.678-0.973,1.026-1.458c0.348-0.485,0.702-0.969,1.063-1.452
	c0.361-0.483,0.727-0.965,1.101-1.445c0.373-0.481,0.753-0.96,1.139-1.439c-0.167,0.222-0.333,0.447-0.499,0.675
	c-0.165,0.227-0.33,0.457-0.493,0.689c-0.164,0.232-0.326,0.467-0.488,0.704c-0.162,0.237-0.322,0.476-0.482,0.718
	c-0.16,0.242-0.318,0.486-0.476,0.732s-0.314,0.495-0.47,0.746s-0.31,0.504-0.464,0.759c-0.153,0.255-0.306,0.513-0.457,0.773
	c-0.151,0.26-0.301,0.522-0.451,0.786s-0.297,0.531-0.444,0.8c-0.147,0.269-0.292,0.54-0.437,0.813
	c-0.144,0.273-0.288,0.548-0.43,0.826s-0.283,0.557-0.423,0.838c-0.14,0.282-0.278,0.565-0.415,0.851
	c-0.137,0.286-0.273,0.573-0.408,0.863c-0.135,0.29-0.268,0.582-0.4,0.876s-0.263,0.59-0.392,0.888
	c-0.13,0.298-0.258,0.598-0.385,0.9c-0.127,0.302-0.252,0.606-0.376,0.911c-0.124,0.306-0.247,0.613-0.368,0.923
	c-0.121,0.31-0.241,0.621-0.36,0.934c-0.118,0.313-0.236,0.629-0.351,0.946c-0.116,0.317-0.23,0.636-0.342,0.957
	c-0.113,0.321-0.224,0.643-0.334,0.968c-0.11,0.324-0.218,0.651-0.325,0.979c-0.107,0.328-0.212,0.658-0.315,0.989
	c-0.104,0.332-0.206,0.665-0.306,1c-0.1,0.335-0.199,0.672-0.297,1.01c-0.097,0.338-0.193,0.679-0.287,1.02s-0.186,0.685-0.277,1.03
	c-0.091,0.345-0.18,0.692-0.267,1.04c-0.087,0.348-0.173,0.698-0.257,1.05c-0.084,0.352-0.166,0.705-0.247,1.059
	c-0.081,0.355-0.159,0.711-0.236,1.069s-0.152,0.717-0.226,1.078c-0.073,0.361-0.145,0.723-0.215,1.087
	c-0.07,0.364-0.138,0.729-0.204,1.096s-0.131,0.735-0.193,1.105c-0.063,0.37-0.123,0.741-0.182,1.113
	c-0.059,0.372-0.116,0.746-0.171,1.122c-0.055,0.375-0.108,0.752-0.159,1.13s-0.1,0.757-0.147,1.138
	c-0.047,0.381-0.092,0.763-0.136,1.146c-0.043,0.383-0.084,0.768-0.124,1.154c-0.039,0.386-0.076,0.773-0.112,1.161
	c-0.035,0.388-0.068,0.778-0.099,1.169c-0.031,0.391-0.06,0.783-0.087,1.176c-0.027,0.393-0.052,0.788-0.074,1.183
	c-0.023,0.396-0.043,0.792-0.062,1.19s-0.035,0.797-0.049,1.197c-0.014,0.4-0.026,0.801-0.036,1.204
	c-0.01,0.402-0.017,0.806-0.022,1.21c-0.005,0.404-0.008,0.81-0.009,1.216c-0.001,0.407,0.001,0.814,0.004,1.223
	c0.004,0.409,0.01,0.818,0.018,1.229c0.008,0.41,0.019,0.822,0.032,1.234c0.013,0.412,0.028,0.826,0.046,1.24
	c0.018,0.414,0.038,0.829,0.06,1.246c0.022,0.416,0.047,0.833,0.074,1.251c0.027,0.418,0.057,0.837,0.089,1.256
	c0.032,0.42,0.066,0.84,0.103,1.261c0.037,0.421,0.076,0.843,0.118,1.266c0.042,0.423,0.086,0.846,0.133,1.271
	c0.047,0.424,0.096,0.849,0.148,1.275s0.106,0.852,0.163,1.28c0.057,0.427,0.116,0.855,0.178,1.284
	c0.062,0.429,0.127,0.858,0.194,1.288c0.067,0.43,0.137,0.861,0.21,1.292c0.073,0.431,0.148,0.863,0.225,1.296
	c0.078,0.433,0.158,0.866,0.241,1.299s0.169,0.868,0.258,1.303c0.089,0.435,0.18,0.87,0.274,1.306
	c0.094,0.436,0.191,0.872,0.29,1.309s0.202,0.874,0.307,1.312c0.105,0.438,0.213,0.876,0.324,1.315
	c0.111,0.439,0.224,0.878,0.34,1.317s0.235,0.88,0.358,1.32s0.247,0.881,0.375,1.322c0.128,0.441,0.258,0.883,0.392,1.324
	c0.134,0.442,0.27,0.884,0.41,1.326c0.139,0.442,0.282,0.885,0.427,1.328c0.145,0.443,0.294,0.886,0.445,1.33
	s0.306,0.887,0.463,1.331s0.318,0.888,0.481,1.333c0.163,0.444,0.33,0.889,0.499,1.334c0.17,0.445,0.342,0.89,0.518,1.335
	c0.176,0.445,0.355,0.89,0.536,1.336s0.367,0.891,0.555,1.336c0.188,0.446,0.38,0.891,0.574,1.337
	c0.195,0.446,0.392,0.891,0.593,1.337c0.201,0.446,0.405,0.892,0.612,1.338c0.207,0.446,0.418,0.892,0.632,1.338
	s0.431,0.892,0.651,1.337c0.22,0.446,0.444,0.892,0.671,1.337s0.457,0.891,0.691,1.337c0.234,0.446,0.47,0.891,0.711,1.336
	c0.24,0.445,0.484,0.89,0.731,1.335c0.247,0.445,0.497,0.89,0.751,1.335c0.254,0.445,0.511,0.889,0.771,1.333
	s0.525,0.888,0.792,1.332c0.267,0.444,0.538,0.887,0.813,1.331c0.274,0.443,0.552,0.886,0.834,1.329s0.566,0.885,0.855,1.328
	c0.288,0.442,0.58,0.884,0.876,1.326c0.296,0.442,0.595,0.883,0.897,1.324c0.303,0.441,0.609,0.881,0.919,1.321
	c0.31,0.44,0.623,0.88,0.941,1.319c0.317,0.439,0.638,0.878,0.962,1.317c0.324,0.438,0.653,0.876,0.984,1.314
	c0.332,0.438,0.667,0.875,1.006,1.311s0.682,0.873,1.029,1.308c0.347,0.436,0.697,0.87,1.051,1.305
	c0.354,0.434,0.712,0.868,1.074,1.302c0.362,0.433,0.727,0.866,1.097,1.298c0.369,0.432,0.742,0.864,1.119,1.294
	c0.377,0.431,0.758,0.861,1.142,1.291c0.385,0.43,0.773,0.859,1.166,1.287c0.392,0.428,0.789,0.856,1.189,1.283
	c0.4,0.427,0.804,0.853,1.213,1.278c0.408,0.425,0.82,0.85,1.236,1.274s0.836,0.847,1.26,1.269c0.424,0.422,0.852,0.844,1.284,1.265
	c0.432,0.421,0.868,0.841,1.308,1.26c0.44,0.419,0.884,0.837,1.332,1.255c0.448,0.417,0.9,0.834,1.357,1.249s0.917,0.83,1.381,1.244
	s0.933,0.826,1.406,1.238c0.473,0.412,0.95,0.823,1.431,1.233c-0.012-0.084-0.024-0.169-0.035-0.255
	c-0.011-0.086-0.021-0.173-0.03-0.262c-0.009-0.089-0.018-0.178-0.025-0.269c-0.008-0.091-0.015-0.183-0.021-0.276
	c-0.006-0.093-0.011-0.187-0.016-0.283c-0.004-0.095-0.008-0.192-0.011-0.289c-0.003-0.098-0.005-0.196-0.006-0.296
	c-0.001-0.1-0.002-0.201-0.001-0.302c0-0.102,0.001-0.205,0.003-0.309s0.005-0.209,0.008-0.315s0.008-0.213,0.013-0.321
	c0.005-0.108,0.011-0.217,0.018-0.327s0.014-0.221,0.023-0.333c0.008-0.112,0.018-0.225,0.028-0.338
	c0.01-0.114,0.021-0.228,0.033-0.344c0.012-0.116,0.024-0.232,0.037-0.349c0.013-0.117,0.027-0.236,0.042-0.355
	c0.015-0.119,0.031-0.239,0.047-0.36c0.017-0.121,0.034-0.242,0.052-0.365c0.018-0.122,0.037-0.246,0.057-0.37
	c0.02-0.124,0.041-0.249,0.062-0.375s0.044-0.252,0.067-0.379s0.047-0.255,0.072-0.384c0.025-0.129,0.05-0.258,0.077-0.388
	c0.026-0.13,0.054-0.261,0.082-0.393c0.028-0.132,0.057-0.264,0.087-0.397s0.06-0.266,0.092-0.401
	c0.031-0.134,0.064-0.269,0.097-0.405c0.033-0.136,0.067-0.272,0.102-0.408c0.035-0.137,0.07-0.274,0.107-0.412
	c0.036-0.138,0.074-0.276,0.112-0.416c0.038-0.139,0.077-0.279,0.117-0.419c0.04-0.14,0.08-0.281,0.122-0.422
	c0.041-0.141,0.084-0.283,0.127-0.425s0.087-0.285,0.132-0.428c0.045-0.143,0.09-0.287,0.137-0.431s0.094-0.289,0.142-0.434
	c0.048-0.145,0.097-0.291,0.147-0.437c0.05-0.146,0.101-0.292,0.152-0.439c0.052-0.147,0.104-0.294,0.157-0.442
	c0.053-0.148,0.107-0.296,0.162-0.444c0.055-0.148,0.111-0.297,0.167-0.446c0.057-0.149,0.114-0.298,0.173-0.448
	c0.058-0.15,0.118-0.3,0.178-0.45s0.121-0.301,0.183-0.452c0.062-0.151,0.124-0.302,0.188-0.453s0.128-0.303,0.193-0.455
	s0.131-0.304,0.198-0.456s0.135-0.305,0.203-0.457c0.069-0.153,0.138-0.305,0.209-0.458c0.07-0.153,0.142-0.306,0.214-0.459
	s0.145-0.307,0.219-0.46c0.074-0.154,0.149-0.307,0.224-0.461s0.152-0.308,0.229-0.462c0.077-0.154,0.156-0.308,0.235-0.462
	c0.079-0.154,0.159-0.308,0.24-0.463c0.081-0.154,0.162-0.308,0.245-0.463c0.083-0.154,0.166-0.309,0.25-0.463
	c0.084-0.154,0.169-0.309,0.256-0.463c0.086-0.154,0.173-0.308,0.261-0.463c0.088-0.154,0.176-0.308,0.266-0.462
	c0.09-0.154,0.18-0.308,0.271-0.462c0.091-0.154,0.183-0.308,0.277-0.461s0.187-0.307,0.282-0.461
	c0.095-0.153,0.191-0.307,0.287-0.46s0.194-0.306,0.292-0.459c0.098-0.153,0.198-0.306,0.298-0.458s0.201-0.305,0.303-0.457
	c0.102-0.152,0.205-0.304,0.308-0.456c0.104-0.152,0.208-0.303,0.314-0.454c0.105-0.151,0.212-0.302,0.319-0.453
	s0.215-0.301,0.324-0.451c0.109-0.15,0.219-0.3,0.33-0.449c0.111-0.149,0.223-0.299,0.335-0.447s0.226-0.297,0.341-0.445
	c0.114-0.148,0.23-0.296,0.346-0.443c0.116-0.147,0.233-0.294,0.351-0.441c0.118-0.147,0.237-0.293,0.357-0.438
	c0.12-0.146,0.24-0.291,0.362-0.436c0.122-0.145,0.244-0.289,0.368-0.433c0.123-0.144,0.248-0.287,0.373-0.43
	c0.125-0.143,0.251-0.285,0.378-0.427c0.127-0.142,0.255-0.283,0.384-0.424c0.129-0.141,0.259-0.281,0.389-0.421
	c0.131-0.14,0.262-0.279,0.395-0.418s0.266-0.277,0.4-0.414s0.27-0.274,0.406-0.411s0.273-0.272,0.411-0.407s0.277-0.27,0.417-0.403
	c0.14-0.134,0.28-0.267,0.422-0.399c0.142-0.132,0.284-0.264,0.428-0.395c0.143-0.131,0.288-0.261,0.433-0.391
	c0.145-0.13,0.292-0.259,0.439-0.387c0.147-0.128,0.295-0.256,0.444-0.382s0.299-0.253,0.45-0.378
	c0.151-0.125,0.303-0.249,0.455-0.373c0.153-0.124,0.306-0.246,0.461-0.368c0.155-0.122,0.31-0.243,0.466-0.363
	c0.156-0.12,0.314-0.24,0.472-0.358s0.317-0.236,0.478-0.353s0.321-0.233,0.483-0.348c0.162-0.115,0.325-0.229,0.489-0.342
	s0.329-0.225,0.494-0.336c0.166-0.111,0.332-0.221,0.5-0.331c0.168-0.109,0.336-0.218,0.506-0.325
	c0.169-0.107,0.34-0.214,0.511-0.319c0.171-0.105,0.344-0.21,0.517-0.313c0.173-0.103,0.347-0.205,0.522-0.307
	c0.175-0.101,0.351-0.201,0.528-0.3c0.177-0.099,0.355-0.197,0.534-0.294c0.179-0.097,0.359-0.193,0.539-0.287
	s0.362-0.188,0.545-0.28s0.366-0.184,0.551-0.274c0.185-0.09,0.37-0.179,0.557-0.267c0.186-0.088,0.374-0.174,0.562-0.259
	c0.188-0.085,0.378-0.169,0.568-0.252c0.19-0.083,0.381-0.164,0.574-0.245c0.192-0.08,0.385-0.159,0.579-0.237
	c0.194-0.078,0.389-0.154,0.585-0.23c0.196-0.075,0.393-0.149,0.591-0.222s0.397-0.144,0.597-0.214s0.401-0.139,0.602-0.206
	c0.202-0.067,0.404-0.133,0.608-0.198c0.204-0.065,0.408-0.128,0.614-0.19c0.206-0.062,0.412-0.122,0.62-0.181
	c0.208-0.059,0.416-0.117,0.626-0.173s0.42-0.111,0.631-0.164c0.211-0.053,0.424-0.105,0.637-0.155
	c-0.312,0.195-0.622,0.391-0.928,0.59s-0.609,0.399-0.909,0.601s-0.596,0.407-0.89,0.613c-0.293,0.206-0.584,0.414-0.871,0.624
	c-0.287,0.21-0.571,0.421-0.852,0.634c-0.281,0.213-0.559,0.428-0.834,0.645c-0.275,0.217-0.546,0.435-0.815,0.655
	s-0.534,0.441-0.796,0.664s-0.521,0.448-0.777,0.674c-0.256,0.226-0.509,0.454-0.759,0.683c-0.25,0.229-0.497,0.46-0.74,0.692
	c-0.244,0.232-0.484,0.466-0.722,0.701c-0.237,0.235-0.472,0.471-0.703,0.709c-0.231,0.238-0.459,0.477-0.684,0.717
	c-0.225,0.24-0.447,0.482-0.666,0.724c-0.219,0.243-0.435,0.487-0.647,0.732c-0.213,0.245-0.422,0.491-0.629,0.739
	s-0.41,0.496-0.611,0.745c-0.2,0.25-0.398,0.5-0.592,0.752s-0.386,0.504-0.574,0.758c-0.188,0.254-0.373,0.508-0.555,0.764
	c-0.182,0.256-0.361,0.512-0.537,0.769c-0.176,0.257-0.349,0.516-0.519,0.775c-0.17,0.259-0.337,0.519-0.5,0.779
	c-0.164,0.261-0.324,0.522-0.482,0.784c-0.158,0.262-0.312,0.525-0.464,0.788c-0.152,0.263-0.3,0.528-0.446,0.792
	c-0.146,0.265-0.288,0.53-0.428,0.796c-0.139,0.266-0.276,0.532-0.409,0.799c-0.133,0.267-0.264,0.534-0.391,0.802
	c-0.127,0.268-0.252,0.536-0.373,0.805s-0.24,0.538-0.355,0.808c-0.115,0.27-0.228,0.539-0.337,0.81s-0.216,0.541-0.319,0.812
	s-0.204,0.542-0.301,0.813c-0.097,0.271-0.192,0.543-0.283,0.814s-0.18,0.543-0.265,0.815s-0.168,0.544-0.247,0.816
	s-0.156,0.544-0.229,0.816c-0.073,0.272-0.144,0.544-0.211,0.816c-0.067,0.272-0.132,0.544-0.193,0.816
	c-0.062,0.272-0.12,0.544-0.176,0.815c-0.056,0.272-0.108,0.543-0.158,0.814c-0.05,0.271-0.096,0.542-0.14,0.813
	c-0.044,0.271-0.085,0.541-0.122,0.812c-0.038,0.27-0.073,0.54-0.105,0.81c-0.032,0.27-0.061,0.539-0.087,0.808
	c-0.026,0.269-0.049,0.537-0.069,0.805c-0.02,0.268-0.037,0.535-0.052,0.802c-0.014,0.267-0.026,0.533-0.034,0.799
	c-0.008,0.266-0.014,0.531-0.016,0.796c-0.003,0.265-0.002,0.529,0.001,0.792c0.003,0.263,0.01,0.526,0.019,0.788
	c0.009,0.262,0.021,0.523,0.036,0.784c0.015,0.261,0.033,0.52,0.054,0.78c0.021,0.259,0.045,0.517,0.071,0.775
	c0.027,0.257,0.056,0.514,0.089,0.769s0.068,0.51,0.106,0.764c0.038,0.254,0.079,0.506,0.123,0.758s0.091,0.502,0.141,0.752
	c0.05,0.25,0.102,0.498,0.158,0.746c0.056,0.247,0.114,0.494,0.175,0.739c0.061,0.245,0.126,0.489,0.193,0.732
	c0.067,0.243,0.137,0.484,0.21,0.725c0.073,0.24,0.149,0.479,0.227,0.717c0.079,0.238,0.16,0.474,0.244,0.709
	s0.171,0.469,0.261,0.701c0.09,0.232,0.183,0.463,0.279,0.692c0.096,0.229,0.194,0.457,0.296,0.683
	c0.101,0.226,0.206,0.451,0.313,0.674c0.107,0.223,0.217,0.445,0.33,0.665c0.113,0.22,0.228,0.438,0.347,0.655
	c0.119,0.217,0.24,0.432,0.364,0.645s0.251,0.425,0.381,0.635s0.262,0.418,0.398,0.624c0.135,0.206,0.274,0.41,0.415,0.613
	c0.141,0.202,0.285,0.403,0.432,0.602c0.147,0.199,0.296,0.395,0.449,0.59c0.152,0.195,0.308,0.387,0.466,0.578
	s0.319,0.379,0.482,0.566c0.164,0.187,0.33,0.371,0.499,0.553s0.341,0.362,0.516,0.54s0.352,0.354,0.533,0.527
	c0.18,0.174,0.364,0.345,0.55,0.514s0.375,0.336,0.566,0.5c0.192,0.164,0.386,0.326,0.583,0.486c0.197,0.16,0.397,0.317,0.6,0.472
	c0.203,0.155,0.408,0.307,0.616,0.457c0.208,0.15,0.419,0.297,0.633,0.442c0.214,0.145,0.43,0.287,0.649,0.427
	c0.219,0.14,0.441,0.277,0.666,0.411c0.225,0.134,0.452,0.266,0.683,0.395c0.23,0.129,0.463,0.256,0.699,0.379
	c0.236,0.124,0.474,0.245,0.715,0.363c0.241,0.118,0.485,0.233,0.732,0.346c0.247,0.112,0.496,0.222,0.748,0.329
	s0.507,0.211,0.765,0.311c0.258,0.101,0.518,0.199,0.781,0.294c0.263,0.095,0.529,0.187,0.798,0.276
	c0.269,0.089,0.54,0.175,0.814,0.257c0.274,0.083,0.551,0.162,0.83,0.239c0.279,0.076,0.562,0.15,0.846,0.22
	c0.285,0.07,0.572,0.137,0.863,0.201s0.583,0.124,0.879,0.181s0.594,0.111,0.895,0.161s0.605,0.097,0.911,0.141
	c0.306,0.044,0.616,0.084,0.927,0.121c0.312,0.037,0.626,0.07,0.943,0.1c0.317,0.03,0.637,0.056,0.96,0.079s0.648,0.042,0.976,0.057
	c0.328,0.016,0.658,0.027,0.992,0.036c0.333,0.008,0.669,0.013,1.008,0.014c0.339,0.001,0.68-0.002,1.024-0.009
	s0.69-0.017,1.04-0.031c0.349-0.014,0.701-0.032,1.056-0.054s0.712-0.048,1.072-0.077c0.36-0.03,0.722-0.063,1.087-0.101
	s0.733-0.079,1.103-0.125c0.37-0.046,0.743-0.095,1.119-0.149c0.376-0.054,0.754-0.111,1.135-0.173
	c0.381-0.062,0.764-0.128,1.151-0.198s0.775-0.144,1.166-0.223c0.391-0.079,0.785-0.161,1.182-0.248
	c0.397-0.087,0.796-0.178,1.198-0.274s0.806-0.196,1.214-0.3s0.817-0.213,1.229-0.326c0.412-0.113,0.827-0.231,1.245-0.353
	c0.418-0.122,0.838-0.249,1.26-0.38c0.313-0.097,0.623-0.197,0.931-0.3c0.308-0.103,0.613-0.209,0.916-0.317
	c0.303-0.109,0.603-0.22,0.901-0.335c0.298-0.114,0.593-0.232,0.886-0.352c0.293-0.12,0.583-0.243,0.871-0.369
	c0.288-0.126,0.573-0.254,0.856-0.385c0.283-0.131,0.563-0.265,0.84-0.402c0.278-0.137,0.553-0.276,0.825-0.418
	c0.273-0.142,0.543-0.287,0.81-0.434c0.268-0.148,0.532-0.298,0.795-0.451c0.262-0.153,0.522-0.308,0.78-0.466
	c0.257-0.158,0.512-0.319,0.765-0.482c0.252-0.163,0.502-0.329,0.75-0.498c0.247-0.168,0.492-0.339,0.734-0.513
	s0.482-0.35,0.719-0.528c0.237-0.179,0.472-0.36,0.704-0.543c0.232-0.184,0.462-0.37,0.689-0.558
	c0.227-0.188,0.452-0.379,0.674-0.573c0.222-0.193,0.442-0.389,0.659-0.587c0.217-0.198,0.432-0.399,0.644-0.602
	c0.212-0.203,0.422-0.408,0.628-0.616c0.207-0.208,0.411-0.417,0.613-0.63c0.202-0.212,0.401-0.427,0.598-0.643
	c0.197-0.217,0.391-0.436,0.583-0.657s0.381-0.445,0.568-0.671s0.371-0.454,0.553-0.684s0.361-0.462,0.538-0.697
	s0.351-0.471,0.523-0.71c0.172-0.239,0.341-0.48,0.508-0.723s0.331-0.488,0.493-0.735c0.162-0.247,0.321-0.496,0.477-0.748
	c0.157-0.251,0.311-0.505,0.462-0.76c0.152-0.255,0.301-0.513,0.447-0.772s0.291-0.521,0.432-0.784
	c0.142-0.263,0.281-0.528,0.417-0.796s0.27-0.536,0.402-0.807c0.131-0.271,0.26-0.544,0.387-0.819s0.25-0.551,0.372-0.83
	c0.121-0.278,0.24-0.559,0.357-0.841c0.116-0.282,0.23-0.566,0.342-0.852c0.111-0.286,0.22-0.573,0.327-0.862
	c0.106-0.289,0.21-0.58,0.311-0.873c0.101-0.293,0.2-0.587,0.296-0.883c0.096-0.296,0.19-0.594,0.281-0.893
	c0.091-0.299,0.18-0.601,0.266-0.903s0.17-0.607,0.251-0.913c0.081-0.306,0.16-0.614,0.236-0.923c0.076-0.309,0.15-0.62,0.221-0.932
	c0.071-0.312,0.14-0.626,0.206-0.942c0.066-0.315,0.13-0.632,0.191-0.951s0.12-0.638,0.176-0.96c0.056-0.321,0.11-0.644,0.161-0.969
	c0.051-0.324,0.1-0.65,0.146-0.977c0.046-0.327,0.09-0.656,0.131-0.986c0.041-0.33,0.08-0.661,0.116-0.994
	c0.036-0.333,0.07-0.667,0.101-1.002c0.031-0.335,0.06-0.672,0.086-1.01c0.026-0.338,0.05-0.677,0.071-1.018
	c0.021-0.341,0.04-0.682,0.056-1.025c0.016-0.343,0.03-0.687,0.041-1.033c0.011-0.345,0.02-0.692,0.026-1.04
	c0.006-0.348,0.01-0.697,0.011-1.047c0.001-0.35-0.001-0.701-0.005-1.054c-0.004-0.352-0.011-0.706-0.02-1.061
	c-0.009-0.355-0.021-0.71-0.035-1.067c-0.014-0.357-0.031-0.715-0.05-1.074s-0.041-0.719-0.065-1.08
	c-0.024-0.361-0.051-0.723-0.08-1.086c-0.029-0.363-0.061-0.727-0.095-1.092c-0.034-0.365-0.071-0.731-0.11-1.097
	s-0.081-0.734-0.125-1.103c-0.044-0.368-0.091-0.738-0.14-1.108c-0.049-0.37-0.101-0.741-0.155-1.113
	c-0.054-0.372-0.111-0.745-0.17-1.118c-0.059-0.374-0.121-0.748-0.185-1.123c-0.064-0.375-0.131-0.751-0.2-1.128
	c-0.069-0.377-0.141-0.754-0.215-1.132c-0.074-0.378-0.151-0.757-0.23-1.136c-0.079-0.38-0.161-0.76-0.245-1.141
	s-0.171-0.762-0.26-1.145c-0.089-0.382-0.181-0.765-0.275-1.148c-0.094-0.383-0.191-0.767-0.29-1.152
	c-0.099-0.385-0.201-0.77-0.305-1.155c-0.104-0.386-0.211-0.772-0.32-1.159c-0.109-0.387-0.221-0.774-0.335-1.162
	s-0.231-0.776-0.349-1.165c-0.119-0.389-0.24-0.778-0.364-1.167s-0.25-0.78-0.379-1.17c-0.129-0.39-0.26-0.781-0.394-1.172
	c-0.134-0.391-0.27-0.783-0.409-1.175s-0.28-0.784-0.424-1.177c-0.144-0.393-0.29-0.785-0.439-1.178
	c-0.149-0.393-0.3-0.787-0.454-1.18c-0.154-0.394-0.31-0.788-0.469-1.182c-0.159-0.394-0.32-0.788-0.484-1.183
	s-0.33-0.789-0.499-1.184c-0.169-0.395-0.34-0.79-0.514-1.185c-0.174-0.395-0.35-0.791-0.529-1.186
	c-0.179-0.395-0.36-0.791-0.544-1.187c-0.184-0.396-0.37-0.791-0.559-1.187s-0.38-0.792-0.574-1.188
	c-0.194-0.396-0.39-0.792-0.589-1.188c-0.199-0.396-0.4-0.792-0.604-1.188s-0.41-0.792-0.619-1.188
	c-0.209-0.396-0.42-0.791-0.634-1.187c-0.214-0.396-0.43-0.791-0.649-1.187c-0.219-0.395-0.44-0.791-0.663-1.186
	c-0.224-0.395-0.45-0.79-0.678-1.185c-0.229-0.395-0.46-0.789-0.693-1.184c-0.234-0.394-0.47-0.789-0.708-1.183
	c-0.239-0.394-0.48-0.788-0.723-1.181s-0.49-0.787-0.738-1.18s-0.499-0.786-0.753-1.178c-0.253-0.392-0.509-0.784-0.768-1.176
	s-0.519-0.783-0.783-1.174s-0.529-0.781-0.798-1.172c-0.268-0.39-0.539-0.78-0.813-1.169c-0.273-0.389-0.549-0.778-0.827-1.167
	c-0.278-0.388-0.559-0.776-0.842-1.164c-0.283-0.387-0.569-0.774-0.857-1.161s-0.579-0.772-0.872-1.158
	c-0.293-0.385-0.589-0.77-0.887-1.154c-0.298-0.384-0.599-0.768-0.902-1.151c-0.303-0.383-0.609-0.765-0.917-1.147
	c-0.308-0.382-0.619-0.763-0.932-1.143s-0.629-0.76-0.947-1.139s-0.639-0.758-0.962-1.135s-0.648-0.755-0.976-1.131
	c0.151,0.119,0.302,0.239,0.454,0.361c0.152,0.122,0.305,0.245,0.458,0.37c0.153,0.125,0.307,0.251,0.462,0.378
	c0.155,0.128,0.31,0.256,0.466,0.387c0.156,0.13,0.312,0.262,0.47,0.395c0.157,0.133,0.315,0.268,0.473,0.403
	s0.317,0.273,0.476,0.412c0.159,0.139,0.319,0.278,0.48,0.42c0.16,0.141,0.321,0.284,0.483,0.428
	c0.161,0.144,0.323,0.289,0.486,0.436c0.162,0.146,0.325,0.294,0.489,0.443c0.163,0.149,0.327,0.299,0.492,0.451
	s0.329,0.305,0.494,0.459c0.165,0.154,0.331,0.31,0.497,0.466c0.166,0.157,0.332,0.315,0.499,0.474
	c0.167,0.159,0.334,0.32,0.501,0.481c0.167,0.162,0.335,0.324,0.503,0.488c0.168,0.164,0.337,0.329,0.505,0.496
	c0.169,0.166,0.338,0.334,0.507,0.503c0.169,0.169,0.339,0.339,0.509,0.51s0.34,0.343,0.51,0.517
	c0.17,0.173,0.341,0.348,0.512,0.524c0.171,0.176,0.342,0.352,0.513,0.53c0.171,0.178,0.343,0.357,0.514,0.537
	s0.343,0.361,0.515,0.544c0.172,0.182,0.344,0.366,0.516,0.55c0.172,0.184,0.344,0.37,0.517,0.556
	c0.172,0.187,0.345,0.374,0.518,0.563c0.173,0.189,0.345,0.378,0.518,0.569c0.173,0.191,0.346,0.382,0.518,0.575
	c0.173,0.193,0.346,0.386,0.519,0.581c0.173,0.195,0.346,0.39,0.519,0.587c0.173,0.197,0.346,0.394,0.519,0.593
	s0.346,0.398,0.519,0.599c0.173,0.201,0.346,0.402,0.518,0.605c0.173,0.202,0.345,0.406,0.518,0.61s0.345,0.41,0.517,0.616
	c0.172,0.206,0.345,0.413,0.517,0.621c0.172,0.208,0.344,0.417,0.516,0.626s0.343,0.42,0.515,0.632
	c0.171,0.211,0.343,0.424,0.514,0.637s0.342,0.427,0.513,0.642c0.171,0.215,0.341,0.431,0.511,0.647
	c0.17,0.216,0.34,0.434,0.51,0.652c0.17,0.218,0.339,0.437,0.508,0.657c0.169,0.22,0.338,0.44,0.506,0.662
	c0.168,0.221,0.337,0.443,0.505,0.666c0.168,0.223,0.335,0.446,0.503,0.671c0.167,0.224,0.334,0.449,0.5,0.675
	c0.166,0.226,0.332,0.452,0.498,0.68s0.331,0.455,0.496,0.684c0.165,0.229,0.329,0.458,0.493,0.688s0.327,0.461,0.491,0.692
	c0.163,0.231,0.326,0.464,0.488,0.696s0.324,0.466,0.485,0.7c0.161,0.234,0.322,0.469,0.482,0.704
	c0.16,0.235,0.32,0.471,0.479,0.708s0.317,0.474,0.475,0.712c0.158,0.238,0.315,0.476,0.472,0.715
	c0.157,0.239,0.313,0.478,0.468,0.719c0.155,0.24,0.31,0.481,0.464,0.722c0.154,0.241,0.308,0.483,0.461,0.725
	c0.153,0.242,0.305,0.485,0.457,0.729s0.302,0.487,0.452,0.732c0.15,0.244,0.3,0.489,0.448,0.735s0.297,0.491,0.444,0.738
	c0.147,0.246,0.294,0.493,0.439,0.741c0.146,0.247,0.291,0.495,0.435,0.743s0.287,0.497,0.43,0.746
	c0.142,0.249,0.284,0.499,0.425,0.749c0.141,0.25,0.281,0.5,0.42,0.751c0.139,0.251,0.277,0.502,0.415,0.754
	s0.274,0.504,0.409,0.756c0.136,0.252,0.27,0.505,0.404,0.758c0.134,0.253,0.267,0.507,0.398,0.761
	c0.132,0.254,0.263,0.508,0.393,0.763c0.13,0.255,0.259,0.509,0.387,0.765c0.128,0.255,0.255,0.511,0.381,0.767
	s0.251,0.512,0.375,0.768c0.124,0.256,0.247,0.513,0.369,0.77c0.122,0.257,0.243,0.514,0.362,0.772
	c0.12,0.258,0.238,0.515,0.356,0.773s0.234,0.516,0.349,0.775c0.115,0.259,0.229,0.517,0.342,0.776
	c0.113,0.259,0.225,0.518,0.335,0.778c0.111,0.259,0.22,0.519,0.328,0.779c0.108,0.26,0.215,0.52,0.321,0.78
	s0.211,0.521,0.314,0.781c0.103,0.26,0.206,0.521,0.307,0.782c0.101,0.261,0.201,0.522,0.299,0.783
	c0.098,0.261,0.195,0.522,0.291,0.784s0.19,0.523,0.283,0.784s0.185,0.523,0.276,0.785c0.091,0.262,0.18,0.524,0.267,0.785
	c0.088,0.262,0.174,0.524,0.259,0.786c0.085,0.262,0.169,0.524,0.251,0.786c0.082,0.262,0.163,0.524,0.242,0.786
	c0.079,0.262,0.157,0.524,0.234,0.787c0.076,0.262,0.152,0.524,0.225,0.787c0.074,0.262,0.146,0.524,0.216,0.787
	c0.071,0.262,0.14,0.524,0.207,0.787c0.068,0.262,0.134,0.524,0.198,0.786c0.064,0.262,0.127,0.524,0.189,0.786
	c0.061,0.262,0.121,0.524,0.179,0.786c0.058,0.262,0.115,0.524,0.17,0.785c0.055,0.262,0.108,0.523,0.16,0.785
	c0.052,0.261,0.102,0.523,0.15,0.784c0.048,0.261,0.095,0.522,0.14,0.783s0.089,0.522,0.13,0.783
	c0.042,0.261,0.082,0.521,0.12,0.782s0.075,0.521,0.11,0.781c0.035,0.26,0.068,0.52,0.099,0.78s0.061,0.519,0.089,0.778
	c0.028,0.259,0.054,0.518,0.078,0.777c0.024,0.259,0.047,0.517,0.067,0.776c0.021,0.258,0.039,0.517,0.056,0.774
	c0.017,0.258,0.032,0.516,0.045,0.773c0.013,0.257,0.024,0.514,0.034,0.771c0.009,0.257,0.017,0.513,0.022,0.77
	c0.006,0.256,0.009,0.512,0.011,0.768c0.002,0.256,0.002,0.511-0.001,0.766c-0.002,0.255-0.006,0.51-0.012,0.764
	c-0.006,0.254-0.014,0.508-0.024,0.762c-0.01,0.254-0.022,0.507-0.036,0.76c-0.014,0.253-0.03,0.505-0.049,0.758
	c-0.018,0.252-0.039,0.504-0.061,0.755s-0.047,0.502-0.073,0.753c-0.027,0.251-0.055,0.501-0.086,0.75
	c0.132-0.205,0.264-0.41,0.397-0.615s0.266-0.411,0.399-0.616c0.133-0.206,0.267-0.411,0.401-0.617s0.269-0.412,0.404-0.618
	c0.135-0.206,0.27-0.413,0.406-0.619c0.136-0.207,0.272-0.414,0.408-0.621s0.273-0.415,0.41-0.623s0.274-0.416,0.412-0.624
	c0.138-0.208,0.276-0.417,0.414-0.626c0.138-0.209,0.277-0.419,0.416-0.629s0.278-0.42,0.417-0.631
	c0.139-0.211,0.279-0.422,0.419-0.633c0.14-0.212,0.28-0.424,0.421-0.636c0.141-0.213,0.281-0.425,0.422-0.639
	c0.141-0.213,0.282-0.428,0.424-0.642c0.142-0.215,0.283-0.43,0.425-0.645c0.142-0.216,0.284-0.432,0.427-0.649
	c0.142-0.217,0.285-0.434,0.428-0.652s0.286-0.437,0.429-0.656c0.143-0.219,0.287-0.439,0.43-0.66
	c0.144-0.221,0.287-0.442,0.431-0.664s0.288-0.445,0.433-0.669c0.144-0.224,0.289-0.448,0.433-0.673
	c0.145-0.225,0.289-0.451,0.434-0.678c0.145-0.227,0.29-0.454,0.435-0.683c0.145-0.228,0.291-0.458,0.436-0.688
	s0.291-0.461,0.437-0.693s0.292-0.465,0.437-0.698c0.146-0.234,0.292-0.468,0.438-0.704s0.292-0.472,0.439-0.71
	c0.146-0.238,0.293-0.476,0.439-0.716s0.293-0.48,0.439-0.722c0.147-0.242,0.293-0.484,0.44-0.728
	c0.147-0.244,0.293-0.489,0.44-0.734c0.147-0.246,0.294-0.493,0.44-0.741c0.147-0.248,0.294-0.497,0.44-0.748
	c0.147-0.25,0.294-0.502,0.441-0.755c0.147-0.253,0.294-0.507,0.441-0.762c0.147-0.255,0.294-0.512,0.441-0.769
	c0.147-0.258,0.294-0.517,0.44-0.777c0.147-0.26,0.294-0.522,0.44-0.785c0.147-0.263,0.293-0.527,0.44-0.793
	c0.147-0.266,0.293-0.532,0.44-0.801s0.293-0.538,0.439-0.809c0.146-0.271,0.293-0.544,0.439-0.818
	c0.146-0.274,0.292-0.549,0.438-0.826c0.146-0.277,0.292-0.555,0.438-0.835c0.146-0.28,0.292-0.561,0.437-0.844
	c0.146-0.283,0.291-0.567,0.436-0.853c0.145-0.286,0.291-0.573,0.436-0.862s0.29-0.58,0.435-0.872s0.29-0.586,0.434-0.882
	c0.145-0.296,0.289-0.593,0.433-0.892s0.288-0.599,0.432-0.902s0.288-0.606,0.431-0.912c0.143-0.306,0.287-0.613,0.43-0.922
	c0.143-0.309,0.286-0.62,0.429-0.933c0.143-0.313,0.285-0.627,0.427-0.944c0.142-0.316,0.284-0.635,0.426-0.955
	c0.142-0.32,0.283-0.642,0.425-0.966c0.141-0.324,0.282-0.65,0.423-0.977c0.141-0.328,0.281-0.657,0.422-0.989
	c0.14-0.331,0.28-0.665,0.42-1c0.14-0.335,0.279-0.673,0.418-1.012c0.139-0.339,0.278-0.681,0.417-1.024
	c0.139-0.343,0.277-0.689,0.415-1.036s0.276-0.697,0.413-1.049c0.137-0.352,0.274-0.705,0.411-1.061s0.273-0.714,0.409-1.074
	c0.136-0.36,0.272-0.723,0.407-1.087c0.135-0.365,0.27-0.731,0.405-1.1s0.269-0.74,0.403-1.114c0.134-0.373,0.267-0.749,0.4-1.127
	s0.266-0.758,0.398-1.141s0.264-0.767,0.396-1.154s0.263-0.777,0.393-1.168s0.261-0.786,0.391-1.183
	c0.13-0.397,0.259-0.796,0.388-1.197c0.129-0.401,0.258-0.805,0.386-1.212c0.128-0.406,0.256-0.815,0.383-1.226
	s0.254-0.825,0.38-1.241c0.126-0.416,0.252-0.835,0.377-1.256c0.125-0.421,0.25-0.845,0.374-1.272
	c0.124-0.426,0.248-0.855,0.372-1.287c0.123-0.432,0.246-0.866,0.368-1.303s0.244-0.876,0.365-1.318s0.242-0.887,0.362-1.334
	s0.24-0.898,0.359-1.351c0.119-0.453,0.238-0.909,0.356-1.367c0.118-0.458,0.235-0.92,0.352-1.384
	c0.117-0.464,0.233-0.931,0.349-1.4c0.116-0.47,0.231-0.942,0.346-1.417c0.115-0.475,0.229-0.953,0.342-1.434
	c0.113-0.481,0.226-0.965,0.338-1.451c0.112-0.487,0.224-0.976,0.335-1.469s0.221-0.988,0.331-1.486c0.11-0.498,0.219-1,0.327-1.504
	c0.108-0.504,0.216-1.012,0.323-1.522c0.107-0.51,0.214-1.024,0.319-1.54c0.106-0.516,0.211-1.036,0.315-1.559
	s0.208-1.048,0.311-1.577c0.103-0.529,0.206-1.061,0.307-1.596c0.102-0.535,0.203-1.073,0.303-1.615
	c0.1-0.541,0.2-1.086,0.299-1.634c0.099-0.548,0.197-1.099,0.294-1.653c0.097-0.554,0.194-1.112,0.29-1.672s0.191-1.125,0.286-1.692
	s0.188-1.138,0.281-1.712c0.093-0.574,0.185-1.151,0.277-1.732c0.091-0.581,0.182-1.164,0.272-1.752
	c0.09-0.587,0.179-1.178,0.267-1.772c0.088-0.594,0.176-1.192,0.262-1.793s0.173-1.205,0.258-1.813
	c0.085-0.608,0.169-1.219,0.253-1.834s0.166-1.233,0.248-1.855s0.163-1.247,0.243-1.876c0.08-0.629,0.159-1.261,0.238-1.898
	c0.078-0.636,0.156-1.276,0.232-1.919c0.077-0.643,0.152-1.29,0.227-1.941s0.149-1.305,0.222-1.963
	c0.073-0.658,0.145-1.32,0.217-1.985c0.071-0.665,0.142-1.334,0.211-2.007c0.069-0.673,0.138-1.349,0.206-2.03
	s0.134-1.364,0.2-2.052c0.066-0.688,0.131-1.38,0.195-2.075s0.127-1.395,0.189-2.098c0.062-0.703,0.123-1.41,0.183-2.121
	C108.447-280.057,108.506-280.772,108.564-281.49z"/>
</svg>
